<mxfile host="Electron" modified="2023-04-08T06:25:55.806Z" agent="Mozilla/5.0 (X11; Linux x86_64) AppleWebKit/537.36 (KHTML, like Gecko) draw.io/21.1.2 Chrome/106.0.5249.199 Electron/21.4.3 Safari/537.36" etag="0fDAfGD4t3sWiBLNUJEl" version="21.1.2" type="device">
  <diagram name="Page-1" id="6OAtd7FtY2O5ZeqYjgDu">
    <mxGraphModel dx="2049" dy="1133" grid="1" gridSize="10" guides="1" tooltips="1" connect="1" arrows="1" fold="1" page="1" pageScale="1" pageWidth="4000" pageHeight="1600" math="0" shadow="0">
      <root>
        <mxCell id="0" />
        <mxCell id="1" parent="0" />
        <mxCell id="ulpXkjEVTFtUqnP8rz95-3" value="" style="rounded=0;whiteSpace=wrap;html=1;strokeColor=none;" vertex="1" parent="1">
          <mxGeometry x="120" y="440" width="1720" height="480" as="geometry" />
        </mxCell>
        <mxCell id="ulpXkjEVTFtUqnP8rz95-1" value="" style="shape=image;verticalLabelPosition=bottom;labelBackgroundColor=default;verticalAlign=top;aspect=fixed;imageAspect=0;image=data:image/png,iVBORw0KGgoAAAANSUhEUgAAAygAAAHCCAYAAAAEtO08AAAABHNCSVQICAgIfAhkiAAAABl0RVh0U29mdHdhcmUAZ25vbWUtc2NyZWVuc2hvdO8Dvz4AAAAwdEVYdENyZWF0aW9uIFRpbWUAU2F0dXJkYXkgMDggQXByaWwgMjAyMyAwNzoyNDozOCBBTQUy6N0AACAASURBVHic7N17WNRl/vj/5/7gmjemNCaFKN+YYHVmxHWIPgu6nwBNoTxkamnUJrqfQj6bqJWo63G1UCvLQ6K1IR1AWyPN8zGwNaDfcuizxLjqMJrT6IWghV8nrJj54fX5/TEDDGcslbFej+vyupB5z3vu+5779Hrf9/vNb+64447/RQghhBBCCCE8wP/T1QkQQgghhBBCiHoSoAghhBBCCCE8hgQoQgghhBBCCI8hAYoQQgghhBDCY0iAIoQQQgghhPAYEqAIIYQQQgghPIYEKEIIIYQQQgiPIQGKEEIIIYQQwmNIgCKEEEIIIYTwGBKgCCGEEEIIITyGd1cnQAjx04WHh3d1Eq670tLSrk6CEEIIIbqQrKAIIYQQQgghPIYEKEIIIYQQQgiP4dkBihLH+n9Xsutpdeuv/z6VwsrDpITc3GRdH2om/70S01tjUX7uqZQ41psqyZ6ibvz5qTbKzMP4j0zl8L8ruXQum8l+XZ2amyhkIus/M1F50UT6wz+7BlwbdTRP/3UOo4I7f/ys1WmkvZFG2hvLmBR6Q1PXOsVA4nuFWC5WUrgi4ue3GU/QXlvtqO+7jjQzD1NZlEqENzepT72OfZ/onFtsXLh1SF0W4ka5wQGKwsT3LFy6dKmNfxYyH2unWffWovOrwnyittWX1aFaNLZyjBU/NX1qDFPWc/TUpY47mO4GJr++i8JTlVyqtFD60SLi/Ns41tvAos+b5fWcicLdq5g8qP5TaslfP4WkNZ9g/6nJrxdoQKe2Yj5hg6tlbH4+niWHbD/3rDeet5aEuYn4/yOJ8N9NYUt1VyfoZlGISVrEJLYR/7swZh762TXgmqjujWZcZC+41Nl3VJK/8yN2HYd+v1Vxpa321m0ws958m1lRquuU0kbKyBksirWx4SE9Q18q+flt5mfSvnCYoysift5JmrXVJufsoO+7fhQMoRr4qhxz3fXoU11+n0rhgRQ0rb748/q+5mXvH5tC5pFSLJXOfvZoVgoxDRc71MTMTOfwlxYqL17C8uVh1j+l/fVNJm+lceGWch3HcSFEEzc4QLGTkzqOYUOHMWzoMJKyrXAyg6mu/w8b+hBz97XdrBVDGJo6M8aTrR2joA3Vwplyyn5Kz9A9hpTdR/loahB427EajW13MN5aEt/bTWq4mQ0JQwl/cC45vWeQtqSNoKa7AUOQnbylwxgyeAhDBg9h2B8Xs5dHWL81jbFqADvWwhzyTv38bk0J1aGtK6fsJFB3kZJDeZg9fbLvDXSPJFJrI3//J1ht11gOt/TjHQKIuC8A69E95F20Y6+7hrf+7HyrGDhoICrLcUqvdPItttOUFhRxSdULzh7neBvvU+kGMzjYQbXF8XMT2YIh0oDPyT1sL7Vh7+qZgLeWSQ8buFBu/nnncW+rzc7Zft93HXlr0GrVWE8asf3cPrWBQszEh+lZYaaq1dd/Rt/XvJx+v4iP3puG+ugKpg4fwrD/2sSFyEW8MTcGBdA8nU7mPC3l66cy9P5hzNoNY19PZ86gn5G9W403t864cMtppy7f0mOUEF3vhm/xsp0xYjxmxHisip69A7CdyOeTY/W/sxIQv57DXzivblWeKiV7SRz1CxOa/lrU5230XrCLUksll86ZOLxirOt1H8K0AVSZj2ED8NYQNzeTo/+2UFlZiaVoF6njWr9+B0BIED6HniMmYR+XfaooO9n6UAqgHjOHORFlvP7neWwpNGM9tp0VmUWo/xDN4FYiFGWADq23lWMFRsynzJhPmTHmb2fF4s2Y/WOIi1BQoldRWrmL5L5A98lknyslfe4iso8UUmqyYPk8k8SG1RYF7bhUsj83UVlZSaWpkOwFbuU0QIvPGTNmO2jnHqXy80UYvHF+xrlsFj29nsNFJiznKindvYiY+lX+ayozDckHKjm6LoVVO45S+qUFi+ko6+Mbj1eHT2bVjkIs5yqptJg4uimZCNdnKdGrKLVks+iFbEotJt6Zt5pS03riuvsz+b2vOfpiBATFsSjrKKZzrlWqT9Y3rjgpY0k/ZSJ9wSJ2/buS0uUx3B69itJzu0h9IZOjX5iwWErZNTcGTXQKmZ+VYrFYKHwvEW39QOGtYeKKXRSaKrl0yXk1ddVj9elXk7ijksJ1ySzKOkqpyULlqULSn9I25i86mcwjJlddLSR7bgzqTuS9ie4TSTcVsuj3CtqkPVTuTkajaJm4IptCU6Xze/hiF6vGNU9XCquOmKg8nNKYn05RETT8aZa98R7vvZfGsoQRDA7tRdWJUqqu1n9EKKOSlvH62+/xwXtvs/LZEQR4NTuNVwChob245P4+l6Axc1i5fCXLno0mgACGzFjp/H9COCpXGvrFPc2c5a/zdsYHfPDe27w+exyhPTqTfn8SP6rk8LNalHsXU3gqk8lqNYanXf1GK+1BO/colZ+kkrypEItlF4n+rjJMS2HV7kJMpyqxfLaeif21TFx3mMJ/W6g0HSY1tvELUw9JJr3+qnylicKsZGe7UeJY/2UhKeEKca+aKHwlpslFCuXhdCynMplY/8v+KRyuvEThEkP9EcStK8WSNZH/qG+r3Vues39/LeqzVtTTs12rtiYOvzKWthZt6RvHor8XYjrnWkXYlIihe/0X1E678tKhC6ql3FxOiz7VL4bktMOUnqqkstJC6QG399FWe1AzOcvEriQN/uPS+fqTlvW1Sd9X365fcJa36VQlli+ySQ5vrWNtWU7+PS6QszSJqanbyTtpxpibQc4JOz17+wNqNGobe1NnMevdPMynjOxdtZniOh3a0E6soXQ3MHndLlf+K6k0HSVzZoSzzasnk32u6fZMJT6TSlM6cUp939vZvuk61k9a9rXpY5Qm44J/7CIyP3OOB5WVFkp3r2Ji/Za+ax1Hm38//265U6LwRVfd70z/3mY9aH8MbDdP7erEuNZRWTevy25jlBIyltSPCjFZXH17UTaLRrbZioUQbm7ePSiKHoMWzCfcVirC55D+ajRVb45Df3cfhszMQTN9FXOGKYCCLlSD0jcCQ8Uaxt+rZ8j8IjTTXmJOtAJKGNoQsJ4wYUdNzPJs0kZeYEPCvdxzt55x79uZtO4NEoPaSM+xLax4Kw9bqAF9nRXzsbau5qkZ+1gcytEtbDnV+Nva723U9vBpdQXFJ3QQAbXllDW7wKp0V6NwGdtlO+oBWgIumDlWDYRo6K1oiAm/zIpHhxD+u4d43fYgqQsmoQb8H0sj+9VBGF9+BP3d9xA2bS89k9J47TE19Vs0as+UU17n+tlcTnkd+ARrCPCOJEabQ1KMnuChy7HeN4PkcWq41jJTNOiCFHR/0FH8l4cIv1fP49kw6cVFjFWA/omkb01Bkz+PYfo+3DN0LsWhi0lf4pzA+fTXEOCtJeLOLYz/nZ5nVqbw0NI87GczGH9PH4at6kbq1iwSvLeR8B/30Ev/EBurHuS1DXMweANBWrRqhYhBsGb4PYTPz+M3wRoCvPUM8nmHcb/XMzjVyuBZb5A+pZYNj4QT/OAGbCOTSYxyfkuaaW+Q9jhsmxZGn7v1TM2GhFdeYmJ3QNGiDVLQREVy+c1xhOvvJX63wsRZCUS48pf57kzUuTMZ+js9Qxcb0c5exZwhSod5b+L77SRN2IDRbmT1g33oM24bhnXZpMXa2DBJT5+79Tz+AUza4PoelDC0QQq9I3RY/zKYPiNWY+70iouKfvErSXsuGkfRFt7dXAgjZzGu3xVOHTvtPCRoFMvSXmZyUBX52e/ytz2n6DNmDnPG9Gp6qh7hDAy6wvEvT9N8fcRRVUr+P0u5ourFlWNHOFCQT/4/8znyP1bnsaqBxEQF4TiRz0fvr+dv24+jDJ3F3D925maWi2QkxJNx1k7e4jD69J9K/rh0PnrRQFnqQ9zT5x7CZuTQe3pje9BpNRAUie7oFPT9x5Nhc32392konjMU/b3xbOs+meVbUon8RxJDf3cvSf/QkDh9knPC0z2O1L8txnBiBQ/p+xAcsxijYTEvTTeAPYe587dj+z6HJH0fhszPa7ryarvMZR8ffLwBFCKemYR/hRWle09nXfCbxOQxsG3TJwTXt9Xvm5+ziOBQDYp/DDHeW5gyNIxhq0xop85gUqttM4JFm9OZyGaShurRT0jjQnQqryVpoXtM++1Ka0Dbw4rZaG/apyoGUramk+CzjaSh99Cn30OsqIjmtXWu97XZHmrZ8sIScr6/yJY/3kOfB1vW1yZ9X5AWrVpNTHRPtiWEo//dQ2TYYpiZ9GDLttNK2Z87msGKd/OcAZXijyE+lcnhVez9OAc7NvLWJjEr3dh4Dq0OjXc55hMdr95onn6N16LO8teH7qFPn3sYssiIbtYiJoeAMsCA1ttKmbHxPIZQHZwpw2yv73s72Tcp17F+0rKvTdpN47jgFcfidYmo9yVwb3Af+vzucbbwCIumx6H8lHG02fcz695e9OnThz599MS/a8Z+fi8bMo0d18MO6kG7Y6DSXp460NG41kFZt6zL7mNUGZOWr2dSXQaP3NuHPveEkZTbm8S505x5FkK06+Y1k96D0PnZKHdfqShdwdCwDXDRhh2w5RdTXjeJ3n6AtwaDVs3FQ7OYleYagLbvpWj5g2j7+8BXg9D2rsJ80gb9E1kUX8vmR+ax/Zjz1MasbRQtXE6kQSHjbNuDUcAgHerzxZS1tTVXiSQy0ofilTm4H6LuFYDPlQtcbvkGwgwaOLMFt7EL9YCxzHlpEgEnM9hzTEE/WQNn9lFmByVUi86ex5L5GzHaAMzkl1ghVofGJ4JJs+OwrhnGin1W58nyN7Hn5AwS7tPCbjs6rQ/WXUbs3jp0IT5YDxmxozA4VItydguLl+7FagcqzJy1QZAP0H/ytZWZn/P7+2TpXLa7lrON+UZsSTqCeivEzZpDWP5iBq91fVff72VLrpWEP0QQQBEarRblQg5rXnKlBQV9aGMZ+E+dTaL/J8ydsJGSi84y2Jz1CXM2RxDtD+WhOjRXrWS8vIK8i65yDtXCmc389TXnZyrVF6n17sYnqzZSYgO4wGW6uSaLYN0UT9hHcLHamf6iknJss4Lo6QMQhjbQRt5f5rKx0PlNm766iD1WoRvO/A0+kcaQl3OwAny8gnlKNPbzEDe3vbznYW1eQ0K1aK6YMZqBQdNIGd+NbQkz2eIKkkvSt5A3O43oPyhk5GrRBtopW7qCjV9c4/7xoHE8l6Dh+Ib/ZuWhS4CK6tDRRI+0UnrMAV5BPDX3z/QvX8/MFUdct6Qcp1fUCCb364+KooZgRDVoIAM5xd+Otdy+VfU/RzjYLZrwZxwc376Fg/ub7QFzlPLuUve/bXKKgOGjeLyHggpaBDwt+Lm1dSWG5FkxXH73Eebtdl4BuJibxrZjicyMjkTZbUUbosaWv4klH5idwYPa+d1+8vwSZ931ruKCzQ4nMliy24odhapLP4JGoRvA9znMHRqGT+1FbHbAlkfZeYjwcwYZzhXLHMzft0yqveoCNm8tPt0B7weZFlvF9v0wsZcrSP5jAjGWLTxUcg+Tlte3VdC6n9PV99n+OZeZqXu5CJB/jAvzovFpZcblP3EOiUF5zH18I3nVwJmNrPiLHe2Fy/g/taqDduWqi2ealrP/xDRm9NrD1LEZlNid79ubnc/yzQYMikLvNtuDHSXUgNbbRF6rQUDTdq+E6tBcNbLhLyvIOQ9QTnkFKK1ltK2yV2JYVZRNYpCC7dgWVjz5EBmFrbQV/zhSX58M2UlsONbq6ZtQ91TD1Vpsrv7C+vEshnzsOtUwLQHV5ZgvNByNboAGm9lMlavv7XTf1ON61k+FsOZ9rfu44G1A3R3s1ReprQOqS1g9Ts9qgP7JP3kcbVAH9jrQJqWT/lgtG6bMYssZ8E/qTP/eRj3wjmBme2PgIXXbeepIu+MacLb9sm5Zl93HqADUPX2g4gKXbQAXyVk0jM4+m0SIX7ubFqAohjC0mNjjNmvXjFzEomfHEqHrTU8vwNsHtVLOarMdFAPaIBt5az5pDAy8nVcmbd/XooTq0NeZ2X7Cjv9jcRjUBiI+u0RKk0+1ktHunE7BEKqFrza3fVXaT4tObaX4hK3J+8JCNXB2G+YWfXYAg7QalPBFfHZuTsPxipcNa8EWkv68ghK7P8naAKqMZdTiuvJ2bDM5ZxvP31NRoPYytfoHie6vxvBKKZdeafpJxnybq5xqMZ+0gjLW+fMxK6BGOyAA6z9yGgMltYYgvyrM5lr8H7i2MlMMOjS1xWzOdXuxuw8KP2KvG8zYaH/8g9KxPJbe5H32ozYuoyZuQADWgn0UNZSXmkENZaAmLmowlMxl78Xmn9wNAF2oFh9zDntPNr5fOyCAqvx8yl3fnUbrPCbH4jqkvw4NVorP2AF/Yp5dzOyJ0ej7uq5m+6hRX9iC+Qoof9CiqStj46H6BCjof+sPVjMmBrM4Wo3xnX2NwUadlZwsKygxrG837y3pQnX4nN1G+VXQDItBZ/uEFfmtD/7KIC0aiti4r3mY07HQkaPpdymfhZ823g3v202Fw3X/ieo/Hme8Di5VDeTxZwei8gJQERSo4tKxarfAQUW/eweiOnugnftPwhnY7TQHvmzlAHUoo+LHM2KQBj91D1RAj7vg1GfWjoMTaNLWCY0jJtBKzt6Slgd6AYoBQ4iNojf3NvQbyiDXd/sP129c25qK3qxf/fBBFxyAzXqWKkAZMJHFC6YRd5+W3s6Kgo8fFO0yYW9YsTQ21LsmLtm4XNcTtRo0DzxDxLEtrLBOIjFYDd4RJD6hIW99BmavOLe22uyc3V1933pXcAIomiB611qxnm9ROsTERuJTsoQct/sLjLszMKJm4vSO2lVjXWwsZ4h5OhJ1SBy7KhObvs22F5vXYMa21R4A/5FuV5VbcG/3oAnV4nNiL3vr26y3Dp0GrIfMrdwT2EbZ28vYmPAI+0IieWbhHJKfymFPYWPZgYLm4cW8sXwS3Q7NIn5x04tNbTG+s4LNw9aT/WUcRYe2sz1zE1sKL9IQZH21r/FeHSUMQwiYcsuwX2PfdH3rp6vfd+9rFW1jXfveyoY1k0hfUUjZU3ns2bWFjHf3Yv6eax4T2uL/8GtkLdGQN2c8K/JtgJqYDvr3duvBgLHtj4Hf720zTx1pd1z7vuOydq/LLccoK1tWbeCRv6VT9qWRT/Zv4523N5PXmUBPCHHztnhpBmnxcR+0wheR+V4imi+WED84mOD+wdy7NA+7zeq8mqfVofMxU+6+9WqADo23lbNmOwEDdKjPmym3KWhCNJA/D32vXvRq8i+ceW1M/ADw1mHQ+lB+0tj2gOXXEwUbl92feKQMJu4Paoz/zGv5PsVAWIgd49rxPPTgQzz04EMMHR6OPjiY8EeXsPcMoIShCwHzCTP2+itvX7nfUKpGqw2g9qyVqv+jQfP9XpLubp63Xgx72QwDwtB5myk/YXf+7OP6WQnD8FswnyhrGOgVgwE9VswnuOYyqy9vo1unrwl1fqfm/y+I3r2tbHm0T4s09nk0A5srLVZjY1qalIF3bzSBUGUpx/2ZRer+Qaht5ZirFbQDNNSa3SYmLfLn3Nrjfow6VIum2vlEIk1SOpnzDJjXT2XwgGCC++uZte8i9jNGTPb6pfpjbitpagb1D6DqlBmbj5ag3rVYLa3cp+TTQd5bvEGNwXWl1VqnoAn0h7NWzO73dYTo0HlbOfuVaytghfnab271CiL83gCuHCviuKPxdwN1PVz3n6joFxlOr0unOF51BYfjCld+vMKVHy9xIucDPio47XauAMLbuP+kXsC9A+lVdZzS5kWkjmbOOucWsiN//xuvrVjKir8fx8FZThzr3GPEGts6KEG96Y2Vcrftlihh6ILAajZjD9Gh87FidLsQ0uK7DXFua2o4RtFi0IL1hBF79xhSt6YxyXsP80brCe4fTPBDr2O0u1ZwvHXOFcsT5a0/VOPKZWy1PvioDUyO15CTuZcqWy349EQdm8DDyh7e2WVr2labn1PbMg+6UB0+Z4xNVmUB8NagCfKh6mzTtuN8raN2pcbQv74uupXz985zGl8b1qJO9wqeyt7ftNMeUAgL1YPZ2PqN9k36PsWtLdS/7pxMW0+Ut3xvm2Vvw3qshLzdG5m1vpiA8ZN5sP7+m+4GJr/1GYeXD6Jk8UM8Mn9v42d15Pxe5o24l6HTNnLMJ47UnXlkxmsANYNCA6g6aW5s32ot2sAqzGbbNfdN17V+ttbXutc17JSkxTPkPx5h8b4LaJ9J57M9i4hQfsY46kYZlEz62rHY3kxyPhQHOlEP268HiqaDMbDNPHWc3nbHtf/tuKzd63KLMQqwHV3BQ/8xhPjX8rBHzCH7SDbJAzpVlEL86t2kAEXBoNU0GbQ0UTHoruSwYVUOZhuAmrgHIlHOGim3gzrUgMYL55KtizYuGs2FPHJOuD8a0w52O3RT081tPch/UASajjooRYs2pBarsZXBsJ7tMnbUzi0bLuqRk3mkdxF7Pm7lKT5BWrTqKoz5Ra4HARgxn7Ry0f1qjvtjgZUwDCHNEur3IHHhUJafh72uFru3T8M2JQBCDBhc99m5Pxa0ySNCe2vR+bk+wyVggA51hZky27WWmXOlSXEfXrw1xEXrqC3Jp+gHoK4bPu43PXfXEjHIdSeh65Gpx9wfmepeBnV2aq8CSje3E2h4JG4wtfk5FF/VEfZbn6b3LzXPnyvYtJrLGyYFYaFa+KqcMrtC9LDB+PwzgxUfG7HVAd0HE/0Hf6rMZdgaJlXljStiShi634LZWIad2haTUc1ji0iNN6DUdZD3FkWpRfdb12QDOz/a7aA0vZdJ+3Ccs54fc6XrTBuTvfZ49aFPLxWXqirdtmmNZkRQ4/0nfXr1wHE2n3ffebfFvyNu8QndBjIwyMGpEy3vP3HqQXhoEFfKj3O6+Q30j0xmBAdZ8dK7HPxnKSfKq/ANHUivS8cp7dSjbJs+Bhd7LXaUJludlMg4ov3Kycu1ojYY0NjMmN1WI5t/t/Vb7BqO6RGGtncV5ceqYEAcMb2r2LY+o+FKpyY2GgNmjCfszslikM25Ytmqi1ywKfSOTmQi29lS4Gxr9h69SZjyIBc/yCDP3qytNjunOrR5HtQtJ3DtGTSZ1Llj0dBBu0KLrn7i617Otc73qXsobvVSjeH39Y/nbac9EOB8Ktip8tYv+ri3e29nu7aa3dq1NswZnLW2PaxJOSlEzN3F0bcm4t7SFAWoq3X2VP5xpO75iBSfDBKGjmfFPus1PQpW6a4ANsy5GSz5r4dI2g4PPhaNWtGj6QsXraaG8/k/HEcYrnsZr7Fvuq71s5W+tmldU1C8wX6+hO1rZzH+keUYQycyKZyfPo7W6zuW195bjCZ3Lgkvuz0KvJP9e5v1oIMxsO08dTgBaH9cC+mgrFupy03GKBRnffzeSt4HK0ganUDGpcE8MlKLEKJjNydA8dYRpvXBerJx0Lp86TL00KDVKuDtT8yzqUwL98FeYcVaB9pQDXyv4ZHpcWgUUP8+mVVTdRgzt5B31f3RmGDML6Zq0CRSxmhQvJ1P+9i8I52UB1qfJCp9NWj7a9E+EInB28pZmwZtfw3+3QHUxLywnvVJrj8Gdz6fvBMaJs5OJCJEg+HhRWSuiKPqzRVknGnl3AYDGqwY27zpHpRBOrS1rscCq533GCiRk0kIV0N3LROXpxBj28bGjy9iL8mjqDaGxNlx+CugHjSZ9Zt3k54c4dxv3PBYUPefcT2m1P1Ks4LWFSSa7ddYZt4aDCFq7P5xJD6mRfFWY3h6FTPDrWx55xPs9nzy/qUm7ukZRPiB4h9B4oZsPnp1MlpvGh6ZWu72yNQmZYCV/H+UEzDyGRIGKKD4EzFzFXPCjWxYvxeba8uL+/1LiiEMTcP7cV1xc584urZZnHI+kehCtQ1FYyBMDfgZmLwkmRi1nYtWK3YCMOiaTaoC3SYZ3xdTfMKHmD8mYOjrj3bkIt54JRFtd1uHeW+hRxjavo15Mf4jjyrtWGaM0aCgoIldRNrTGvLWbCTP7krXyTYme+25WsOVHyGg30B6AaqgEcyaMYoAxynn/Sc4sFZUoeoXzah+ruhK1Yt+UeMYdW+zx2t164Gvl4oedwXRq1cPenRr9lleAfTppQKVih5N/gSKCk1QAKr6oMWrF+F/XMiskQFcKS9tXNlpj3fTtm4vySHPNpjJzznbg9J/LKnLJ8Gu1Ww46eo3zpa5rTTUl2HjKqkuVIePpbzhGGWQFo23azJ0qQobPdGGBgCKcxtqvB6l+gIXrgB9NfT0/pFanPveW5b7ZWzfdyP6qQexbt+CsQ64cpkf+05ksqGITVlmoGlbbX5ObagGzrjlQXEPJJqps1JSUkVA7DTGDvDHf9BEVq1LZZIWLtd10K56hKHt7aqLTcrZSn6+lYBxM5g0SA2Khpi5mXy0ZRGT+tJ+e1D8CfAH6sBf3XKC2KTdt9KunZNp9+DMTZNysmMuPYt6/HIyl0wkor8GQ2wyr82KwXZoOzl1BlLeT2fShTSSVuZh89c6+/wQDa0kqwX1uHTKPk8nMdzZHyohDxJ3n5qqM2ep5UfsdQr+v9WjxvmUp9emxzgv/ly51r7p+tbPln2tW127aiDlgInDL8ah6Q54q4kYE4Om1ozxrP2ax9EmukeQkrGesRdfJ2n+XmyKa3LuDT+lf3evB+2Ogd7t56ldHY1rHZV1u3VZIeaVQso+SiGmr/OhP/5RDxLpb8N6ygpKBInr1pMy7Ff3F3mE6LSbE6B0d94nUX6i8Wkqtu0rWHJIzYwDJkyFm5l8dTOLM43Uxr3GnheGETZAgzV7Mdv8FnH4dCWmbYnwcRJJaUZQdBiCail3bQOw5y7huZXlGF4tpPLc1xxeMojy1KnMbe2PUnkbmLOtlMKiQgqzEtEoBpJ3FFJYdJjlDzifDvbw1ElE9rY7JwN1Rl6fs4SSkEXsKSxl9/I4Lr4zlcdfbv2PxTn3dB9rnxcY1QAAIABJREFU+6Z7XEvIZ52PBVZCDWjq8nh91Vkefs9E5enPWK4tYcl/zSXHBlRvZ+7MDVwYmU7ZuUpM22bQ++gs4leWOPcbNzwW1P1n582k6rPGxqVr7/pJuGuidy1lphjQhlxk72sZkLSHr8+Z2D29J3uen8LyQjvUWdk4ZybbvCbz0b8v8XXRZiZ7bScpcSPmuvq0tLKM7ioDAOOaJObmBpB84Gsqvy4ifayNtCkJrD5GwxNzyt2uqtafs2HFw3XFreGpOooeg6Z+BcROztrFbLnyCNlfmijdkULvQyvYkG/DMG8PqXH3oQumSf1UQt0CvDozG+YsIS9wDoe/NPHZurHY0qcy811rh3lvUZShWrTepobtG/ajK0haasTwaiFfV37N0VciKH/5cZKyrKAYWqSr066e4MDOIhx/mMMHu3ezbdUoenx/peH+E4DT299l2zkNf357G7t37Gb37g9Y/Uw4PX5sdh/JpXx2fVpF/2feZtu23aye2OyRPlfPUvRZKY7/WMi2g0c4smMh0d0AHBwvKKIqcBKrt+1m9463eTqgisorDk59ebxT9580b+tU72Xxn1/nwrB0yr6u5Ou9i9D8cy7xz+/Fhhpdfw22crftkooBXbDb+11bMWzlxoZj6rfRldmAM1tYsaYY7ZJCLP/+jPSRVjakbsOsnkTae4lozpaQd6InkzcVsX58KxO3uiouX/ZHoy5iy0fOCan9ih17Xw3se4e91UCztkqTc96Nrr+GKvOxxjz0CGNQ72YPGGlgJ++153jdbOC1T02YDiwn0ryChDnOe3DabVfudbFZORvXJLEkP4DFB0xUfn2UN+IukvanWWw5T/vtwW6m+KgVzbN7OPxiy6fYNen76tt1YyTm+jssZS23srUoJzW23LnEz9kD415jz+elHN6QgDp3Lo/P2UvtA4lMG6LGf2Qqh4sKnf19USGFhdnM6MQFbNv+11mcqyb5I+djbb8+sAhtyRKmpuZht5ewef127OOy+dJUyu7pPhQXWLG7HvV+TX3Tda6ff2jR17rVtTojGcs2YI1Ko/B0JZWWL9n8RC2bn53HlvPXOCY0ozwwjRlD1KiHLOKw65G6lZWXKFxgaKhPHfbvbdWD9sbADvLUfqI7GNc6KuvW6nLDGGUnb/08Ntsnkfk/X1NZ+TVFr8dgXZPk/NtvIQ8yOf5BNPI0LyHa9Js77rjjf7s6Eb9m/s8epuxPxTxy/xJKruUP9t1M4YsoPBDD5vsfYmMrq0ai64SHh7f7uuqufvS7y8HZ02e50kZE0COwH0F3qLhy4TRnv7n+f2RR1SuIfgEqLlWcpcrW8flLS0s7PEYIIX4WGdeE8GgSv3cp19PAvtrk3AriodShBjTV5Zg7dc+A8CSOb05z4pv2j7lScZoTN/C7dVw6y4nO3Q8vxA1neCqVxFb/iipALdZDr7P6UIvHTf1qKUMSSX3CgE8br9eWb2fJW3nXdH/PDecfR8q8sW2vUNQW8+FxGdeE8GQSoHSl+m1X+a09UtNTuJbbv8q79hu1hRDCwxg/WMKsD7o6FbcOe2EG8wq7OhXX6GIOq+fktHOAQsSKFBnXhPBgssVLiFtYR1u8bkWyxUsIIYT4dZMARQghhBBCCOExbtofahRCCCGEEEKIjkiAIoQQQgghhPAYEqAIIYQQQgghPIYEKEIIIYQQQgiPIQGKEEIIIYQQwmNIgCKEEEIIIYTwGBKgCCGEEEIIITyGBChCCCGEEEIIjyEBihBCCCGEEMJjSIAihBBCCCGE8BgSoAghhBBCCCE8hgQoQgghhBBCCI8hAYoQQgghhBDCY0iAIoQQQgghhPAYEqAIIYQQQgghPIYEKEIIIYQQQgiPIQGKEEIIIYQQwmNIgCKEEEIIIYTwGBKgCCGEEEIIITyGBChCCCGEEEIIjyEBihBCCCGEEMJjSIAihBBCCCGE8BgSoAghhBBCCCE8hgQoQgghhBBCCI8hAYoQQoguERiXSPLI4LZfn5pJaWkuS4eqbmKqfk38iEpazdb9eRR9UUppUR77slYSP8i3qxP2E/gRn15KaWkppR8kEuzl+rVXMIlZrt+/Fc+tmDN3+ulbKS3NY/XIX0abCJyURl5pEVtn6qnPkX76VopK80h/MhDVkPnsKy1l38JIboUcd5SfX1p+byQJUIQQQtx8XnrGJyUzISqkzYH4m8838eKy1ew0OW5q0n4tfMctZOWzw7mr4gAbXn2FNVvLQDeK+S9Nw3Crzo6uAv2iiert+v+dkUTqXL8XHqdixxo2lYJ+0mzi7wH6xpP8hB5OZLPm44quTt416yg/v7T83kjeXZ0AIYQQt5bgpK3sSFLITitgQEI8elUFBWmvcCAomQWP61GdP8KaFxay62vAL5LEhfN5IioYX3sFZdteYcHbDqbtfJv4vkC/1ynql8ETa31Z/bd4qj/M4LsHphB4aBoz/+80lj4fyK7nj2C8AMEjZ7Ng+mjC+irYz5exa92LrPlUBvWfKrhfML5UsytzDZs/dwA7KTHFE0Y51bfqhP6CBcudeqLv92Pztmp8748irM6C5dtg2l6rE13mqoXs17MY/V4iU6fHU+OYRtRtFWSnbcLk4NZbReggP/ALy+8NJCsoQgghromjzgFegYweqmJnWjYmr2CGP7+SKbcdYPWWMrhnFInxkajwZdSclSQPVVG88r9Jed+CfuoyUoaeI3vlZkxXoebzNfz3S7uw/ODAcRX0I6NwHNpA1ufNAo9+U1j2YjxhNQd4ecHLHPghjIRl84nv3XoaRccsRhPV+DF6ySZWpiQwfmgI33y6mexDxVTcqgHKVROmctBHReOLiqghYfCVCdOtmp9fAceJTaz9yIJf3HyWjvGjOmcjGwtv3VXTjvLzS8vvjSIBihBCiGvjmuyV7dvIrt2Z5JYDyhly07M5+P4ByhxwV9++oIokeogfnD7Ipn3FFGzZRcFlP6KGh1Jh+oYawHH5PF+eqKB+eLaXZLFg3WZ2lVQ3+cjg4SMwqBwUf7SRXTm7WDN/JgtX7uJk3c3M+C9LTc7LzF65i7KaQEZMns3SdVvJzd1B2tORt/C9Gt9RXHIGX0M0kT0jibzPlzMlxXzX1ckS7XDwZWEZzksSNZwsKaami1P083SUn19afm8MCVCEEEL8BDV8W20Haqj5Afihhm//L2C347CDygtQ7uROX0CXyIf/bxFF+SsZ5Qe+vftyVxtn/fZ8Y7DSSMVdd/g6P/NbOwCOr4s5eOgIxuoWB4tOq8G47UWSJsUSHfskM5dlUFATTNT0F5ii6+q0/XTnC0qw+IYR9WgUET0tlBSc7+okifao9EybPprAyxYsl32J+tM0om7r6kT9DB3l55eW3xtEAhQhhBA3hv1bvq0ByjeTMmUqU6dM5cknnuTJpbv45ppO5OCb/1sD+HLnnQoAqtBRJD6dwIh7rnuqfyX8iHp6KSuXJ2BQgaPaRMHujazZbQKvQAIDb93d8LXlBRSf9yP68VgCzxdTUF7b1UkS7Qh+fDZTQsH4fgop6SXU3D2B5D/pb9n7MTrKzy8tvzeK3CQvhBDixnAUk19Sw6ihUYw2FHPAEcWUyZHU7E4hZZ8DroKfLorR91dwpIM9OJbPCjA9oyfyydnE28sITlhA/N1lvHJo883Jyy9ODQREMGrMeCL7hnCgsILvbgsh+mE91BRQdis/Oa3uSwpKqol/1I/qHQV8WQfDuzpN15VC8PBpJIe4/aoin027ja2sPnq43uOZ/UwEnN7M6q0WLKwhe1wmiU/MZsLeJHa6DrtdP4pp0yMa31d3hiPvHPS8e4s6yE+24xeW3xtIAhQhhBA3SA0HX11IyG2ziZ+TxiiqMX2WyYbdFvjBwYHPKggbPp7Z/12BaU0HpyrfxMKVvixLGs385aOpOVfM5mWvkC27d34iBwXrZrLw6mymxY0mIVwFjhoqyj9l49srb/FydVD8eTE1j0ZR/HkxDvRdnaDrTEVwXCKJ7r8q/Y4Pdxu5tXY8+jJi5gyielawa9kmjA4AE1lpBxj1xnimzRxF3g7XkYPGkzjI7a0/fMqZLQcx/dAFyW5TR/l5FLtj+i8ovzfWb+64447/7epECCGEEEIIIQTIPShCCCGEEEIIDyIBihBCCCGEEMJjSIAihBBCCCGE8BgSoAghhBBCCCE8hgQoQgghhBBCCI8hAYoQQgghhBDCY0iAIoQQQgghhPAYEqAIIYQQQgghPIb8JXkhhLhOxo8f39VJEEIIIVq1a9eurk5Cp8lfkhdCCCGEEEJ4DNniJYQQQgghhPAYEqAIIYQQQgghPIYEKEIIIYQQQgiPIQGKEEIIIYQQwmNIgCKEEEIIIYTwGBKgCCGEEEIIITyGBChCCCGEEEIIjyEBihBC/GKpiHx+K1uXROHrG0/6F6XkrR6Fb7NjRrycS+kX6cT7+hK1ZCtbn49E1UUpFtdKhf7RpWQeKqKoqIjcbatJCPdt/bgnV7J1fy65h3LZ98FK4ge5vmVVMKOWZLIvr4iivFwyF44i0OumZgIA34hE0vYXkbt8RGP98wom+cNSSr9o/FeUu5IRzStom8epGLUqr8nvS78opXTnbAxdkEe89CRmFVH0xni3NuaLftJKdnxeRNq4tlueb0QiadvyKCoqIs/te1aNXE1eqXv+ishMCr7hWWmi9whmv7WPvM+LKMrdyspH9Q35U+niWflBLnmfF5G3J53k+/3aP1ff8aT9o4jMqYEtXvIdvpLcL3Ywe9D1z0JHWq2fgN/9yaTtdH0vhzJZ+miw6/XOtk23z+jC/HkaCVCEEOJmu0kTI9Wgabww3MTGdQXUAPYfqnHoYxnR0+0g32hGDFRRYweooWBdBqbhLzBjkIQotwTdFJY+r6csdTTR/zmaZYV9mTFnCsHN65huGkuTAjny3GhiR45m5pFAkudPQ+8FgY8vY8F9Z1j7VDTRT7zMmfAU5j/awSTyOlPdP5/MeQOoOP1N0xe8fPFVLGyeNpjw34cT/vtwBscu5IiDTh7n4OC8mIbfhf9+MP+9zYLps1xMV29a9hoEPzmb0f41TX5nmL6BlcO/w3S+nTfeFsXsZVNQDs4g9j9jmbHPl6l/TSZSBcptKpTPX2SwWx6npltubEaa8GXUvKWM/iGDqXHRjF5cQvDMBUzpB3gFM2VRMoGFCxkTE82Tb37LqCUpjGhznu7HqOenMOCqvZWPiSL52UioafnSjdZm/bxtBClLJsDfk4j9z2ieXFdBxPMLmNCbzrfNel2YP08kAYoQQtxwvsS/lUf6wvlszc1lZZwK+o5g9ls7yD20j9xD+8j8yygCu0WxdP8OZoe63vVoGkVF6cS75orB07eSuyyKHrp4Vn64j9xDueTm7iM9ZQQtp5O+jEiYAPuyKHANeApnKDsdxojhjUf73j8aQ0VZ42St5ghZh2B0wgjav9YnPILdxK5VL7Pp82ocV6sp+LSECr9AQppNglSBgdz1bRnFFgfgwFJSxre9Awn0UhEREUxFThZHzjlwnD/Cht0VhA2Nvrnf/4UDLJu2gAOW5pHH7Sjd7Nhrmv++uU4ep5tC8v0mMt430tEZr7u+45n9mJ2dO07iPv2u+edqpj23mZPtTUzviSTsthKyPzRSc7UG49Ys8lWRDB+o4nbf27H/0MqE/mZRhRE58DtyPzyA5QcH1YWbyPpXMNHDg6HvCKLvLuHD94upueqgIieLg5cjGRHR+gUQ3+EzmHbnETJLmn87KiKTkgn7IpPcb298llpoq356VZD/zjLW7DA58/dpPuVX7yTQj063Tacuzp8HkgBFCCFuAvtVBb2+hrUTYll4SGFUygKGX9hI/MiHiX3iFU4OWcD8UecoNt2OPswPUBFpCKTirC/6MBXgS2ToXZSVnmTwn6YR/PkcRo+MJTZ+LaagKCL7NvvA2yKJve8bCj51v5Jqp/izMgbExboCGl+ihuuwfFqM3W3QtBwp4Jv7Yom87QYXivj5vi4ge5+x4aKrPiKM20+X8WWzeZTjeDEnfSOIvc8X8MUwLIzbjxfzpQOaT20dP3yH0juk7Su9N4DjtBHj5VZCBm9fbr/Nl8iUreT+o4i8/e5baK71OF9GPTMe+8ebOHL5hmWlDc6VAeXjNey60PQVS6mR6k5GS435+Y4aRyCBQeB7uwqCn2DTnlzy8nLZ8UYyUTd3Acypob7YcfzoILBvID1CAgn8toKKH1wvXT1DxQUVgXff1fL9vlEkP6vnyNoszjdb3VKFTiN5iImNb5fd/MCSdupnjYmD2wqwXAVUfhgeH43ucjEFX9Pptgldnz9PJAGKEELccM4pYEXhEYprAFUk0WG1FOzPpxrgcjGfFn7HgIh+fFl6hpCB96Ly0hPWv4IDB79Fb9CDKpKw4DN8WVhDzeVa7ooYz+ghwfhePsKa517kYPPtIffoCcaC6WyzlHyeS1nwCEb3BXqOIHZgOQfyml26tZiwEIz+nhtSGOIGCYxbyspx37FpXbazXrm7sIuNmd8yekMuef/IZdM4O5lvH6AaB8YSE4FxUxjRV4WqdyRTHg4DRYVPV9yj0VxdNSc/N1K8/0UmPBTN1LQzhD2/kmm6n3Bcv3ieGGgke8fN3P7k5FwZOMCarZYWAWGnnC6m7IcIJjxhwFfli37UEwzvC4pKwX62jILSXDb9eTSxE2ZzoFs8y+Y0v9fsBnKUUWz0IXbSaIJvU+E7KJ7xQ3xRKQqoFLhqbzLptttB1b15iOlaQShcy6ZjzUrIK5gpc0ZQkb6mYTXY06geXk1RUS6Zz9zOp69voviHpq+32zZvgfx1BQlQhBDiJnF859q/7O2Lb7caar6rH7YdfFNTg+9tvlSXlPFNvzD0fcPQXzVRUGgCXRiBujCCL5dR8q2D4rSZrC65iwkLM8nN3UHazKgWW7xUd93J7TXf8k3zffY1BRwo7UtsXCB+Q0egO57bclC8+g3f1tzOnXfIfSi3BhX6Sat5e+adZM9NIft0K0cMmc/KyQ42PBVNzAPRPJFWQ/wrC4i6DSo+epmX/xXCC1kH2PFGAoqxjJqampZ1pys4islYsJCN+0zUOBxYDm1g5+kQIiP8rvk4/cOj8Ss5QP7NngT6RpKcFMKRtVk//b4XRwFrUrOwj1rD/gNbWRB+hpLTdmpq7Fh2v8LClZspOO/AUW0kK/MIGCIJu2nNt4aDq1/mwG1T2LT/AJkzAzGVVPBdTQ38YKfWS2mykqUoCo7vm64TqEKnkRxRxsb04hYrCMGPL2D0t5tYneO5s3fHvhQG/z6GR1PLCHtxDYkNgXHHbfNWyF9X8O7qBAghxK9OXQ01P/rie4cKcAAq7vL1paamBiwllCmJhEUFcuepnZw5DaY7RxMVcSfK8QzOXAV+sHAwLYWDaeAbGs/KNfOZ8a9HefHzzmwOqCE/x8gLT4xnwo/BGA8WUMOI1g+VEeKWEDjuZV5/3M7G5BQOnmv9mJCIMO40ZXHgtLOOWHJyKX9+GmF3Q0G5hYOpUzmY6jw2OGkro8+aqPCEAMU3mMiBCicLTa6tMj7gDfbmaevoOK9goiLupHxzywnwjaYaOJyou4O5fX0u8QAqX3yVSHKzAkn6r42dDlpqCjOYOSnD+Z/bRrByRwUnTeAXGkVgTTHGc66cedNi1eKGu3CENc8eYQ0AfsRvGM35f33FlbNnqL4zkpDbwFgDeOkJ6VvDmR1NbzYPGRaF/u5AVu4ZDYBymy+qB7ayI/BVPr5bT+DABez8xwLna76+sDGXO1eOZuGhLt4Q1TeK+CEOcncUU321Bsun2eROjif6Pj8yyqs70Tb9iIzx4Px1IVlBEUKIm81RTP6/fIgaGe1c+egZyaj7fSgrLMbh+JIyU19Gjwum4ngZDkcZpgt6xj/YF1PJlzi8gol/I5OlIwNRATXnLFTU+LT8iG9q+M73Tu5qZZuOo/AAJQETeCLYyJHm27sAvO7iTt/vqPnm1zs43jLujmdp0p1kL1jYcgLkZ2D8kyMI9oIKy3nQRxPd2/XSkEh0WDhzAfweXs2+9GQMvqC6ZzwzxvmSvy/fM/bC94wicdXrLBgZiAoVgXGJTLjHRP4/q5vkr93jABQ9YXdXcNJ083PlKHyFh++PIeYB57/YVQXUfP4ysVM6CE7c8+dlIPmDHawcGYgKXyKfmULk2QMcOQe/fWw+G5ZMwdAT8DUQ/0Q0tf8qaPVehxtDRdTCHWz9SxS+XuA3fAbx/UrY+Wk1nC8g1zKACX8y4OulIvjhqQy/LZ8jJQ7wCiTq0fFE9gXTm08yuKGMYlmYU40x/UkeXbmfD56NYXCM67XYGWRbLGQnx3rG5N0rmNHP/5UZcc7+2HfQKKKDv+GMpabdtqkKHUX8SD0qqsn25Px1Ibk+JoQQN51zS8SA1GSyD70AODhz6GVe3OcMFoqN51kW58uRfzn/X3bCzvynKsguccBVC7kfFRM1J5PcOeCglopPV7OwsNlg9vVJLF5T0AfBkebbCn4o5khJLdHKEfJ/AJrfDB+kJ9jLQv7XNyDr4rryGzqCiL4GIj4sZXb9L68aWTNxKpt7xjJlRjBZu4+w6+AaXtQtJTkzlwUAP54hd+WLHLwMfJpJ9gPL2HBoCvxYQcnmhazp1Grc9aIiatkBVj/sh8oL4HWKRjqoPrSQ0YuzeXlVIMtmbiX/RQX7hTIOrFzG5q+BQY35s5xr5zgAv0Bu96rh2xY3AHQxLwOzP9xEQrDKeZO5oYjSJQ4KVkYz85Rb/n4w8uH7xaxJ2Ur+Evim/ACrl27GchUsaS+RtWQ+a/ZPw5caznz+IS+tK7iJAaaD4r9nMfqVZeTm+WKvLiM7dQEHqwEsZK/cQMiLa9j/hC9cLCYrdQ0FPwCqYEZMnwHVByg+78mT8fbr57LVISx7fiv5yxT4sYKCrS+xsdCB3+S22+anEU8we2guBYdMVHRdxjzab+64447/7epECCGEuN58GbV6J0+UT7vmv4kQnLSVTf2ymDDvoDySXwghxE0nW7yEEOIXqYYjWw6gGjWFqGt5nI9vFFMehgObj0hwIoQQoktIgCKEEL9QjtINrP1MT/LMqE4+ctSXqJnJ6D9dy4ZjnrzlQgghxC+ZbPESQgghhBBCeAxZQRFCCCGEEEJ4DAlQhBBCCCGEEB5DAhQhhBBCCCGEx5AARQghhBBCCOExJEARQgghhBBCeAz5S/JCCHGd9OzZs6uTIIQQQrTq8uXLXZ2ETpMVFCGEEEIIIYTHkABFCCGEEEII4TEkQBFCCCGEEEJ4DAlQhBBCCCGEEB5DAhQhhBBCCCGEx5AARQghhBBCCOExJEARQgghhBBCeAwJUIQQ4tegXywTBvcCoP8zGex/MQbVdTlxL4aMj6W/l/PnCetyWDu+x3U5c0sq7ns2g4y5Q+j0J/QYQ2r2EmK7XcvHaIidncH+nDdJCGw7Lf3HzuPN7Tnk5OSw8/1U4gf1gG4DSXwri3nRva7hA3+ONtLRTK/H15Lz6Wd81uSfK3+q/oyZ/yY7D+WQc2g/WS8ncp978gPGkPr+WuKD20hCcDxr309lTJtl1QmBsTy/7kP25+SQs+dD1j4XQx+vVo7rNYTEVVnsP5RDzv4PefO52IbjVP0msCR9J/sP5bD/72tJHOyWCVV/4tdlkfpgn9Y//2Z9b179SXgrh5yXx7Te/m7Z/PXgvqmvkrUnh5xDO8mYPwZNiwyquG/2h03rYE4Wz4erGs7Rf/wSsg7l8Oro5m/uqO33YMjcDDKeve869WvNBMQwfXUWO3fuZOf2LNbOuMb66aUh8Z2m7S9n5xJiGhLbxfnzQBKgCCHEr4Bm6KOMCfMD4FT2PBLWFOK4Hifu9jvGPDnUNRm5xP6XppB6+Mr1OHMLqtApTI82k/FWIZ39BFX4QPpb/82/fuzkG7w0TFieyqOYsV5t57h+8fzlz1r+/Vo8Y0bG8+oXfUic+QQax3Gy3izkd88mMuRGxWmdSUezydOlj14gbvhQhrr+TViRi/XEP8mrAs2TLzC9v5lXE8YQN3Eeeb4TmJdQPxHqReyzCfjlriPb0kYaLNmsy/Uj4dkx/LTpby/GPPcCQ77JYPojcYx5LhvHsBdIjG4+FetBzIy/MObqTp6fGMeYGdnURCc7j/PSEJ+SSJ8vUokfM4bEdy4ROzeZGNd3oBk/nQk/ZrP2k8rWk/DjzfneNI9NJ+6utmrvrZu/HsNeYF5sNVnPjiHuj6/yr/8zgTHhLafSPXooHH93SkM9HBo3hXWlzp5o4DOrWBJdw6mqlufvuO1fofCtLMzR00kMvd5T+B7EJL1AzDcZPDNhAhOSMqiMfoHpw5oXZHvfXw96qKxkPxfXkPe4CankOTwhf55JAhQhhLgZXFfWdu7cyc7sLF595j56oaL/MxnsXD2h4Spb/LqdvDm5Pw1XxrN3snP7Tj58ax5jgl0Dk5eG2Llv8uHO/ezfmcWrSUPoBfRPymDnXxtXRur/3yP6eV59dCCah1PJmh1DaPwqNs8e4jyu/srg9g/Zub3xip8q/Hmy3l9C4nOv8uZbGXyYncGS5ldnvTTEL3+BIQFDSH7nVeKDezHmr1kseahH4/tnv8qb6R+y8++pxEdPYN7qN8n4+06y/jrGNYluJ59N9CAmfgwczqbQMYR52VlM17leGfsqOTlrmeCaHWueyWDn/8/e/Uc1deaL/n+fla7NwZuoJXqmMR0jHkFmoDpmKWZawLaEtkI7Y5xOY2cGnHtE7yngLeqMiFNGW1qtdhR7rXgPxflWOKeSacd4W4NOie0YbQ3qikcKLQUPGKc002o4anKl7Nus8/0jQfkVRKsSnee1lmtJsvfO89nPs8PzeZ5nb1YZkJBI0ifR2eCiE4nEn5RQabFitVip2TH4TAP4aKkuonB7E76h6lNuxfZqGVX1nciBTpwHXXhiNOgUIH9cg9XzQ8yPhhnNvpGGKEdY0XpysuNw7rDgDoDcbKNsSyV7lNYAAAAgAElEQVTOszL4m6g74UF9T6jsU+azILGJmj1uADSPrKT8zWBdWS3lrHxEB4B7Tw1NCSbmT7m+MDz2cjZW2HF3gdxeh9OtRKNRD9jO66yibLuVVj/I7TYcbUo096rhnjR+qHWx+00X/oCM58812C/omTNDAkmPaZ4a5x/q6CQ0E7GjJhiDtYaygjRiuAX1dk8WeU/I2N5tCTs4cHvGp8Rg1ON5txJ7hwydTsoLcimvHxilKlqiu8s76FH8R7dRWGyhZUAPvde17weUerLXV4Xis1K1Phv9GMDvwHIAMsxpw59hHQ6FGp1GibvBSSdAp5OmnnrpJ2z9oUKKlpH9g9X8CMcXoUSCIgiCcNOFRta6LOQ9acL0TCX+9JXkzobW6jLqxprJfTCGmEdzMY2yse0PrcGR8cXxuF7MxvSkmRLnJHKfDSYymnmF5E92UfqzLLKWVCE/UkTu/eFH1eRD5ZR/1Il7bwk5mx38v17lMhaERgafXIBp0RZaZi6jMDMGvgFJm4jm5Abynskld6cXgzkrtJQrJODGsnk3rX4n2xYV9R1hD+2v/LCUvCW5VLr15C7RYV+TR+4zlXhmmsiYyJBx9hGtZ840L06HG+RGXK0q4pJiAAl9ogZPh4q4RAlQop+qprGhEVmhQZ8IjS43TM1h2cIYDv7GjMlspqhWSc6KHBL7f06gk6aPPVefXTrjxPpe0+XRzjh9Eqq2RhplgE4OfnSa+PsN1zmjcA2GLMfgNE9kY/i8iprQyLWn3ob94+ARpIlpmO5X4zruQgZ0cwyom44EO06SHnO2ntOvZmN60kT2y0dQGfTBNuF3cqRJjWGO7jqC6MT1ng3XWQAJzcwFZNzrxuXqPxvgp+k9K44zoR/HGNDrPLQ0eZF0GjSdHjw9M2UBN56vJDT3qpES0zDgwtEkAxKGn+Wgqy/B/KQJ06JyWrUG9PcEy3Hz6i0G4zNmpHfLsZ0Nt81tGp9CQ/y93fjH5lD2Rigp6rU07QolymgJzUOlVFlt2N6p6bNUyv1xE52Dtdve1z6gNJpZEG0jz2zCZM6j6mwShsRgl9190Il32hz017Kk82oCHpqaPOjuz0AngXRPGgad55raJwolqmgl+oJKrO/UYbOUs/IJXXCQaKTji1AiQREEQbjZpCQM07o5+G4dngDQ6cR2HPSGJCS5icrtTuJ++SIv/kKDY2sVTTJoZv0QXZuN3R/7AZnWd+s4HWfAoJTQz4zH66yjqQs4a6d0UTZbBhmtvHq59PwwsRvnn0IjgxdcOI77iJ+RhATI/iYOftQJgOzx4FXGoB5qZL4f+UITzhPB8p/+qw9/s4tGP9DlweNXolRLQ8TZ72AT49HhpqUDwI+r4TSTEpKQFHEkTfZQZ/cSnxQHkp4k3Wkaj/khxkCishHXKdDM0qNrdWA9JQMybruDlnv06L/NfRMhmgdXUpLpo2q7NXgeAX+LG++9ccTfwtUYg5VjACkR8xNqnH909N1GEUfujjrqqkswfF5F5bseQCIuVoOntTWYsAW8eP0qkh7KwDBFiXyimpIXrLQGAGRaWz1oYuOuf438eDNldXXUrM/Ct6eMms+G2FaZSPZv84j7qJzKEzJIURCQ+ySW3TJIoySUcfGoP2+lJfSm/0I36hlZZMzUobzgoLx4I/bQsqKbVW/K1Fxy1HWU/9E9vKWVt1N8ChXKaDVJUzyUF5gwP1OOZ+YyCp8YmAZ5PnHgOmalJNuEebkFf2oRK+ddZUanz7UP8nk/8r0Gsh5MRKPwYN9cRPlHoRT9TAtudMRPvIHxIeOqLsd5byGVVhvW6iJ0Jyqp+XiImuxff4FOWuqbcP1pA9lPZpFXcZqkfy4hZ0okxBeZRIIiCIJwsymUqJQasn5rCS7xslooeVBFlDLYC5dPWKnrSiTRfxDbJ8FfekqVEikxlx3W4DS/dUcu8UShjFGiVEn4/FcWIMkX/MhD3S8RtlwqlNF+/L6eX7QyXr8fZbQq9GP3lQ7RN9dx/ECv/QMy3XLPT90QKm/4OPseSlLHoPJ78Yb263Q14Z2cRNw9ScQFWnEea4UpSWimJKG70ISrE5SzktC0umiUIUalRPb7rpSny4dfllB9q7USEnHzSilbosb62xKsvWaQ5E4vfqX6mhK6m1GOAVvOyMIQcFLX0K9zFWilclEGGU8WYlGYKV2VhhI16rESvguhkeKAG8uLpdQp0sh7xYr1zTIK06/MmHgu+JDGqhm48GWYzlpYlpFB1jPb8BpfpCRcxzXGQN4rJcw5U07hq6E1+13ddCukPslRlCQhX5JRq5X4L/TUvYyroohtJ9RkLS/H2muJJNykelPqyf3lJBzlllAydxW3W3yAHJBp/FNoadNfHVgPeYmfltQvWe3EUVHKxp0O3H4Z/ykrVX/2Ej8jcciktv+1L/+5jOd2utGZS6i0Wql83hxcAgWXk+iYsTcyA9Ng+k0RSfVFmH+URdaTRTgmL6PkqTCzhYPVn+yi+oVSKt9rxS/LuA9UYmvXodfHREB8kemukS6AIAjCHS/gx3fBje3FXLYMMuoWk55LFnbsiixy022UvNeJ97wf+YSF7JW2fjdNSmT5ZFRjVRAaA1dOjEPtd/c7qoQUfZVfYgEf/i4lyrESEFweolYq8fuHvPvihgof51WccdEoZZNk0KBus+FuhxZ1BgZ9DFJzNe6AhGFGHJ6GMvxAp8+PNEWFktBZi1ahlPz4Llx/2TWZJZTOk6n8dQn2jus/zrc1/HJIJBn00LCxV0dZSVx6Fjq3FfspGflsE7Z3XeQs1xMvtQ44gtzhpPolJ9VI6B4pYsOzuRjrS7B/m+ciSDrSnkjCa7fRdEHGf8qOtT6HLTMSkfb0W26n1JP7UiFxzlIKd15Z2iZ/7qYzRs+kaGjyA4o4dBo/p9/1Io3t93ldbuwVJdgrQDnVRMlLheSezGHj9cxCDie8hDQMWh2ql62YACQlSkmPdbuGwoLKvknLbRgf8mncX4Fu7OWrCxRcHoS4Ioa42ZOQG1y4Q0vVJAbb7mr8NL27hZJ3gRg9uS+Ukmd2kVvRq73eyAQsOhF9ohdnhYvOAHDBxcHjXkzT4pD+4B5W+0SpQ58g0XK8NfRaFCige9DYb3F8EUrMoAiCINxsciPOBhWGLAMxCkDSkfXrUnJnSjAmjfxf6nBs3cCG7U7iFuWTNgY6jx2hNc6IaUroWUozcyldlYVOIeM63oIm1RQcVRufxrJXNpKTCF6vD6VGF1zTrUxizgzN5ZFJOQDKaFXfkUrZxZGGKAzG0AjrGD3G2VE0HnMN/wlfshxaX319pyZ8nP0+xuvH13vkV26ksVVDRqYOT3MjstxI61dxZD2kodXViCwloU/oxHUs2GHyHHPhjksja4oESOgy04jvcOEc5IlBYcUkkvWTtGDZtCZWLlRjfb500KRAilGj7DUqetMMVY7e5QVATVycGk9b75u0ZdSzTCwrMJM4BpA0pBn1SJ+78che/D4Z1ZjQTEaMkZKKUkwTgwmtp/U0nUhEhY6kGaNC9nkZ/BboIQSUJD2Rx7Ls0PURYyBjphrPmWDnT5dqIuu+0P1GSwoxussp6d35A/irk4Nn4sn6WSJKhYTu0QWkRR/BcUKm87wf5ZhQ21foMK0vZ2V68Nrwd7jx+KMuH+Zm1Jt8fAsLHssi60fBf6b/5cRfvwXTM8Hk5HaPDzpx/rmFSU/kYBgPktbIglQ1LQ2NfetPoWbOklJKlgTrWYrNYsGDahrrh/6+6X/tJy4qo6xAj1IBdJ6m5SsfUk8bV6hRK334vTcwGZPduM9q0D8QWr4YHYdhhgbvtbTPMQayny9lWboGCQnNg9lkTWzFeaxz5OOLUGIGRRAE4abz49i+gfhVeex4exnQjfeEhQ1NEoaCPBIbtpD7sYxMFZVNO8hbYsD1ioWy32tY9pKF+Qqg6zR1FbuDj759dwvlcUWUVNuQ8NGyr4zSQzKdMVZsxjw27JhDp7eFIw2tyEoAmRbnEVhVimV8Ja+0XymX/bUy4n+Ty4638wCZ0wfK2PieH+4bZmidLo6cyiHvjUo0LzxHmIechtc+RJy9nWnBrVhAvBYc7cGYXE0eih5UcfBksCvQ+JlM4U89WE/IoNWTFGikrCcB+ayKDTuLKHrJQhbABReVG6sGLrnRmil/Iy9487wCDNUHyQ00Ubkoj2rlHMyLdVDrwPdAGvp7EtHvOEhez76BJsp/mYelA5TxOtQex+X7Am6WmKHKMeZKed1dgBSDeoyfzvO9CyXjrNhIzfJCXrTkoETGe+ogZRtteJBpOeUhNy4OCTdyp5PdH8yhaLOVHIUMshfX7zdQ5weQiIvT4Dk1zHssegs0UbmxkqLCIqptSqSAH3d9JWVvtgISSZl5mM+0YPtMhfF+HZqYUmyPXCl/53slmF92Yt1Uia74RSzzlXDWRc0r5Ti7QGptwftE8L4Ll+zm4B4XhoJyrAUg043n0DZKj4eWVt6iervizojP8+5GtulKKHyjDjVeWg+UUVrb2Te+j5uo2liJZkURlv1K6PLg2lvKhtpOUCSSt2ML5olScHbg+3Uc/JWMsyyLInvfa79pvw138UqqrVEQAF+bjfLtodkFbTw6hZsjZ4Yq7TUKtFKzsQpNYSmWJ6JA0Y23oYoN19Q+rWx5VUPRkkpsqyTks43Ubd6A5QwQPcLxRai/u/vuu/9rpAshCIJwJxg7tv9aC+HGUWJ8sZr5rYXk7ey/nC3SxGDauIO043ks+8M1p2yRZWoulS9pqMouxTHU35JRplHyRg6eVblUnrplpRseycDK6jzkMEssr7hN6+1Oj+8arn3dwkq2TK4he4392paMjqhbF9/58+evr4gjQCzxEgRBEG4DfhyWOiSj+db8AcRvQfr+ArLuPYKl9nbqBIbx2W6szYmY5g39+GDdEwtIbLayO9KSEwDZiWWPH4M5Y8jH69629Xanxzfca19pwPwo1Fkct1FyAnd+fNdHJCiCIAjCbUH+uJLyj+LJXWKI3D9UFp1IzlIDLdsrg3875LbXiW17Nf5HCzHHhtkk1kzho16qt9vCP954hLn/WIZVaWZZ/z822uM2r7c7Pb6rX/tKDEtyiT9UTuUnt9/9GXd6fNdDLPESBEG4QcQSL0EQBCFSiSVegiAIgiAIgiAI10EkKIIgCIIgCIIgRAyRoAiCIAiCIAiCEDFEgiIIgiAIgiAIQsQQCYogCIIgCIIgCBFD/CV5QRCEG+R2ekKKIAiCIEQqMYMiCIIgCIIgCELEEAmKIAiCIAiCIAgRQyQogiAIgiAIgiBEDJGgCIIgCIIgCIIQMUSCIgiCIAiCIAhCxBAJiiAIgiAIgiAIEUMkKIIgCIIgCIIgRAyRoAiCIPwtmDoX8wNqABLyduHYmI50Qw6sJuWnc0lQBP9vrqin4qeqG3JkYTgkEp5exy6bHft+O3v/bR3m+4auWdXD67Af383y+wYeK3nFburta0jpfYgJ89j0VgXZU8IccEo2FW9tYt53v0UYgGpWLltt9dhf7Ns2VTOy2VRjp76+nvr9u1gzP2Fg21XEkl9zghPHr/yrt68jvWfDCSks/72deutypin67TvC8TFqGtkbd2H/sJ76D3az6RfTBr021Q/ks9XqoL6+Hsf+nayZH9tvuxGsv+/OZVXFXhz19dR/sJeKonS0Cq5eLz2G3O4qbfwW1V+wnAnkVtVT/+q8K+d+mPWnMuSy9a1gDPZ3drLmx/3rL8y1eSvjiyAiQREEQfgbEJu+gHn68QA0VxdgWncI+UYceNQPMP3SSGwUgBdr8XyKbb4bcWRhOKYuZs0SLQeezcT4WCZLD2jJX7U4lDAOQpVC/jPJMEgVSfctZtnDo/F90/tVNXMLcxm3bz3Vp8Ic81Q16/eNI7dwHurrDEN6YBU7V36PjlNn+72RTP7zi1G9vxzj/anM39LOrMLlmL7T7wAKFaqodqoXz2bGzBnMmDmD2cbVHJAB9VzWbctnXHvbIGGPcHxIJC9di1mxh8UZszH+z1pUj5tI7/9Bo9JZUWKCN5dgvD+Vp7d0MKuwuM95GLn6UzOvqJiUr7ax8KHZpC6upjujmPyHpaHrpbehthuyjd+a+usR+/RyMv+hdysaZv1JyeSvXgC7FmJ8zIhpzUmmryjGNKHXNoNem7c2vkgiEhRBEIRbQZ1C/mu7sdvt2G272ZqXjBqJhLxd2LebL482ZlfY2flPCYBEwvw17OwZNaxaw7wpofE2RSxzS3ay1+7AYd/N1qUpqIGEpbuwr78yOtvzs/LhVWxdMI3J83/H7tXp3Jf9GtbVqcHtJqSzfPtu7Pv3Yt+/l51Fc9EqQJq1it1vrSO/aCs7q3ax17aLdY9r+8akiCV7UzEpE1JYUbOV7ClqTOt3sz5LdWX/1VvZ+W97sb+zieyHzazZvpNd79jZvX4esQqGjlO4KkmrZfy5kxxtlwGZ9mMnOfcdbbA9Ddya5CX5TD++E/u5fm8pEshZlk77v1rp6P361AXkTGug6q12ALSPr2HnO6FRYNtO1jweC0D7W1U0JJpZMPU6A/mylrWLi6lt79dzvesix3atZ/MbDfgCMh3vH6BBHof2H/ofYDRR0d10+wZJuwPt1Px6IWsdHQPfG+n4pGTmpnWzr8JC+yXwfVzJkgXPs8/bb39FB4d2rGXz7ubQeTjEZ4FxaHt6pCNcf1/s38wLW/fRfgnkU7UcblOhnTCeIeulj/DbDdnGb1X9AUyYx/KfdGPd/Sndlws3zPqLmoBW3cFRZ7B2fE1Hab40gVhtz3ddmGvzVsYXYUSCIgiCcNOpSP/VWkyXqlj4qBFjzjZ8j/2WggeguXI9tXdnk5+hRv14Aeb/ZmXTvzbD1BzWLE3g6HMmjI9l8qvDkylYGUxktE8VsyLuKKt/lEbaz19HzlpLwZzwnXr5/c2UOby07f4V89cd4P/1KtfcFcU8/OU2zI89jnHBy3xqKGbVj9XwDUgTp6F1rWVhztM8XXGOlF/M6zsyH2inel0Nzb7DbFqwtO8IX2h/1cHVLPz507zWPouCpbHsW7mQp3Neo8NgJjOWIeMUrk5uOsqnqlkY9SpAxbQHpzO66Sj/Pkh/UPr+YvINzWz7l5MDZs9in1pO5rnX2XS4u+/r6SmMbzjEIR8gJZO9aBZtG0zBUeC1hxj9QHKwTfgOcahhPCnpsdcXx6kGGs4PUuhLzRzYtY/m0FvS9FkkfNPMydP9trtLxehRKpJX7ML+QT0OW68lUOebaTg1eAd5xOMbF8vkUeeISt8aXMJk28manw6yhM3XzL63DtMeACQ1057KZOr5oxwOnYeRrT8vR/fu4eiXABJaQw6ZE9s4eqxj6HrpbYjthmrjt6r+gjMZOUT9cTN7vuz18nDr79JJTv6HltSM4HvqWSkkBBo4FmrY4a7NWxdf5BEJiiAIws0mTSdlxtfYd9fSEQC8h9jjhFkpP0CSG3hty2ES/sdmNi+awPu/e50GGbSGVCa37qHmhA+Qaf5jLW0JqaSoJGYZEjh7uJaGS8CX+yheYGL94etYsCUlkzr9aw7bDuEFOH+U950X+d6sHwQ7Br4GDhwMDgV2f9HBOdU4xl1D4iD/ZwOHj/mAbtq+uIiv6Rj/7gMufUGHT4VqnDREnNcezt+kL/ewbec5Ml+z4/jAzus/7mbnv9TSfwAXRSw5v0qno2Izh/uvc5owj+VPdVO1ZV+//SQS/lFLR3NzsNMUOMs532imZ2SSMlVF97FKVhRbaA4AyDQ3d6D9x0E6ZzeINGUe60tSaH5tGwf6x/CNl08/bOCo7XlMj6aycGsb0wvXsXjIEeUIiE81GmnUdKYrqin4kRFz6UkS8taQE6bc0uObqK+3s3PRaN7/3escvUTk1N93sqmor2fvqyYu/mE9VZ8w/HoZaruwbfzWxad6uIDF42rZvKudPingcOsv0E5VmZWoX+7i0AcOajen0L7j9WA7DnttRkD7HEEiQREEQbjZ7lIxWqXFtL42uMTLXsu6jNH8vSrYC5ePWai9NI1pvgNYG4KJhmq0Cml6Pha7PbiPJZ8EolCNU6FSReHzXbx8ePm8DzlwfeVSRfvwXexJbmTO+nyoRoWyg+7uK7+Mvxlk/6sJdF8ZDfxG5uvunqN9DaHyho/zOj7vb5BkWMW6X8i89vNU0h5KZcFWH+aXi0kZ1Xe72KeKgyPsdf179mrmLg2NDH/R/+jjGXd3FBfPhxYNBdqp+s1qau9KZ/k2O/Z3Klj12JUR247zF4m6exzjb3SQgGpGLq+9mkN3xVLW7h1kqZZ8lMri1Wzb24xPlmnf/xrWU5NJnjXUqvwIiK+7G2im9s2jeAPgde6ktn0yydMGz9DlvSuYPTON+aUnmf78ZnKnRlD9fVnNktmzScvZxLm5m1n3U+3w62WI7cK38VsUnyqZ/CWTOVBWFUoGehlu/Y1NZ+2L6bSte5zUh9Iw/ncLqiXryL9vqGszAtrnCLprpAsgCIJwx/vGx8Xz7VifW8DLJwbOdKjnFjCPfexTzKNgrpUVe72c/U8f8rEqTAV7+t3YKzHP143q7tEQGi9VTUpgnK+t31ElpFFRVy2Xr0uF6m4JkAGJ8SoVPt+tu8k9fJzCcEyeNZ1xzVXUhpYwtdfZ+axwMdO/C4c/69lKTXJaAtrEYqwfFAMQpVLBNjvjXnkVDFoSDDtxLAIUUahUsKl2HJtzXh7wefJfDlP53GEqkYh9fC1biwqY++EK9t3EypOmZrPp+XTaNi7m5YMD5oaCVLEkJ0bxqbM51I7+Hu6C7mtM3G95fF918MUlFePuht7THwPKPSEFs0HGvvso3oCP9vct2H9hJjU5nXMjXX9SLOk/mc7ZfXtoOC/j+2wflg8XUzFrGtJ+iR8Mp16GqL+h2vjFfoe5GfFJiQ+T8t1YRv8vO2YASYUqKhl7lZYl+W3Dqj8pIYVpnOTlgx3IgPxJLQfOFJA5PY5zD4S5Ntfl8uktiC9SiRkUQRCEm00+yeETo0n5cSpqBSDFMq9kE/kGCcams2JJLO//bi1rtxxm6jMrSB8LXuchmhMyMU8NTtirDflsWjuPWIXMMWcz2ofMJI8FvpNO8bbXWDwdzp7zodLGBu/fUP0A40zt5en+7m9ANWp03+l/+SiHXH9PymOpwae/jE1m7gN/z0nn0eE/4UvuBoWK0dHXd2rCx3l9x/tb09H+BSSkkhp6mpPakMxU2mn7ElBPY97T6cQqvFieSWN2WhppD6WRZizA0t6OJd/I6nffZfVDs4OvPxS8p6nhy1pWZC7F8sVZfL5uRo8NPRxBPZd1/7YJ86RgQtvR3IYXiZ40WDt2NN2+c/R/TtW3okhg8W/NdO/41cDk5HJ8wNgUcjf+juLHtEhIaDNyMU1q5tCRMAkNABEQ36XD1DrHM3fRXGIlUD+wmMzYZk66fH3jU8SSWfhbCjKC17Tqvrmkxp6lrXXPyNdfQMX0+cspXpQS/H5Tp5BpGEfH6XbkoepFoSVl/jySJzBk/YVv47cmPtn5Mo8/kHb5HBs3Hsb34XqMOdto9g1Rf73ikzva8Kqmk6IPzax8N5WUyWdpa3eHvzb3fzHy7XMEiRkUQRCEm87HgbK1JDy/HMufioGvOXusmucbokhZsYxprpd5+oSMzOtsa7CwbGkKR0urWF+upXhzLQsUQFcbtVtrgjfJ/nE9m6euZZ3VgcRFmv/Peorfl/GqLVjnLmNrTTrec80cOtGMrAKQ+fTDQ7D2d9T+wzZe+I8r5dq3aT3fK83Hsn8ZINO2fz3P7/XBjGGGdu4Yhz5bzPK3d6EtXs4gi2+GdmqIOIWr8u3bzPNT15C/004xQFcb9nXPs+88cJ+RnIJYqv7PAdovXc/RZZo/60CbkIBEO7L3MDXvGVn7v+0svkuG7rMcLX+eWh+AREKClo7P2q/j8dUSKWtr2fS4GkkB8DvqH5Px7l9NZnUC6VO1xJbs5UTJlXIdLk1laVuv+P5iYf1GLWuX7uLQ81F0f3mS2nVrqT4N0o+3cqgkJZicK2BnfTbyX6pZbN488vE9d4ADv1tLwvOr2PnBWqK62jhQ/jxVp+lbf3+xsHbTZNYW7uLQ2ijo6uDwrhfY5hyqNLeo/gINvPbCNtauWovVoSIq4KPtw22sf6MZLrWFrRekWNLzCsBby9GD4euPv4Rr4zIJt6T+huILX3/94lu7aTJrV1uxSwAX+XT3y7z2YQTUX4T6u7vvvvu/RroQgiAIgiBEoO/ns2uzlsr5qzkwVJKjSmfdW7l0PPs02z4bYrtII+ILEvFFpjs9viGIJV6CIAiCIAzukxosTdMw/3Tox5fGzs9hWpOFmtutcyTiA0R8EetOj28IIkERBEEQBCEML3u2VOJ7vJjsKWE2mZJN8ePnqNyyZ+DjjSOeiE/EF8nu9PjCE0u8BEEQBEEQBEGIGGIGRRAEQRAEQRCEiCESFEEQBEEQBEEQIoZIUARBEARBEARBiBgiQREEQRAEQRAEIWKIBEUQBEEQBEEQhIgh/pK8IAjCDTJ27NiRLoIgCIIgDOr8+fMjXYRhEzMogiAIgiAIgiBEDJGgCIIgCIIgCIIQMUSCIgiCIAiCIAhCxBAJiiAIgiAIgiAIEUMkKIIgCIIgCIIgRAyRoAiCIAiCIAiCEDFEgiIIgiAIgiAIQsQQCYogCMJtTpq9kppNJmIGvKHDuLwSW1052dpeLz9Ygu1gHWVPafptn0jhmwc5WJGNTnGzS30tlJg21VE2T3ltu92TRekbZZhjh7uDBvOWKgpnStdWuhnZbLDUYf1NGmH3jDGQu7EK2/466mw1lD9rRKNQYvh1JZXP6MPvN5xSpxdSbrFRt99GzWuFGLUDt4l5qoy69w9ysM+/ULuQdGT9upwaqxWr1UrV+mz0Y3rtfLXzGGum7I1Ssgb53GFTJmJ+sQrr/jrqrFWUPp3IoLU96HkMviVNMVFSYcW2vw7bm2XkzgC70UcAACAASURBVO51RUhxmLdUUfqIZrCjQnQiudurWJk64Cq6MYYbH+Hb0x0RX7jtpuZSWdevfR6sY0NmzxmQ0D9TSeWvDWHO2425lm5afADRiZifrwy+904VpU8l9irrCMcXgUSCIgiCcJuLm5VEZ4OLzt4vKnSYXixlPi24A4Ps1OlHk5ZG7+6MlJiBPtqP/2ofeLOTlxty/BiMz2Sjtm/B0j7MXcbo0WtacTXJw/4UaXYh5c/G42nzDrGVkrSCIrICVgqfzCCrwIIvNZ/cVBnn9ipaUvPI/f51djvGmygs0NPyajYZWdlsaU0ivyBrQLLa+YdlZDw8hzmhf6aX7Lg/OYLjrxDzRCF5CY2UZpswPZmHhfmsXNTTERrGeWy3sMWuJvuZgZ87PBL6RUUskGysNGWQtdyK9JMicu7rf07CnUcJFDrMK3LRHC/FnJVF7o5OjL/OJy3U29PNy8PUZaHsPc/gRehqoqrcSdIzuRiuMQ++cfEN0Z7uiPiG2O6zSnIzrrTPOdlbcHa4cBwLXovS93PIS22hcrszzPeT/9tfSzczPiT0S4owKWwUmjIwrapD+WgWaaELZmTji0wiQREEQbgFNI+spPxNK9a3rVgt5ax8RBd8IzQibLVasVqq2LBIH+rkScT9pITKt23Y3rFS9aIZ/WAdC4UOfSI0uvp3THy0VBdRuL0J3yC7yX9tpDVmDsaJPa9IJD2kx9/ciDxIQiPNKKTmjRIK19dgey2XOIVE3BMrKbcEY6rZvpKsWOlymYy/LqfGasNmrWLDEkMwpp6R+ret1LxdQ9XGXAzjIThDYqNseSGVVislD0pIU02UVgfPSeX6BcRFhQqi1JO9vip4Hgcb7e8xZT4LEpuo2eNG81Q5theNwZHJ0CxRzbOhDni0kVJrOWYtSDP06NpcuLqAe9LI21SF9e0arG/3Hanv46s6NjxbSt2ZoZMar7OKsu1WWv0gt9twtCnR3KsGvwPLAcgwp4UdUR+K0mAgqcOG5aNOCHTifLOO09PS+OFg56RHtJ6c7DicOyy4AxKae9XIrS5a/UDAg6vJg/oeTfD89DqPEL4du/fU0JRgYv6U6whCisMwU+LIH620dgXPj7VewjAnbsBocdjzeE8aP9S62P2mC39AxvPnGuwX9MyZIYGkxzRPjfMPdXQSmonYURNqQzWUFaQRA8gf12D1/BDzo2FmIa7XNcQXtj3dCfEN+zwoSVtkRlVbju1s6GdzFvzJgtNP+O+Ab3kt3dT4JD3G+2Xsb1hxd4H/k2qWLdqIvTMC4otQIkERBEG42SQ95mw9p1/NxvSkieyXj6Ay6IlThEaEuyzkPWnC9Ewl/vSV5M6WYEoORb+IoW65iawnC7FF51CYnTjw2GP06Mc04vqsX4cm0EnTxx7CdpsDLTgbYpiTobtcRuNMP0eO+wefwfgGuCcR9UfLMD1TSWusmaLF8bhezMb0pJkS5yRynzWhUYBmXiH5k12U/iyLrCVVyI8UkXu/hGZecKR+4y9NLDDnUdWVRdGi4DIWOSARH+enPNtE6QElWUty0dWXYjbnkFcNk0IdX6XRzIJoG3lmEyZzHlVnkzAkDvx1rZtjQN10BKcfPC4XnslJxEvAeD3xshs5LhG1AqSEJHSdjbj+KpGkj6OzwYUfJcaCZaSdrWTRkwswLdpCy8xlFGYOnB+Q25tounC1GRc/Te9ZcZzpqTMDep2HlqbgKLn7oBPvtDnoo69ymEFo7tUge9xcHm+/4MbTpUE3xHIrzRPZGD6vouaEDMi4Xa10J6YFk8VoHWkzYmhtaMRP3/MYvh0DfidHmtQY5uiuPQjFJHQxnXg+7zmPMu7PO1FrJ/XbMPx5lHQaNJ0ePF2h9wJuPF8Fky8pMQ0DLhxNMiBh+FkOuvoSzE+aMC0qp1VrQH8PQCcHPzpN/P2G65wJ+rbxhW9Pd0R8w91u6gJyElxU/TGYFBOtZ840L05H8OehvgO+zbV0U+OL0TEp2os0ZwOVllByPy+U4Ix0fBFKJCiCIAg3W8CL168i6aEMDFOUyCeqKXnBSqsiCcO0bg6+W4cnAHQ6sR0HvSGJibP06Noc2M7IILuxrDGT90bTgEMrZ+rRtLloHP6qpBCZRrsT5f0ZxClAmpGG/quDOL4aYg+5lYP2YNKjmfVDdG02dn/sB2Ra363jdJwBg1JCPzMer7OOpi7grJ3SRdlsqZfQz0zC85ENlx8IdOL4wAWJeuKkYOE9xw8G35OSSJrsw/VhIzIgf1bHkVCnVD7vR77XQNaDiWgUHuybiyj/qP+iCIm4WA2e1tZggnbGRQvxJN4DyunxSA02XNHx6KNBnRiP1OzCjQ59gozL5QFJzw8Tu3H+yRlcNnfBheO4j/gZSd9+/bcykezf5hH3UTmVJ0KVdqYFNzriJw6960ASKkmiu6t35cvIsoQUFaakUiLmJ9Q4/+i4vCTQf6iSylY9JW/asFkryVE5qNzjZsB5DNeOA8HPbW31oIkdZFbgahQSkqIbf9eVl3xyN5IkhT9W//MoRUFA7pOQd8sgjZJQxsWj/ryVltCb/gvdqGdkkTFTh/KCg/Lijdj/GnqvxY333rhgMnujXE98/d0J8Q1rOyVpTxrhgAVnz3YT49HhpqUj+OOQ3wHXfS3d5PiUKqToJJIUFlb+zMSiVxqJ/6cizFMiIL4IJRIUQRCEmy3gxvJiKXWKNPJesWJ9s4zCdB0olKiUGrJ+awku8bJaKHlQRZRSiVKlRPb7rnRI/P4+v/iCgqP+ngbX1e8bGYTc4MAppZExVYn+IT2ejxyEWcEe1OXDH1r+pVQpkRJz2RG6sdq6I5d4olDGKFGqJHz+KwvL5At+5IAKpQp853stOPP76I6WUPVs5wvNAyhUKKP9+H2h6ANe/JdC2/y5jOd2utGZS6i0Wql83jzIEi816rESvguhaORGXK0xxCfFkJSow3OyjsbPdSQmxqBPiKHV5UIer0evbMHVPsjnI+P1+1FGq/p/0LWJMZD3SglzzpRT+Gqvteahjn/M2GvtNcr4ZJmo6N4zSBIqSUa+NHjGKs3IwhBwUtdw5f24hSXkx9goNGWR9aMcNrQaKFllJKb/eQzXjkM8F3xIY9WorzEKAj7kQBTKXqPCqugoZFkefAZwsPPY1U23om+HMUqSkC/JqNVK/Bd6riUZV0UR206oyVpejrX3EkRA7vTiV6pR38j7rK41vsHcCfENZ7sxc8iY2UndfvflbSR1DCq/F2/ou2fI74DrvpZucnxyN9BC3dsuOgPQebyGujM69EnKkY8vQokERRAE4RaQO5xUv7SMHFMWeW90Yng2F2O0H98FN7bfmDGZTMF/P8rC9JKD//T5kcaorqw1jtERN7HfUiZFHPoEP03HOvt/3DAL1UhdPegfziJjmgfHB0OmJ314z/uRT5ST3VNuUxZZWXlUtwc79qqxVzrzyolx6GK68Z+nz+soVai6/APvkQn48MtKlNE997SoUV/ezU/Tu1soWbKArJ+V4lTnkGeOu1qguBo86BLnoI/z0tjUSVOzl0nT55Co8+A6IaOcpSemNTQTFfDh71KivNwJkFArlfj9g93NM0xKPbkvFRLnLKXwVQeD1th1dBo9bg+SRnMlKRivQyN5cHcMtrVEkkEPDc7QrAdADPoZcZz+yEaTH5A9OD9opDtOP+go+6Dt+NsuiJc9uM/GoNFdOd+6ezV4z5we2IEPcx7lz910xuiY1NM5VMSh0/g57fYOnKXocmOvKCHvZ1mYfm2FRwqDyypvlmuJL9wh7oT4hrGdNENPUqcL11+H+sBhfAfcyATsRsR31oOnS4W632DKYPf73fL4IpRIUARBEG62GCMlFaWYJkqAjKf1NJ1IRMmNOBtUGLIMxCgI3UReSu5MCc8xF+7JGWRNlUDSYVq1hZIf6fp2RrR6khSNuAbtjA6HTNP7TqT0BSR+7uDg2eHv2XnsCK1xRkxTQs96mplL6aosdAoZ1/EWNKmm4Kjf+DSWvbKRnEQ/ruONaO7PIlEJKDRkGPX4Gly09u+lya20tKnQz0lCCSinZWEILWlIXFRGWYEepQLoPE3LVz6kAb+svcEkacyVm4E7XU3IiVnoFa00ngVvsxvl7CyS/C5cFyT0M3S4T7iCHQ7ZxZGGKAzG0MjzGD3G2VE0HnMNf8RbocHwRFZo7b+EfkkhRnc5JTubBs52KdSolT783mtep4ff6aBRm4X5/hhQxJD2syw0DQ6O+IGYRLJ+ktbrkdFq4uLUeNpaesXhx93hZdLMOQT7VUriDPGozrpxy/3OY7h2HDqSZowK2edlqOeZDSrQxMF6mR/+xERcNEhTTZhn+3AeDC5p1KWayLovhiHP41+dHDwTT9bPElEqJHSPLiAt+giOEzKd5/0ox6iC145Ch2l9OSvTgw8B8He48fijLh9GilGj7DWafUMMO74h3AnxXWU7AN334sDd98mDstePr9esz5DfAd/iWrqp8XU5qTuuxphtRCdBzOwcMia20njSP/LxRai7RroAgiAId7xOJ7s/mEPRZis5ChlkL67fb6DO70fevoH4VXnseHsZ0I33hIUNTTJ0VVG2U8eyl60skMDbUMOWN5r6dJBjZumJabYOfv+J1kz5G3kkKgAFGKoPkhtoonJRHpbe231Wh+NCFnGHDgafADTcmNotlP1ew7KXLMxXAF2nqavYHexYvLuF8rgiSqptSPho2VdG6SGZTmkL5ZOLKHnDCnQjt+5mY4UTecCnerBW1KB/rhRLug9vsx1ng0ycJNG034a7eCXV1igIgK/NRvn21n77y7Sc8pAbF4eEO3jOOlw0RmeT0VRFawDk5kbc95iIe68MjyIJU0InjW9cvisD+2tlxP8mlx1v5wEypw+UsfG9gfe6GFZZKH0kJtSBKKUuXabzQCnmV2TS/ikXvHW4OvUY79ehiSnF9siVMna+V4L5ZSeyNh6dwn35Pptr0mljy2YdK5+tpm4MeJttlL1sC84s3DMH82Id1DpwdwFSDOoxfjrP971nxbljC7Zf57HFkgMB6D57hPJNVjz9z2PYdhw8F3FxGjyn3MNP4nppemMDNauK2GjNRdnlwfmvpVR+EjxuUmYe5jMt2D5TDXkerZsq0RW/iGW+Es66qHmlHGcXSK0teJ8I3nfhkt0c3OPCUFCOtQBkuvEc2kbp8WCplfE61B7H5fs5bpRhxfexP3x7eslxB8TXOcR2wW01MSq6L/RLcc+04FYsIF4LjnaG/g74NtfSTY3Pj+O1DcSvKqT8nSKkLjeO32/AcgaIHvn4ItHf3X333f810oUQBEG4E4wdO3akiyD0mJpL5UsaqrJLcQy4dyey6BZWsmVyDdlr7Nd1L9FNNdzzqEyj5I0cPKtyqTx1y0o3PJKBldV5yC/msuXjoXrmMZg27iDteB7L/jD85Y4j7k6PDyXGF6uZ31pI3k73kFtG9LUU1q2L7/z589dXxBEglngJgiAId57PdmNtTsQ07zoee3srKQ2YH4U6iyMyO1TDPI+6JxaQ2Gxld6QlJwCyE8sePwZzxpCP15W+v4Cse49gqb2dOu/c+fHhx2GpQzKah/4jk5F+LYV1p8d3fUSCIgiCINyBOrFtr8b/aCHm2JEuSzhKDEtyiT9UTuUnkbqmfBjnMdZM4aNeqrfbBr/5PwK4/1iGVWlm2SNh/khhdCI5Sw20bK8M/s2X28ydHp/8cSXlH8WTu8QQ5o8U3g7XUnh3enzXQyzxEgRBuEHEEi9BEAQhUoklXoIgCIIgCIIgCNdBJCiCIAiCIAiCIEQMkaAIgiAIgiAIghAxRIIiCIIgCIIgCELEEAmKIAiCIAiCIAgRQ/wleUEQhBvkdnpCiiAIgiBEKjGDIgiCIAiCIAhCxBAJiiAIgiAIgiAIEUMkKIIgCIIgCIIgRAyRoAiCIAiCIAiCEDFEgiIIgiAIgiAIQsQQCYogCIIgCIIgCBFDJCiCIAiCIAiCIEQMkaAIgiDc5qQH1rB3uxn1gDdimbt6F476neR+t9fLGetwnKin4hfafttPY9U7Jzjxb7nEKm52qa+FCvP2eip+qhrpgkQgiYT5a9i5v576+nrsb20ie8Zg50ki4el17LLXU1/vYO/2fFJ6GoxCy9yiCvY6gu/tfq3XewAT5rHprQqyp4QpwpRsKt7axLzvhnl/OFTTyN60G/uH9dTbd7Np4TQGre0J6Szfvhu73Y59/24qVqSjDbVVaaqZdf9mx/FhPY53Ksh/oFcQUgLZFbvZ9Lh2sKPCqGnkV+1mzcMDrqIbY7jxfXcuqyr24qivp/6DvVQUXYlPZchl61t27Pvt2N/ZyZofxyL17HcnxDcrl61vOaivr8cxoB1LJBfuYldJyuDHRUVKyS52FSZfOSc30reNTxFLfs0JThy/8q/evo70KxU4svFFIJGgCIIg3OYSDNPxnjiKt/eLiljMmzexgGbavxlkJ6+PCQ8/TO/ujDQ9k+RRPnxX+8CbnbxEVHIU4abmsKYwgZOlmaTen8la5wQKfpUzMMG8bzHrnonl2HOZpD60kErfXNYuS0cFaOevofiBc2zLSWX2owXUSmZW5fZ0hNTMLcxl3L71VJ8KU4ZT1azfN47cwnkDk+RhkUjOW8vCKCsFGbNJ/WcL0tNrWTyjf1dMRfrSYh7+chtmoxHjz7fR8XAxyzNUoIgl5zf5aJ2ryUpL5enyc8wtWUF6qLcX+9RyzF1VrNvbMXgRLjXwetlhphcWkHLD8+DhxqdmXlExKV9tY+FDs0ldXE13RjH5D0sgJZO/egHsWojxMSOmNSeZvqIY04Q7JL5RKSxfm0PUvgKM9xsp2Kti4W/zSQ4dQrpvMcsebmbblsNhvp98HN5SSfPDyyi470Z34W9AfAoVqqh2qhfPZsbMGcyYOYPZxtUckCMhvsgkEhRBEIRbQPv4Gna+Exr9tO1kzeOxwTfUKeS/FhoRtu1ma15yqJMXGvHe78DxgZ3dm7JJHqxjoYgleTqcPNa/Y3KRT3csZfGWk1wcZDf5i5N8Ns7I3Ek9r0j8ICMZX9NJ5MDA7aVZq9j71jpWvboXx/+XT4IiNHJvC8a0t2oN86ZIl8s0t2Qne+0OHPbdbF2aEoxJimVeyU727rezd//e4Ej9dyA4Q+KgYvUqdtntrMuQkL5vZpM1eE52vZpDQlSoIKpkcl/dHTyPdju7X80leexwa+EO1N3Mno3ref1DL3LAy+H3j9Gh1jK5X4Ki1SejbdrD604v8qV29ryxj4uGdJIl+PovtWxet419p2U438A+Zzvjvxvq+U5dQM60Bqreag8eJ0w7bn+rioZEMwumXkcMUgIpBolDuyw0XwL5lBXLhxIpDyf0HS1WjCNWq6L9xKFgMu49xMlTKiZMHAcT0kn97jFq3jiKLyDTUVfFvvPJpM8Kdu7NT43j8L/W4iU001KzN9SG9lKxIh01IJ/YiaUjlZxwsxDXa7jxAV/s38wLW/fRfgnkU7UcblOhnTAeoiagVXdw1Bm8zn1NR2m+NIFY7R0S36Rkpo86hqWmAV/AR8OuKg5JyTycKAEq0rNNsLeKwz7Cfwf4DlC1HzKz08PMQoxgfIwmKrqbbp88yAeMcHwRSiQogiAIN5uUTPaiWbRtMAVHP9ceYvQDySQoVKT/ai2mS1UsfNSIMWcbvsd+S8EDEkxdzJpF46j9ZyNpjy7GOmoxqxZNG3jssckkjz3J0aZ+v/gCXhpOdDDYr0MAvvmUQy416Zmxl8s41+DjkNM3+AzGN8CEaYw/+D8w5myjeUoOa5YmcPQ5E8bHMvnV4ckUrDSjVYD2qWJWxB1l9Y/SSPv568hZaymYI6F9qpjliSd54adGHs9ayOuXTKx9Jh0J6A5EkZDgo8xkZPV+Faal+cQeXk1m1nwWVsLkUMdX9Vg2OdFWFmYZMWYu5PUvp5My/W/h13UYpw9j2dtwedQ1YdZ0Rp86yb/3q/ivoW+9+rrxqbRMGAde5x72OHsSXC0pei3NDSeRgdj0FMY3HOKQjyHaMeA7xKGG8aSkx157DHdNJlbtpeNMT6Fl2s94GTdxct/tAh00nOwgNi2TWAmkCemkxnZw7FgH0mQt2nMddFzq2baNji8ltN8djzT9YVI4yvsnZUAi9ZeLif3wV2Q+ZsRoLqN5YgrJEwC82B1tJKSlXOdM0LeMDy9H9+7h6JcAElpDDpkT2zh6rAMuneTkf2hJzQh2itWzUkgINHCsWb4z4gu50uG/iE/Wop0IjErGqD/L4feDSfJQ3wHtBw5zVm8keVSExXeXitGjVCSv2IX9g3octp2smR9aojfS8UUokaAIgiDcbIGznPONZnpGJilTVXQfq2RFsYVmxXRSZnyNfXctHQHAe4g9TpiV8gMmGZKZ3HqAPadlkNupXpnFwoqGAYdW/TCZCa1HORk2Ewmnm5P7D6NKyyRBAdKsdGb91c6BL8PvIcufYd8fTHq0hlQmt+6h5oQPkGn+Yy1tCamkqCRmGRI4e7iWhkvAl/soXmBi/eEoZhmm0+GwctQHBLwcqDsK02eRIHUD0OE8EHxP+gHT4y5y1PHvyID8SS2HTodKfd6HPDGVeRnT0N7Vwb51S9l88KqL0v4maDPWsO7HF3l9i6Xvcj/Ae+wobQnzWGxQI43Skp6dTgISUX2GgNWkFP6O7NFWNv1rOyCR8I9aOpqbg4luuHYcAJBpbu5A+48DR5WvShFFlKIb36UrL12Uu4mSoojqs6HM0R2bOTyxmBq7A7t1LbHHtrHzhAxSFAS6+yTk3d0g/TcJ1dTvMf5MM5+G3vSd/5rxs+aRaYhFdf4Am599nn1fhN5rbuPcxAS+dyNX0Qw7vpDvZFNRX8/eV01c/MN6qj4BAu1UlVmJ+uUuDn3goHZzCu07XueAjzsjvlNHOXlpFqYF01BJKhLmLuDhCRAlRcGkBGJpp/lMcPchvwPam2knloRJERbfN14+/bCBo7bnMT2aysKtbUwvXMfiqYx8fBFKJCiCIAg3W6Cdqt+spvaudJZvs2N/p4JVj8UGR9VUWkzra4NLvOy1rMsYzd+rVKhGq+j2XaS75xg+X59fkEES02dO5YsTR69+38ggZNf7HI5KJ/P7KpIzZvGF433CrGAPunQRX+h+FtVoFdL0fCz24DIEuyWfBKJQjVOhUkXh811ZWCaf9yEHRqMaDb7/7LXgzHeRr6OjGN2z3cWzwf/cpUIV7cN3MdTjCpzD939D29StZ3lFG5Oz17Grzs6ujdl/20u8AJBI+Okm/mXpOCy/XoFlsHtFPnmd57e3M2utldq3fkfmuZOc7Pbh62k4Ci1z177Oqu8f5oX/uS2YXDKecXdHcfF8qFWEa8chHecvEnX3OMZfa/EDF+kORKHqNSo8OjqKbrn7SvsHQIv5xbVM/3ApmQ+lkfboUg7EFbP+F7FwqZuvFVF9kqOoqCjk/yszfpwK33lf6FgyR7cuZdOx8ZhW78TeewkiIJ87h081jnF3XWsQNyK+kC+rWTJ7Nmk5mzg3dzPrfqqFsemsfTGdtnWPk/pQGsb/bkG1ZB3593FnxCcfZnNpFd1zN2Or3UXxjDaOnerG5+tGGj+O0b5znA0tPR3yOyCURI+7+wZmYDckvqNUFq9m295mfLJM+/7XsJ6aTPIs9cjHF6FEgiIIgnALyH85TOVzS5hvTGVhxTlSigqYG+3j4vl2rMszMRqNwX8PpWF87gCdF31EjR19Za2xOpaESf2WMikSSE70cdLZf7x8uIX6d2oPw6xH5pGp/4IDdUOmJ32c/U8f8rHNmHrKbUwjLW0hlad8+HzdqO4efXlb1aQEYtVf4/tP+ryOajSju3wD75H5xodPVqEa1XNPyzjGXd7NR8Pul1nx88dJ+9FqDo9bzLLshOuJ/o6h/fF6fvdUN9vyl2L5JNxUmkzzrtU8/Vgaxqyn/3/27j2qyStf/P/7LFh5aJXGigLKt6RwNIl0DNJvQecMYEekVatVWy3tqZfz7QAzLeq0Xjpeqw6KrVVrBaZnkLHjpcdSO16q9Qa0FugaLj2lxFEDOsTgQrzhMca2JD9Y5/dHAoY79Yr281rLtTB58mTv/exnP/vz7L2fsKAU+lypxGwD8CHyD6kkPZzF3NfTKb7S/ne1WY9vdoadvRrzeR8Cghs7XSqCAgO4ZK5sPkXxQQMRhosUHCimtgG4Ukxu4UX0YXqoqqS2TxDBjZ1IDz3B/W1Unr7YekTnBzMHUucw/dloRiZlwTPzndMqb5eu5k8VRMxLEzD0AnBgKz9A1tdXCQ030FMfiYEycr9yjmDaju8ntyqYiFCf+yJ/KsBWmMnMySOJHjmW6avNKD7VnDC1VZ+70AbcygDsVuTPO4iIYXq3tSNe4An2Ntb73fH8dVMSoAghxO3mM5qUj9YS96gKcFBtqqQWFYqjjILSh4gcH4WPB65F5GtJGqaiurCYyoFjmBiiAlUQccs3kvJ8UPPOyCMRhHqWUVJ1owlzYDxcgDJ6OoaqXHI6mN7VUm1hPib9GOJ0rmc9DUti7bIJBHk4KCk0EfDrOOddP78YFqSnkRBqo6SwjIDoiRi8AY8AxoyK4Oq3xbTqgzhMnDj5EBEjhuANeD8+kUjXjXrDaxlkzInA2wOo/Sem81dRfs5P/XokjqWJfchasJADZ1q852Ngwksxzid6PTqVjM9SiRugggf1xL0yEvsX+/nOAd6j5jDfUMDCBc5FwNddxGaz81Av16Lq9uqxa+uAXg9ht13i4k/NQ4ORnK8dRL0Yh/5BUIXEMS3yKgW5zimNQSPimBDmA3YzlecDiBjumkb2oJ7IJwK4dNqM42wBOeZBTPwPA94eKoLGTmfEg/nkljio/R8b3r28nen0CCLu/c0sHRXg7BSfMVNt82pKiqpPH7xtl7jU1pPvblRX89fgTehzs1nwm0hne+ATyZhhfag+beZadSW13qFEPu7q4j4SRWTwRSrNtvsiElWsDQAAIABJREFUfw4PA0kf7SRlVAAqvIn4zTQiqvaTewYcF21c9e5DX9d53mEb4NGXPt5XsV38yXNeb2/+ekUSv3oNC0YFoEJFQGw8Ex81kf/32rufv27qZxCDCSHEXVZbwMeHR7LsP3NI8HSA/SLFf1rOfpsNx3vL0C+fTdahBUAdF0u2stzogB82siojmAUbcpimgkulW3g7w9jsjp3PLyPwOZbVakE0AI9MZfOnszF4AB4QuauUpAYj6XHT2eK+3fH95P7PBPRf5DifANTVPJ3awqo/BbBg3X5e9AB+rGR/6seYG4C/rWKdbhkpu/JQcRXTnlUs+MJBrWoV6wYsI2VHDlCHo/xj/phagKPVt1aTlbqFiJVr+Hz0VS4dO0DBt3b0igrj3l1ULn+LXTle0ABXT+5i3XpTV1N93/EZHkN4fwPhH5cyu/HFBiPrJk1na6+RTJsRxJY9uZhP7ybzYBRvbcpnNjYq8zay/E9GHKiIiY0hQKdic97Upv06zFtJeHEdpvJqAvR6VJhxtFuPAVTo9QFUl5vbfzBDB4wZy9i8bBlp2TPw/rGagr8sJO2oc7+h42czzXyC3aVGtvxxIwHz17D/OS/wrOPitxtZ9lcTNEBWShrBy9fx+YvecKGYLcnrKPgBVOUnuPi8c91FscNMzifFRM7dTM5ccFBH9RdrWVjoTLW3Ppg+1blN6zlula7mL+2P6Sybv4xded4oDTYqv05n1V9N8EMly9YGs2zhLnJUAFc5sfNt0r52YGu4D/LXAB//tZh1c7aTvwQulu9n7dKtzvbk9AnMHtPQB0LuKTpuAwL1BHmYm9asdZv8/VDJqtUBLJu5nfzlCvbzZexPWcbW08CDdz9/3dG/PPzww/97txMhhBBCiG4oJInt6wLIfG4hua3WQLnxjiFlRzzVv3+J9PI7lrquUUWydNds7Itf5O3SjnrmPsSlZRFTOJ3EbV2f7njX3e/5w5vRa3fxYnkC0zPMHW4ZlLidjQO2MPHNAze0Lu/uuN/zd2NkipcQQggh2nb8Y7KOGYib3PHjg4Oem4bhWBYfd7fgBMBRwJZPbEROGdPh43VVg6czITCfLXvupc4793/+sJG7bT+q0dM6/pFJ70imjYX9W3Pvsc77/Z6/GyMBihBCCCHaUcvu9ZnYxi5g6oB2NhkwlQVjL5G5fnerxxt3F+btq8jynsbC9n6k8EEDCfMiMa1Pc/5Y3j3mfs+fozSN977SkzQzsp0fKfQmcmYS+i/eI+3ovbc+437P342QKV5CCCGEEEKIbkNGUIQQQgghhBDdhgQoQgghhBBCiG5DAhQhhBBCCCFEtyEBihBCCCGEEKLbkABFCCGEEEII0W1IgCKEEEIIIYToNiRAEUIIIYQQQnQbEqAIIYQQQgghug0JUIQQQgghhBDdhgQoQgghhBBCiG5DAhQhhBBCCCFEtyEBihBCCCGEEKLbkABFCCGEEEII0W1IgCKEEEIIIYToNiRAEUIIIYQQQnQbEqAIIYQQQgghug0JUIQQQgghhBDdhgQoQgghhBBCiG5DAhQhhBBCCCFEt+F5txMghOhYWFjY3U7CLVVaWnq3kyCEEEKIbkxGUIQQQgghhBDdhgQoQgghhBBCiG6jewcoSiwb/lHD7lfUbb//RDKFNYeYE3xnk9VVmpmHqClKJvymJ9KpmfJfNZg+GIfS7O97QPAkNnxlouaCiYyx90SKbw3FQPyHhZgv1FC4MvzOHit1FK+8NZfRQV3c3iOQ0fPWkPp+Kqnvr2HuM4G3NXltUwh/I4vSM5epOTwH7X0x+bSjc1Vh0hYz5o33yHnc5C60RUosG0w1ZL3cznVA3Hrd/Np6z5K6LESX3eYARWHSh2YuX77czj8zm5/v4NLmp0Xnc46K43Vtvq0O0aKxlmOsvpG0qYmemcGh78zUXLiM+btDbHhZ28ULrULselPzvFyowfRVFsnPX9/HlZyVTEvKxFh/I+lz46lF969gOW7ETh35G6aRuO4w9pvc7e2nEJ24iMnsIO4Xocw82P1TfKsoo2awaKSVtKf1DP9jyR09VqohUYyP6A2Xu/iBhmucLNjDJwcs9Bw0EJX1XDsb9iZm/oek/iYE1a1KbCPfqSyaHUrF0mHoJ6ZRcbPnzM16IpnC/XPQ3NROWpyr7vv0NBD6r15YKspvT93oMY6Mb7KYcqv7Qe5tUbN26eZo3zjEkZXhbb/ZUMbW1+NYctD603fcqhzUhL+6gUPfONv9mpOFZC0fh6YxIO5hYMr63ZSerHG26bkZJD3xM+xMVu1gydR5bK282wm5z9xMXRbiZ+Y2Byh2spPH8+TwJ3ly+JMkZlngRCbTXf9/cvjTzNvX/qVNMYSiqa/AeKKtbRS0IVqoLKfsBq6Omlcy2PymlvIN0xn+qyeZtQfGrclg7uCufNofrVaNdc8shg0d5vz3dBwrSvyYkraFxVHOEMV6Io/sbyw33wFR69D2t1J+4hxgx1KYTd7Jbt7Z9wTwJ/xxfyxHPiPvgh37T+l03uN30A0RBrxOfManpVbsd/RQqXhs8GOozMcovdbVz1zm1N/zKfpRRW/HMUqPOtre7IHHGBrhj+1cFe1sccOUxyPQU8bev1Vg/f4nFtgtrysK0ZPG0qu6gvZCta5xP1db7LOHDm2glYoTlluR4FbUI8cRjYXytu/t3MSO3dqiZu3STfDUMnmsgfPlFW2/X3+BkoN5VNTeQHJblIP21c18MltH2YbpPP2rYcStKkf76gYWPaMAvoxb/wnvRlrJnPk0w2KmsdEaTXLmIqLvrWGum3fBSHaOkQt3Ox33m47q8j1+zRPiVrvtU7yslUaMR40Yj56jl58/1uP5HD7a+JoF/zj3u1mlZC2Jxdf1Wc1ALeqzVvwW7KbUXMPlMyYOrRznet+LUK0/5yqOYgXw1BA7bzNH/mGmpqYGc9Fukse3d/9TjUZtZW/yLGZtyqPipJG9q7dSXK9DG9KFK5FiIHQgVHybT8XJCue/0jy2LVrJ3lotsU/qQBlHxkkzm+MUQEPS/hqOrJ/D6p1HKP3OjNl0hA1x19OnDpvC6p2FmM/UUGM2cWRjEuGuG3dKiAGtp4ny43aUqNWU1uwmqT+u7zCR8UYSGbmlmE7WYP4mi6SwxjwoaMcnk/W1iZqaGmpMhWQtuF6+LRmWF1KzP5mk1N0UfmPCbC7l0HK37X2iSUo9ROnJGmpqzJTu38CUwa7vakzLgkXs/kcNpe8sJtNUyKInFLSJn1GzJwmNomXSyiwKTTXOY/TNblY3HSM18TtrKFw/h9W5JmoOzUHbw7nPzQsWkfV1KWazmdIt8RgCY0neWYjppBnzVxuY1DQjScEwrf36pJ13hJrDycSv3E3hdyZqzpg48va46/nrH8ui/yrEdOYyl8+YOLIxHkOPLuS9GV/iP6nh0KtalCGLKTy5mSlqNYZXXOlq4zg0pitpYyFm827i2ztAbVIROOIVlr3/IR9+mMqyqTEMDenNueOlnGtwbeLRm7CJs1j2/p/58MMPSX3rFYb2bb2fAYMfQ1V1jGMtAhtVyGQWrkghZcUrDFWD5qmFpKxIIWX+eAZ4OLfp+Yvx/G5+Cql//pCPtnxI6opZxAR1bZzFsOAIp7dMwrdHLO+aStkwSsE3KomMw6WYa2qcx+lDt/MhajWl5iwWvZFFqdlExjOKqwxXO4/RP8yYTYdIHqXBkJjBEVdd3v2G21S7/rEs2nLEeaxdd8rjByuAmilbTOxO1OA7PoPTLaebqaeQVVPK6icb6304yUWXubwnqel4quM2Y/5uA2NiG8/V1vv8xS8MaD0tnPdNZvd3Zmou1FC6ZxHRjTfrOzxXIHxlITWH51y/8+9pIPnrGg69oUEzczemDyfhGziVz0xZbdYndVQSm3NN10cR5kXT+NUdlr17W+T2N3TchoHiPAdceTV/s5vksb7OKS/fFTInTCH2HROFb0e3GsXWzjtCzdeLMHi6jv2ZLBa9soFDRSbMZ1qUm5vW5aBG/X0Ja2ZO5c0teRhPVpD30aeUWL3w9VOD4o/f93mseSOR9INGKo5mk5ZxmAt+oQz2abPqNuM7chGbv3KmqabGTOme1UwK7vx4NbV9qXNYvafQ2Y5/tYFJA7VMWn+Iwn+YqTEdInlk40G4Pe3i9fbHmR7T+lgU1IS/6pppUFNDjbmUQ6nxGBoPUpfbxTbK69XdrWdVnMliUg+ArrWZ7bblHfYHOslTR3pMIetMKRnzFpGVW0ipyYz5682utqOLZe1el5u1Y31vPF1C3Ifu3BoURY9BCxXu0wHC5pLxThTn/jQe/SP9GDYzG81rq5n7pAIo6EI0KP3DMVSvY8IQPcPmF6FJ+CNzoxRQQtEGg+W4CTtqoldkkTrqPGlTh/DoI3rG/9XO5PXvE9/mdHoree8lMivDeP0lrQ6NZzkVx7tw9zZYi7bnOcqPtrhz6OmFl2LHes0KwQa0PS3O/SkadIEKul/qKP7D04QN0fNCFkxevohxCjAwnoztc9Dkv8mT+n48OnwexSGLyVjivFirB2nxP1/B0drmfxOoRatWEx3Vix1Tw9D/4mkyrdHMTHwKBfB9PpWsdwZjXPUs+kceJTRhL70SU3n3+bamLChog/xQBkehOfR7hj+hZ8ir+fi+mszMJwDFwJztGUz12kHi8EfpN+BpVlZH8e76uRg8G9OiED4Y1o14lLA5K4ifmIbRbmTtU/3oN34HhvVZpI60kjZZT79H9LzwEUxOcx0jJRRtoIJfuA7LH4bSL2YtFf2d+TNoz7PyqTCCxqRhjV3E5tRxlC8ajn7IC+zwmsyMl7Vdq0/BGpSBsRjK32L4ED2hc4vwnz6DqQMBJZxFWzOYxFYSh+vRT0zlfFQy7yZqO897MxfInBpHZpWdvMWh9Bs4nfzxGXyy3EBZ8tM82u9RQmdk4/da43FQ0Gk1EBiB7sg09AMnkNnl25YqBsSlkPr7KBxF29i0tRBGzWL8gGucPHrKuckDA5i86s8se6Y3VYe3sWlrDrUDJrMwMYqe7rvy8CcspDeX3QObRj9WUfr3fI792JOe54rYfzif/L/nk19wzLWtirCoofS+XMr+rE1s+MtuLP6jmTt7PIEenefCuOppZn5uxbonkUf7hTGregZbt8zF98s3efJR5/lgHHz9fPAaqMHfU0t4n21M+IWexD04j21QKP6HphL2iyHMytcQv2Yzc/y28cIwPUOTKwidNcN5vqFm0tsZzAjIZ+bwfvQb9DSptbEkL5+KL1a2vbGE7O8vsO3fH6XfU2ubTzers2K99gC9XIWnHpXAWMXChQe86OUJeGqYMj0aS1Ym3wQ1nqut93lGp8UfDVFR50mfPJTQ5zOxRswgaawa5538Ds4V1OgGarCWGznXmLYeBrSBztEMywdvsuYbOxUfPE2/oLjW9WlgPJs3zUSdM5Phv9AzfLER7ezVzB2mwOA5HZZ9u21RJ22Yb1wGnywxUJY8ntBBw5iV40/8mhWM88xm3vxPsX6fTaK+H8Pm57UYcVYwhGioqyinvB68gjT4e0YQrc0mMVpP0PAVWB6fQdL41m1a63KwUrJlJekHXQXio2XcwhnENuTxac4FsBvJfD2RtfnXU+A/UIf6fJkzjx1RYlm8Ph71vqkMCepHv1+8wDaeZdFrzk5+R8cLRYs2UEHzuIbiucPRD4ljR48prNiWTMSXiQz/xRASv9QQ/9pkZ0c38Ba3iy3bH6vz2mo6Xob9ibmkLtRS/PpQHu3XD/2z6ZyLmsucCeqf2C62duGDCfTu149+/frRb/gS8mrtGDelk/09aKZ10mZ21JZ31h/oKE+dCdbgp2iIDrvCyueGEfaLp1ljfYrkBZOdAX4nZd2sLrdsx6pn3Xi6hLgP3blBRb/B6HxaTAcoXcnw0DS4YMUOWPOLKa+fjJ8P4KnBoFVz4eAsZqXmOUdJPt1L0Yqn0A70gn8ORut3jooTVhgYz6K4OrY++yafHnXu2rhlB0ULVxBhUMis6iTo8I0lec0UyEok7WjnWVFCDGiwsO3o9f0qvgYmL5zDOM8iVuyzoBi0aK5ZMFYCPs68H146j09dU7OM+UasiToC/RRiZ80lNH8xQ99z5fP7vWzLsTD1l+H4U4Q2RA+V+yizK4SGaFx/gxKiQ9NgJO0PK8k+C1BOeTUoXgp4hjNzdiyWdU+ycp9rGkn+Rj47MYOpj2vhbyXNM+WpQ/evaixZb7Fkn3Namj0/jwr7ZLQ6BV/dImb0/ozp4zIpsQNUsDcrnxVbDRgUKA/RoWmwkLlqJXkXGstJi+ZaBcYKYHACcyY8wI6pM5vKrSRjG3mzU4n6pUJmjhZtgJ2ypStJ/8bq+rwOjb2INcmZGL8HLli5Apz/ZAXbTtjB08p5K3h5eXWpPmm1Xlw4uJIlW5xB8oWKCq6gwcsTfCfNJT4wj3kvpJNXC1Sms/IPdrTnr+A7KbXDvLdaY+TjVjeVaJJmRXNl07O8ucc5heVCTio7jsYzMyoCZY8FbbAaa/5GlnxU8dOmAwaO5/dTNRxL+y0pBy8DKmpDxhA1yuKapqUi7D8W8UrffBbO3NA05asmMJqhkQPx98jnVGMw0vMxHgu8xrH/OtVq+pbDXMQBc2/GD5/F5aO57Pg8v8U2DvI/WEi+2yu1AyYQE+HdtbUqnjp0wV5YDhqxo2bSrBkYTqxh2LvZWOqByr1k7rEweVQUOs8iemm1KOezWffHvVjsNB1by+drWLHvAqBgrf0R5ft80lbncaEelAtW8FQ7Wzy7lU8ThpDnZeWCFcBI/tHz8KQfvTzB6hoZyGvzZoWVK1YFPwXAl8kvh2PMykYztpezgzIknqkDi0n7j3L0C93O1Qj3fTrPY+X8YVbOWEv290BVHkZrPIEKnZ8r50MxaMHyZVlTfVEG6dB6Wsgz2sFDhy6ojvI/l7eRfmd7M/R4KsNWZWMB+NtK3lSisJ/1YtKSjsvez60tinD7u8M2zPNH4mc/xZVNT/Pm35w3hfZueJN5FQrl9aAZpMWrMpuK7zurGwpDQ7QoVdtYvNR17KsrqLJCoFcbn22vHAYv4sjhORgUOxV71jD9qTTyqlp/XD1sDu8n+XJ4aTp5nZ2YnmrUPcBee4G6eqC2hLXj9awFUKI7Pl49Q9EGWDn8+hLn9cHzHOetdjieyZI9FuwonLv8I2gUHuA2tIst2x/f6+2X0ktNL+xcqXV+1n40k+lDMgHwfbnja0KX1l7a7dh9YlmduRh9wTyeTs7DqkSzqLM2s4O2nIFTOuwPbK1rP0+dUUK06Ox5LJmfjtHqzHN+iQVG6tB4grHDsm5Rl1u0Yx2VtRA/R3csQFEMoWgx8ZnxekuvGbWIRa+OI1znRy8PwNMLtVLO2go7KM47THnrDtO0nMzTCy9PsH5fhxKiQ19fwafH7fg+H4tBbSD8q8vMafatFjI7XIumoBm7mPdXTOaBg7OIW5xNV5au6Qw61IqW1f+oIdm1H0UB64m9rPl/80g/CYYXdXhV7aDcDopBh6aumK05bnvv4YXCj9jrhzIuyhffwAzMz2c0+x77EStXXOtdzhnLqEPNYK2/62/QhGjxOr6XvebG8tGh04DlYAX2QeOIGqjG8HYpl99unn5jfhu57GHAEHiB/KVF1zvJXr1QPOu4cE0hekIE6uBYdtfEN/+cdS/WetCFaPGqyGbvCbdyCnGVQQNonoxGZz3Myvy2r/TKYC0aikjfd31OviZEi1fFXrJdnQdloBYNZaRnuyIgDx26QLBsc36ms/pkCKwjb8P1+qQEa/Grs1BepRD9ZgReJUvIdrtTatyTiRGFSb/tOO+t8uJWNwmJJTrAQvbektYbeuBMV7CVoj/t7VLdcxcyagwDLuez8Ivrq+G9H1DhaFx/oo5h/KhArp0+RtTU3xHl4QwXeob4g7WWy24jJarBYTzGSf6zg/Unjw2Ak38pbb3+xKM3Yc9OYXzkY2h690TlASq1P47ik1S1HI1pi6JFG1hHxVELKNFE/9IL45/3OTvIrajRDvLHUrCPoqbenvPYlmxovPvuhTbYH0t+No3Njf9ADV5ni52dWnU4UxbMJX5kKBq1c/6EV081dQfLsdS3GBloqeEcVqsXmh5eMDiBKZpsViafZ+7zGh7wUIidPhbl8zfZcUFNvNu52nyfagYP9Mdy5FPyGjvlag2B6nNUVNZ1eq6g1qL1O0fZies1xitkMP7ny5371zpHb7PbCrCUoYyLUmP8yz6azrR6C9lbLM7pVh2WvXtb5Pa30kkbNugpogItZB9wG7E+m8e2TQAKk0I01FUaKW/rO93rRuOx//L6cUWtIdDnHBUVbSy2aa8cKrcxa8xh/MKmsmhBAklPfkreFre1QJ6+RM98l/d/qyM/OY55WV1YJ/T9XtLWTSZjZSFlL+fx2e5tZG7a6wy6Ojleyi+1aOrLSP/S9b6HDl1gHUV/ul6fdUH+WC1VnOM2tIst2h/39stuTWPFwS28e9jE5Py97MjKJPNvRqwoRI/8ae1imxQDSZsymGxN44UZ25z1bnAX2sx223Lwfbnj/oD97+3lqXOGEB0c3dpU9qDQS1Gg7orzmtxhWbdRl93aMfuRG0+XEPejOzbFSzNYi5f7RT9sEZs/jEfzzRLihgYRNDCIIUvzsFtdow5aHTqvCsrdRikYpEPjaaGqwo7/IB3qsxWUWxU0wRrIfxN97970bvYvjDfbu8j3MDDlg684tGIwJYuf5tn5e9u5KLekxjBQg/3IEp5+6mnnvxHDCNP3I+hX01l75IJzm0EarBUVWOppSqvR7Q6hJsRZHhX/XyB+fha2PdevRdp70++5TKyKFl0wVByvwK6EXv8bpdl3AE0NoOV4OYpGg+b7vSQ+0rJMevPkqjYWo7rKtrzCbVQoRIsGCxaLP5pAL4zvPtlqX72DprPXrqAdpKGuwr2T4V4GCpoAX6iyUOHeYQ3WofO0UPVPu7MDV13htniwdf68QlzbNLbYgVq0agsVR62d16dgHbqeFU3z5cEVQFVWYGzQoAn04lxVOa26OZ6aTvLeuiiv101QAv3ww0L5SbcNlFBnB6KiAnuwDp2XBaOxnXraHo9Awob4c+1oEccc1197TNezaf2JanAYYaoqjh27zDWHg2s/XuPaj9c499972LSryO0hXyoGDGl7/UnTFrowHnvgFMe+a7GBhz+j3/ozy57pycmDm3j33aUsXb2bkzg4efRY1xbTDwp1nuvH7dBTQ6BPHRaz+/RJBe1AP7BYsHiEYvhXsBiv341uOraNbUXT9M/GbRQMWi38s5yKejWT1m/l3ZFWMn8XjX5gEEGDXiCzyo6lwnlnMzREDxXGth++UX+e81bo1aMX0dPHwe5t5J2v48eeXqj9JhMfa+XTv2S3Oleb7VMJdT79yi0PisGAHgsVR+n0XLm+bdOnnSOrFiMmu9vIZVtPYPLSEujXsnxdOi1797bI7W+vjtuwumANmpbnQCNPHTqtF5bj7TzNzL1uKM5jX3G8jXJrIxhrtxy+t2AsLSF70zxWHoToKWObntamDJzE6v15ZIw+z8qJw5nV5VFNOyWpcQz7v8+yeN95tL/J4KvPFhGu0OnxcgavRylrbNdc04Ob2gRF6xyBOW5ss92/6XaxRfvj3n5RX8G2hGHon5rF1ko/Jq85xKE1sahvoF1szZdxazazWJPNvPiVlLiuj11qM9try+1d6A+0l6dO06tGN0iD9Z/uD89Qo9X6U1dlwTK4k7Juoy43a8duOF1C3J/uUICiYNBqml30NZHR6K5lk7Y629Wwqon9dQRKlZFyO6hDDGg8cA6Xu2hjo9CczyP7uHMup7PDYQe7HR5Q84DbeJDv4HA07S0u840l+bNPmOOVydThE1i57yc8aUtxTq8oL82npHGx/4kKLBfc9qC4P35TwRCiRXHv+npqiI3SUVeST9EPQP0DeLkvCOihJXywq1kKMKBTW6g4bm3+t6fO9ZhStzU92lDnxea4HerrsLtGnJoEGzC0swBbHaJF4wG4lbdhZDSa6mLyT9ipawB1T8VtAasawxOuRyq70tJsfVGzMrDzo90OilezBbDasbHO43nU1YGrdOsUNuavaZ+N09uub6OE6NDUlVNW0YX6ZDCgsVqocLvzpR3kvHPbZmA6eArJ88ahoZO8t+JeNwF7HXYUvNw2ViJiifIpJy/H4kpXhVu6usijH/16q7h8rqYpCFANHkNM4PX1J6q+vVH9eJLcv25i01+a/9tR4N4J7c1jut5cLj/eev2Ji//gx+h97hilLfq1qsEvMCXiHJ/8MYWPsos4fvwUl//PYzz2QBXHj3btOcfNHhdeV4e9HhT3wlWPY1yEF0U5h7G6Hj1+1O3R484ydHvcuFqLNsDt8eSuKWDlJ4xYlQiif6nG+NFKtn1zwVm3Bj1FVFDjnU3nyIDlZHk7dy7ruGKtQ/GfxG9GnmPbR0bs31uxK2q0cVMJ/TaTjUdpfq623KefFp2PhaPG69/gP0iHuvooZdc6O1dAHRyIurYKS2OsqBgY+6SGcycqsOLqrJnLaTvmrWvV1mmeX0RynAGls7Jvry2qp+M2rFWdUhP7RjLxT6idne8OnmbWrG64ys1Zpu7lVnG9c++mWTl4aonfUsjmxOYPTvHyUuBHOz/inNKVtWsRmuxEose8yadtPj2yHYqC4gn2syV8+t4sJjy7AmPIJCaHKZ0cr8bgtZyKpnbNGVg1tQk9Q9H6udY83pZ2saJZu9is/erhbPesR/eSPj+Opxfn4Td+MtEeP7VdbFVgGN7YyoaxF1gTP5NP3du/LrWZ7bXlXegPtJenzhKuhGIIbrGRz1PEhkFZfh7+nfZpWtbl5u3YDadLiPvUnQlQPHWEar2wnLh+0b9y+Qr01KDVKs4h9VeTSQjzwl5twVIP2hANfK/h2ddi0SigfiKJ1dN1GDdvI69B47zgn3AOfxrzizk3eDJzntGgeDpircX1AAAgAElEQVSfXLV1ZwZzft3GvQfFwJy/ZjD5fCqJKXlYfbVoB2rRBmtQuxbQRr+xgQ2J7fy4nlqLNqCOCmNb87tdeoZef/ympwZDsBq7byzxz2tRPNUYXlnNzDAL2/5yGLs9n7xv1cS+MoNwH1B8w4lPy+KTd6ag9QRlsA5tXTllJ5r/3WyRZWPSQrRNFxt7SR5FddHEz47FVwH14Cls2LqHjKS28qUQGqIFu4Znk2LRKAq+UYtYMU1DyeZM8uwW8vMt+I+fweTBalA0RM/bzCfbFjG5f9tpaVYGgPHLPM5pxzHjGQ0KCpqRi0h9RUPeunTy7P4YdOpm9aP1Pl3TYtw6jroQreuuWRfrU2XZ9U6bp4HQf3U9tKHeQknJOfxHJjBukC++gyexen0yk7Vwpb6TvLfk2bxu2kuyybMOZcrvncdBGTiO5BWTYfda0k640lVV1k5nsgMNNq79CP4DHqM3oAqMYdaM0fg7TjY9JthRdY5rPcOIGRHoWguiondIFONHDGi+NsSjJ94PqFD19se/d2969my5ckRFP//eqDxUePds8U5gIL0Bh2uxvH/k71ieGEXPi8co7dLvE7nqXuPjwr/PJ7sEoqc5zwd8DExZs4inajNZl3Wh6dHj5W6dR+exvf64ccVgQO/+eHLFgCG4DouxHBquYLUqaEIM+ALKoEkkzxuHP+exVNtB8cXfF6gHX3XbPYML1iv4PzMFQ+k2dlQB9XXU1WuZEufL4U07uECLc7XFPp15cL9D7OoUujqpHZ8rYK+zgzoQTQCgaBi3fAXPBthdIwsKGl8/qK9D8VG3Pte/L6b4uBfR/z4VQ39ftKMW8f7b8Wh7WLF3VvbttUWdtGH2b4spq49gUmI0Gl8N0TMzWD0rCrXdCv019PL8kTqcazg6qhttlZvWdeOrotX506Ic6i2UnazjqXmbWT0tGm2wluhX3mXRKMj7WzYXgqeQ8dcZPPDRmyzZfY5eQc7rgibYt/MOt6eBOftNHFoei6YH4Kkm/JloNHUVGKvsnRyvxrbP6NauNQ8wlcFaNJ6uG0+3o110b3/c26/AeLK++4p347TOu/hqLbFPavEyl1Pe8BPbxRZ8n09l82xfsuc6130qrgAPuthmtteW00l/oMM8dZJotXOdpBIxhalhauihZdKKOURbd5D+twudlHVbddmtHeskXZrxi8hYOeU++QFbIbrmzgQoPQxoA+soP359DrL105UsOahmxn4TpsKtTGnYyuLNRupi3+WzN54kdJAGS9Zidvgs4tCpGkw74uFviSSmGkHRYQiso/y4M0iw5yzh9ynlGN4ppObMaQ4tGUx58nTmtfFjSMqv40kYpsZ3VDKHigopbPxXmMUMLaCEMnb6ZCL87G2OqjiH61tMPWu5TYgWrafJOWyuGNAGX2Dvu5mQ+Bmnz5jY81ovPnt9GisK7VBvIX3uTHZ4TOGTf1zmdNFWpnh8SmJ8OhX1rqlgVRVU2Jv/rQxyPqa0vKmVbvxdGFfDXfsp82amcX5UBmVnajDtmIHfkVnEpbT1o4FqtAP9OffRCnb0T+bI6dOUbRrHj1sSSfzAOR3MuC6RJfn+LN5voub0Ed6PvUDqf8xi21m3tLgNuTcrA8B+ZCWJS40Y3inkdM1pjrwdTvmqF0jcYgHFgC6IZvXDuc/rjzBtmhZzvHF6WvMRkI7r0785n6LjPjTfo/lvy+S9+3vWVBh49wsTpv0riKhYydS5znnZHeW99cFvXjep3cvi363h/JMZlJ2u4fTeRWj+Po+41/dibXq6zw383kbDcfbvKsLxy7l8tGcPO1aPpuf3166vPwEc/72N/zx4mbDZH7Jnzx727NvDR8un8JjqWvOpVw2nyPu8CMf/ncuHO3aw463R9G72ZQ5O/j2f46rRpOzMJTf3I2YNcQYx177Lp/RaCL/L3MOePTtYO1GFpdrBtfLS61PPOuScItH0uHAsZL4+i20NU/jkHzXUfPMJ8cqnJL60hLzvnQuq1VXu0yWdZXj9825TVBq3aZzGctwO9SWkLk3H8ssMyk6W8tXKUIrfXcnhsxpmfLiBcZ4VFB+xoHn1Mw4tb/3IW1yLWH2DIX9z47x9K9YGDf7WbaQdcdZX93MVe/N9DhykRV1pvJ6HlkFtR+cKYN2TTtq3epK/MmPKyyC2Io+y+nNYzHWAHWNBHufCkvlq54zWjyitryBt7hLyAuZy6DsTX60fhzVjOjM3WTov+3baos7aMM5m8ubcvTzwchal/yhk8xSFfa9PZ+1RoKqEvOO9mLKxiA2tnlbUvG44j717ubk69yfbmqffshzslKyaTuJ/nSd6YRaFhV+x+TUdxpTpJG6xED59BrG+asLnZV2/JhQVUvrZ4s7vYNcbyVyWhiUylcJTNdSYv2Pri3VsffVNtp3t5HgpBudC/sb2wtWuWcuNTW1C4/TXMuttahfd2x/39qtqKytXGdEtOISppoaa7z5jrjqbmUnOH1L9Se2iO08NU387CU0PDZM2ljofqVtTQ415s/MRw11pM9ttyzvpD3SSp44oIQY09XmsWV3F2A9N1Jz6ihXaEpb8v3lkWzsr61+2UZfd2rEO06VgmBDPuDA1V+72D9gKcQf9y8MPP/y/dzsR97WwRRTuj2brr54mvbv+Kq8Sy4b/3oLfKj1xH8mSvO4mLCys3fdUfQcwoK+DqlNVXGsnIFD1DiSwf0+4eo6qqsu3/EcWeaA3A4L84XIVp851/uuQpaWltzoFQghxW/m+eoiy/yjm2V8toUQCBSFuOxkwvM3UIQY0teVUdGm6y13imttdfFyCk3uN4+Ipjl/sZJvLVZzq2nKQG/PjZU4dv51fIMRd4qlh3LwkYv3aeo4xwHny0lfyaVsPAPiZMrycTHx4e0u767AcXMPag93rN+qVYfEkv2igvaNcV/4ZR0I08M+NXXt8shDipkmAclu5pl39M6/tJwJ1E4ohFE1dORvbeLiXEEL8bNVb2LvqTfbe7XTcQ4wfLWHWR3c7FT+NvTCTNws72MBTw5z9aiz5P/G3qoQQN0ymeAnRzXU0xeteJFO8hBBCCNERCVCEEEIIIYQQ3cYd+6FGIYQQQgghhOiMBChCCCGEEEKIbkMCFCGEEEIIIUS3IQGKEEIIIYQQotuQAEUIIYQQQgjRbUiAIoQQQgghhOg2JEARQgghhBBCdBsSoAghhBBCCCG6DQlQhBBCCCGEEN2GBChCCCGEEEKIbkMCFCGEEEIIIUS3IQGKEEIIIYQQotuQAEUIIYQQQgjRbUiAIoQQQgghhOg2JEARQgghhBBCdBsSoAghhBBCCCG6DQlQhBBCCCGEEN2GBChCCCGEEEKIbkMCFCGEEEIIIUS3IQGKEEIIIYQQotuQAEUIIYQQQgjRbUiAIoQQQgghhOg2JEARQgghhBBCdBsSoAghhLiNfIicksSEkPbeVzHh/SJKi1KZ8OCdTJcAHyIT17L98zyKvimltCiPfVtSiBvsfbcTdkvpX9tOaWkppUUZxPk0vqrCMGef8/UvU4hR3c0U3gKq0azNK6X04ySCPO52Ym6eShfP9qJSijKmNuVHNWw++74pJWf1aHzusfx2lp9+91l+bwUJUIQQQtw+/ccwbeY0Yga21wN0ULJ9FctTtlJiv6Mp+9nzHr+QlFdH0Ld6P2nvvM267WWgG838PyZguNc77G3x0BMZ6Qq+PIKJCg+AhrubJNE2R/kWVm03Q/h0ZsT6gIeeaTMnEvBDCRtTD1B7txP4E3WWn5r7LL+3gufdToAQQojuyJu4D/KYP/AA6Tu9mfByBH2vlLExOROmv0XC4325WJLG3NlbMTlUBI1fwLLEGPR+CrZTuWxcuoyshgS2fxyP3gNYVsS+x37L7EtvkJWosHuTifCXIyhZOIGy5xawdFgxy7OLqf7Bh8iZy5j9XARB3lBt3E9myip2n3Lc7QK57wQNCMKbWnZvXsfWrx3ALkpMcYRSTu391nFvqMZ8NoDQYRGo9uTi6B9JRJAN8xkI6nW3Eydac2D8yzp2jUgl7rUERvcJYFoImDauI+sMcM8F0J3k577L782TERQhhBBtsGN3OKBXJDG+BaR/VIa9fzgJq94g+Ot00gptBPwqgWnDVaBLIGXhBIKqs5jz6jLyPWKY/VYC+urdrMoowQEYN81k4dYTfF/vAI8AYmL7UPCXjeRWNg88fJ5bRsorEVCYxsLkLM4GTWDBW9N+NtMa7iSz0UQtPoxZspGUOVOZMDyYi19sJetgMdX3W4CCDdMxM97hkUSowCcyAn19GabKu50u0S5bAempB6h9JI6U1yPxPrOL9/5qutupunGd5ed+y+9NkgBFCCFEB8zk/iWLA3/dRckPoLpUwJbtB8jaU4wNbwIe6UvQ8Ej0KhslOzdSUHKAzAMmVLpIIv2qMZ21AQ6uVhVjPGNrmlJj+mQBb2/KouCM+3d5EzUiAu8GE7vWb+XAnnUsf3Mhy/7LiIyf3Hq27FXMTtlNmS2AmCmzWbp+Ozk5O0l9JYL7axWKU3VhGdW9wokM9SFqmB6OFVMmFatbs5XkU3YF8IBaYwknfrjbKbo5neXnfsvvzZAARQghRPsarnKpFqh3YHcA/3OJiw3AD1e5CkBP+j7sDXgzYnk+RUVF7HzNAB59CdC0Ny/BRvVZW+uXPfrQ52EV2C9xyfV2dckBDtyXd/S7AxvGHctJnDySqJEvMXNZJgW2ICJfe4NpurudtlvPbiqg5EoAEdETiTIomL4u4NLdTpTogIqI3yYxwrsW8xkHPrHxTAu5l+c6dZaf+y2/N0cCFCGEEDfBwcX/sQE2vlgznenTpjP95Zd46cUE0kp+4u3phkvYrjpA6UMf17qAoNipxL8yGv3P9zp9m/gQ+cpSUlZMxaACR62Jgj3prNtjAo8AAgLuwwK3F1NQYiNo9IuEP1hJ/tfVdztFogOqwQm88VwAtq/SmDl/Cyb0xL0+kYB7dLpnZ/m53/J7s2SRvBBCiJtiLijA9Jt4QmNjCDpros/YeCYGlLAuaR3FdrCjIuhXE4k5mUPHM6ptFHxRhm1YKHEzp3Lp64eYOCee0LOZFGy+Q5n52bCBfzijn5lARP9g9hdWc/XBYKLG6sFWQJnpfpz7ZKP46xJso0bgfWoXBWYIuNtJutX6hBL3WhK2phHHq5j2biX3TEcf6oY8goh7Yxr6eiPrUndTfVrFe3tG8+fJCcyOzWHOF67t7pX8dpaf7Ifur/zeAhKgCCGEuDnHN7L8nT4sSJxGSpoK25kS9v8piwIb8O1+ck9HMmHEbJJqzcw+1/GuqncuZ3nAUt4YP4OUEXaqj2Wx7I8bMckUr1vMQcH6mSxsmE1C7BimhqnAYaO6/AvS/5xC1tm7nb7bw/b3fMp+GEHQN/lUNtyHAYpPOHGvhLu9UMvusixyz9xbAWfA+NkkhIF581qyTgM4KP5zOl+MSGHEawlEFJY5N7xH8ttZfp55OOC+yu+t8C8PP/zw/97tRAghhBBCCCEEyBoUIYQQQgghRDciAYoQQgghhBCi25AARQghhBBCCNFtSIAihBBCCCGE6DYkQBFCCCGEEEJ0GxKgCCGEEEIIIboNCVCEEEIIIYQQ3YYEKEIIIYQQQohuQ35JXgghfqIJEybc7SQIIYQQt8Tu3bvvdhJakV+SF0IIIYQQQnQbMsVLCCGEEEII0W1IgCKEEEIIIYToNiRAEUIIIYQQQnQbEqAIIYQQQgghug0JUIQQQgghhBDdhgQoQgghhBBCiG5DAhQhhBBCCCFEtyEBihBC3OtUeqZm7GTt2ABUsSnklRaRMSWgxTYG5n9WSulH8QR5G0jaspOlI3w62ikRr29n+5JIvLuaDu8JrP08hdEP/pS0BzF64XbyijYT/0j7adE/t5TNB4soKioiZ8dapoZ5w4Ndycd9wiOA0X/IYF9eEUVFeexMSyKyrWyrgpiwZDP7cnLIyclh5/vxRPRyvecTSVLaTvK+LqIobx+b/zCaAA/wmZJB0TellDb75zoeN7C/ZvpPIPXLIjZPb1Eff4r+kczelEPRrtkYmvavImLhvuZpLtrJ/HBVywJpf7uQJLYXtch3aRGp41vu405QETFnJ0U5S4l0+3rv8HhSPy8iZ0UM7abKL4bZH+xzHoec7aQ8p3du6xFE0sfN81eUk0LMHc2eCv1LKWzPcdbbfR+41VtvA1PX7iTn6yKKcnaydrqh47bGQ0/8liKK3p/QuixuRT27Ue21YY+MZn7GPvKKiij6ch8Zf4hpOj+8w6ay9uMcioqKKDq4naWNx6w9dzN/d4kEKEIIcTu07KjdRkEvzCbuxy2k7Kt2vlBro/+IEbhfylShY4h40IYN4AcjG98rIPT1GUS20yNQDU7gjREm0tcXOD/TBarwUHTmMop/6OIHPIKIW7eWFzFhru9gO900lr6upyx5DFH/NoZlhf2ZMXcaQfbO83G/CHhuKQt+dYn0aVEMfXoG+1VxzI+PaNWp8Xl+AbMfK2PhxJGMfHo6W3iRt16LQIU3MXOXMbEhi8RRQ4l6ZStXfz2HpBEqarclMvSJMMJc/0YuPoDZmE/u2Rvbn1tqGP36NAY12G884z6jSUlPoo+5slU99Pb2wvin55rSHTb0Od4ucbTaRbvbHU/npaHX8x028W0KzhSTW9h6H7eb83x7CJvbeaD61Xw2vzmI6lMXO/ikN6PfXMqYHzKZHhvFmMUlBM1cwLQBgIc33oqZrQlDm/I4dORCcu9k9gYnkPJqECWLxxD16+lk2kaz7I0YvFER8doypiu7mBE7lKjfZaF6aRkJYe1304Nems0Y37Zao1tQz25Uu22YDxP+sIDIC+lM//VQohK2Yo9d4Dw/VBEkLU/A+4vZjPy3KJ5bbyb89dlM9GvvS+5i/u4iCVCEEOIWUYXPZ9+OFOa/v4+8D5PQe6gwvJTC9s9zyPk8h30fu+78hySx/fPGO6UqYlbkOUc2PAB8iPsgj9Tx3gSMXcrmz3LIOZhDzuebWTo2qI0vjSDuhT4UbNtPreslx9kyyvuMZPSjTRsxJDYC27EyHA2ubUo3k1UdxbSxbd2R8yZm6kTYt4UCeyRLP9/J7BDXO8+lUlSUQZzrLmjQa9vJWRaJChVDwkOp/baYWtrJdytXOfGXmSSsL+NqRwVrN7F79So2fl2Lo6GWgi9KqPYJINijs3zcP+rO7GddSjoHTjvgipEDhWb6PtK/xVYqAgL74DAVY7IBDdWUlFXTt39/FODi1xtZ9V4WJhs4Tu0i95Q3AY/0bb6LByNI+I2egg+2YG64uf15j5hBQp9cNrcRNHRZg5mP501nWV51q7e8H1Rh//FSp7vo2nbexLw2lYd2r2P3+RtM643y0DPtjRjM23bRLJfn97MsYQH7zR2UnyqUiMeukvPxfsw/OKgt3MiWb4OIGhEEPITygB277c4HXI0CHo8g4NhuNhbW4vjBzO6/HuDqsBgieuqJHKYif3sWph+c9SfraxWRI9oZSeg/gdnP29m18wQtu+m3pJ7dsPbbsLMH1/HH1AOYfwDHqf0UVHoT0L8veF6lZPsq1v3ViK3BQfUXuRgdfQjwbfsb7m7+7h4JUIQQ4lapB/ob6PvVbxk5LR2TLoEFiX3InT2Gkc+MYeYebxIWJmAwl2FCT2gg4KEnNOgSZo9QQr2BB4cQGmSmuGwQU38TTuU7Exk5aiQTl+Xz0K8i0LcYmVGFjiCSYr4oc7t41Z8g/1sfYsa4AhpVBKOH2cgvtLmN7NSSk1eJPjqSVjOFHoxg5OMXKfjCDI4yik0PoQ/1AVREGAKorvJGH6oCvIkI6UtZaRkOjwDCDVBWYoaQdvLdclSpoRZjaTWdXnZPF5C1z9h0B10fHspDp8r4ztFJPu4jtYW72V3Y2H0NIPLxAEzGshZl58BcYqIuNIYoP+DBIEaE+2D6tgwbNoz7ssg97dq0VxQRQdWcONr87nzAc/FEVm10dYZuYn/ekSS9qif3vS2cbbiJjF8xYTzVVg3xxvsBhf6xa9mZk0fel/vImBPTeopZV7cLmUb8YyVs/Nh8E4m9MUEvzGbMpY2sLWje9XacMmK80sVOaVN+7Dh+dBDQPwCVpzcPPehNxJzt5HxZRN7nm1n6XFDHU4lusbpmaQNsdmzeAfT3CybIp5bqqsb8OTBX1dInMLiNvThHEJS/tRE83qp6dqPabcNqKd63m+LzACoChk1jTGAlxSXV8IOJ3O0HMLk+pAoNR19voux0G/u/2/m7iyRAEUKIW8jhKCfnoPOCFTAsgmBTLlnlrs7egVxM/cOJ8Cuj+Fhf9AZv8AtF35DLLnMAoaEq+NdQ9FeKKTl7kUu2hwiNHUOkzht7SSZzFmRhanGR8tYNom+ViRPNrpB2yg4W4B09Br0HqMJjCD+XQ26Li7vNVMmlQD2DWvZYHtUThBlTFYCN4tJKgh8bgspDT+jAavYfuITeoAdVBKFBlXxXaIM+kYR6l1Fc3kG+211j0nUBsUtJGX+VjeuzmkaM2s3HfcmHyNfXMPWhXazd1rozbfsinXRTOCmf5ZGX/TEJD31B+o4W23kbiF/1Bvq8daS735VVGZj6fB8KPs69XrY3tD8VEYlJhBa+x8ajt29aytmjuZQUZjFn4kie+d1WbCOWsvSF1iNpnW/nTcy/j4aDWyjo6vTEW6X/BGa/YGfL+gNNZf6TOMooNnoxcvIYgh5U4T04jgnDvFEpCtTXcuJrI8WfL2fi01FMT60k9PUUEnS3OhPtqy0pplI/gYRhPqgeDCBmagx6VCheCoqHHZtbeV912FFUCkqLfThHEPazbru5xejJnalnN8VvKhlFRex7fyJXP1nFluPN31YNmMCqJZGY0tLJbTV77R7I320kAYoQQtxKP1xtmkfu85A3dtvV6xfVH65icyg85G2j2FhJkCEUn8eH0MdUwhfHLqE3BBPwuB6VsYRKh5ktixay3zOG2ek55HyWwfxRrad49e3jje2KrdW0B8e3X1CgxDAmxJuI2HDO5n1By0kyjkuXsHn3oY9n89dVffvwkO0SF13BUG1JGRcHhKLvH4q+wURBoQl0oQToQgm6UkbJJfAeNoT+pmLKHB3l+4ZLFVChn7yWP8/sQ9a8OWSd6jwf9x2PAEYv28j8kAL+OCsdYxudaX1iCnN8dpMwMproXz/HclMkKctGXx9d8olkdnoKMaffI+Gd5uuLVOETiawvYP+3jpvanyokgaTwMtIzijsfHbthteSmLmR5Ri5mmwNbeRYbsy+hf8LQYoSgC9v1imHMsFr2773Toyc+jJ7pGhk4e6P7sHFg7Sr2PziNjZ/vZ/PMAEwl1Vy12cBRTOaChaTvM2FzODAfTGPXqWAiwu/gWOPxjSz/wEz4sl3s37GGMZfKKLPbsFmvYm9Q8HZ7oMZDDyjYHfbmbZl3BEmJweS+t6XVzZk7U89u0vmtJA4dSvS0tVwavY6UydcDY++weNLen4Y9YybL9rWewnhP5O82kgBFCCFuk9qrNhTvh64/mebBh/BW2bh6xdnptw0MZWRYEOZjJ7hYZgJdOJGG/hi//Q4H4DhTQObiRJ4bGcX0jEtE/mEGo1t08tsdNHB8x/4CCH9qAmMeP0tudusLYJeZSyhT9IRGDqHPyTIqT5Vh6jOIyHA9yrESKhtURITrOFtajK2TfN+ogPGrWPOCnfSkmWQd/zlern2I/EMqSQ9nMff1dIrbLEsfwp/QU5m3C6MNcFSTn11GnT7CObrkHUHSe/PRFywk8Z3cFnfsVQyJDIfSAreO4I3tL/jJSPSPjHGOunyZQ0qsD4bE7excGHkLpxf5oP9VBEFuHVwVQKtpMJ1vpwqPIPRSMSU3HCT8/+zdf3RTVb74/fddmXUYeBLEBp4xVq3lUqgWy5AFGMe2jLR1oPEHQcfAvdMyayx8xwJfCioFtFKt8muE1iuU7wPBJcWRRkfCKKmMSZ1pqJqCT5jWdqzUSwlO7TglFUgesedrv/f5IwX6mx+WtnI/r7VYi+bsnOxP9kmyP3vvc84VUqaRaIok9tFdeP7swfP7BcT/JI1NpS9j7Xp6UV++KmPzY3NIuSeFOQt3cFI3mi/r/xNVF800U2yHK2P9GH4ErQO6VEilbs9q5s1MIsU8j1VHYPSpYzQEGmn4Sk/k2HNHhEL0LZGcbDjWqTOuxM0g4eZorP/hxvNnD+4VCejuXoW7eBHJ9wzEcXaFlGiS580mfhSASvCzd7F/cIZJU8OJsTIhnU3PJnNs4wJW72/oMQEZmM/R0CUJihBCXCWN3kMci03GMkEBFKIfTCb2i0NUfEm40z8igdnxQT71BVH/s4qGyDRmj22g6rAavnrR7zdhvVUBVBrrjhFA6bb8IfB1EN0oXbfHQaX6vQqGzZpP/Iky3D2c+KuMHo0ueJKTXa6gpTYHOaMbzZhza8fVv1JVdyNpD0bTWFuFqlZR91Uss++9kbrDf0VVfsrUuACHPgpcPO5LpY9n9rzk8IUDbrayZuFo7KtW8+4Xlx7HtUQ383FWxlewelX4pOKOlNtnYZ0Zi0KQhi+aGWtKIVoB0BF7dywjvzpGg6owbclKZh0r4PHt1T1cmW0MEyaM4cv6Tzt0lq5sf3VF87jz7iSS7kki6Z4UVrsCVG+fx5y1Ff03EqwZQ/KSF1m7JAG9JrxUZn7qaKo+CI82R8+wMnuy/qLlAMbGxUJDHccGeo2/+i6r77mz/X1KIunfd1D9VSmPpy3BfpHPyvn4UEhYvZc9OQnoNKCfsRjruMM43g/AqAQyN77IqpmRKChEpmZiubWOgx9d0WKyK3NrOtvffhnrOAVGxGL9TQqt75fy17PVuD9QSZxrJXYEKLdbyUg4Q0VZdaf4VO967jt/LCWRsrGC4AfrSMnYyrtbB+A4u1JtOibNWc6qR8PHHfoE0kyjaTzegKqJZcEzVlp3PsH68i5toYkkYc5spt04QJ+jIexanxAXQsFbJvAAACAASURBVIjB87cdPLs9jzWbS5kNcOoQW5/bER6hbvsrh+sjscaWUvAV4SSgeSyzflwWHh1vq6DkvRTy/pebBT9SobWZQ0XPUtqlZ9n82ac0PxQ+/+JQ11+tv5VS9vVsYt93E6D7bIsudiyjG8u6nL8CHP+UBk0GsbdA2ecAKoeqvyQvVUeZL1yBqr+1svLfG7EfVuGWqUz6rop15zpVfcXd0c3p7PpD+70tNJDgOMKitmq2Wudj06WQsTia4j+WcWZ6MlNvjGdqyRGWn3tuWzWbH57P7i/6iOOaoZCQmkzkBIVdnvTzj6oNu1kwdzOBqXNZPt1NxYE6KorW43hmOTtKF8B38O0/D7L5BTuNyjQyk6KJHP0invvO74HA/sdJy6tAVfSMuT7IyVMdF9ioV76//or8wZc5mNs+YqyBXZXpqF/sZoF1Mzue20rkU3mUfqiDbxo5tHc1eX8MH+mTHlxORsOn7DtS3Ue58HsbOXok357q61K+g0EhIa+UTffpUTQAL1I5UyVwYDVpTx/sFN+h14tJW5+H26OjNVCFPX8V7waAgJ11GyPJW7KHg88Oo/WrKkrX5rH7+ACGcXwftgOJPPPKQZYT5JhnB88WVaMC1dvz2JWXxxbXYnRnG6nYuZotn4RjvxDfACZTV6KP77Atz20lb2UeDo+OYW1Bjn2wlXWv1sG4RSRPiCQ6dz9Hcs/tSKUiP5El70aTnLUYAqUc+vKa/UK7JP9y/fXX/9dgV0IIIcQVUhJY41hO69NzWX/kcn7Q9Fi32En2zmfha12Xf+mYtcnB3M8WMH/7wF/V6PL0FYcQQogfIlniJYQQP2RqBcVvBEn4VdplXWZXuWM+s285SPEfe+rUByl7rRRlVsaQvwFi33EIIYT4IZIERQghfuAa9qzDrstg9aXerHBEPAueTKCucAsVvdwmXj2yhYLyWBYtSWDI5iiXEIcQQogfHlniJYQQQgghhBgyZAZFCCGEEEIIMWRIgiKEEEIIIYQYMiRBEUIIIYQQQgwZkqAIIYQQQgghhgxJUIQQQgghhBBDhtxJXgghLtOoUaMGuwpCCCFEvzh16tRgV6EbmUERQgghhBBCDBmSoAghhBBCCCGGDElQhBBCCCGEEEOGJChCCCGEEEKIIUMSFCGEEEIIIcSQIQmKEEIIIYQQYsiQBEUIIYQQQggxZEiCIoQQP3RKDNbCYvLvNaD8PBdnuYuCRwxdysSR/Xo55dvTidLGkbmtmBWJEYNTX3H5NAZSlhZQ4nThcjkp3piJqafmU6IwP1lEicOBw+GgeF06xuvat41JImtTCc4DLlwOG7n3x6CEn0TMQ7nY7A4cf3BQsj0Xy+3KgIV2UTeYyNriwLU7izjNuQcVjMtLKH+//MI/VzHZk7vWu49yEzKxuco7byt3sSFtMGJXMC4uxuVYganDy2snp7PB7sLxVBK91qq3dtVEkbmzc3wuRy5JAxpe+7HlCB+3JZs6HLfaOKzPF+M44MLlKCZ/XhzavnaliSF9mwvXOnP39+IGMxvedlE0z9DTM68uJYqU5TacriLSIzs8HplCdmEJTpcL19slFCxNwtB+/GrvsJK/04HL5cL1Bxsrzn8WezGY8Q0SSVCEEOJq0Fy8SH+Jmp2F5aydgveawg+0hDAkJdHxp0yJS8U4PEQI4GwtxUVeJj6WianPHoEYKgz3r2DZnS3YHjOT+vAKXIqF7HRjt05NxP3ZZMXWkJ9uwfJwFnbmsOJRIwpaUpbmkHp2N1kWM9YXfEQtWIY1GhiXQc58A+UrrVgetpLjMZCZnUHMAB7DvYpIIfd3mej9x8PHbgda7TBqX8lg+ozp4X+pGRQeUbvtotdyn9nITJ1+4fH0QryNPjyHu+/jalNuzyArUUeorcNjd2ZTtHQ8TccCfTyzj3bVaNEqfuxLU8/HmGrJxzOQ4d2eQe5vovC9YMX8QBa7QynkPJaEFgXjoznMVZyssKRiXu5AeSiHjDt676ZHPZRF6piuRwFABCmPWRnfNvDthiYKy/P5zOEo/raOGyIwL12GqdlG1gOpmJfaUX++jMxEBRQjmasy0HqexjLTTMY2P8bfZmEe09uLDGJ8g0gSFCGE6CfK5GxKXs0le10Jzi2ZxGgU4s6NTNsdlOzMx3qHNjxyaz83UqqQ9JQzPLOhAYjAssnJhjQthntXUPR6eFTbYS9ixb1RPbyoEctsPd43XLS0P6T+o4b6iOmk3HK+EBPvMRKqq0Ft/xFVPynB0XQX1l/89xmR+yFr/bubos023CdUOF2L+2M/+siubadguEmPWu+jPgS0NeGrbUJ/gwFFmYgxNkj5Wy78Z1VaPi6mpDqKu5KiUAwG9C01+E6ogIrfV0NgjOH8aO+gavOz95ksNnzQ1G2TbrhC69m+Ou+XU05L0qNWdKVFOJuvsK5XShODNSsJ/xtOOkX5TxcblubjOtFHx7SPdgUdynAVNTR4HVvDJCOGOifFH7egnvXjfN1NcMp0jNoYTFMUPnrLQf1ZUBucOCoVTNN7mUm4wUzW/SrOd47SNRptYiYZeg8lPSSnV1+Qo7tzyN5WS7DLliZ3ERu3u/GfBbXBhdevxWDQgyaI760CivbUEmpTaTpYTq2qx9BLgjK48Q0eSVCEEKK/fAfcEIf+w2VYHrNRPy6DZfMjKH/KisVqJadUS8bjGcSdqOEo45kYCWhimBgVwK+ZyEQtMHwiE6P8+D4ZjzXdyPGX0rE8bCF9/UfoTMZuo9pKXBImfHhqO/x4tR3FWx3B9NT2hEYxkjIlxEcfhzrM7LRQ/uFxxv/MhCz0GvpaPnbi/Phc99WAKd5AfW1Nl86ait9XT2tcEqYxwPAokiZHUF9dc2H2QXOhrHpWxWAwQJ2Po1oj0+O1gJa4hIno6nzUDIX+0Ol6aht6qogW7XAFwz35FDucON8uoWBxUg9J1SWWmzCXjFgfxW/5r04cfYianUVqoJit3tZOj6sNtdSevsRG6KFdFY0W3XAtxsU2HG+7cNqLWHF/VN9LifpZa6e6AaFWQloDhtG3EhXRQtPfz8Wn4v97C/rIW3vYS3gGQXmnh+RRayLz0fF4ikpoauvhqVdbWwu1nzR1S5qgBd97TnzNAAqGKXNJvcmPz9cEZ+vxvOWmvv1JSpyRmLZ6ak70sP/Bjm8QSYIihBD9SFXrKXeHf7AMU41E1XtwfN4+Mu32cPQGI8YxNfjq9MRM1MKYicS0eXD6DcTFKRA9kZjTPnxfBQiEdEy8JxXTOC3qkd3kPuegvsuPlDZmPPq/13O00y+kSo3bi/ZnqcRoQJmchPGf5Xj+2fm5oaN+AjfFMH4InW4gLiYC02P5WHVOtr7RvTMdOmjDVm8k93UnToeNDJ0H2z4/qDX4aocxfXYqUcMVtLdbME/RoigKNDux7QmQutGB820HhbNaKXn1wozcUNX0Nw++ww5y0y1Yl9sJJeawYnb3GcGLl9OS9HAKlNnxnh24+gPhmYHZKvZt7it7v/tq17YWjlbW4vvTBtIfNpO1/TgTf5tLxrj+DqJ3LT4f/hgzGVMiUIYbSLJOJwYF5ccKiqaVUIf3O6i2oihKtwQqPIPgougtf5dEQMH460wmflxE8d+GQjbdgzFWClwuStaZCe4roOSzzpuVaDO5T5qo327D02312g8gvqtIEhQhhOhPZ4Pn15FH6LSooeCFH9WzQUKqgk4bwld7nKi4iUTET0Rf78NTF2D8xCgMk2JQan34VT/25/NxaZLI+p0Dx+sFZCd3X+Kl12sJnQ52G8FTqz14lSRSJ2gx3mOk6UMPXRfJqC0BQlo9+qGwlEdcnMZAyspCsid42bjSRm0PnemY+bksinCSbTFjfiCDDfUmclemEEEI95YCXMOtFNrtFC00UH+kiWAohDIlm9xHVGwLzZgfMJO5I4RlTTam4QMf4qVrwbM9n427PPhDKqHPHRT/JcD4yXFdOriXUO666aROacF1YKBnTyJIWdg+M/CPK91H7+2K6mP3c/nY3qsnpKr4y2w4G6IwGgdwzvSzYja84se4cjf2V/NJDdRQowYJnQmitg1D2+EY0w0fhqqqnb/LtEYyf30rniJ7t8EZZUIGmZNrsL3q62EGY4hotrMsNRXzY1sJpDxPbofEWHtHOhvWW1FfzWHDe92XMP4g4ruKfjTYFRBCiGtVSzCEMk6HFsKjo8N1aJUQwdPQ4qsllDKR6W1R+GuPEjheD782YlIN1P65felOo5fdL3jZjULUvTlsWJpJSmUu7g4jbb1Ofqg1uCph2Qwz+vgmPDubIPYqByyuoghMSzeQeZ2D3FXhdfs9lTFOjuH4h09TGwJowvvnGlqfNDJeceNt9lD0uIei9rKWjak0VR/HYMxCX1+Cq30plf/P5dT/NoOJkeD9fKDiu1wRxNx5K2q1D3/7e6EAdFsGc/FyymQjE1t8FF9xknCFFCN3TTEwfkoRzl8BGgWtFvLteooey8FxqfXppV1VbRTGWIWjH9e3L/EbBhpoHdClQir1b+WT+Vb4L2VyNrZf+PF/3YShOQJDlAKNKqAQdZOBwInjnTrjSmwSpsgodOsdWAAULVrFiGObgYL/10RMpIHc11PDZYdrURJtFBvyydzsHdxOvRJF0v0TCbid1J5WCX3uxlGZQeHkOJR9TTDOSv6q6fhfyqbww57nzqIShnB8A0BmUIQQ4ippOuzDH5OEeZwCKESlJTG+0Yf3H8AJHzXDTZjjQhytCqE21OA3pGKO8lNzRA1fvWh7PpZbFEClqf44LSgM6/IaLadCaK/T9ZCoqNS+70VJnkvc3z2U93DirxKhRxsKEPhvtrb5h0ibvIjsOC/5z3VPTpQJKViSY1AI4W8McOuU6UQpAFpiTOPRNfvxqwqm5cXYlprQaiAiMRPLWB9OTwtNx5sg5q7weStAxBQjMfg5PtAni18OjZ7pC/PJXWgiQhNeKjP353pqKsOjzVGJFsx3RFy0HEDUbTHg73oVpgGgusl/IBXzA+GZK/PCYmqbXeRaL56cnI+P3tuV60ykP5vPsmQDCgqGn6djvqUe7+EBXLx3i5WC1zdgiVZgeAyWX01HPeii5mwt5ZUqdz1kIWY4KBMsWO8M4i2v7RSf+nEhc2eaz79Hlv/wEqosxPKYDbctk9Tz2yzk/6WF2l2ZZAyFznublon3Z7EsPXzcEWEidYqephN+VE0MGSssqK/ldk9ONAZM95sx3gD1O4dwfANAZlCEEOJq+ayYDbtyyHnBjhngtA/bxuLwUoW2GnzHDFhiXBQ1A2oNNYEoUoaV4zsNtHnZ++fp5Gx2kKFRQQ3ge2UDri7rlAP1RwncHz6PxNf1V+szF57TZmIOltNC99kW7fgo9E2eLueviKFHwXRPEoZxCkVO6/lH1RN2sh8tosU4h6y7y/GW1ePdWYjzySwK7RnQBq3NH1G0yUETKoE/2PGvycHh1KK21OD4XT7uFqCsiA3jV5C5zcEygLPHKd+8EffpwYr3AiVtA84nTO339YAilxW1MRx38UYbhsdzsB/QwtkmfPvz2VAaPtInpmVhPXEU5ye1fZQDUDBE6Gg9ffGrgQ0sBdNKO/n3RqBoAPJxJau0lOVjfcHbKT5fb+2Kg8KXDOQstOFcqaA21+DavAF7TydjXy0nnOwuM7Fii5MsQvg/LGbDzlpUoPbVDZSszGGjIxPt2Sa8r+Vj+1s49gvxDfEzoSKtFL3afn8eDZh2l5PZVovt0SxsG23kZOew26lFaQvhr7RR8Ho9RGeSNM5A1BMllD9xbkcq3hfN5LijSPpNJgRc+P7x3/uL+V+uv/76/xrsSgghxA/JqFGjBrsKFygmVuzOQn0+k8JPLucHLQLLxp0kfZzFsje6r38WQgjx38OpU6cGuwrdyBIvIYT4IVO92PeFMFlTL+tywcrtczHf9BH2UklOhBBCDC2SoAghxA+c/60CHFory+69xJsuDo8jY4mJo9tseHu6MbMQQggxiGSJlxBCXKYhtcRLCCGE+B5kiZcQQgghhBBC9EESFCGEEEIIIcSQIQmKEEIIIYQQYsiQBEUIIYQQQggxZEiCIoQQQgghhBgy5E7yQghxmYbiFU+EEEKIa4XMoAghhBBCCCGGDElQhBBCCCGEEEOGJChCCCGEEEKIIUMSFCGEEEIIIcSQIQmKEEIIIYQQYsiQBEUIIYQQQggxZEiCIoQQQgghhBgyJEERQohrhp6EX84iVhP+v3V7Jdt/qeufXY+IZ/acaegAxbSS/W+vZJrSP7vuRoklffteNt0XeelPuXsN+7dZ0V/O69yYwPJX3FQ6lhOv6aWMJpJZOdvZ76mkstLD3i2LSNAD49LZ/uYmZt98OS/4/UTOWM52p4fKDzzsf2UlyTd2L6PM3ITnyBGOfHzuXyW7Fka3b9UxbeHL7P1zJZUfuNmTN5vo822oMC17D3tyE+j5iNGRkLuHPdnTuFrN3iMlmtm5u9jvduN2u9n7UibTRvVSttf27Ctu0M1Yw97iRcSP6Hm3kfdtYu/2dGKvRuCXFJ/CrI2eDm3a/s+xnPjhCaxxVnZ+/MgR3M8nnG+nQY2vPcZZq/fgqdxF5rnPi3Lxenekm5rJy85K3M8nd9quTLCy9vduPB9U4nl7O4vu7vgNMBDHtELsnDXsOlBJZWUl7jc3kT65/dX0CSzashfPB5VUevazK2cWkT19z/wkmeXb9ofLufewdk7s+fro717Eyw4PlZWVeA7sYs2c6A51HaKf2X4iCYoQQlwrRvwUy69TiB4GEMCxag6rnMF+2bUSl0bGzAkogOrbyvwFW/mr2i+77ib6keVYzxazdn/jJT8n1jSJwJFDBC71CfpZrN26iNENx+jrHYqcs4ZVd59ka0Yid/5iMaWKlZWZ01A+3826d0eTmT378pKiK3WjlZUrplK31sKd98xj64lJWO+L71Zs2AiFYR88y51TJjN5ymQmT7mT+dsbANClruKZWSfZkZHInQ/kcfgWK5ap4a6LcscCls2oY2thRS/vR5CKQht1M5ax+I6B6+7oH1rF8rgqVltSSPnFfIqZyzNZPXS4+mjPvuJmRALLl8RSUbCD6m96rkPj/rUUn7WyfF50zwW+h0uLT+XdFUnt7Rlu0//xZgN15W7qzlbwrPnOC9t+Ng/bJw0cfL8KdQjEhyYa6+ZNzKWOhu86hnSReneg3L2SXStuo/Hz5m77znhqEZHe1ZiTEplXdJJZuY+T3N5bH5BjekIGa7JjqcpPI/FnaeR5b2TxExlEa3QkP5GHpc3Owpl3kvib3Zy553EWzej6OjpmrVhD2jc25qcmkvb0YaKXrCJjHDAimcdzLfD6QlJ+lsi8wkamZq/C8pMBjG8QSYIihBD9pn00zenGfcDN/uI1zB6nhH+kt7nZk9U+MvaT2Ww6sJflUxXQRJKcsz08gnpgP3s2pl8Y6fxJMsu378f9Zw/ut3excmYkoCf9lUpennNuzKz974cnkr5pFQk3JvB4ycukj9NjWbeXdWYdoBA/by17nG7cTjf7Sy6M8kUv3IN70yIWbdrFrpL9uB2bsE7o8mOmn01evoXoSQvY9coi7r5zEbt2LOKnyrnnL2f5S7vY43Czf3smyfet5OVX9rD3wH5ent8ec19xdnoLp2F9ZDQVr5USuH0Re5xrSFDC723y8x6O/D6T6HMzRNs8vPygDjTRTJsEVYcbL4xIH3Cz/8D+8IzHT3p4nbYGSp6cT56n7yTo2y9K2bx2K+8eV+FUNe96Gxhzc3jqouHNYqrjrMydcJHDoh9EzkjmtupidnwQALWRd/PmsXB7dbdyI3Ujaf2mtYc96EiYOY0v39rCu1+oEKhg82/msfkDFdCRnG6B/cVUBAHdNDJf2ov7QJdR/WAZxQcgLT25lxHb/qYQecto1LpD1AWBtkYOVzUy5sYbGda1aK/t2VfcEPlgBomN+9h1RAX0JGRvZ2973O6STVhvV4AApa9VcOND1n6eNbyM+DqakMGiu+uwvVrdrTMf+eAiZn1djO394BCID+AMn+5cwoLCKs70UaprvTv5qpS8BasobegS7Y3JJN58mJJXDxFsU2l0FfPuqWkkT1UYsGO6tY59G9ex44MAaluAivcP06iPZKwGmj/YwboCO3VBUD93UPa5jsibx3R+vjKJaXFncJeU0vCNSsC7g2JfNIkzokHTyMGdeWzeWxeO7/2DfNY2mkg9AxffIJIERQgh+suEDNYsieXQ0xZSZqbxRMVYFq+wEkkD9k27UM3LsdysI2FhJtGezew4rKKfs5I1pkbWW1NIeeB/sG/YfPIWxgM6ZmWvIuH4eiz3JGHZ8CnTclYyu7fh+v/jZ/faEuqCFWyau4Tdn3fYdvsCVi0cTdnyNFLMaSz5o44FqxeEl8F8p6IzxnLy5fnMnzuHvKpJpD/y084juIF95G07hFq7g/m/2crh/91h23cqukmRfLp2PvP+PY/Dtyxg1d1V5P1mHnPXHea2h2bzU4U+4uxMmTSDBA7xfpUKn1dRRyyTbgE0sUyKPkmDZhKTdMCInzIpuoFDh4MwahrTRlVxqFYl8pHwiPRzv0zhPvN8dnxjIe+x5O4j7qfqqP784lNAAe8+9nnPdXojSTBGUlfdPsobPMjB6jEkJF+FkedOFKLH3UjzN2NZ/srecAekl8RLN1KB6LnseNuNx+Nm70vtS9I0kdx2y7cEr1/A9jfduN372X5uycmIaaQYm6l4v32mZWY6GcMdzDenkJI2nx1fTSJhUrh701BWQbMxhWm9LBfqXyoNh+v4dlIyiT8BRkQzY6qeOl9V9xHj3tqzr7jRk5AUy7EP3OGZt1stLLovyI5/TyElJY3Ff2wlISH8WVCr3qeCBGZM6s8e/GXEd56OWY/OpvWtHZSd6rJpRAKZ6aN511ZK+Igd7PiAtgDVRxq7JVJ917sz9fNqqk9134MyNpLIk400npsZajtG41dKOAkYqGP6eAX2/dXn2yt26iRGfl7FX9Ug1fvtlB1v3zAqkWnRjXz6SXPP+zm/9KsV9axK5I2RKME63n2zgoY2QNET/0gaE04douI4Q/gz238kQRFCiH4SaUpkbP0+So4EAZW6t0o5FptIgg743M66Pw4j/YVNLJ96mK1FFQRRSEyYRKPLTkUAUBtxvFvF6KmJRA+fxLTJ33LIdYggEPxgM/MfXk3pJa9h6livaYytK8P+mQqoNLxbRt2NU5l2bj14XQWlxwFUGr9sZuSoy1y0VHuQsq+A1kYaA/Cpt4xwOI0068ag7yvOLmuydRNuY8yJOj5VAbWKQ7VjiI3XwU8mEdtWhqMhkkmTFPjXScSeOsThr0B31zRurD9ElapjqmkSjR4Hh4JAW4Ay1yGYNLUf1tfrSch+kfSRDja91tD+mEpdXSOR/xp71dd463RjGGuMpGrtXFIeWEBxq4W87O6joq0nqqg44mbHb9NIsSyndLiVvCdmodOMRDdiDJMmNLL5NymkZRTQaFrFyjl6uDWWaBqoO9G+j1NB1FsSmZ0aT+SPGnl37RI2l7d3wRrqaCCa2FuvcsDtgu9vZWvdVNa+7cHjKmHByPfZ+mbDxZ94Tl9xK7cRe8tJjtW1x3Y2yEnNBFIeTCb2J1C3ZzVLth8Kd67VT6k7MYbbJvTvOPRlxzfOyty4aux7u5fRm60kNu6j5JP2zvwQiO9SdKv3pVKGQVtrp+SntRWU/0sZlGM6MnUNax88w45Ce+elprp4MtctI9azma2Hu8SoVnGo+sek/DKN6BEKujuszDbpUIZdmENT7ttEZaWbXY+O5P0Xd3DoG4b0Z7a/SIIihBD9RDdShzJpEfb2E17d9kXEMgzdaACVuj+W8uW/TkX5wMHBUwA6dDodY+duCZd3uyl9YiooOsYoOkaOCBI8c+4HTSUYCPY9EtkL/UgdrcEznF/4880ZguowRrb3RVq/6bDtu8t/hdbWc89Wwx2GtnP7or2+fcTZJUEZM1pH8FSwvT5BDlUfIzp+EnrjTxldd5j3a08SGz+WSGMsSvVhjrUpTJoygS+PHCLISHQjIfh1h8UkwTN8O3wYIy87qg40kczK28HK2yt47n9u7bSWv/HUGYZdP5oxvT+7X6hqK82H91H6uQrfNFC69yDfxk3lti6ZUcMf17N67W4qvlRRA9UU7yqD+GlMUqC1rZWq/e1LTr4sw/7+SW4z/hTtmNGMDJ6kub3dVNc6lm8/xtj0texxudmzMf3CidttzZwMjmT09QOzpj124Voe1+9jQUoSSffM4dm6BNbmzbqs8356i1v50WhG64KcPNl+zH9lJ2+VnTPGTLbsPYi7eE37EiiAVoKnguhG929LX258sfeloT9cysFuUyyRpM26jU8PlF7oHA+B+C6uh3pfqm9a+VYzrNPgwLBhw1D/PxVlQI9phdhfbuL/WTIa+5OPY+84e61PYPnWtSQfL2DBhp7OFQny7qZ1lI7IYIezlF1LIqk73MiZ4IWS6v7HuXNKEnPyq5j07GYyJzDA8Q0OSVCEEKKfNH8dRD28GUtKCikpKaSkJJGUNB/b5wA6Eh61MvqDfQSSFmO9FSDIya+DHHttQXv59uf8cj2HzgY5840O3fkfFR2RE2KJHAF8B8POdew1IxnW54J1CJwJMkw38sJo+4iR6JQgZ7ouEblq+oizSz7U9Sc0cLiKYMwkUiZH01D7Kc1VdTBhKgnxN1Lt+yuqJpZpcUGqvAHgDMGvQXd9h3REN5KRZ4N9rn/vm56EnJdZdL2dJ7K3cmjA3rOOVBq/aOTHui7d1jb4ttMDCvrbE4i/ucO7+CPCSaP6nzT8A3TXdxgh14T30V2Q6r3refzf7yPpgdVUjF7AsvTYzkV+9D3CuWR6pk6J5ZjHQXUQUBs56Kri29hp3RKzXl0s7i4JcsC7m2cXzyPlnjnk1cayKNvKpV9L7nJdZnyaaBKmjuYz76HuAxX6BBLHHaPC26ULPKjxXYLe6n0JBxRyDQAAIABJREFU1BPHCIyOZuy5pUuaWMbeGOTY8Z6WUV29YzrywXW8+EgrWxctwf63Di2jm8aigpXEVqxm4Yay3hOwr8rY/NgcUu5JYc7CHZzUjebL+v9EvTEB65xp4WS1LUjD+3bcJ2KZZuwpfR0qn9n+IwmKEEL0k4D3IHWxaedPMtebFrEpbzbRGlCmLmC5qYqta9exzqlj/hNWIjUqh7xVjJlhYZoOQEfsr9ay9lexKO1T/wn3JaLXgM60iJf/1yKmDg9y8lQro28JX25SGZdM4q3tFVBbQaNj5PDO9Wr0HuJYbDKWCQqgEP1gMrFfHKLiy8sIrg1ah41kZG+X4+1TH3F2KRn4OohulO7CScINh6kakcDs+CCf+oKo/1lFQ2Qas8c2UHVYhZunMelHVRw+ARDksLeKyCQL8TpAE0nazGmc8R2i7jImhpTbZ2GdGa6bbubjrIyvYPUqO3U9XAUpctRIWoMn6WVleb+pK6ug2TiXBVN1MCIayyOJ/Lj2MHVq5/r+60Mr2ZKbQfwoQBePdW4i3/oq+KsaoMJVx9g5C0j4CSg3zyJjxmg+9f2VUHOQM7rR52ez4rO2s/3xaeg0QOA/qfvqTIeEeAyjdWcINl+lS7h1EqThi2bGmlLaLwusI/buWEZ+dYyGLnH3rve41e9OcjKoY+To9iuZ3b2SXVsyw8eO2kjDsZOo5zt1w9CN0hH8uj9b+jLjGxbLpJsb+bSHg1mJjWXsqWM0fN3hwUGP7+J6rDcQPcPK7MkXmSf7sgJ3w21Yfh2PTqMQfd98Zow4SNlhFXWgjumbraxZOBr7qtW8+0WnyJi2ZCWzjhXw+PbqbjMnF+JTSFi9lz05Ceg0oJ+xGOu4wzjeD4AmmrTsZ1icGhn+LrpjFonRzRxrCA5cfIPoB5ZPCSHEEPZ5MeuKIlm1uZS5GuDsMUpfLqFBE8+i7Bk07JxP2SkVXi3A/fu1LL/PzeN717Np7BqeedPNj38E3355kK3PHENF5d3CddyWtwzHn9fANw2UbcpjX0BFebMYS+5mSoyNnDxxkKrq1vC9T04e5uBnC1j+hz1Erlp+4YTTv+3g2e15rNlcymyAU4fY+twO6trgUk/vVqsqqFq8nF1vj+bF9T1dJapvgV7j7Kz5s09pfiiW2xTCsyvqXzlcH4k1tpSCr8J/VzWPZdaPyzh0CvT3TkNfaz9/yePGt9axeVwea990A9+iflbCcy9XdL906YMvczC3/Z4LGthVmY76xW4WWDcTmDqX5dPdVBw4RnxqMpETFHZ50i+8Fw27WTB3M9VtCrGxkTR+1nBFS+8uy2c7eLYokjXrnGQMh+ZqO3kFZahA5Pn61nHo5ecozl3JZucCdAQ59kEJzxWG42/c+yybxq5l5ZuVjKGZugPrWP3HAAz7lAZNBrG3QNnnUP2Og2PPPoPD/WNogzP1DjYX1oXrcUss0ZoGDh6/2gEDqFQUrcfxzHJ2lC6A7+Dbfx5k8wt2GrvE3dxHe1b3Fnfbp9SdGE1yrA6OBFAP78Mxaw1rHRn8GBW+rqJk477w50i5jdhbmvn0tf65bPflxtcIoI9kpCbIyZ6G4n8yGl2w6vySn/DuBzs+4OZ0dv2h/b40GkhwHGFRWzVbrfOxHe+l3ihMenA5GQ2fsu9IkIS8Ujbdp0fRALxI5UyVwIHVpD1dhn3tFsY+uxnnXB388xDF+Zup+AY4PjDHtH56MlNvjGdqyRGWn3uwrZrN/7aDsUnRRI5+Ec995zaoBPY/TlreoQ7xVXPo9WLS1ufh9uhoDVRhz1/FuwEgYCdv01jysvdwMG8YnG2kYs9zbPWqMGKofmb7z79cf/31/zXYlRBCCCGA8A3cHMtpfXou648M8RE/XTJr38ykcek8tn422JX5PnTM2uRg7mcLzt8zpTfRC/ewY1wxlhXv9nn/mB+KyF9tZ5epDOtie5/nQChTV1KSN4z1lme7LUscyq71+Hp3rR/T13p8ssRLCCHEUKJWUPxGkIRfpQ3MDRC/h+g5GcTX2in5QScnAEHKXitFmZURvuJcb3QJZNwHpbvLflAdnb40/rGYg7fMZn6fN7LTkzY3gZNvFP/gOu/Xeny9u9aP6Ws9PklQhBBCDDENe9Zh12Ww+r5BPX23b+PSWXXfSWyF+y7/6kNDkHpkCwXlsSxaktDLDd10JCxZROz7BWy53MvBDmXBCrYU1pHw5IKebxwKRN63mgydnc17LuPyxkPFtR5fH671Y/paj0+WeAkhhBBCCCGGDJlBEUIIIYQQQgwZkqAIIYQQQgghhgxJUIQQQgghhBBDhiQoQgghhBBCiCFDEhQhhBBCCCHEkCF3khdCiMs0atSowa6CEEII0S9OnTo12FXoRmZQhBBCCCGEEEOGJChCCCGEEEKIIUMSFCGEEEIIIcSQIQmKEEIIIYQQYsiQBEUIIYQQQggxZEiCIoQQQgghhBgyJEERQgghhBBCDBmSoAghxDUjAtPsFGI04f9bCl0UzNb2z66Hx2G+34gWUKZkU/J6Nkalf3YtLtENJrK2OHDtziJO08N2TQzp21y41pnpsWkiTGRuLMZ5wIXLWULR0hQMGgAtcfPysTlcuFwuHDvzsd7e4bhRYrAWFpN/r6Hneg2PI3NbMSsSI753iN1jMpCytIASpwuXy0nxxkxM515mTBJZm0rC8Ths5N4f03PcNySRtakYh8OB4w/FFCxOao8btHdYyd/pwOVy4fqDjRUd9zEAcSvJ+TjLyyl//9w/F0Xzo8Ibe22vjjswscLu6vD8csrLy3E8ZUKZkInNVd5lm4sNaeciVDA+ZsP2pImevyW0mJ60YXvM2PP7emkREnP/Cor+0H5svZqP9Y6eXq2vclqM8zdQ/LYL1wEHtpVmojpUSJu4guJtmcQNv7QaGe7Np7jQSky/fH9danx9fMYiU8guLMHpcuF6u4SCpUmd2nlw4xs8kqAIIcS1YvhEzPOmt/94t+B8LoP8P4X6ZddKbCrW5HDnTa22kbXURo3aL7sWlyIihdzfZaL3H6e3Fo16KIvUMb1t1ZK0OAdzm4Psh1MxL7YTTFxEZqKCMjmTnHlayp+xkjrTyobqKDKzLUS1d5KiZmdhOWun4L2mnnd9tpbiIi8TH8vE1E/58DmG+1ew7M4WbI+ZSX14BS7FQna6EQUtKUtzSD27myyLGesLPqIWLMMa3UPcC5eR1GzjUYsFy0IbTYnLyPq5FhQjmasy0HqexjLTTMY2P8bfZmEeM3BxKyMUlMqNpM6YzvQZ05k+I5WsXX76aq9OVC8brantz53O9JmZ7P6bn488Naif2chMnX5hW3oh3kYfnsPhD65yewZZiUexbfP2ckyF8G4r5mhiFpm3X2Fvd5yVnN+Op+Z3VswzrWz42EDmkrnnj61LKaf9+TJWpAQofsxM6r9twHeTBfPk9voMN5G1cDzeomJqz15alZreK8B+1kLWQ1FXFtMVxNf7ZywC89JlmJptZD2QinmpHfXnyy6082DHN4jkTvJCCNFvFGLuz2bZr+7CoIHW5o/YvbEQ5wkDlo2FmP+2gqyd9ahjzORvs9L0QiZF1XqSFq8g6+e3MqytlUCtg4L19vCP0Zgksp7KInWsDkJ+ynfmU1jWinWLHeOfLOS8EwIiwn+7/ie+pGWYbtAycecG9E9tQF1aTNJfLCzbpxL3UA7LHjGiB1pDNTgKN2D/JETUfBuFMV6cGDEaIjAo9RQ/m4/j8w7ZR4SZnKfMRF2nUrRFR8HvtSxbAht/XUhgno3CGB8uzUSMNxnQBvZSVKrH/MBEDDdoaXorl9w99agaQ+9xiotr87P3mSzqDdnY43vYfoOZrPtVnO8cJSO2510EvMUU1DmoDwEhJ55jWZhv0oPfh2OzE+cnLQD4PvARSDRg0IBfY8QyW4/3dy5aAGWchZxVVozXDQNNK8fLisjf4qHlkxIcTTux/sKA961eOvRXoPXvboo2+3CfUIFa3B/7yYg3gKJgjA1S/oIL/1kVPi6mpNrOnKQodjf4L+xAoyfKoMX/jpcWgBYvtce0WG7SgyaI760CnO/UEmqD0MFyahdnYhgDnB6YuHVaHerZ1h639dpe9P46hrRMUk7ZWXawa8qhJelRK7rSHJzN7X9bzfCnbLwhQGsk/als5sToQAPBur0Urt+N77QHe1kGhdYkite4e02Oe6XW43zJh6uyBRXwlvto+rmBKA342y6lnJaYFCNN7zyKu1EFvBQt9naI18pdTU4e/UQFJYlc+1xa9x/HMHk8hhsUfLts+CdbmB5lwICXgicL8bS04HrDS/qTFoxvFeL7PgMtlxrfqd4/Y03uIjYeceM/CzS48PqzSDWE23nQ4xtEMoMihBD9ZZyVnAXj8T2fjuVhK7neW8lcasGAH8eWEtR7szBHajH9Op2oD4soPqIScX82OVOaKHzUguXfluFU5pLz6zhAS8pjyzCdKCT9ATPpLx3FuDQbc2+rSf7PF9g376U+5GXroznYGzpsm5DBsvkRlD9lxWK1klOqJePxjPAyoTYVbXwMge1ZZD2awYbaiVgtEzsv6WhxsuEVH+pnxWQttnHkf3fY1qaijTNwdHMWmQs34Lspg2WmGjYsziRzs4/x95uZqNBHnOKSnK6ntqG3nkYEKY9ZUd4pau989iRE7XsOPCfa/7zOhDGqiaO1AdQGD46/1KMCaGNITTNBtY8aFZS4JEz48NSqgILp3zKIqszF+rAFy6NF1EeaMN4A0EL5h8cZ/zMT/bnQq+VjJ86Pz3XIDZjiDdTX1nD+nTg/Uq2inlUxGAydj922Jmprm4j6WSpRCig3JGGKasLna4Kz9XjeclPfvjMlzkhMWz01JwYubq1Ogag5FL7uwOl0ULzu3BK23turV8NNpD+ix73b1T2FmTCXjFgfxW+1J2/DjUyPD+D1hP/WpliZO9xJltWCxZpFcfNETHHhaSF/uZdA/HSMl7jEqJMTXhzv1Z5PbGKME9Edq+k++9pbuTYD429qJTQqg4JXHTgcJRScX+oWgeln4zleWR5OPgE0MYzHSc7iTJa9FSJ10VwUew5Zjy6jRDVjuSfcSmqtBy8mkuK+5zqoS4yv989YC773nPiaARQMU+aSepM/fHwOhfgGkSQoQgjRTwxT7yLqmJO9n4QAlfp3XByPMYWXfzQ4KCgdhvXpfLIm+7Dt9BJC4a47J9L0FwfeFkBtwumuQT/5LqKGT8QY34rvzz5CQKiyiKxf5+Nq6bsOPdfLSFS9p31WRMXv9nD0BiPGyPYC9V5cJwBUmpoC6K67zK5WnRdPc7j+TS1w9GMP4XCaCGj1RPQVZ0/nUojLok3MJEPvougtP5c0WKqNI/2ZLGI+LMJ25NwzFExPllDutJE11odtZ3i0XBszHv3f6znaXix0uhX9ZDOpU6LQnvZQtGoj7n+0bzvqJ3BTDOOvSp8oAtNj+Vh1Tra+4Qe1Bl/tMKbPTiVquIL2dgvmKVoUpeuLq/h2F+G9KRubw4ljdw5RR2yUfNL5nVKizeQ+aaJ+uw1PaODiVv9eg7e6nOLlVizpT+MabiFncUrnc0J6bK8e3qFfWLirycnev3UtoyXp4RQos+M9N2N5y3ii8HO0sb0ep0KoN5kw/zwOg6YJ9+Ycij5s73afOIqfKMbfcvnxdWT4+Qpy04IUb3PQ19dYp3IaHdrheiaOa6JosQXrY0U0TVlG9v0RoIwn5qYA/qMd5nXamvB9VIsKBJqaCDXX4PtcBQI0NYXQjdK1B3yU+r/rGR/Tf2sSLx5fz58xAMZYKXC5KFlnJrivgJLPGHLxDTRJUIQQop9odVqUuEx2OhzhE3J3ZjKeYWgjAFTqS100RRtRKp14TwNo0eq0RM3ZGC7vcGBfbARFi17RohseIhQ819lQCbWELq0D2kWETosaCl547tkgIVVB1/7bpZ7tsK3t8l9BVc8tUVGhTUX97ty+aN9vH3FKgvL9aI1k/vpWPEV26tsuXpwIE1m/y2X6iSKyX+p47oGK93dzmT5zLrl/NrBoffgiCHq9ltDpc8eHim97DluP6DEvL8LhKGbDwgszB2pLgJBW3/9tqjGQsrKQ7AleNq60tS8LDOHeUoBruJVCu52ihQbqjzQRDHVdhGTA8lQOEytzsD5gxvxwDp6xy8h95ML6fO0d6WxYb0V9NYcN7eebDFTc/tJC8jfb8f5DRW2pxb6nHOKMTDyX7PTaXl0ZSE0Zz9EyV/fO8XXTSZ3SguvAhaVvij4CXShAoP2YUf9SwNO7/ERZc7E5HNietWK8rr1wW4BASEfEqCvNPBViZudTsFCP45lcHA2XV05tU6n5U3ipm/oPD46DAcbHT0TR6NFrQwRaOn5nqajn/mwDVLXLd6ZyvlzwdAitXn+FMV1JfD1/xgBotrMsNRXzY1sJpDxP7mwDDJn4BoecgyKEEP0kcCqEesRO+gpnDx0JLaZ0C/pKJy0/y8TiWIb9RIjAqRD+N7LJ3OXvXFwxkXJWi3aUQribr8UwzgCNAfgOlHOdIY2OboPGXbQEQyjjdGgh3HkZrkOrhAie/t4hX6I+4hTfixKbhCkyCt16BxYARYtWMeLYZiB7sa1z0qI1kvlCNjHefLJ3XViWEnGHmemjanAc9MPZJnxvuDn6iAXjLfBR1xc868e9PRf3dtBOsJD7QjaZVRlsrLxaC90jMC3dQOZ1DnJXOajveM5Ss4eixz0UtZezbEylqfp45w7b8DiMcQG82320tAGnfZR/HMASH4Pyhh/GWclfNR3/S9kUfniha9/tI3VV4laImGDEEPJR29i+n/Zll+GlQD23V48iTJiij+M53L2UMtnIxBYfxf/oawchat8pJPcdIMJI5nP5ZFl9ZG6vv1DkChNPQ1ou+bNVbE/m4m68zHLqcfz/hKhR57+92t+j71en/nQp8fX6GfvXKLS3TyTgdlJ7WiX0uRtHZQaFk+NQ/sSQiG+wyAyKEEL0k5bDH1Efk4JlXLh7EzElk/yVZqI0oEzOIGtKDbbNhRS8p2PuYgsGjYrv4xr0SWaMWgAtMY/kkvtIDEr7EhbTL0xEaEA7JZMNmzMxDg8ROK2ivykKBVCik7jr3NILVQWNFl2XteJNh334Y5Iwj1MAhai0JMY3+vD22WHp4jtQFR26K/rB7CPOK9mdOE/9uJC5M82YHwj/s/yHl1BlIZbHbNRjwHS/uf1cCQXjwmxS/EXkdunsqjebyFyaiSW6/fj4RRLj25o4/g9oORVCe50u3E6aKCzriliRHD7PI9Topyk07Px+lAg92g6j8v1Bm7yI7Dgv+c91SU5QMC0vxrbUhFYDEYmZWMb6cHrCndioRAvmOyJA9eNvNmC8u/1YGx6DabKBwAk/qiaGjBUW1NdyOyUnMHBx3/pANhuftBJ3HaCNw/LQXbRWe6lRe2+vTvGdq0NMDLee9uPvYdAh6rYY8B/tdNK2GggR7DDrE/doAQWLjWg1QMtxjv4z2GEQRI9eGyQUuIJkLNLCivl6HM/md+u8KxNSsLRfGbD3ci14/3KUW+/PwDQGlMgU5ibqOVpdg9oWIBDSoou4km8RBd11WkKn+jin51JcYny9fsa+1DLx/iyWpYe/54kwkTpFT9MJ/9CIbxDJDIoQQvSXBjsFrxhY9oKdORrg7HFc2/fi18SR+VgS/tey8JxW4fUiyrfnkvWLcnLfKWRr1ApWvOpgmAZa//ERtnV+VFTc2woYvzKL3W/nwFk/5Vs24GxRUfaVYH7yeWzxTQT+/hE1tWr43ictPj76PIOsV20Ynnv6womynxWzYVcOOS/YMQOc9mHbWEx9G1zqhSjVWi81C7Moej2Clwsvv6PS0muc4lIoaRtwPmFq7zBDkcuK2mgn+9Eiant7EzVRJP0mEwIufC1GUn4WhSEiH+e95wqotLyXi/V3RWyIWkHmS06yFFBbanD+rhB3CJT6owTuD59f4VP9lO/zYVpchGMxqLTSdHAr+R+3L+QbH4W+yXP+vI1+iBrTPUkYxikUOa3nH1VPhOP2/cGOf00ODqcWtaUGx+/ycbeEnzcxLQvriaM4P6mlZGMxhux87PeHr8AVqC5mw+v1EJ1J0jgDUU+UUP7EhffE+6KZ3AGJW8W3fSMlT2bzvD0DLSH8lXvZuM2Lqph6b6/1vg7xtSdW/7cebaimhyRJwRCho/V0l47qiaP4NXMZHwmeBqg94MS/agW7HcOgDYLHnBRta589iRxPlMbPRye67vviIu5OwnhDHMad5WSde7CtlqJfZ+ExziHr7nK8ZfW09lHO/s5Gtkblkv2qCz0B6ssKyC9tgbbweRZJ47XwyWWenNd+fsfRN77fZdgvNb6mP/XyGTvdhGejjZzsHHY7tShtIfyVNgperwc1MOjxDaZ/uf766/9rsCshhBA/JKNGjRrsKggxMBQTK3ZnoT6fSeEnffXAI7Bs3EnSx1kse6P/LjM8aK75uLWkPL+bOfXZ7fdd6V3UfBuFY0tIv5LLDF9lhkcKKJri4dEVfZ9435UyORvbSoXC9I1D+jK8AxXfqVOnrriOV4ss8RJCCCFEz1Qv9n0hTNbUPi+jq9w+F/NNH2Ev/SF10vtwzccdwmN3oaRY+77JpNaE9RfgsnuGXHIC0FRq56ObzMy9rBtJRpD6kInAPvuQTk7g2o+vL5KgCCGEEKJX/rcKcGitLLvX0HOB4XFkLDFxdJstfNO/a8S1Hrf6iY2iD8eTudBEzzmKFtPCTMYfLMLW7dLFQ0TIi23bUUxLMoi7xPu0GO5dhlXroOitH8AFO671+PogS7yEEOIyyRIvIYQQ1wpZ4iWEEEIIIYQQfZAERQghhBBCCDFkSIIihBBCCCGEGDIkQRFCCCGEEEIMGZKgCCGEEEIIIYYMuZO8EEJcpqF4xRMhhBDiWiEzKEIIIYQQ4v9v7/6jmjrTRY9/z0rXprqyrSV4WsxUikc0LQ7ULMG0BZyW0FHoD+P0NM4PcNYRPVfQW9RW0TNUWzpanVHsquI9ysxVnDtC2yG2FXRKsBVxCtgFxcqUigfEHko7GmpNbi17lXXvHwmoSBAdKtF5Pmv5hztvdvaz3zfs93nfd+8IETAkQRFCCCGEEEIEDElQhBBCCCGEEAFDEhQhhBBCCCFEwJAERQghhBBCCBEwJEERQgghhBBCBAxJUIQQQgghhBABQxIUIYS4KRhJ3V5CtkW58qWxcSz9vZMax1KidD0bFWJX7KP+wxIyJ/Upf286ez6sZ9+KWPrZ27BRYrLZ93Y2sdd0UAqxWXvYkxOHOti3qLPYWLqWmSOv5WPCmblqD5U1u0i/x/+xmGavZteBGmpqanC+sZHUKSqMjCKzsITVjxqu4QP70BmZuWI7+yprqKmppGRLJnH97W7AciqxC16j5L0aao442bNmFuG95/pq51ElLmcPe7JudJsxELd4O/veq6Gm0smel2dh6ucAlBkbqayvp/7Dnn817FoQ7ttFHJlbSqg8UkNN5T52rZiJUXfxveqjqykpzCTKT3swPr6Rku2p/X7u329w8V2t/tWYdF4rrcH5cuIV9TO88YFxRja7SiupOVLJvt9nM9Pf98ffd+yuRJZu2+etP+ce1s42XRbjTR2fEsfq0ppL2m099fX1OF+O641xuOMbLpKgCCHEzWB0DLHGJo4e0y7fbpjJ2q2ZhLS24O7nba5zo0icGXXZtvDkRMa4+yvdh+7qRa7bEO1b+eF8ljzaxNbNVf3G3+97YqKZ1NpA7TeDfIMuHPumjcyhidbvBig3KY3VWSYacpOJfyiZNdVjWfRcGuFdx9iRV0V01iLiBp1FXc44ezUrHz7L1rR4pv14EWWKnez0K5OFgcqpSSt5YeZZdqTFM+3JNRwdZ8cW493D1c+jm6rNBTQ9uoRFP7xxPSE1aRlrZvjiSVlK1dhFrPxF+BXlgkYqBB15kWlTpzBl6hSmTJ3G3O2tgEric2uwdRezYMY04v9tN+cfWUbmo74YRsaxdLGJqrwdHPPTHtr3raXwgp2lP73yc29UfAPVq/JwNruW30f7yTNXfsAwx8dddrKfi+WTDTamJdh45dNolj03iytya7/fMZWZy1eT/E0Bc5PiSf7VUcIXryRtgu/lmz0+rYoXU6b52uwUpjz0Uwo+buXwwQa0QIhvGEmCIoQQQ0WNJf3VEpwHnDidTkpeTSd2NPSOrJc6cR5wsq9wNbMm+DpIunBm5uxin7OSSmcJry2Ou/LiBigxsYSfrL2yU93dStHzc1lT2d7PuzTONzTAw1aievqUOhPJDwfxybGzaP28IzxjD86N2ax9w0nJc7EoOiOJK7azz+nEeWAfezakXhzJuyuRpdv34XyvEufbu8ieYfRuH5vI0m0lOA/sw3ng4oi1EpPNvjfWkv3qPir/dyYmnYHEFbtwvudk3xu7WJkw5mK8k+ysLdrnO5f72L4ssZ/zopKYaoN9hVR1xbG6tISl9/temf0aNTXbsRsuiWtNHAoKD8RE46qrxYVC1E/XsqfUibPUyb4i34zHFc7zye8WM39zA+f7ebVXVxN7N6xjxxEXWreLqoNHaTcYGa8DrX4Xxe3xpD1uHGgPfn37WRmb1m5l/ykNzh1jf3UrY+4Zew3lVOJmxPL5n7aw/zMNXFVs+refsumIdvl5dOO/HbsrKDwAyamJg5+t+rsoxE6P5Xx5ofeY3ccoLGkg/EeJhPdJcEepo+j6pqvfvZw5soN1ecU0uUE76aDipIrxHm9bMz6VRnz7XnbVa4CBuKztlPjidhZtxH6/Argo+0MVY39iv8bZvaGLb8D6/7KMNfNXUtZ65Td6eOMD9eE4ok872H3IBd0uqnaW0TIlkfjRfUv6+Y4p0cRGnsdZVEbrNxqu6h0U1oUT/2j4rRFfH8anMpn5VSEFB90BEd9wkgRFCCGGiDojlbQRDuamWLEmz2XHl9HERavekfXFJmp/ZcM6I5nnqsazaLkdow6Mz6xkWURtzPqBAAAeyUlEQVQtq55MIOHnO9BS1rBoet+rjMIDMSZcdUevHN0+18Sxk/2lGj6fH6aqO47kaN8+JyQSp9RS9bmf8t+BGj2eT36VzOz1taizs1ltaecVuxXrk//O3qC5rFkQBajMzFpJ3KlXsD2SgG39J8SuyGaWQWXmspU8+uVW7DMexzrnFT6xrCT7KQN8B4yNYsyhf8eatpUW83yWJJ1ny8+tPD5nFbV3RTNG5403/pfzCT/yHMkzrFjteTSNiyO2b398ZCxW8xmqDraC1kBt0yhM0QZAITbKSPtpFVO0AqjE3j+GhvoGNJ2RmChoONoK989n5YIQKpYmY01JZvFbKvNXzb9kmZxPt4tj9e39JnSXOVVF8b5jvXVkiolm1MkGPtIAXDgrWzAl9J+AXo2rei97q3uSUCNxZiNNxxquOCa/5XRG7hv3Le4757P9DV/S17PU6dLzyADtGGitqOKM2UrstSyPu25jGDtWpb21pXeLu62ds/9svGyJFoA6SoHwOex420llpZOSV3uWQLk5tq+YilO+gqPjiQ1v55OPzwAG4hJMtBxx4gK410bm4252/NyK1ZrMore6iIt7AAXQGg5SRRyPRg9lD3Dw8Q1U/9rJYxw711/rHO74wDjOiPZ5K71zO1+10v6NkfF9l0Fd7TvWez660C5oGMcaUW6l+ABGxpGeGsL+gjK8NT388Q0nSVCEEGKIdJ1zo42LZ1ZSFMbb2tm/djGbDrkxWuIZ37yXono3oNH0pzJaTPHEqQoxFhNnqsq80/df7mflHBvrqvpcxnTjiYnsovZof7MkV9HdQlllF3FJ3guZaWYcHCnzv1TpOw1aKij7VAMU4uOiaS8vpsoFaO049jcQEhNP+IhoYqd8S215LW7AfWQTc59eRZk7lvjob6kqPey9qJ6r5WD1ee6L8V1ItU9xHvBeqI1TohnTXEXF50B3OxXltbi7vYfhPvctY2JmkWwJRz1XwaZnX2R/36TqXhPhtNJ0GsBNbX0L4yMfQNGZiI5op2z/WUxRJlBiiQ5v4aNqN4TEEa02UPspGC2xjG+qoPhTDdBo3V9B09gYYv3eYzJ4xqTVrH3qPDs2F3vPA+BuauHsOBP3/V19CANxWb8ldZSDjX9oHXw53SjUkWOIntTOpn+zkpyWR7tlJdmzDX3Oo/92DEBrE62EY7r374lhkHQKQUFdaJdOjGhddAWNIqhP0a7TDVTVO9nxP5Kx2pZSNsLOmudmXj7To0aRvm4JpspNbD2qgXIfpnFnaWnyxXbBzVndJKxPJWK6C5r2rGLx9lpvp1L7hKbTY7hv0hDOHV1DfBcNtv4Z/vhQGBWk8O03l/490+jSFJTbB/kl0BqoPXY71n9NJnykgvpDO7MsKkpQ0K0R3yUMKXbi2/dS9LFvf8Me3/CSBEUIIYaIVr6OpdtbGJ+6lj3lTvZsSCV2NKijVJToTIqdvqn54kxMBKGGqKhqEG73xUl/7ZwbrbvPju+KIVZt4ujJ6zuulncrcD88k1g1iuSHoWp/E98OUL7rwnnfLICKqqqMn7PFe9xOJ2XPxYCiMkZRGTXSjft8z8VZw+1yo92moo64fPsZtxt1pO/C+c153L7kSB0ZRJf7PL39M/d533Fp1L62mI1Hx2BbtQunn6VvypgQRrnPcsZ3vlxHGzgzIRrT2GhM3U1UVTfBpGiMk6IJP9fA0bOgWh5gbFMtDRoYRqmXf/4353FrQYz6u67xCqZ/3ch/Lg6h+PllFF9SZ9rZs7jVEEJuu85d64zMXLOD7PureOl/bvW7Jt1fua7uLhr2+ZY6fV5B8cGz3Gd+AH2f8+ivHQPQfYaz7lGE3HkDRmq7Nbq6glAu7a0rQQR1XVJnPq1vvcKqtbup+lxDcx2jcFcFRMXSO6BsiGPp1rUknspj/nrffTa3hRCiujl71tdWvyxmzcpizpvT2VJyGGfhat8SGoAu3OfcqCFjGDLXEB8w+PrvMdzxoXG+S+P2kZd+oRRGKRra/73qfKSPm/0b11E2Mo0dpWXsWmyk6Wg7593uWyS+HkaSZ97HJwfKegc0hj++4SUJihBCDBk3x0peYdnPHyfhyVVUhcxnSaqJM1+50Y5uwma1YrVasVoTSEiYS8FJN253F+qdo3r3oN5rItxweedPtcRiaKr1LRW6dlprBRWuGBJnJxOnVVF2tUSnd3bFzdmv3LT8Yb7vuH3H/q+vUHvBzflvVNTejqqKcZIJo+LGfeHS7QpjVBV3Pzflu7/pImhk0MXR4tFj6D0T37Sy/7VlzH0yAWtmMaRks+jhq3SKW4/SEGQiOu4BQpobaDnZQFPIfcTFmAhqPEpLt0JszCQ+r/fO+rjOuwlSR10cZR85ClVxc/7cVc7PAIxPreO3z3SxNXMxxX+9zgrrl4G4Fa+ReWcxz2VtpdbvMfopp/0XrV+AeuclnSkd0DcZBvy148tcb5J1Tc7QetqNMfziZ6vjwwn5WwuX326hYLg/jqh7LmkftwHdXd7RZTWWzLxsTFWrWLC+4mIHEK54WIOrejcvLvop1kdms6bRRGaWneu7a2gwBhsfDL7++xjW+KC9tR1l7Fh6u813hWMMaqfls2vYyZcVbFo4G+sjVmYv2MFZNYTPm//LW7e3QnwAhjjiJ7RQVd3n7+QwxzecJEERQoghEpWxne3LYlF1gOu/aPryPEE6cFUfpsmUjH2StwNlsGSycc0swnUaR6ubMD5i945Q35XIyq1bmB996V4VYmPCaT1ae/V7IPzpbmV/hYv4VCvuQ2W09tsp7Y9GbXUDYx61EasCqJh+sZa1vzCh+JZexD0ej0EHqiWT1/5XJjG6Wg7X3U7cjHjvjMfoWGY+fDsN1Vcef3tjE2ciE0m8B1DCsSVFE6TD+8SbV3exeoYRBXB/1kq7+/Yrj+6Mm/NqiO++FUD7iIamsSQ/FU57YwOa1kDTlyZmPTaWpqMfoSkPEBPpovYDbxe1vbqWFlMitkkKoBD+VCKmzwa4P6c/hihm/dR3U/M9dlYvCKF45Sr299NBUUJCUN1nOTvQk8D8UGcsIzuqilUri2nqM3Ku3D8T+wzvo1f9l3NRVd7E+NnzibsLlHtmkvZoCJ/UfYSnz3n0144B0I0hRD2P+8xQJl/+aNS+dxglaS4z71FgdCzzn7mP1ooq2vvE/S8/yWZLThpRowE1CvuceL6tq+IjTSF2cTYzW/JYtv3Y5fdwfXeWs26VUSG+J5k9nM2uLelEqYDWTmvLWbTeRCwIdbSK+6t+npR1A+IbqP79Gvb4wF1VQcM4G6nTDaAzkPhLG8a6Cg67L4/PP4W4VSXsWRGHqgPDo4uwTziK46DrFonPF6XJxPhzLbR+dcnGAIhvON2QMRAhhPhHcOwdBy0vvoDDeTt0w/lmB5s2N8GXLazLN7JyUxlzdMCFFspeK/ImCn9ax6ZJa1jrqEThPE1vrWPlwUs6f75OdcN/uvr9TOWp1zic43tmvg521aSifbab+fYtl5VrL3fSMs9K7butcA2/ZOEqeYWN41fzwhtObr8Nvv38MFtfaEFDY//mddy3ZgmO91bDN61UbFzDXpcbNq7jvtxMig8sATRaDqzjxX1umHL5vrXqAraW/5Zl/6eSRedaOVxeS7spCLpbcb5eS9xzu3A+Bxrf0n5wI6uq+3SKT31Cqy4N0zioOAmgUXvsc9YkqVTUebuiDX/tIvvn7RQf1WBcDNHfNbCuJwH56w5e3L6G1ZvKmAVwrpatL+2gqW8Cd08qu970/caMDuIc9WR2H2OrfS4FqpW0ReEUvlXB+emJxIyNIqaonqU97+0+xqan57L7M1BN4wlpr+CTa+7bK8QlJWKcpLCrMvXi+Wvdzfw5m3DFzGHpdCdVB1qIGqDcsZIX2Th+Ldlv1DCGMzQdWMeqt1wQdPl59NuOAcaZCNe1cvjUtcZwfbRDm3gpci0vFB5mjc5N08EtrNnjvfdiTG/cTdS+9hKFOdlsKp2PipuWI0W8tLkKTYljZkI4xpDfUvl4715x7VtG8ppPaDodQqJJhXoX2tG9OGauZq0jjdvR4KsGijbs9d6wrNyHadwZPvnDYB9mPZTxDVSvWxiVU8bGxw0oOoDfUjNDw3VgFcm/+mjY48O1l1fWjmf1cgc1a+FM417WrdmLCzBeUn/tA3zHCv9YSPIra3BWqnS5GijOXcl+F8Dw199QxFdwCrgrBNXd0LvMEvDdVzLM8Q2jf7rzzjv/33AfhBBCCHHtVGZudDDn0/m+37wIZAbsW4pJrJ7Lgj9cx8MOvleDP4/hC/awY0IhtuX7B/27M4HM+Ivt7LJUYF9UTP9DAF5KTDZFa4J4xfYitTdi8miISHxeEt/NR5Z4CSGEuEm5qfhDGcrMtOv+AcQbRfnhXGaNO0zhW4GWnMCgz6MaR9rjULa74pZITgDa3yrk8LhZzB3wxycNJM+J4+zrhTdd50/iA4nv5iQJihBCiJuWVr+FvEMmMhfH3aAfD7wOI6OY/3wcTZu3eH8IMQBd/TyqxC3OxHQwjy0f30K9IHcVWzY3Eff8/Is/QNqH8fFVpKnFbNoT6LN0/ZD4JL6blCzxEkIIIYQQQgQMmUERQgghhBBCBAxJUIQQQgghhBABQxIUIYQQQgghRMCQBEUIIYQQQggRMCRBEUIIIYQQQgQM+SV5IYS4RqNHjx7uQxBCCCGGxLlz54b7EK4gMyhCCCGEEEKIgCEJihBCCCGEECJgSIIihBBCCCGECBiSoAghhBBCCCEChiQoQgghhBBCiIAhCYoQQgghhBAiYEiCIoQQQgghhAgYkqAIIcRNIRT75kKypipXvnS3hYwtDsp3ZxCp69moYH62iEMHC0mf0Kf8uFQKDh6i6Fkz/ext2ChTsij6YxbmQDqogKNgXlRIuWM5lv7OkxKG9fl8ikrLKS91kL/USqju4sv6KamsLy7H8R8JfepewbywgILnLej7/Vw9lucLKFg4DG2m3/bdx0BxB1tI31BI6YFyykuLyH+2zzmJX07htnQiR/S/69DHcincbCfi+wp8MPHpQrE+m+eNr7yUwg3pWIJ7XtRjnruewrfLKT/goCA7hbBLjnXY41PCsC4toLQ8n1SjnzJ32Mg7eIhDl/wr35BysS3enULuzjzs4X7eH24nb2cuKf72/30aTHyX0Mfn4DhYSMb9vVsCu/6GiSQoQghxM7jDjDm0mbpG7fLtwVZyfpOOoe0Unn7e1vm1SkJS5GXbwpKmY/D0V7oPf52lofB97vsWptyfRka8iqe7/9dDZ61gSdQp8hekkDIvj1NRmWQ94e3JKtOyyH92Ih0tLj/7PUHBtup+2xF4qN5WyIn4DNLvv4E9oau07x7+49aTsGgFKd0Osp5OImVRMe74TNLjfTGMsJCxYCLV+YU0Xuh/3x3v5lF8wUbGT8KGOrrBx/fEcpZM66RgYQpJTy+nXLGRlepNFvU/WsJyq4vChSkk/Ww9dT+wkTIlQOLThWF7OZfZnKDNT5sF4A49QV87yZkxnemPev8lLS/1nZNgrAtTMTg3U9zq5/2txWx2GkhdmEKwnyLfi8HG10NvIX2emUsrO6DrbxhJgiKEEENFbyZ1XSGONx04HA4K16VivgNAIeKJ5eQXO3C86aBo23JSwn0XIJ1v5NdRSqmjkPULLP1eYJUpZsJa6qjre5HqbqPkhQzWH+no510a7sbjMG06kT19Sl0ESdMUTjS60Pp5R9i8AhwvZ5Gz00HhIjOKLpSEZ/MocjhwvFlEwYv2iyN5YxLI2FyE4+1SHH/MJysx1Lv97gQyNhbieLMIx5sXR6yVKVkU7cwha10RpVvSidAFk/BsPo63HRTtzCfrYcPFeCfYyPldke9cFpG3KOHGdjwCkS4Ce0YCba+X0l9tg4J5Shgd7xdT2a6hfVFJQVkHkx960DsS/bdy1j+bS/npvjWvJ8GeAn8uptqD/3bsqaS4ApLsCX5mWb4HA7bvHgPH7aouJG+bg2YPaK2lVLboCf2Bt62FJtt5sKOUoo81IBjLwjwKfXE7fpeLbZICdFL+ejWhT9iGfnZvUPFB1387yd9UgPO0Bl834vywDYMxFNBjsZrpeKcAZ7sGndXkL0onv0YLjPhwc2L3CrK2NeIeqJheRX/B3X+SNmE2cyIbKdrb5o3pseXk/9H7t9RRnM/yx7wd87a9RTSabMzuO2P8vRpkfAAomH+ZzuT6Ig519mwL9PobPpKgCCHEENFb7cwZUUqG3YbNnkHhmclYIvUwwc6K+ROpezkV29N2cqrvJf1ZG6E6CJ2VReb4OnJ/lkLKgkK0x1aQ/lDfq4zCZHMEncfqrryAf91MY2t/qYbPF9VUd1tI6slQwqdjUeqo/sJP+e9AHxnGiZftpL1ah/6JLFZM7WDzPBu2ny2hVJnDil9GAnqsC5dgOb2Z1CdTSH31BOZns0gJ1mNdtISEMwXMe3oOtnmbOTF1CVnJwfAdcHckhr8swbawgLaoNDJ+5KZggY0583KpGzMZg84br+VnaYTV5GB/2oZtXj7NRgvmu6+9Tm4lYbMySHIVsrW6y2+Zvq9oF9wo/xxGmA601kYav+6nrYwwMz3KRXWltwPotx0DbYeqcUVNx+xnucmQu1r79vEft4fGdx1Unva9cIcFc1gHJxpdQDCWhyZyquYQnQDjUkh/zEPhAhs2m53lZRoWy2QUQGuspBoLCZFD3AMcZHydH5ZS+mFPEhOKJSqU5sbjaLpQJv6gC8/oNPJ2+pL53iVsARBfdyeNH3f0OxhyKUXVo4yYTOqWIkpLS3Fsz8F+v7fNhU23YGj8wJs8K2bsqWZOvZqK7Wkbqa98gGoxE6EDPNV80GjAMv0GziQMMj4AZVIa6VNPULDz+MXygV5/w0gSFCGEGCLaOQ/aDyyk/CiSUF0Hzk0ryP+Lh9CYBwlrKaXkYw+g0fxOOaciLFj0CuapE3FVl3un7884yZ2XyuaaPpc7XRhmk0Zd3cCjrP3qPkX5XzQsj3gvZBFJFqgp978coVuDtkrKT2qAwoPTJtPxvoPqTkDroNR5HMOUBwkbMRlzVBd173mTJk9NPhm/zKXcY+bByC6q/1ztvah+XUflh24mTvFdSLVmDjm9F/TQqMkYWqo59AXQ3UHle3W9S5c8X3dhmJJC0tQw9F9Xkr9yA05/SdU/grtTyJilUbzNSaffQhqN9ScI/ZGdhLsVlDFm5vx4MigKQQMtqRs3kTDaONHu24ufdgzA6RO0EcbEcUMX2t9vkHHrI0l9IYOIv+RTUK+BMpGIH7hoO+GL7YIHly6C6ckJRIyB5j/lsmJXnbczqZ2g+b8NTIy4YXNHfgRjWZiLXS1l6+ttoFPRjzAweUIH+Yts2Bfm0zF1iXd5200Un+Zupq6+jsrXMrDZ0ll/LIy0X6VjVhQiwkPpaG72Hme3C5dHZfIjSVgm6NHqd5PzkoPmbgCN5uYOQsMjAureOgB0YdgXJ9CxM9+baPVuvzXq7/sgCYoQQgwR7f08frWrjTB7DgUOBwUv2jHfAXpVjxKZzu8cPVPz6UwkCH2wHr2q4PZcXBygfe1B65s8jDFj1p+gzt/666toO3gIzzQrZn0kSdOgurz5ihHny+LoXWqhR6/qCZu9wXvcDgfFi8yg6DEoetQRHjzunmRKw9PpQdOp6Ptsd3k86Eeo3v9ecPcmIfqRCprHfXE00eP2HZdG3fYVbK03kLI0H8cAS9/+MQRjXWBHeSef0qskaR17N5N37F4ythVT+IodpfE4Ho8H1wDr4xVDMKrH1VvGXzsGejuIwaMDqwt41biDLWT8Jofpp/PJetV3n43OgEHvwdXpa4FnHKx/yYE7Ko0Nu0txbFvuW0IDoOH+2oPeYLjyw28UXSjW7M1kTapmQ3ZB7z0JWrfG8T/7lrB9UYnjsIuJUZNRbqb4/upgw0v5OD7uRNM6qN5ZxPE7zJjHGTCMVnB/7Ruc6W6j+OVcynUJZPzGgeOPeWQlXpwx6fjajTLawDDWUr/CZmV5Zz/fv3IR2y1Rf9+D24b7AIQQ4tbhofGdzeS8AwSbSX8plwx7HcvPedDqi0ntvemzh0KKW0MdrYJvXFw/LgKDp422zouzKPoYM8HN5RwfzDqCfminKznUuZ6EJzQma9XktDLwPQS9nVkPrnMe2l7PIn1X2+VlFAvWC3r0oxVAA/SETgiFM248l21XMOj1eDxXrtD2fKOhjAiipyR3GFDx3cB9oQ3n9hyc20E/yUbOr7NIb0hjQ9/ZpX8EipkHp4YycWo+pb8AdAp6PeQWG8hfuALHpUmL1obzNxk4ff8Nm1tA0n+X0jGYG3h79d+O07c3XywSaA85GChuvZn0X2cRUZ1L1q7Gy7+DfeLo/LCYDR8WgxKKZWEuOQttVGcV+7nn50YKxvLsetLvcJCz0kFzz71o2ina/gZho/X0/A1Bx8Xv8E0Sn2KMxHxHB9V/7ZkfDAK0S/4WXaS1V7P719XsRiHssRWsfzYda00OzkE892N4BGN+aCKhponsfnsJAIpeD79xYNi0kOO3QP19H2QGRQghhkjkvDzyFpnR64DOU5z4mxtFB51HP6A5woptgne0K3hqOrnZKYTpNOo+PEFovM07Qj0mgSW/2UDaZQ/d8t4A3FZfN6h1zv3qbsNZ2cmDz0zHc2SA5V1X0Kj78DiGhBTMegA9Ec/kkPNMBIp2nLrGICw/thCsA/3UdNZvSsesq+ODY0FYrL4ZjzvMWKcFcfzolcff0XQClymB6UZACSPlkckoOrxPxlmXz/LEUBTA095GhyfoeqO/+WlOcp9MIuXJFO+/BYU0niknx+5NTpRJVmyJ3mUtwY/lUrQ5nUg9KONSSE/W88GfqwdsO5rLg1tv8N3/478dA75ZBzce1/AnioOLW8G8IAtrWz45fZOTbhcujx412Pu9VKZlkb8hlUg9oHXQ1uZC6x3GVVDv0OM5d+UT0G5EfPrETLIiq8l96ZLkBIBOqt8/wb1PpGEZA4rRypx4AyeOHUe7ieJTIueQ89IK799IXTDmVBuTz9TxwWkXHreGeofvARzBVnK252Ib5x3W6Gg+RScKPX8dQu9Q0dwublwU/l2MrxPHshSSUnzfX9tyHKfbcDxvI7fii5u2/r5vMoMihBBDpPFAKW0rl7PbEQTd4G4pJX9bM5xpI+/3oSz5dTGzdcCFU5RvL/EmCu9sJj9iBTm7S1Fwc2J/HrmHL+n8KZMxmzo5vrP/Ow+U5PWUPmfxrrnWQX65Ha29mKx5BZeV63jvEKd+MZ2699rgGlZod76zma1hy1m+00GQDrq++ICCdW1oaDi35TExO4Pdb6+AC20c2rKe0k4PbMlj4n+k87s3MwCNUxV5bHjXAz+8fN/ah7speD+XzO2lpH/dxgfv19ERoUB3G4f21mFZlI9jEWh00XF4K7kfDn+nOBAZzLPJePgQ1RXNdBwuwpGwgg1v2uFCB3Wv5/qeCKRgyS4m97FgX7KRS3miRmdFLvZNJ2jTzWGiESpbB2jHAMaJhOna+OD0AAc0hPy373w6BxO3YsH6UBihwbmUPtazV43Od3Owv+Jdt58wUQ8fd6LVl1JqXUHO7jkEocHXxyl51ffENN/9ACdeH9ph+sHF10bkIwmETlDIL7X3vlc77S3X+M4GtoblkLWzHAMumivyyC3rhO7hjw+jnfydvt930YFl9yHSuxspmJeB89L6ezeP9f+SQ8amUjIUDU9rNQUvF9DYraGd7CA9IgKFNrTOakrem86KTQ7SdBpoLup+v55yD4BCREQoHSfbrn8w5/uKb4BddARy/Q2jf7rzzjv/33AfhBBC3ExGjx493IcgxBDSY315N7Obs8jou5Svj7C5BWweX0TqaueAv9txswh9Jo/8qZXMW+4Y4OED3kdkF2QrbE7dQN1NlCffEvFNSqfg16EUpuZS6ee3QADQJ5CzM42O7HQKTt6wo/te3aj6O3fu3HUf4/dFlngJIYQQ/9A8VBaXo1jtWAa6OUlvwf5jKC+uvCWSE4COsmI++EEKcwb88clgkn5iwbW3OPA671dxS8T3aQmOpkhsswZ+fHDYE3OIbHJQcoskJ3CL1N91kgRFCCGE+AenfVxA/l8mkr7A4ucBCnosC9KZeDifgr/eQr0gTzUF205gWZx28QdI+wh9bAl2vYP8Pw08uxSQbon4OindthvPj7Owh/spEm4n68cudm8rHXCm4aZzS9Tf9ZElXkIIcY1kiZcQQohbhSzxEkIIIYQQQogBSIIihBBCCCGECBiSoAghhBBCCCEChiQoQgghhBBCiIAhCYoQQgghhBAiYMgvyQshxDUKxCeeCCGEELcKmUERQgghhBBCBAxJUIQQQgghhBABQxIUIYQQQgghRMCQBEUIIYQQQggRMCRBEUIIIYQQQgQMSVCEEEIIIYQQAUMSFCGEEEIIIUTAkARFCCGEEEIIETAkQRFCCCGEEEIEDElQhBBCCCGEEAFDEhQhhBBCCCFEwJAERQghhBBCCBEwJEERQgghhBBCBAxJUIQQQgghhBABQxIUIYQQQgghRMD4/7dAI9+OUK5AAAAAAElFTkSuQmCC;" vertex="1" parent="1">
          <mxGeometry x="140" y="450" width="808" height="450" as="geometry" />
        </mxCell>
        <mxCell id="ulpXkjEVTFtUqnP8rz95-2" value="" style="shape=image;verticalLabelPosition=bottom;labelBackgroundColor=default;verticalAlign=top;aspect=fixed;imageAspect=0;image=data:image/png,iVBORw0KGgoAAAANSUhEUgAAAy4AAAGuCAYAAAB2nFJaAAAABHNCSVQICAgIfAhkiAAAABl0RVh0U29mdHdhcmUAZ25vbWUtc2NyZWVuc2hvdO8Dvz4AAAAwdEVYdENyZWF0aW9uIFRpbWUAU2F0dXJkYXkgMDggQXByaWwgMjAyMyAwNzoyNTowOCBBTeTlmbkAACAASURBVHic7N1/XFTVvvj/1/nCYzYlNCalKJ+Y8MgM4mGI7gHtBthRKH9kamnUSfTeQm6JekrUY/44agiVvzLROiHVAe0Y6VFMUwvsGND38KMbMaYOYzkNfRG08DphycwHH/f7xwww/NY0Ge39fDx4iDP7x1prr73Weu+99uY3t9566/8ihBBCCCGEEG7s/+ntBAghhBBCCCFETyRwEUIIIYQQQrg9CVyEEEIIIYQQbk8CFyGEEEIIIYTbk8BFCCGEEEII4fYkcBFCCCGEEEK4PQlchBBCCCGEEG5PAhchhBBCCCGE25PARQghhBBCCOH2JHARQgghhBBCuD0JXIQQQgghhBBuTwIXIYQQQgghhNuTwEUIIYQQQgjh9iRwEUIIIYQQQrg9z95OgBC/ZuHh4b2dBLdTUVHR20kQQgghhBuSOy5CCCGEEEIItyeBixBCCCGEEMLt9V7gosSx8cta8p5Ud/7971Mpqf2QlMHXNlmXSjPnQ2pLU4m44sl2aqb9vRbj6xNQ2vx+HRg8hY2fGKk9YyTzwesixVeHoifx7RLMZ2opSYu4Po7V9e6GLPPuzneFKTlmzFuuQVvg2tZeo3b36rWf4pIocWw01pL7RBf9rfjZpC4LcW1dQeCiMOVtM2fPnu3ix0z2I910uQO06HzrMB1r7PRrdYgWjbUKQ83PTZ8a/fSNHD5x9jIDAYW4Dca2eTlTi/GTXFIf0bZs51xBGtOTszA0/dz0OXlq0f0WLMcM2GikaON0ktZ/hO0KN/vLU4hJWsJUdhD/uzDmHHT/FF8typjZLIm1sumBYEa+UH4dHCv3ETAlnbdXTSXA4/LWc7cy1z73IYfTIq5wK23P9zbb9NQT9lsvLKaqXzyvrm3tlbe7Tn0mkPlZLtO6GCdfSfvZvuz7x6aQfagCc+1Zzn5r5HBOCjG+uHy/hOxPjNSeOUvtiQry0iag+bUNMi9WsvXZeJYdtPZ2Sm44V20sIIS4JFfQfNvIT53Ifesd/9POyiZTn8+Mp7dhAaCROlPXXa6iD0PTZGLr8c6WUdCGaOFkIZU/p9fuE0PK319lpreFOk8bFoPhMjp/P7RaNdY9c3kgvczxkbcfkU+8QOqmHDgzkmVFNqzHC8n/GUnrQK1DO8hK1fE6wIalJN9Zfm7ME2jyI+JuPyyH36fwzGUeJE/gOm7k9ZF6vI5vZWeFtdcH0NeXfoRHhuN99gB1Fy9vzSsq86td3zy1TH1Qz+ls0xVuyOV8b7/NPjq0AVZMx3/p1sC1rb3CdteFOnYCMVjY0vl1qZ/ffrYrJ+X3S3jv7QTOZS5lxmwD5/wnsGTTEl5dUM6IRYXYwlN47+1EbDkLeOhpA9w9m4y1mbxqGcGkTLdvaa8OT6DpDOUHz/R2Sm5IXdbl67yfE8JdXdFUMetJA4YjBgxH6ug7wA/rsSI+OtL8mQW/+I18+Jm55UpX7rI4+jvX1QRpUZ+yMuD5PCrMtZz91siHaROc33sRpvWjznQEK4CnhrgF2Rz+0kxtbS3m0jxSJ2q6TtjgALwO/omYhH2c86qj8njdpWdK0RMWBKbPizCdMDl+KgrZtiSNvfVa4u7TgTKBzBNmsuMVQEPy/loOb0hh9a7DVHxhxmw8zMb41vSpw6exelcJ5m9rqTUbObwlmQjnlUglRI/W00jVMRtK9GoqavNIHoRzH0Yyn0sm81AFxhO1mD/LJTm8+Z6PgnZiKrmfGqmtraXWWELu863l255+ZQm1+1NJzsij5DMjZnMFH650Wd43huSMD6k4UUttrZmK/RuZFurcV3Nanl9C3pe1VLy8lCxjCUt+r6BNep/aPcloFC1T0nIpMdY6jtFneaxuOUZqEnfVUrIhhdWHjNR+mIK2j2Ob2c8vIffTCsxmMxU5iegD4kjdVYLxhBnzJxuZEtByYNBP77o+aRccpvajVBLT8ij5wkjtt0YOvzShNX+D4ljy9xKM3zqvym5JRN/nEvLeRn8S36vlw2e0KHctpeRENtPUavRPOtPVyXFoTlfylhLM5jwSuzpAnfCOfJIVi55g7ENzSX/tbd5+Yy3zxw9B1bKEiiFxTzJ/1VreyHqHd95+g7XzJhLi3W5DgROZv/JponXDeWLRWt54+23eWD2XaD/n9zcNYXTSCta+9gZvrJ7P2FETmb/kSYZ7O/YRMmUxKxLCW/d7UzhP/GUxU0NaU4I6hLFJK1j7xtu88/YbpD8zGr/muyo3DefJlemkv7iSR0NUqIZMZMWqdNJXzWWsf0+l0FmZQ//oZDI/qsBcW+s41m+7nFPRq6kw57LkuVwqzEYyx9/uqH8ZKazeU+I4lz7ZyJQgLVM2fEjJl2ZqjR+SGtt6e0A9wnHemWvPcrbWSElOMjFqHFNuvighJVwh7mUjJS/FtLmbqzyYiflENlOaPwxK4cPas5Qs0zcvQdyGCsw5U+jffL4HdtzmLUP1aD0tnO6fSt4XZmrP1FKxZ4kjDZ3prn4HxLEk5zDGb2s5W2um4iPX+u3a1rZrd3s6L7rYp2ZOHsa3p9A/IIH3jbkd67xr+9ljO+e6Xsdy6u99mvzlScxI3UnhcROGgizyj9noO8Cx0/7+XpjeWUDSkp2UHzdR/s46tlZAcKi257vwffRM25DnzH8ttcbDZM+JQA2gnkbut22nyCrx2dQaM4lTnHXw2zxSn8vmsLO9zVsQgyY6hexPHO1dyduJaJ2XDh3txGpHeX9pxmz8kNQxGvRJma3rP9c6RbLL+kln9V9xbP/TJeg9gcETSH2vBKPZ2VaX5rJkTPNBurx+pcPx+bLj7IuSlc663109vML+rvmumvlbZ13ds5oplzTdsef+m0HN6XbOvjiUSWKbdLery8395KoYlG7LWgjxc1ydZ1yUYPRaMB1zubMRPp/Ml6Ope20iwXcMZMScfDSzVjP/PgVQ0IVoUAZFoK9Zz6S7ghmxqBTNzBeYH62AEoZ2MFiOGbGhJmZVLhljTrMp4S7uvCOYiX+zMXXDqyQGdJGeI9tIe70Qa4ie4CYLpiOXcflwsBatdx1VR9oFO55eeCk2rOetMFiP1tuC6ZgNFA26AAXdPTrK/vwA4XcF82guTF25hAkKEJRI5vYUNEULuS94IHeOXEBZyFIylzkGPOqhWvxOmzhS3/Z3ArRo1WpiovuyIyGc4N89QJY1hjlJ96MA/R/JIPflUAwvPkTwHXcSNnMvfZMyWPNIZyMbBW3gAJTQaDQf/omRvw/mrmeK6P9MKnN+Dyh6UrZnkuC1g6SRdzJwyAOk1USzZsN8R0cXoEWrVogIhfWj7iQ8ZRWJkzdhsBlYd/9ABk7cgX5DLhmxVjZNDWbgHcE8+g5M3eQ8RkoY2gCFARE6LH8ezsDR6zANcuRPrz1N2v3hBI7bhDVuCdkZE6haMpLgux5lh9dUZj+hvbT6NFiDEhSHvuovjLwrmLD5pfjNmE1CEKBEsGRrJlPYStLIYIInZ3A6OpU1Sdqe897GGbIS4smqtlG4NIyBQTMompjJeyv1VKY+wJ0D7yRsdj4DZjUfBwWdVgMBkegOTyc4aBJZl3zRU8WwkWOJHvkoj/7beYpy32J/tS+jZ/+Jic2DfdUwYqICsB8r4r2/beSvO4+ijJzLgj+GtNmSX2Qso++KZtqfpjLwu1L2795PxXlQXQBuCuHJ1euYe9d5Kj54jzyzhicXPM1YnTcNdsAjgBFjotGoGrA37zYkmnH3DISzzk8CxrIi40WmBdRRlPsWf33/BAPHz2f++H7OFeo58a8iisw2vFXVlB48RNG/iigqLuXodz2VQ8cy3xaQwtac+fT/50Luu9NxThlCW88pryANfp5aIm7bxqTfBZN08E60AQqauzWUzR9J8F3x7OgzjVXbUon8ZxIjf3cXSf/UkDhrqmMg1CeO1L8uRX8sjQeCBxIYsxSDfikvzNKDLZ8Fi3Zi/TGfpOCBjqv6rsm1nuOclxdengAKEU9NpX+NBaVPX8eg03cq08bDji17ofl8P9Vxm78J0eKHhujo02yeOpywR7KwRs4m+cFOzu/u6nefGFK355DguYOEf7uTfsEPsLnuftZsctZv17a2ze89nBfd7NPy+kLWfmbD9PoDDAyM71jnXdvPHtq5Njop+28PZ5H2VqEj0FL6o49PZVp4HXv/kY8NOLMvjaRFO1vvYvfRohsExiOmHu/caZ5cw5qoav7ywJ0MHHgnI5YY0M1dwrTBoDgDy0pD61b0ITo4WYnJBl6BGvw8gwn1epOJvw9meKqF4XNfJXN6I5seCifw/k1YxySTGOXSfgWG4fdhAuG/u4u5RRoS12aTMmAbj44IZniqibC5sx19Snf1s7P6vwf0IRoaTVVUNamZtmojU5uyeOiugQy8M4ykggEkLpiJ3vNy+5WOx2fuXf0YOHAgAwcGE/+WCdupvWzKNvRcD6+kv1PiWLohEfW+BO4KHMjA3z3KNh5iyay4noPTnvpv1Ex5KZPZ/kXMGTmQgUMfIKM+jtSVCY62okNdduknF1UytZuyFkL8PFfn9BkQis63ebqTU0UaI8M2wRnH1A5rURlVTVMZ4At4atBr1Zw5OJe5Gc5OZ+deSlfdjzbIC74ORTugDtNxKwQlsiS+ka0PLWTnEcemDTk7KF28iki9QlZ1192PX6gO9akyKi9jWq8SokeDhW0uwY7SX8/UxSlM8Cxl1T4Lil6L5rwFw0nA15H3j5YvYOcJxzqGIgPWJB0BAxTi5s4nrGgpw19x5vPHvWwrsJBwTwR+lKINCYaT+6i0KYSFaJy/gxKiQ3PRwKY/p5F/CqCKqhpQvBTwjGDOvDgs6+8jbZ+zSy7awvvHZ5Nwtxb+Ud42U546dL9VY8n9C8v2WbABtqJCTLapaHUK/XVLmN3vfWZMyKLcBmBib24Rq7bq0StQFaJDc9FC1otpFJ5pLictmvMmDCYgdCYpk25iR8KclnIrz9xG4bwMou9RyCrQovW3Ubk8jc2fWZ3r69DYSlmbmoXhR+CMlXPA6fdWse24DTytnLaCl5fXJdUnrdaLMwfTWJbjCJ7PmEycQ4OXJ/SfMp/EgEIWPLqZwnrg5GbS/mxDe/oc/adkdJv3DvOWfV3qphJD8twYzr31EAv3OKaunCnIYMeRROZER6LssaAdrMZatIVl7/Q8UGrDYwjhIf04f+yvLH9hB9UXgeogYkeORROggho72Ct4a7nr3zw5gd+osTzqraACZ6DhTXjoEFT2UvLSVnCg+dmF9x3/DHnqT0y9vZT0/1pLkRVQ2QmPW8Hwqgq+sgO3hxPif56jR6pb9hIQOox+NRVUfAd4BPDEgqcJqtrInLRDnAXgKP2iRjNtSBAqSrFbv6Lo4FcEJExCVVNK3u4DHLucqWKuZY6aKXNnoz++lhFr8rE0ASf3krXHwtQx0eg8S+mr1aKczmf9C3ux2ADfMLT+Vj56dpnjHPWs47TVBseyWLbHgg2FurMXQKNwE8CP+SwYGYZX4xmsNsBaSOUpiPB1BB+aoVq8TuZj+rFjUm11p7F6avHqA3jez8zYOnZ+AFP6OYZQmj8mEGPexgP/guBHWs/3ttt0tAXK6Y9Im72O/B+B6kIM1kQCOhmJdVu/n1hNYv+PWDB5M+VnAExszfmI+VsjiO4PBlzK1qWcezov6iZ1vU88hqMLbKTqjapOD6ej7XC0n0psN+1cJzoteyWG1aW5JAYoWI9sI+3xB8gq6aTR99Qw5aVUJtRv4tF3ep4mpu6rhouNWOsdZ67lH3MZ8Q9nmd+nxa++CtPplqXRDdVgNZmoQ2F4iBZObuUvaxztvlJ/hkbPm/ho9WbKrQCnOcdNjgDX2X5ZPljLqn1nAAVr/QWUH4vYtLqQM02gnLGCp9rRY3dbPxXC2td/Tx26wV5YDhqw0Rd1Xy+oOc05K8AZ8pfcRyCAZwSpl9OvdKYJbE2gTcok85FGNk2fy7aT0D9pXrf1sOpK+ruDatR9wFZ/hsYmoL6cdRODWddzanvov4FqKztn3kWhl5UzVgADRUdOw30D6OsJ1g512bWf9Ou6rIUQP9tVCVwUfRhajLzvcvVJM2YJS56ZQIRuAH09AE8v1EoV60w2UPRoA6wUrv+Ilu7F03GV0vpjI0qIjuAmEzuP2ej/SBx6tZ6IT86S0mavFrK6DUgU9CFa+HorpsuYZ6rT61ArWlZ/WUuqczuKAtbje1n7nwvYfAL0j+nwqt5BlQ0UvQ5NYxlbC1wS08cLhQvYmoYzIbo//QMyMT+S2WY/tsNWzjmfp6kzVNKImlCtn/N30IRo8Tq2l73m5vLRodOA5aAJ29AJRAep0b9UwdmX2qbfUNRJofTRow84Q9Hy0tbBs1dfFM9GzpxXiJkUiXpwHHm1iW3Xs+7F2gS6EC1epnz2HncppxBnGVwEzX0x6KwfkVbU+dBcCdWioZTN+1oHC5oQLV6mveQ7x8NKkBYNlWzOd0ZGHjp0AWDZ5linp/qkD2ikcGNrfVIGaxnQaKGqWiFmYSRe5cvIr3cppz1ZGFCY8l/d571DXlzqJiFxxPhbyN/bSYfugSNdg62UvraXy34k1i+cYX5nKX1zjyNoAeijQnXxPOetzjsd6hDGxk9idKgGX7U3KsD7djjxiaXl7giqYQzTwbHdb7UGLS3fDWdSXADVB9fQUm08VKg87Bz9ogI7oAodRpD9KAeONW+xH8NCAzhf9RbVF0EV+SiTdHC2bhiPPjMMlQeAigB/FWeP1Lemg36EhwZwvmobX13m8y1tylyJIeYeLwxv7HMELR2o0Q71w1K8j1JndVRCtWiaKtn8T2cmPXToAhopfa35bokXukA/rJZq6gBl6BSWPj+TuLu1DFAc33v5QmmeERuK4+r1SQNVne3/rJVzTX1Rq0Hzh6eIOLKNNMtUEgPV4BlB4mMaCjdmYWpSE9dyvrffpprQID8sh3dS2DxAV2sIUNdhOtn+oRGFmNiu6reaKbOGQ/kC9na403dTh7JVwpt/h5gnuzsvutsnEOq4Cp1/rPP2oKXtsPXQznVYs4uyt1WyOeEh9g2O5KnF80l+Ip/3S/bimmUldAqp61bx0IWtzHg8jfJOgs72DG+msfW+jeR+EUfpwZ3szN7CthJHYBEcooGv97U+C6SEoR8MxoJKbM46WFdU1JJOjdbRhuY35zNIhwYLZSdb26/yja31UTvYD0tRPs1dql+QBq9TZVhsPdXPjvUfRYs2oBHTEQtgY9vqTTz010wqvzDw0Qc7ePONrRRW22Do/ZfXr3Sh/4NryFmmoXD+JNKKHBcbYqK6r4dX1N/9uJdN66eSmVZC5ROFvJ+3jay39nZ6YaG9bvvvHwF1BNOen09ibBgatSOY9vJW03iwCktT27rcsZ+0dF3WQoif7apMFdOEavFqnuIEEL6E7LcT0Xy2jPjhgQQGBXLX8kJsVuddCq0OnZeJKtcpXEN1aDwtVJts+A3VoT5losqqoBmsgaKFBPfrR782P+Es7GKgDICnDr3Wi6rjhssYNKrRB2mwHV7GA/c/4PgZNYLw4IEE3juDdYfPOJZxXlmzNNGSVoNLI6kJcZSH6f8GMGCAhW0PD2yX9n4MfDgLq6JFNxhMx0zYlLDW31Ha7ANo6Xwsx6pQNBo0P+4l6Y72ZdKP+17s5IFhZ9lWubwsQQnRosGCxeKHJsALw5r7OmyrX+AM9toUtEM1NJpcBwuuZaCg8e8P1RZMrgPSwTp0nhaqv7Y5psDVmDC1DHI65s8rxLlM88EK0KJVWzAdsfZcnwbr0HmbqHIZKOlCdHidNGG4qEET4EVddRUdnhP21PSQ945F2Vo3QQkYwAAsVJ1wWUAJcwRcJhO2wTp0XhYMhsvvqLxDhzHEfpTS/24d+vvph+F34QRHzYA6mvkbHNOzDv39r6xJW07a349ip5pjR862bmhIOMO8q6n4V3WHfai0wwlX11FR9lXrZyHDCFJVc/TIeUDFsLuCUH1zlKPnmxMWTnignaNfHMWOiiGR4fQ7e4Kjdeex289z/sJ5zl84y7H8d3ivuHW73DSMYUPghDMguhyuZY63hgDfRixm16mcCtqgAWCxYPEIQ/9bsBgqWwa+jimYR1rvvDqnd7QcF0WLXut8s1+fGFK3ZzDV830WjgsmMCiQwAfWYrA570p46tBpvbAc6+JtX+fPYW30wkutZ1q8hvzsvdRZG8GrL+rYBB5U3ufNPKujnjSf7+23qYQ53jTokgdFryeYTqa9enZXvweg8Yc6c9vv1EEBqK1VmOrblm3L7z/2cF50d07hcjf2ZGcF1Lbt6K6d66DLsrdiOVJO4Z7NzN1Yht+kadzf/HwPaiLmZFOyYz4DDiQR80jrXeMendrLwtF3MXLmZo54xZG6u5DseA2gJjTEj7rjpta+Ra1F61+HyeQ4tvrfgulY8/FzTBl1bUPVIVo09c63tzW3X83HtmXKXuv6eq0Wvq7CpPRQP5WO9Z+hYY7+1tk+Wg+n8cC/jSB+TSG2iPnkHsoleSiX3690QglNJvOVCVhfSyIp13mhqsd6eKX9nY3yjHhG/NtDLN13Gu1TmXzy/hIiLuFVot323+fVTNmwlTWxVrKejiE4KJDAoY+SVW3DYjJga1eXO/aTXZe1EOLnuwqBi4JeqwGToeXqkyYqBt35fDatzncORNXE/SESpdpAlQ3UIXo0Hjhu6zpp46LRnC4k/5jjqhpfV2FqsoHNBjepucnl3lD/0Ag0PTVKihbt4EYshs6nK3S+Thh6LVRVFFHe/JKB4yYsrm/NUlxfX+y4q6O4NseeGuKidTSWF1H6E9B0E16uD0v30RIR6pwv7K9Hp7ZgOmZt+7unzvkqVJdnhrRhjkHwMRs0NWLzbJ5H7zRYj76LZ/7UIVo0HrR5w4k+NgZNTRlFx200XgS1t+IyH1iN/vfOh1edaWnz/FKbMrBxwWYDxavNfGLtg3GO43lEISwkGE621o+W/LVss3maXOsySogOTWMVlaZLqE96PRqrBVPL2NzZiZw0dH5VPnQaqQsmoKGHvHfgWjcBWyM2FFxntSiRcUT7VlFYYHGmy+SSrkulIvyuIFRn66htHuV7DGHcyCGc/1cRpRcg4KFpjOYAaS+8xYF/VXCsqg6fkGH0O3uUCpc7K36hw/Br91mLgX7086intuU7b8JHReP33VEq6gAPP0KG9OOs8SjNoVC/qGjCb2oObGBgP2/s1UW89eZbHX4OucQtKl04w276qmW9S9euzBsbsTWB4nqA1BOYEOlFacFHWJ2vWT/S8pp1Z/0zVWFqqVuOgXXLcfEOQzvA+Vzb0DhiBtSxY2NWy5VRTWw0ekyOc0/Rou/2bV9nOG1VGBCdyBR2sq3Y0YbZvAeQMP1+zryTRaGNtud7+20O0KLztXDE0HrJxW+oDnXNESovpfja1W+Um1y+1PBQ3HAai/Ips7mWrcvvjZd7Xrjs09N50cBcRafxumvb0VM718m6reWkELEgj8OvT8H16QtFAZoaHS2yp4YpGR+ydYqVtMkjmfGKY9rVpVL6KIAVU0EWy/7zAZJ2wv2PRKNWgtEMgjMWY0u6+z8YR1hzYOk8fqZjzuPnvIjW+mprhbAQRyBS2dJ+ubyCujkIaq7DzqlkVccNWHuqnx3qf/tXXDtmEPCjhcJ30kgal0DW2eE8NEZ72f1KB4MmsObtpWgKFpDwossry5t6qIcXr7C/UxQUT7CdKmfnK3OZ9NAqDCFTmNrZCx7a6KH/JpKYe9QY3klj22dnHGkbej/Rgc67V53U5Tb9ZHdlLYT42a48cPHUEab1wnK8quXq07mz58Bbg1argGd/Yp5JZWa4F7YaC5Ym0IZo4EcND82KQ6OA+vfJrJ6hw5C9jcKLGrRaNRbnnRJDURl1oVNJGa9B8XS8WWTrrkxS/tD5w4LKIA3aIC3aP0Si97RQbdWgDdLQvw+AmpjnNrIxqYs/YKfWovVvxNRdsOMd1vr6Yk8N+sFqbP3jSHxEi+KpRv/kauaEW9j25kfYbEUUfq4m7snZRPiC0j+CxE25vPfyNLSeoITq0DZWUXm87e/0cUylc31myNH5OAZbtvJCShtjSJwXR38F1KHT2Lh1D5nJneXL2UnaNDyUHIdGUegfvYRV0zWUZ2dRaLNQVGTBb+JspoaqQdEQsyCb97YtYeqgztPSpgwAwz8LqdNOYPZ4DQoKmtglZDypoXD9Zgptfuh16jb1o+M2nVNjTrQuowvROu6Y2C6xPp2sbB0oeeoJ+63zZRFNFsrL6/CLncmEof3pHzqF1RtSmaqFc0095L09z7Z101aeT6F1ONP+5DgOStAEUldNhbx1bDruTFd1ZecDuO54DGGYrh/cPoRh/oBHP4YnLWDi7RVs+3sRdlRoAvxQNd/h8uhH+B8XM3eMH+erKjjackvD8XyLvc1nLi6c5zwDCdJ5AyoC4uYyN64f55ufb/HwxVetAm8fxzS0kKnM/49ovGuOOp5vwY6lpg7VkGjGDnFG56p+DImayNi72r3azM+Pfh4qFO/2rzzrQbsy58ci8sshZrrjnMJXz7S1S7i/Pov1uWdaXrNe1fKa9eb6Z3CpW20H1kqoFo2nc5B0tg4rfdGG+AGKY4pifDBK/WlOnwcGaejreYFGHPPqO7h4DuuPNxH9xP1Ydm5zPCN1/hwXBk1hmr6ULTnO1/i6nu/ttunIg+udPGdQ4RJ8teipfv+zCr8xT5EwVAGlPxFzVjM/3MCmjXuxupZtm3Lu4bzodp8Kmv4DoKkRxVfdsT1ybTt6aOc6aFNONkwV1agnrSJ72RQigjToY5NZMzcG68Gd5P+oELMyl4x7DKx6dhOGJme/EKRpmfLTHfXETCo/zSQx3NHPKIPvJ+5uNXUnq2nkArYmhf6/DUaN4w1fa2bFoK4xUXneefyajy047x64BrvOqWQnHG9vc7RfVa0XbfR6gptMGI63fIC++SJcD/WzY/13tv8nq6i0KcS8VELleynEFmVsOQAAIABJREFUDHK8FKB/1P1E9rdiOWG5zH6lnT4RpGRtZMKZtSQt2otVcQ7aPQF6qIdX0t956knZb+TDlXFo+gCeaiLGx6BpNGHoaUpWT/33xXNYrQqaED39cUzRS10wAT9OY6mx9VCXuy9rlAgSN2wk5b4b40/pCnEtXXng0kePNqCRqmOGlo+sO9NYdlDN7P1GjCVbmXZxK0uzDTTGreH95+4jbKgGS+5Sdvgu4cOvajHuSIR/JJGUYQBFhz6gkSrnVAFbwTL+lF6F/uUSar/9hg+XhVKVOoMFnf0hLU8983dUUFJaQklOIhpFT/KuEkpKP2TVHxxvK3twxlQiB9g6nebhmI7Rbgpb+2VCtGg9jY5pJooe7eAz7F2TBUnv8823RvbM6sv7z05nVYkNmixsnj+HHR7TeO/Ls3xTupVpHjtJStyMqcl5S7rahMnW9vfmN9ZUGVo7H8ffV3AOgut3smDOJk6PyaTy21qMO2Yz4PBc4tM7+8N8arRBftS9s4odg1I5/M03VL41gQs5SSS97hhEGdYnsazIj6X7jdR+c5hX486Q8R9z2XbKJS0uV0DblAFgO5xG0nID+pdL+Kb2Gw6/FEHVi4+SlGMBRY8ukDb1w7FNY+s2m6fGHGuejtD2jkn39enf0QVpsH5toqXb69P2b+MUrvkTa0161nxsxLh/FZGmNBLmO5476S7vHQ9+27pJ/V6WPr2W0/dlUvlNLd/sXYLmXwuIf3YvVtSOdFW5pOtS+YUzzK+Oiv/2YdobB9izZwcr7qnnvRfS2VMDYOdocSl1/lNZt2MPe3a9wZN+ddSet3Pii6Mdnm9p85kL+3/nceArb8aueocdu3bwYpw35+2tz7dgt3D02Fn8xqSzY88e3nhqIOfP2jlbVdHy3M1XO99ix7cann5jB3t27WHPnndY91Q43hfa3hqwHznEIXM/pmbs4dChQ7yR0NUrAXsocyxkPTuXbRen8d6XtdR+9h6Jyk6SHl9G4Y+Oh7fV1S5TPxS940HxlvUddctaZWg5Ls1TGSutwMltpK0vQ7usBPOXn5A5xsKm1B2Y1FPJeDsRTXU5hcf6Mm1LKRsndXLxpKmOc+f6o1GXsu09x0DVdt6GbZAG9r3JXud0SdfznXbb1AzVoj5paM1D++CtjZ7r94ICP5L3f0PtN6VkTrCSMT2BdUfalW27cu7+vOhunzYMxYXUhafyya7Z6NuNy1zbjh7bufbalZO1YAHx89+HiWt4/9MKPtyUgLpgAY/O34tVPZXk6VqUwVPYeKjE0SeUllBSWsGrf+z5DVnWD9aytEBN8nuO1+9+s38J2vJlzEgtxGYrZ+vGndgm5vKFsYI9s7woK7ZgO+lsy511sCXIdN49aHkDmRKMXgMmg+N5GF2QpvUV1LhO2XN+0Dzl9Jitx/p5T/v6jxptyyuubRRuXMhW21Sy//sbamu/oXRtDJb1SSzYZ7vMfqXdcf3DTGaPUKMesYQPna/+ra09S8nz+pb61FU9vKL+rslA1opNWKIyKPmqllrzF2x9rJGtzyzsvA1vk+ie+u9yMpZvxnJPJpUnKvgkLYyyNWl8dErD7Lc38vDdndTlln6yh7IefD/T4u//9f0hVCGugt/ceuut/9vbibhuhS+hZH8MW+99gM2dzud2A0ocG/87hwEvBhP/jvzVZHcTHh7e4TPv8enseOo86U+kU3H7EAJU56n+qo72s4RU/QIY4qfibE01ddbLfXLEycObAF0A3uer+eqWJ3l7zTD2/9d/8U7LFW8VfroheF+o5qvqrucpefsPIeBWFedPf0X1dz8zLU4VFRU9LySEEFfieui/hRAdSLx/BdQhejT1VZg6e37AXTjnW5cdk6Dl+qAiPDQIvtrG0QtwvvorjnWxpP1sNcfOdvHlpbp4nupjjj0E/HEY/Zqfb2ndC3VVXaWg1fmarzjmzueBEE7KiERSH9Pj1cX3jVU7WfZ6YY93GX41+seRsnBC13cHGsvIWrqt46vje9MlpPndo9dB/y2E6EACl5/NeTv768LWh87dUPN86y2X9lIY0ds8Agjyh6PFFVxpTHJ5vAka0o+zR5zPtwhxg7KVZLGwpLdTcR05k8+6+fm9nYrL02OaFSLSUty+/xZCdCRTxYToRZ1NFfu1k6liQgghhOiMBC5CCCGEEEIIt3dV/gClEEIIIYQQQvySJHARQgghhBBCuD0JXIQQQgghhBBuTwIXIYQQQgghhNuTwEUIIYQQQgjh9iRwEUIIIYQQQrg9CVyEEEIIIYQQbk8CFyGEEEIIIYTbk8BFCCGEEEII4fYkcBFCCCGEEEK4PQlchBBCCCGEEG5PAhchhBBCCCGE25PARQghhBBCCOH2JHARQgghhBBCuD0JXIQQQgghhBBuTwIXIYQQQgghhNuTwEUIIYQQQgjh9iRwEUIIIYQQQrg9CVyEEEIIIYQQbk8CFyGEEEIIIYTbk8BFCCGEEEII4fYkcBFCCCGEEEK4PQlchBBCCCGEEG5PAhchhBBCCCGE25PARQghxOXRjSV5RhT+XXztPyObiooClo9UXdNk/Tr5EpW0ju0fFFL6WQUVpYXsy0knPtSntxN2hXyJz6ygoqKCincSCfRwfuwRSGKO8/PX47nec9kseNZ2KioKWTfmRjxnfBn9YgEVn+1j+b3OI+bhT/zrhVSUbic5RHWd57+n/A28wfN/bUngIoQQ4jKoiHo0mcRJkfh6dL7Ed59uYeWKdew22q9t0n6FfCYuJv2ZUdxes59NL7/E+u2VoBvLohdmor8RxkAXgSHRRA1w/v+2SCJ1zs/FdaKeQxs2Udzgz7g50wlWgc+oZGaO8KFmzytsOXa9txM95a/2Bs//tSWBixBC/EoEJm2n4rNdLJoxj+yCUkoLd7FuaiSjU7IpKC2lcHc6k+50LuwbSeK6XRSUVlBauI/MOVH4omL06gIyHvaHOxPILs0kvv9o0v9ZQemmeSS/VUjpWwmE3juT5StSmBzsGDmrdPEszymg9LMKSv+5i4ykSHx7rRRuLIFDAvGhnqLs9WzdkcvWDSnMX76el94opv5GGNyfNmMmmOh7HTXG594owprMmE/3crrE5Tmdx/rMcmy6eOY9PpbkWWPxrT/A5jfKuCGG7T3l70bP/zUkgYsQQvxK2Jvs4OHPuJEqdmfkYvQIZNSz6Uy/eT/rtlXCnWNJjI9EhQ9j56eTPFJFWfp/kfI3M8EzVpASp1CW+SJ53wKnDrBy9noKGmxwEVTh44g8lcum9yppcN2pKpLZLy1i0h0nyU1dzPoSFVHPpJMSd6NM8uldZoORenwZt2wL6SkJTBo5mO8+3kruwTJqboTA5aIRYxUER0Xjg4qoEWHwtRHjjZC3Xxnze+vJOaIQMSed+DsbKH9jMwfqeztVV09P+bvR83+tSOAihBC/Fs7BXuW+zeTtyaagClBOUpCZy4G/7afSDrcPGgSqSKJH+MJXB9iyr4zibXkUn/MlalQkNrOZ722A/XtOlhupvwg2gHMFbH5hM1sPGvjRZZeqYaMYdSfUf5LDpj0HyH15PnOeX8f+6mud+RtTQ/6LzEvPo7LBn9HT5rF8w3YKCnaR8WTkDfL8xw+UlZ/ERx9NZN9IIu/24WR5GT/0drLE5btopLi8BjwAu5my8preTtHV1VP+bvT8XyMSuAghxK9KA9/X24AGGn4Cfmrg+/8BbDbsNlB5AMpt3OYD6BJ59/8tpbQonbG+4DNgELd3tdn6Gmo6m/Nw2y3cAvxQ/71jSsQ5I8UHD1Bc1dDJwuLyNWDYsZKkqbFExz7OnBVZFDcEEjXrOabrejttV8ep4nLMPmFEPRxFRF8z5cWnejtJ4ue4I555UwOxf2um3kPPY7PG3lhTRnvK342e/2tEAhchhBBt2b7n+wagaisp02cwY/oMHn/scR5fnsd3Xa3T1MXn537gB+AW39tQAfhGMunJROJHdPVOMnHpfIl6cjnpqxLQq8Beb6R4z2bW7zGChz/+/jfC0/nQWFVM2Slfoh+Nxf9UGcVVjb2dJHHZfBk7ZyYRipncJXNY93E9vqOSmTnixqijPefvRs//tePZ2wkQQgjhZuxlFJU3MHZkFOP0Zey3RzF9WiQNe1JI2W4DOzAojNixkTQU97Cpyo8p/jae+JEzmT3Rh5qImcwbfwuHFuaSe00ycyNrAL8Ixo6fROSgwewvqeGHmwcT/WAwNBRTeaO81a3pC4rL64l/2Jf6XcV80QSjejtNvwiFwFEzSR7s8lFNEVv2GK77B7h9Rs4mOc6Xmj0r2HKkhoaMLUwesYjJc2aS9/lm51LXb/57yl/NPTd2/q8lCVyEEEK008CBlxcz+OZ5xM/PYCz1GD/JZtMeM1xUceijcibPiiA+JYGaL3sIP+xlbF7yErcsmkn8snQ4Z6Y4YzEv5stUsStnp3jDHBZfnMfMuHEkhKvA3kBN1cdsfiOd3BtmRpWdsk/LaHg4irJPy7AT3NsJ+oWoCIxLJNH1o4ofeHePgev6Ge6bI5n57CT8z33MyteLHS/v+HY3m3ZMYsuT8cx7JI/1wHWb/57y9/g3GCfdwPm/xn5z6623/m9vJ0IIIYQQQgghuiPPuAghhBBCCCHcngQuQgghhBBCCLcngYsQQgghhBDC7UngIoQQQgghhHB7ErgIIYQQQggh3J4ELkIIIYQQQgi3J4GLEEIIIYQQwu1J4CKEEEIIIYRwe569nQAhhHAHkyZN6u0kCCGEEL+IvLy83k7CVfGbW2+99X97OxFCCCGEEEII0R2ZKiaEEEIIIYRwexK4CCGEEEIIIdyeBC5CCCGEEEIItyeBixBCCCGEEMLtSeAihBBCCCGEcHsSuAghhBBCCCHcngQuQgghhBBCCLcngYsQQrghn1HL2ZWTjN4nkMR3Kqj4YDmRqrbL+E7NoLSikPQ4Ff4PrmNXZgLBqs63J9yPT3gC694toLS0lNKD21n+cDCdHT6fEYlk7Cig4GABBe9ns3xioHM5FcGPp7O9oJTS0kL2vZ5MlO+1zUPXfAiems6uT0vJmOiSq77xZH5WQYXLT+mmSfi0X73L5VSMXV3Y5vOKzyqo2D0Pvce1zJ+TRzCJOaWUvjqp9dipAhm7eDuFpdkk3tHVil0fO9WYdRRWuOavlOykwF8+L90ZMJp5r++j8NNSSgu2k+5SV/3HLCL7g0JKPy1k31uLGNtlnh18RqVT8Nku5oW2/0ZFZMouSguWE+UG7ZhPRCIZH5RSsGp0m/PS995kMnYXUlpaSuHBbJY/7DwfPfwZ++dM9hU6jumuTT2dj+6V3+uFBC5CCHGprtXA6OYo5s0JpviVLRh+AmigXolg7D1tuk9iRwZiO+f4X82+dHIuxDPv8V4e4IhLo4okeeVMfD6eR+y/R/PwBjMRz85j8oBOllv8GGyfQeyYWCYvryQs5XkmDwJCZ5L+TCDlS8cR/YcZZDWMZcVzozsGAb1AP2sT6aN+wHiq3Rd9fVDOHWD+v4cT/nvHz/DZeTS030CXy9k5sDCm5bPw3w/nv3aYMX5SgPHiNcqci8DH5zGuv0vqPQKJX7+OxzBibupmxW6OnXKzCuXTlQx3yeOMTPMvnZVu+DB24XLG/ZTFjLhoxi0tJ3DO80wfAgyIZ9H8SI6vnszwmMm8VBVGyvxJdDle94ki+ZlIOh5wUIXO5LlRt9DQXbldI6p7F5G9cCg1X33X9oubR5OybDL8PYnYf4/m8Q01RDz7PJMHgP/Dy3n+3u/ZPD2a4Q/MZr8qnkWJkZ1ejAD3yu/1RAIXIYTokg/xrxeSuXgR2wsKSI9TwaDRzHt9FwUH91FwcB/Zfx6Lv4cPY9cVkj3D37HanYlkf+a4EwKgGrGIfTvm8W8h8aS/u89x5bxgH5kpozvt4P0nTie6Jo/sCrvjg4s/cPzzeiLiols7wQGxjA4wU3nKuQz17N9WzKBH4jvcmRFuyPMHyre/yPq/GWi4aKfm40MY7Lfh37/dcsog/H1rKCupAaDhaBnGnwYR6K/C/+5I/I/msaWkHvtPZvL+doAfRox2i+Pf8K91zPzTVo63H6D63ILPTz90Nm79ecvpppN8r5Gsvxmw97Ts1TZoEvMesbF713FsLR/+wPE35zBzQyU/dLNqd8fuFp9bsP1k62bta0wVRuSwHyh4dz/mn+zUl2wh5/NAokcF4nNvFGHVu9n6ST1crKf4b/s5GT6a6L6dbojIpGTCPsum4Pt2X3kEM/250Zi37abmGmSpR6f3s2Lm8+w3t6tVHjUUvbmC9buMzvO2iKqLt+HvC43f7md9+mYOfGOHcwYOlJi5/Y5BnW/f3fJ7HZHARQghumG7qBAc3MArk2NZfFBhbMrzjDq9mfgxDxL72EscH/E8iyaqKKsw4j9MjwrwCRuKyvw9gXrHdAp//VA4WsFtCTMJ/HQ+48bEEhv/CsaAKCI79Gu+RMUEc/LTAupdPv2+pIhT4aOJdl5O948bzSBDcZurzPbKjykmilFhbjByFd37ycih7QcwOsdFqrAIgpuMVH7TfrlKKr/2JzrOUZd8I6IIvmig3GinEdreBWyw0eDjz6DbrkUGumeuMFDfSSShusUH1c1hJL69j8LCQgreSSchtOM9oktbzoexT03C9o8tHDr3y+Sja76MfXY6yj/Wk3fa5eOL9RgqanoMoro7dj63qCDwMba8X0BhYQG7XnWTKYAt6bVhv2DHf5A/dwb4Yz9lpuW+xP+YqfnJn8GdTBdThcwkeYSRzW9UdiifwEfnMe77Lawrdo+Azf6VAcO5To5ig5EDO4oxXwRUvugfHYfuXBnF30B9SR55Jc1hiD9Rd/tjNHTMK7hffq8nErgIIUSXHJ1KTckhyhoAVSTRYY0Uf1DkCCrOlfFxyQ8MjbiLhvJKvgscSrBKRVj4IMz7DmHXhXG7hw9hw/yp+szA/5xr5PaISYwbEYjPuUOs/9NKDrSfSqMaSnDA95w0trvWXH+IQzWRjBvpA/gzKmYQ5flltOn27McxVt/OUJ07TBYSl0o1ZBIvLovCuGkzh9rfYrhoJueV3Sj/sZ2ifxayf30U5je3cKgB6svLOBk8iZkjfFHd7M/ohNEEo0Jx47jV/oOR8vJyDq2dQWzs46z4PJCZackd7hJd0nJD4nlsmIHcXdd+GpXPqNnMvG0/67eb+TlDz+6Ona26kuKKArY8PY7YyfPYf1M8K+aP7b0pgPZKygxexE4dR+DNKnxC45k0wgeV4o2PoqLxJ9ehuR2bXYXKq90B9Qhk+vzR1GSup7h9HR80iXmP2sjZcKDNxRp3pnpwHaWlBWQ/dQsfr91C2U+u3/oS9exaEm7ZzbptndTN6zC/7kQCFyGE6IH9B+f1RE8ffG5qoOGH5o7azncNDfjc7APmcoxKMGEDggkLaqAyv5KTt96F3ieMsMCTlJXXU5Yxh3XltzN5cTYFBbvImBPVcaqY523c5tPA99+3v05XQ0H+ScL+MBrfO8cS61fOgfL2y9hoONeAz223X/UyEL8Mn/BENr06HVvmHFbs62TSSN/RrFg1mpPpDxL9hxhi/zMXn6R0kkOBY1tY+bqZiBW72b9jLeO+r6TS1kBDj/OretGRXFY+v57cinrs9hqKM3Oo7BtJRPtHsy5hueAHx+Fbvp+ia51fn0iSkwZz6JWcn/9cTTfHzrznJRanb6X4lB17vYGc7EOgj6T3bqQ2cGDdi+y/eTpbPthP9hx/jOU1/NBwlgabHa+bXUMqFbeo7Nh/bNs2BT76vOMOQ377g+XL2DnOO1ftL+K4Mfu+FIb/PoaHUysJW7meRJ3zCw9/xq7YwqKQYl6Yu9n5jKKr6zO/7sSztxMghBDXjaYGGi744HOrCrADKm738aGhoQHsX1BmHERsVCQ+GFl/uhJbdTJhcZEEN1SS8z1w0cyBjBQOZIBPSDzp6xcx+/OHWflp+3nUne++/uP9HH9qNJPH3YJPyWa+sIH+F86y+OWodAmsWzmak6tn8tInnV97VQVHoaeSlz5xTD+yH9vPoerZjAvzZfOReozbF/P4dueyEYt498GTmN04cFHdoSeybw3FR5rzqwA2uHiZy3kEEhVxG1Vby675sy2qYaOIuiOQWzYWEA+g8sFHiaQgx5+k/9x8icGMvYtjp8I3JBL/hjIM3zpz5glctF37Z3hcnT7E+mcOsR4AX+I3jePU51/zjb0GlX4Qt4PjWY0BgfgrNZR967qyL5ExwfgPe57d/3weAMXHBzYXcNuaV2GEP8Ejsil8CvBQ8PGBdftvY/30OeS62+B+UBTxI+wU7Cqj/mID5o9zKZgWT/TdvmRVQdSfM0i+NZf5z+Zi7BC04Lhrfz3l1w3JHRchhLhU9jKKPvciaky0405J30jG3utFZUkZduyUVZwicOI4Bp2o5OTFBiqr7EQ+EoFiKKeGQOJfzWb5GH9UQMO3ZmoavDruo+l7vm/w4ZbbOrm8Wn+IQ0cDeexhH8oOfNHJQEbBp68PDf/zXcd1hXvxCGbmX+KxvTm/Y9Di4U/Uw5OIHAT2mpPU+4QRdbfzqvYd0UQN/o6T5ga4M4HM9zOIH6KCm4OJfzIW28f7+aJXR7jdU8JmkL5mBfE6FXj4EvlUPGGnyykyA756Jj0+mkCPHpYDUIIJu6OG48Zrn1l7yUs8eG8MMX9w/MSuLqbh0xeJnd5D0OKSv+6O3W8fWcSmZdPR9wV89MQ/Fk3j58W9eFxVRC3exfY/R+HjAb6jZhM/pJzdH9fTUHyIyoDJJIz0BQ9fRv/HZPw/P+S4C9aS33pyn4lheIyzzGJnk2s2k5scy+K9e1n8h+EtZRnzxBYMp/eTMs5NB/EegYx79i/MjnO04z6hY4kOdJyPPmNSWKQvZvHzHYMWVchY4scEo7IfuL7y64bkjosQQlwyx5SJoanJ5B58DrBz8uCLrNznuMRdX16JLWU63//DcRW4xnAcVdI4DJlfYL9op+C9MqLmZ1MwH+w0UvPxOhaXtBuN2I9jrL6N0cE+UNH+KnwDh/5ZxbzBNew3dPbk81CCA77j+DY3vuQuHIaMZrTOn8Bl+6hY1vyhneLUaOYcCGT0rNlQv5+yT3JZsW4wKxbvpkAF8APHd73Epk/tQB5ZB6P5y1tFzKOBk4VbWPlaL7xdqz0PPfPe3UJCoMpx91BfSsUyO8Xp0czZlc7KIS/y3F+LmKey0fB1MZuXbsJwERgUy/TZgeTsOUTevm6WA/D15xaPBr53t4cE7kgge6fzb8p4QNTuCpIvGtgcP4Msn9b8mb/p+tiVZbxAzrJFrP9gJj40cPLTd3lhQ3EvHlc7ZX/PYdxLKygo9MFWX0lu6vMcqAfI46X0wSxfuJvSdPjuaB4vrshzPLvhcjzNnd19cFsqolbsZ92Dvqg8ANZSOsZO/cHFjFvqPB+f3U7RCgUu1FC8/QU2l0DUutH461RkFya0bMlu3srMx9ZTH/EY80YWUHzQKG8Ru0K/ufXWW/+3txMhhBCilf+0TLJHHCJ+du5lPbypiljEuysUXpq8krJeH70KIYQQV5dMFRNCCDdTsyeHooBJzAi9nKdxfRn3WBTfv5cjQYsQQogbkgQuQgjhbhqK2bTBSNSCmehvvrRV/B9czHSfXNZv782/sC2EEEL8cmSqmBBCCCGEEMLtyR0XIYQQQgghhNuTwEUIIYQQQgjh9iRwEUIIIYQQQrg9CVyEEEIIIYQQbk8CFyGEEEIIIYTb8+ztBAghhDvo27dvbydBCCGE+EWcO3eut5NwVcgdFyGEEEIIIYTbk8BFCCGEEEII4fYkcBFCCCGEEEK4PQlchBBCCCGEEG5PAhchhBBCCCGE25PARQghhBBCCOH2JHARQgghhBBCuD0JXIQQwp0NiWXy8H4ABD2VxQcrY1BdpU0PjJ5MTABAPyZvyOeVSd5XacsdeUcvJOf1RIbddKkrjCc1dxmxl7q8YyWCJi0j52A+L4/rupS8Q+NJfXM3+fn55O/MYuGEIFR4M2JBFlnP3H3Vyrcn/YYn8vLWD8jPz+eDna+xcIKmi313lS8VQY8sI2t3Pvn5H/DuukRG9HP52m88qX97hfjALhIQGM8rf0tlvP/VylGrrvPWQ5o74R29jN0f5zArpPWzgdGzeCX3A/IPfsC7m54lxs9lhWuSb2/unvEyOe/nk39wN1mLxqPpruJ4BJHwej75L45vLYcJC3ltZz75+fns/lsq8aEu558qiPgNOaTeP/DSknPTMBJfz2FhdA+F+XP5xTBrXQ67d+9m984cXpkdw0CP9gupuHveu3zy8SetP/k5PBvuLBiVhth5WXyQ/xoJ7cv+uswvdFcPOm9nnNwtv9cRCVyEEMKNaUY+zPgwXwBO5C4kYX0J9quy5X6MmBTPiIEq4CwfvDCd1A/PX5Utd3DTCGYlaSl5LYejFy5tFVX4MIIsX/L5JS4PMOyp1SyLbuBEXXcbvpvE56fjXbiUyWPGM/11C3c/PYvxt5+n5PUcTNGzSAy5BqHLTTEkLxgP/3iWyWPGk/h6LXc//Szjb++4aJf5CpnOsic1fJ4Wz/iHZrH1fCx/fiYGx/C3H7HPJOBbsIFccxdpMOeyocCXhGfGc1WHQ93lrds0d8J7BIlP3Q2uVdNvMs/+6W5OrE8g7qFEsv6/3zH5gWHOL69Nvr3ve46FsfXkPDOeuD++zOf/ZzLjw7uuN5pHZhF3u0smhsTz56e1fLkmnvFj4nn5s4EkznkMjXNwrJk0i8kXcnnlo9pLS9CFo+S8VvL/s3f/UU2d+aL/32dl1mboTZQSPW2kNcUjlBaqx1x/ZFqEVqCtpj+M02nonAHnTqP3CPRb1CroGaotHRU7Cr1Veg7FXoWeSvqDOK1Rp8S2RFuDusKVwpSCR8QZmnYwjJqcOuw7Wef7R6LyK4hWa+h9XmuxFiT7x/PZ+8nO83meZ29IWmJGf837H5SkLF5KSnclTxuNGBdX4p69lJyHR+3oAAAgAElEQVT7B+9IqYyg5Y1sUuekBn4ysilrlEGhxfhSMQtoo9M/eA+jNt5Q9SDkdSawXnjFO7r86EYXQBAEIaxF6zEX5mCIU4Hspe3DMkq2uZCn51O+QkXVkmLsPRKJS8p5aaKVnFU2vPeYKMjPJGksIJ+kvmIjZZ+4QaElfVkB5nu1qPDQvLeckgon6sWVbLy1CtOLDmQgLvh31sc6ShYkovYXU6UsZ8PZbF6eWIVxjQP51hRyVpjJCHbvuQ9UUrzFjluRQpElE++uk2hnxKMer8T3WTm/fsVBz8WgJHSLN2KeogFtJRFvvEDzg/9KyidGlu7RUWTJpHf3STTT4tHcKuHaUUnnNCOpWg0anJSuKMPRE+hRHDLOATTzTPzEbePpzyXSX7KyoMVMzk43TMyifHsm7heNFH8iI03PpypPpvjpSiJ0SfQ0WegBlNOzKMpbQHxkL+DDtbOEkl3tgxI43+Gt5Ff3kLHZgC7U+VR4cb1Xiu2DFnx+8B2opyXPjGY88AcHlv3ZlJlSqFpj5zqlccFyuDn0ZgntH7QHy3GI9mez0UQD3SOLSzNVh6bVRtXRHmR6sL1lx7QhFZ3kwDFxAZmJLVS93BlY9sGVFP3yJ2gkwO/m0LYSNn7YSeeuGlq2Z7Ngso3K49c/tmHLPCgjl9D90kxSYw310wyX4k5JIb6lhuKGQI22bzBjv/Dm5O8jbiX6dB3uD57G3iUDTsrznKEXv9VAzqMytg/ayE4Ivia3Y3vFRV1DDzLgrHfhvl+DVgGdCh3G+WqcL9fRA2gXVlIW56JOkYTuNg1KTy3le9QYHktCc6sS93tFFO1sR/68Bqt7G6aHNDjfG2GDeCQUarQaJZ0fOAPXkB4nLSeUGG9Tw4BPiSpSove8Z4iNeGmrLsB2XEfxg3f0f0sarfEOUw8ih7nOnA2zeEcZMeIiCIIQkpKUvAIM5y3kPGHEuKQSX9pKzLMkfEcrKW9MJDtLh3KiEXOal5rXbLglHeaVmSjtKzE9YSTr5XZ0z+aQPhY08/PJneSi+OcGDIurkB8swHxv6F5a+UA55Z/10Lm7iOzNDv5vn3Kl5wV7BJ/IxPh0GW3Tl5I/L9h/rIhDF2WnKM9M9jIrzDWS2q8nX8a1rRRbl5v6l80U7/lL/x0r4ojHRkGemaXv+cjIzUSyFJDz9FJqZAPGB6IDPYoh4uwvGv298ZxsqKcHH66mNjQJiUiAMike6ZQHbVJgCoUmMR5aXbSjQZcIza7OwGjNigXI7+VgNGViet6J9ldLMU0cfLw6P2+h53LDUefbcbxnpz24nJSoI87fTvOp4DbqnXimpKK7oilqV8HXjn2XM9D7LEWTOD+DuLMunKcGLxoqrl6AvtNXfL34lBo00aBN1aNuOYTTB0g6TFk6Tr6ShfEJI1kbDqHS64hTAD4nh1rU6FO130tsw5V5IOnObMzT26jc3twnSZXQTtLgOX8HOVsCU3mqNprRX+jJ/j7iVmiIv60XX1Q2pdutWK01lD6bHmIqUTTpS0xIH5Rj65uQnnJi/bDlYjM4TpeE6kQzzTJIiSnoceFoCUbtl1EmamjbnIN5cQmu27JZqm+mJM+MebOL+EcNJEkAPdR/dpL4e/XXdgTN76alxY323gy0Eki3pqDXunG5BjaelSgjJTQPFFNltWF7v+bSFCt/Dy2fu4ccLR618Q5XD4a5zoRdvKOMSFwEQRBCkZLQT+ml/oM63H6gx4ntKOj0SUj4cFaU0z4rn+JVRiJ2lWE5BcTq0Y1txhYcEfA12XB060idpkQ3PR6Psy4wXarbTvHTWZQ1XMXEL0nHTxJ7cf4+2CN41oXjqJf4aUmBOdR+Dy5Hc6BR1O3GfV6F+kq+6fxuXIdakAGP242vuxnXcRnw4Hb7UEWpholzQCImxRN3m4fOtkATrcfVgkcbT5wkkTRFQ+fvHciTk1ArlCQlaGh3NSNH60lUNuM6DkzWkRTZTJ090GiQj9dR/3UcSVO/+3wJKdZA0Qo97RWVOC60IE+10YmW+CESo+tBerCYujor5b9Q4dhSdUVT43pcLjrjDGRPj0aK1JBiSiUOCUmSiIvV4G4Pjkr5PXh8KpIeyEA/WYncWE3Ri1ba/QAy7e1uNLFx1/zenqFiC13mASsrtJieScG9vTyQhPShVKrRTtHQssmM8ef5WGRDcLrZ9xS3QoUyUk3SZDfleUZMS8pxT19K/qODP2TK2Way1XWUv9cZcoqn5v6VFM3zUvWaNTDCGBeP+k/ttPVdodWJoxuQ3bh7oO1oYARVdrvxKNUXG7K+tk48t8URf01PpoyruhznbflUWm1YqwvQNlZS8/ngiNx/cOA6YqUoy4hpmQXf7AJWzh/+Po5RG+8I68HA60z4xTu6iMRFEAQhFIUSlVKD4XlL4CZNq4Wi+1VEKION5h4ntgYJXWwndXsCU1OkKCUqpZ6lb1mDN3aWYYwBKepmlCoJr897cfPyWR/yEPO9L18uFcpIHz7vhW8+GY/PhzJSdfFv37d9vxWv9FtORr6wuh+Q5QGNLmmYOAfsS6FGrfThuTBkcMpFmxRH0vg4kiZ5af64mZNRSSQqk0jUnsTV6EM5IwlNuyvQ+6xSojrvwXfhOPk9+L4FlVLFd6G8J4uSDSbk7QWU9J1nHmzsRg+M4zqRPywiY46B7JebSSp8iazJV7Dyl1WUvNGJrrAay/ZiMjzNNMtefD416igJ79lgXP5OLC8VU6dIIedlK9a3SslPuzTS4D7rRYpSo762oQ0dW8gy919XOz+fDE8VWz8ZPGFPlmU8jTbqOmQ430ndB4foTdARL31/cct+mebfW2n3gfy1A+sBD/FTkvp/0pQ6zL+8A0e5JZgsDSQRN7+Y0sVqrM8XYQ3ek6NWK/Gd9fb7zMly74XfwC8j/y34p5/+y/V48CnVqIcc/blaGoz/UkBSQwGmxwwYnijAMWkpRU8OHK3qwVFRzMYdDjp9Mr7jVqo+8RA/LXHYK9Dojffy9WCo60z4xTu6iHtcBEEQQvH78J7txPaSmbIheheZaCTrXje2o1qMT+upe9mJ70wP3rMOKk3FA+bsSxhmyYHRiuDdJsqJcah9nQM2KiFFXqbR7PfiO69EGSUR+FqTUCuV+PokRdebHDLOIfT9kpWbcbVrSNXrUNJOeXcz8p/MJD2gI97XgqVHQjctDndTaWDE6IwPb6SG6AvbUKhR3kS/BPBKSZNNFK9KpfOVfMo+6xl6oevdMLhVj3GGTP0HLnr8PjoPWKk3GdFPjab6eIgyDSLT/l4x5vcCf0nT8ql8qJNOH8QNXLLLSfVvnFQjoX2wgJJnzaQ3FGG/HjfyXCa2UGW+JBrdvfFoEuKpfn9pYDmlEl62ot5soqbLTcTEAaMb/uA0tO8jbvkknX8GbZSSC59lFIEy9CUlpKCP0aLaYMUYCAKlpMP6mob8vEp8DxVRPF+mckUR9q4+632Hol0XkYnoEj04K1z0+IGzLuqPejBOiUN6u+9IUjRxs+5AbnLRGRw5DIwAD7/5URvvZepBqOtM2MU7yogRF0EQhFDkZpxNKvQGfaDhLGkxrCjGPF0CNBiWGIn4oIyyzZV0Ts/BPE2CDhcun46MhzRIBOZH57yQT0q0jOtoG5rZRnRjgfEpLH15I9mJ4PF4UWq0gbnRyiRSp2kufrnJflBGqvp/2ckuDjVFoE8PznUeqyN9VgTNR1xX8MQxGYhAdbUzrkLGOWA5vwePT4kq+mJEuJrcaOdloDnRTKffR3O7jO5RHVKLC7ciCV1CD64jwS/6405c55NIfSAw3UR5t4HUW5txua6g5anQoH/UgO5WQBFH9koj8ptFQyctCjVqpRef59o8uy10mbRk/PNKzPcHjp/y7nT0Ez10dvr6l3c4E02UvlWCMVaCyDiMv0hFPlBHs+zB55VRjQ1O0YlOp6iiGOPEQKLrbj9JDxIRwc1oxqqQvR6GuqX6mscWssxAdCKGn6agVfRgXW4gw2DA8JgBg3El1lOdWFcYKd4v017vxDNlAdnTlBCpxTD/J0S0umj/3uLuwflJG3c8mo1+PEgx6WTOVtPW1Izc59zJR8vIfDgYw2MGjP/Lia+hDOOSStpvNbJyoRrrC8X9khaAnjM+lGNVV9XAlaLVKH0ePFczkhuK3ElntwbdfcFpdZFx6Kdp8Jzq7BcvCjWpi4spWhy4XkqxBjLvV9PcMPx1aVTFC2hnGzHcE83w9SD0dSbs4h1lxIiLIAhCSD4cr5UQX5jDtneXAr14Gi2UtMhEP5hD1t87KF7TiSx3Uv62gfI8M3VLyqncWENBfimWhRGAl7YPyqjqAd8HZZTHFVBUbUPCS9veUooPyPREW7Gl51CyLZUeTxuHmtqRlQAybc5DUFiMZXwlL3dcKpd9Synx/2Jm27s5gMzJ/aVs/NA38u48fyfOox6KV1gove03OK700MiukHH2X66N9j+pSYlXwueBN3tcLci5JjwfBBo07pY2pIUZtGxvRo7JJsnfTOnXffbzci1FeaVYF0YEngy1pQTrgMYeikRytpVhmigFej3vrqP+ORlnqYGC32tJ+ZUZPHW4lKmkTNagfa6G+ucuFhLnbw0U7JEhJh6topNDQ9wkf011WSnZqqVgSSW2QgnOu3G+t5HKozJIfcrbHRc6rg9sVO/Xs3KLjRx8dH5WRcm2wL1JbcfdmOPikOhE7nFS+3EqBZutZCtkkD243iihzgcgERenwX089D0Y1zQ2QpeZW1MxLdLCHsfFHvshHa+i5A0NBc9bMEWCp8VKyWuO7zVu9wcb2aotIn97HWo8tO8vpXhPDyj0l87d16G3HH1fCrpbE9Ftqyfnwov+Fsp/mYO1vQ3Po4H7GFxXWDhlvBa129H//onvyt9OzcYqNPnFWB6NAEUvnqYqSt5qHxBvO1UbK9EsL8CyTwnn3bh2F1OypwdiTJRvzyFRAShAX12P2d9C5dM5WEZTvEgkzcvBdKoN2+c9oetB7IKQ15micIt3lPm7m2+++b9udCEEQRButKioqBtdhB8szZOllE938PRKKyOdBHWjaBdWUjaphqzr/Tjk6+1OM5W/0VCVVYxjuCRAmULR9mzcheZr9zjkG+mHELekZ2V1DnKoKaohRWPcuI2UozksfXsUPS5XxDtC3y3eM2fOXPE64UhMFRMEQRCuK/ceC4duM5D5ffxjx+9Cqcf0ENRZHKM7aQH4shZrayLG+cM/7lf7aCaJrVZqw63xfrV+CHHLTiy7fOhNGVf02Fvp7kwMtx3CsmcUNeJBxDtCozbea0wkLoIgCML15XNS+Vob+meySbze/x/lqinRLzYTf6Ccyj/8EOZh9GB7rRrfQ/mYYkMsEmsi/yEP1a/Zwn4kbOR+GHF3vleKVWli6YPDP0r4oshEsp/R0/Za5aDHR48GIt7LGOXxXktiqpggCAJiqpggCILwwyWmigmCIAiCIAiCIHxPROIiCIIgCIIgCELYE4mLIAiCIAiCIAhhTyQugiAIgiAIgiCEPZG4CIIgCIIgCIIQ9n50owsgCIIQDn4oT1wRBEEQhB8qMeIiCIIgCIIgCELYE4mLIAiCIAiCIAhhTyQugiAIgiAIgiCEPZG4CIIgCIIgCIIQ9kTiIgiCIAiCIAhC2BOJiyAIgiAIgiAIYU8kLoIgCIIgCIIghD2RuAiCIISzO+diuk8NQELOThwb05Cu0aZj5phIuwNAjamigYqfqa7RloWRUZHws3XUftrAq4/3OatSLHNX78TRsAPz7aHXjnm4kB02Bw2fOtj9RiFz+ywbM2cZFX3eS5vQZ69z1lBblcuUm0Js95FN1FZkkfAdKppqWhabauw0NDTQsG8naxYkDK63d+eys6GRxqN9fhovHYvh4kNKIKuilk2PxIysQDdNIbeqljVz1FcfVF/qZHK31OL4tIEGx252FMwlRgGgYsrCTey0N9DQ0IC9ZhNZ9wzxuYoyUXG0f+wNW+ajApBimV+0g912O3a7ndpXzMyM6rPuhPlseqeCrMkjLOvkLCre2cT8YerSZd0+l8KK3TgaGmj4eDcVBWnBeCUSFqxhx75gvO9sImva0NeR0OdTTfIzFez+uIEGh52dL83vX/fCKt7+5Xr14wZ2LBy6Dqr0Zl59x459nx37+ztY83jsgM+AxMzltTTY15B8o+MdRUTiIgiCEMZi0zKZrxsPQGt1HsZ1B5CvyZbVJP8si+QYCfBgXbWAVTbvNdmyMDJTcrawbs45Wr/q86IiFtPmTWTSSsffhln5FhOFz83ki41GZqUY2fDlVJY/Nx81wAQThStn0LrOyKwHnmLrqamYHpkSWO+mZJY9k8DB0tdp+nboTXftXkfVeRPLnoq9usCkmeS+sAjVR8tIv3c2C8o6mJG/DOMtA5b7w1aemjWNadODP8YNHPzjYfY75eHjA2KfXIbpfBXrdneNrEzfNvF66UGm5ueR/J3zcxVpz63F6Lew+OFZzP5VNeceWE7uHAlpRi5rf6li/4p5zLp3HmsbY8krNBE7sNEbpSLizF6eu/dS/LPyduEF1D9dxbLEY6w2ppP+0EKqyOT5nJnBRq+auflmxu1dT/XxERb3eDXr947DnH/p+F0ZNfMLVpH8560sfGAWsxdV05uxitw5EtyZzZr8BI4Vz2P2vfNY65xA3nPZg+Md5nyqMpaz9uHTbM2ezSzDMg5OyGPVL2Iv7jus4u2zzNz8bO7y9w69CWkmuaszYedC0h9Ox7jmGFOXr8LYpwNBumcRS+eMwdvvc34j4h1dROIiCIIwnGDPqt1ux26r5dWcmYEvW30htbZ1zFUDSEzJ34n9lfnEcKm3OdDTVkFhRrBHThHL3KId7LY7cNhrefWZZNRAwjM7sa+/NJJy4W/lnEJezZzCpAW/pXZ1GvdkbcG6enZguQlpLHutFvu+3dj39enxldJYZ99B4eI1VLyxk1rbbnYUpA34QpOY+cwWcnUxpBXVsO7xOIzra1lvUF1cf01OYP3d+2pZsyCNrPUV7KjZjb2mkLTgxkLGKYyI99AmFj1bzRf98sVzfLHtGRaVHePcMOuq7ktm6ikr1fUe8Hs4uH0PJ6alMTsKYuakcVdTFa9/6gG5i71rn2JxRRMAMY9nM7trFzsaZUBNcn4FtfsCPfv2mk2Y7g4ksnvePMiEn5qYeTWjLj86x5Gd69m8vQmvX6bro/00yeOI+fvhVlKRlpPFmF2b2fXN8PEhzcT05DgOvrkHDxC7eCf2TctY9soOdlrt7K4wk/ZIIa++sZPafbt5dWFgtEdu3IGlazbZIx2lGUb3p6+zvtRCqxfk41b2H1cRc/t4+MsRLOs2U9UYKPfh+sN0q2MG99arxqD69hyDuwokYiaOQ249TKsX8Hdx5FgX4ydMIALgzkyypzRR9U4HoML0moOKglw2VewIfNaXz2VuziYqqmqx23aQqw9kaR3vVNGUaCLzzquL96t9m3nx1b10fAvy8T0cPKEiZsJ46G1l18b1vP6pB9nv4eBHR+hSxzBpQLyhz6fEzNSZnKurYu8fZfA2UVV7jNj70wLJT7jFeyGeOXksGrefHUdCdCNFTCBG3cVhZyCx9rYcpvXbCcTGBD9QigSyl6bR8aaVfqn3DYp3NBGJiyAIQkjBntVvq1j4UDrp2VvxPvw8efdJeJ1b2XxkCovMM1HdYSLvYS87SnfRJc0k9/mFqPbmMe/hdIzFrcwsWMbcKIh5chXL4w6z+rEUUv7pdWTDWvJSQ7cM5Y82U+rwcKL2ORas28//7VOuuctXMeebrZgefoT0zA18oV9F4ePBjEKRwMyb97L8V0+x4J8t8JiJ9H693TKHy9ez61QX+4szWf27nv47ViSQgJW8Xz3F/9zpZd7ybCKq81iY+T/ZIRsxPagO9CiGiFMYmY7GJjwD2z1+D02NXZcdVYuZGIP8VQfdF174Swdd38Yw6XaJ2MkT6P52EsveCCTctVtySb4FQE1ySgInPrXjAbjDSO4jXl7/p3TS0+eR97tekpP/MdDIP/YRB0lmztSryFy+bWX/zr20BoOQps4g4W+tHDs5zDp3Z2NOPMLrNR2XiQ+kqXNI5jAfHQvu4G8yqqkxfLFuIU/901qOTFzEqvuOsfZXT5G5/gh3/XQ+/ygBeLA7TpCQkvwde6a9NO22sP9CPFGzmRnbxRefdyMf34+lrjVw/lQJzHs8GRoPc2zACZXGqJBumor5f+/G4XBg//d1wSllMh1HWvnr1DRm3wLcFMucGWpaXcfwArFpyYxvOsABL0Avvf4IEu44x5YlC1mw4iNUT65i3l82szh7AcvqVJgWJAc6OrwHONA0nuS0qxlF83B49y4OfwMgEaPPZt7EExw+0gUnD2LZ3XQxAUuYMZUxx4/xfwbEG/p8jmfCBBVdHScuHd3OLk7/fSDZC7t4AVTJ5C5JYH9pFV/5Q2zi22Mc+48YZmcEkmb1jGQS/E0cCX4oYp9cxrzTr7PpYP8RmxsT7+giEhdBEIRQpKkkT/sr9to9dPkBzwF2OWFG8j8i4eXgq6W03lfIphdNRLy9nuqTwORkZkYdw/pOoPHidVnZ/80M0mcomaFPoPvgnsAUnW/2sirTyPqDVzHxS5rJ7Kl/5aDtQKABeuYwHznPcdeMQKMTfzeHP/o/gcbEN1/RdV7FuCtpqfm7OHKgCRno/qoL75+PcfhLGejmqy4vqpvHDBPntboDRwhNYkyExF+/7Vt3ZHplCenHEirVeCbpYji2LpP0xxZR1WtkbX4aKukuEiae5kRrsJl53stpxZ2kP55Gwi3QunM1z1QcDjS65S9oPTWeu+78bvOqpMnzWV+UTOuWrewPORNRRdrP58K+Kg5+O4L47ryL8ada+aLv2y0H2P8N0NtFlwe+cO7HA8hdXXSrxl9MVLytJzg9MYG7rlU1VU3BvH4pCY7NbL3Y+y6RXLSbRsdOlk0+wtbyvYNGVuRzrRw5coT9v11IevpTrHXFsug3ucyUwPvRVra2zmDd+w4cdTUsGvMRW9/pACQS/iGGrtbWfoltx5GP6PADfzxB1986OHYw0MDu6DpNRNSYwEgNMq2tXcT8wxD3Go3ULVlUNDSw+xUj595eT9Uf+r8dk7GGdY+f4/UyS+C6dNEw5/O//TciInqR+7bf5V56I8YQEZbxSsxcnMtUZymvfx5imhiAv4OqUisRv9zJgY8d7NmcTMe21wOfgQnzWfZkL1Vlewcdpxsa7yghEhdBEIRQfqRijCoG4/o9gak09j2syxjDj1XBxpznALs+lZjxDx3s+V2gp1i6WcUYVTKr3g9Ov/n965huBylKjUoVgdd7aQKQfMaLHKrH7jLlUkV68Z678PUm0+31orpJdfFv73/2/eqLuMId9NJ7YXU/0Ns7YAQgYpg4r3RfwpWTOdcr8+Ob+iYVEmMkGfk/ZWS5l+4ju9hzXIZvO9hTe4C/Js7grshxjFN5OX06eDa/sbB2lYVzOjNbag9gr1oTnCoG0Iv3jBfVuPEDdz5iqmlmtrySTW/FM6wd7l6UqDTm6T3s+aBjRPGNH6fCe8ZL32Zjb2/vxXXx9176XP2NfnVXPn0ar2oc43501WFdok5m2dZ1pJ0sZVHJwT7JiczB4keYdt8jPFcXw/L/VTh4yt3nFl5YtRlLowdZ7uJgRRXHomYyIxYSFq9juXoXi9JTSHlgAS+0JrNu7VzUjGfczRGcO9P/WPae/2vgFz9AL70X7l0K3n9xYdddZ84RcfM4rvqMflPN4lmzSMnexOm5m1n3swtT7iQSfraJf3tmHJYVy7EMujdjmPN57j/p7Y1A6nvZkCKI6D1HbxjGK929iNwZx9h6IcEPJSqNtS+lcWLdI8x+IIX0/2FBtXgdufeomftMNhHvbWbXVwNXusHxjhLX4qMrCILww/Q3L+fOdGD9dSYbGof4mrrDhDnlK3Y5YzHlJLOn+CDev5zm3Jn9bJ23mv39VpGYn9wbGK0I9rOp7khgnPfEgI1KSDddpvH/Ny/e8ypUN0sEmmUS41UqvN7v7+Z6OWScwvehq6MLacoExkNgjvwtscREdHH4jzJdf+zix3cMGGLzw18BBtx74HFW84KzGqQYkpf+lnX5Jg4urmaEt7yHJN2ZxaYX0jixcREb6j3DLztjJlNPH+b1Pg250PERHj3KqpnklhaScHA1iysuTZVST5tP+s3HsHzUAd92cfjNPXzxCxMzYuHwl5dWl26fwsyoLg5+fuHYRAC94FczY3oCJxzLaPICdHGg7hhLi2Zyl9T0vYZ4qbCxpP10Kt17d9F0Rsb75V4sny6iYsYUpHe6GP/4en77ZC9bc5ez949DbyL0+ezm9CkvxtgEIBCfalIs4/58mA4ZbsjEp2HivXN8Mgm3x7Du/XkARNykQnpgJ7Uxq8lcd/BiMiMlJDOFY2yoD0z7lP+wh/2n8pj339OI0ceQoN+B42lAEYFKBZv2jGNz9oYbEe2oI0ZcBEEQQpGPcbBxDMmPz0atIPiY0k3k6iUghvlLTUS8t57167bSoV9G7gwJjh/hsHcm8x6JQQKkCWks21hImlrmiLOVmAdMgUeb3pLGqq1bWDQVuk97UcXEBm7gVf0j6dNjLjbOev8GqpvG9G+syYc54PoxyQ/PDkyBiZrJ3Pt+zDHnZXoB+wcH/JgxVzsTKGScV7k94fLUU5j/VOCmZe/B/RybaCQrVQ0KNWm/NBLj2s8BL7TuP0i3LpNFM1RwUyzGJ2fz45YjtJ4/zWmvijHjArVJuq+QHVvMTFEBchcdJ04jX+zOjEAVpcL7l+5QpQlNkcCi5030bntucNKiiCF5wXxm9nm60qTEBOho5USf0cfh4vP8xYsqSnXF44gA0rhxqLynOT3cE9suvxVmPlPI3BOlLO+TtADIE2eTuzIP02QJkIg1pHGX/ytOfEW/8xcxdSHrXl6L6U4JFGpmPm1i6jdHONDhpeOP3UzSpxMrAahIuMG9EtQAACAASURBVC+BMd+coEPuxuvtZUzU1T1cICZqDL3e01zxGfWrmLpgGaueTg5cB9XJzNOPo+tkB/LtJtYsHodl1erBScuI6qvM4Y8PIGUsZO7tEkTNZNGTd9Gx/yBdhF+8n5c/xaz7Ukh5IIWUB9JZXeehqeIpFqw7iNwnXrnrBB7VVJJ1wQvs7bNJntTNifZdrH5gVnD9wL2OTd/sYfm8Z7B8dYPiHWXEiIsgCEJIXvaXriXhhWVYfr8K+CvdR6p5oUlG/cgyzLd8xOo3O5DlDja/aWTH8jz2ZG9m64s7WFvwb+xZ/GPgHF/UbuB1D3jfW8/mO9eyzupA4hytv1vPqo9kPGoL1rlLebUmDc/pVg40tiKrAGS++PQArP0te/5+Ky/+x6Vy7d20nruKc7HsWwrInNi3nhd2e0feHe0/wUFnN78t2kPFxF+z/0oPjXw4ZJzCCCimsKzmdbJipcAoyJQGGotkDv7bvzLG/P8xRQEoINnaSK6/ia2mhVSq0snOi6Xqd/vp8Oxiw7pJrFlppWEddLfsYv3aXYGxvC9f54XyGNast5EdCd1NFtaW7keW1bSeGkdaggoaPchHdmGdu4Z11mx+jAx/OUbNxl2BHnHpLhImdvPFm1cxijc5jbQ7Y4gt2k1j0YUXZQ4Wz+aZvbGk5eSBZw+HvwqMFsaMG8Nfzwxobg0Tn/TlF3T/NHCfyuErHO1TJUxiXNf+/vfHXClpJnNTYokZ91scj1yKz7N7OfOKN/NC7BpyXz/AMgl6PcfYVbyBvV7gnkvnb9fudbwweT1L//UAy6RevP9xkK2/3kKTX4byDVifX8brexbB3+Cvfz7A5t9Y6EJG9WUXMQkJSHRc4WPRJRISYuj68krXA/xNbHlxK2sL12J1qIjweznx6VbWb29FvWAZMyZMYUZNI8v6LL/5iYVUR42wvtZv5sXEdTxfdYC1Ci+tH21h7c7AtMHWMIt3WBP6xPtHC2s3TWLtait2CS5cH7d8Olxp5BsT7yjzdzfffPN/3ehCCIIgCIJw/cX8ooId+v2Y8gbeQN2fNKOQmrURbDC+cMXJwXUnJbPGuozeUFM4Q1Jj2mIhzbmQxW9+18lwN8jduezcHEPlgtXsD/F/eIakSmPdO2a6nn2KrV9efvGwIeIdmdEa71UQU8UEQRAE4f8RXb+r4sDE+Sy8Z7ihOTXzMpM5/XZV+CUtAPJBqt72kvyLeVf0WGPpnoXMn3iAqt+N0qQF4A81WFqmYPrZld39EbsgmyktFmpGW6NWxDsiozbeqyASF0EQBEH4f4X3IFvKWklesYgpNw29SMwjq8lWWdi8s2PoBcJAx871WFTZrB7pP5O8aQqLViTTWraFg9/fMyyuAw+7yirxPrKKrMkjXGVyFqseOU1l2a5hR9nCk4j3skZ1vFdOTBUTBEEQBEEQBCHsiREXQRAEQRAEQRDCnkhcBEEQBEEQBEEIeyJxEQRBEARBEAQh7InERRAEQRAEQRCEsCcSF0EQBEEQBEEQwt6PbnQBBEEQwkFUVNSNLoIgCIIgXBdnzpy50UW4JsSIiyAIgiAIgiAIYU8kLoIgCIIgCIIghD2RuAiCIAiCIAiCEPZE4iIIgiAIgiAIQtgTiYsgCIIgCIIgCGFPJC6CIAiCIAiCIIQ9kbgIgiAIgiAIghD2ROIiCIJwg0izVlKzyUj0oHeUxM0vompfHSXzpEvL31+Erb6O0ic1AzaUSP5b9dRXZKFVXO9SXwklxk11lM5XXtlqtxoo3l6KKXbkq8QtqaTyae2VlW5aFiWWOqz/koIUaqFoPeaNVdj21VFnq6H82XQ0CtA8WExVmYm4kCuOqARDnucrWU6Tlk+5xUbdPhs1W/JJj+nz5uWOY6yJ0u3FGGJCvP8dKO8xUbzNSl1dHXXvVrLy0bjBx1ihxbytnvqPLv3UWYtIkQCUJD5VTKW1jrq6OqzbijHd3aceSXGYyqooflAzcKsBkYmYX6ti5ezBn65rYnwKOZtqAvXCWknRUPEFDV3PJOJ+WkSlxYr1XSs1FUUY7+6zhRsdXz8SumU1/c5TfV0V+dOGiliJbmEJVe/XUbfPSmWhAa0EjDVS+tGAc73RwMUzGlbxAjHp5JfVYKuro+79GkqfTUEz1LV1mHogTTZSVGHFtq8O21ulmGf1KXu4xTuKiMRFEAThBombkURPk4ueAa8nPr2Rotle2r8eYqUeH5qUFPp+3UmJGegiffgut8PrndRck+1Hk74kC7W9DEvHSPerQZ8o0exyj3gv0qx8yp+Nx33CM8xSSlLyCjD4reQ/kYEhz4J3di7m2RLuD0uxnDeS89MrS5b6GvY8j2S58Uby83S0vZJFhiGLsvYkcvMMwUR4BMexw0KZXU3WEsMQyfN3IOkwr8pG6fg1xocNZL/Wie6fczCMH7CcQolS6sTybAapc1JJnZNKhrEYhwzSNDMFTympf95ExsMmSpq0mPONFxNz7fwcjOctlH4Y4pyfb6Gq3EnSEjP6K8ybL09J+rMFZJyvJsdowPQbF9pFS4dMEEPWs8nZFCzUUF9owviEiQKHBnN+NnFhEd9gSmUELW9kXzxPqRnZlDXKg5e7fykr0z1ULTGQ8fMSXLcZMUyTYKySiLN2ih5OvXSuV9ouXrPCK95oDM8uRd9dSc5jGRietSDfvxTz7IGJ2jD1QKHFtNyM5mgxJoMB87Ye0lfkkhIse3jFO7qIxEUQBGEYmgdXUv5WoFfUailn5YPBhmqwJ95qtWK1VFHytO5i4085LYuS7VZs7wd7UicP0TOp0KJLZMjGtu/wVvJXWWgbIhORv26mPTqV9IkXXpFIekCHr7UZ2T9EAFI6xe+XszKvFKu1BGP0pd5w67tWrG+Vkn+/5mKZ0leUU2O1YbNWUbJYH4hJ0mJYUU7Nu1Zq3q2haqMZ/XgIjKjYKF2WT6XVStH9EtKdRoqrA8ekcn0mcREXChKNfkkpVe9aA8dsWzHGO4c4LpMXkJnYQs2uTjRPlmN7KT3QKxscVap5Vhfo0YxMp9hajikGGKsnKbodV4sMt6aQs6kK67s1WN+9NEIyyJ/rKHm2mLpTgxtffXmcVZS+ZqXdB3KHDccJJZrb1EAPdW870TxqRHeVoy7DneeRLKfU60nqsmH5rAf8PTjfquPklBR+MpZ+xxFC1+POXTW0JBhZMPnqYhiSwovrvVLKd7bg88u4D9TTIqvRDExcUCFFysi+Ic7BGRfWzeVYPg/E5vrUhSdaEziXkg7jfDXOt+voIdizva0mEJu1htK8FKIB+fMarO6fYHooRK/21ZKS0CV4qX+vjs7zMj1Hq6hp0vKTlCGS2BD1TNJoUPc04zolAzKdrmY848MkviGoIiV6zw+X5AMo0afrcH9Qib1Lhh4n5XlmyhtkUKpQnvcO3bkShvG67eVsrLDTeR7kjjqcnUo0GvWAcg9TD25N4ScxLmrfcgU+A5/UYD+rI3WaFJbxjiYicREEQQhF0mHK0nHylSyMTxjJ2nAIlV5HnCLYE3/eQs4TRoxLKvGlrcQ8K/ClZF5hQH4rB8NjJoqP9u8pvmisDt3YZlxfDm60dX7eQk+o9rS/DWdTNKkZ2otlTJ/u49BRX4gRDxmZOJIkK08bC7D6dJhXZqK0r8T0hJGsl9vRPZtD+ljQzM8nd5KL4p8bMCyuQn6wAPO9Epr5+eQkNLPxl0YyTTlUnTdQ8HRg2ovsl4iP81GeZaR4vxLDYjPahmJMpmxyquGOCw3iiQbMD/qoWmzEaDSxco+MXp80aHqNNlWPuuUQTh+4XS7ck5KIl4DxOuLlTuS4RNQKkBKS0PY04/oapGk6tJ0uXLKS9LylpHRX8vQTmRifLqNt+lLy5w0eT5A7Wmg5O3zSAj5aPrTiOHXhnOnRad20tQQacHKLAyd6UhKvLnMZ9jyPYDnNbRpkdycXm5NnO3Gf16CN6X8cQ9djwOfkUIsaferVjxwNcr4dx3t22oNllhJ1xPnbaT41YDmFElWkEl1eJdb367BZyln5qDZQrzocWD9pRwZQxpExTw9NLpplkBJT0OPC0SIDEvqfZ6NtKML0hBHj0+W0x+jR3QrQQ/1nJ4m/V39tR5Qulv/CLzLyeRmNRjOoPoeqZ3KrizaljtQpSkBJYnISqtYwi+8iJcpICc0DxVRZbdjeDzSuB3UIKDTE39aLLyqb0u3BRniw40BSKZEik8jaUoPNZsNaUXRx6l/4xduD60Mbrm4ACc30TDJu68QVakR3iHqg1GrQ9Lhxnw++5e/E/WcJzW3qMIx3dBGJiyAIQih+Dx6fiqQHMtBPViI3VlP0opV2RRL6Kb3Uf1CH2w/0OLEdBZ0+CWmyHl1kC3WfuAGZlu35mAqtdA4YDVFO16E5EWioXBmZZrsT5b0ZxClAmpaC7s/1OP48fBzNDic9fiBWj25sM7ZdgUahr8mGo1tH6jQluunxeJx1tJwHuu0UP51FWYOEbnoS7s9suHyAvwfHxy5I1BEnBQrvPlofeE9KImmSF9enzciA/GUdhy40Vs/78CjiSJ2XQtx4aH+vmIIdLgb0QxMXq8HdHmywnnLRRjyJt4JyajxSkw1XZDy6SFAnxiO1uuj0SyTp4nA3uvBJOn6S2Ivz987A9LuzLhxHvcRPG5wgXTFlIlnP5xD3WTmVF6bIyG20/0lNfNyNmMshoZIkes/3PYIysiwhRSj7H8dQ9dgfWKe93Y0mNvQ9Gt+plLEGilboaa+oxDGwu93fQ1tDC67fl5D1hIGcipMk/XMR2RdHfyT0K2qot1WSM8lF5TY7PkAZF4/6T+20BUP3ne1FPc1AxnQtyrMOyldtxB6cVudr68RzW1wg+b1W5GZcLRGkzs9AGymhvNuIYboSSbqCnXTbqNzpIWNjYGS2bG4vNdsDPfA3PL4huP/gwHXESlGWEdMyC77ZBaycP2AkQKFCGakmabKb8jwjpiXluKcvJf/RaGRvO65GF45XczAazZQ0acn+tRmdFJ7xAjDeRGldHTXrDXh3lVLz5YD3h6sHUgT45X7Xt14ZpJuk8I13lBCJiyAIQij+TiwvFVOnSCHn5eC0qjRtoKdYqcHwvCUw7clqoeh+FRFKZaBnUe4zJUL24Rs0FSbY2G5yXf6+lCHITQ6cUgoZdyrRPaDD/ZmD4e/ukPF5A2WQopSolHqWvhWcsvVuGcYYkKJuRqmS8Pq8l9Y660P2q1CqwHvm0uv4vPRGSqguLOcN9vkrVCgjfRf3hd+D79vgQt1WSl604p2SzcZqG9bXVg4xVUyNOkrCezYYjdyMqz2a+KRokhK1uI/V0fwnLYmJ0egSoml3uZAVcegTfLS43IP3j4zH50MZqeI7idaT83IRqafKyX/F2eecyXjP+lCq1cOsfL3IeGWZiMi+SZOESpKRv1X1P46h6nGQ+6wXKUrNtY5CeU8WJRtMyNsLKBlqLr/sovrFYio/bMcny3Tur8TWoUWnu9C/LON8OZPUhzMp+lhD7oZ8dBKo1Up8Z73BRqGMq6KArY1qDMvKsfad4gjIPR58SjXqa3p/lw/7llLqIk2UWSyUL9bQ3ujG6xv5p1mank/RkzKViw0YHjNgft2HcU0++shwiG+gHhwVxWzc4aDTJ+M7bqXqEw/x0xIHjzD5ZZp/H5xa+bUD6wEP8VOSkP5gZeOL5Vg/70GW3Ti319A8VoduYjjGG9RtYWlGBoYlW/Gkv0TRwERtuHpwvpdehdTv+ERIEvK3cvjGO0qIxEUQBGEYcpeT6t8sJdtoIGd7D/pnzaRH+vCe7cT2LyaMRmPg5zEDxt848Hl9yJFqoi980URGo52soV+fvCIOXYKPliMDb8sfaaGaqWsA3RwDGVPcOD6+/E3pF5vyZ3rwnnVQYjJeLLvBYKBg1zf4vDKqqEuNfOXEOLTRvfjO0O91lCpU5314GcDvxScHppUE4lSj7rNaz1ELG1eaMT6WTUlrPOYlRoafvS3janKjTUxFF+ehuaWHllYPd0xNJVHrxtUow606kqRmXKeC+z+vRBl18bk+qJVKfL5BJR05pQ7zb/KJcxaT/4pj0IMUbiR3pztwr8SFF8Zr0UhuOrsGLztkPb6OA0XSZBPFq1LpfCWf4g87GXJgUalFNz2uz2cjAhTQ64foewwYZweTq/NuXG/baYtOQjeRwSND5zuxVxSR83MDxhVWeDA/MG3zeup2UL48G+NjRrLzq/Ao1bhPnBw6ziFodUmo2+up6wje4/JxPe3KJJJiwiS+fqKJm6VDG3npFQlg4D118kk6/wzKqD4VSxFYTopJRH933wlPEYAceG/g7m50vJKWlJ8aSBwLIOM7bsfa4CVpiEQtVD3w/amTnmgtd1w4Zoo4tBofJzs94RfvKCMSF0EQhFCi0ymqKMY4UQJk3O0n6UEiQm7G2aRCb9AHEhRJi2FFMebpEhx34vIlkfGQFgmJuCdfonx5ev8esxgdSYpmXEM0MEdGpuUjJ1JaJol/clDffQWrdrhw+XRkPBSYjy/dmkLOC/mkRMu4jrahmW1ENxYYn8LSlzeSnejDdbQZzb0GEpWAQkNGug5vk+viPQyXitVO2wkVutQklIByigF98CEC0qx8yjdmBbYhu+ns9CD/aGDhPIHkaeyldKbH1YKcaECnaKe5GzytnShnGUjyuXCdhegZSUS3B6fcyS4ONUWgTw/2WI7VkT4rguYjA6ekDU8724jhnmhAQrc4n/TOcop2tAwxOiahGqvEd+ZyNy1fIYUG/aOG4Dz30HxOB80xBkz3RoMimpSfG9A0OTjkG3AcQ9Xj4HY0Y1XIXg/XLApFHNkrjchvFlH22YBUr29sY/VkvVDM0jQNEhKa+7MwTGzHeaQH+XY95mfNGGMlQEL7UArxfjcnv4aeMz6UY1WBBqBCi3F9OSvTAvXZ19WJ23fxiRBI0WqUPg+eoR5ccdUk9MuqqHxWj1IB0bPNGCe5sDl6Rnzu3CfdEPeT4EMuIHq6jjg6OdkdDvENoFCTuriYosWB650UayDzfjXNDS7kfvH24PykjTsezUY/HqSYdDJnq2lraobETIpeLAg8qEQRjS7LSFK3i0OnwjBev5KkR3NYmhW8vkfryZiuxn0qkID3vT6ErAdfO6k/FY/h54koFRLahzJJiTyEo1EOv3hHmUFfG4IgCEJQj5Paj1Mp2GwlWyGD7MH1Rgl1Ph/yayXEF+aw7d2lQC+eRgslLTLILio311L0bBnWRRLy104qN1r63eMSPUNHdKt16PtbFInkbCvDNFEK9FbeXUf9czLOUgNFfQcOvqzDcdZA3IH6wJNpRhqT7KJyYw0F+aVYFkYAXto+KKOqB3wflFEeV0BRtQ0JL217Syk+INMjlVE+qYCi7VagF7m9lo0VTuRBe3VjrahB9+tiLGlePK12nE0ycZKE3GjDll5AUXUmEchwtpnaV2wDprjJtB13Y46LQyLYS9/lojkyi4yWKtr9ILc203mrkbgPS3H7JVKmaek8eiExCUzdiP8XM9vezQFkTu4vZeOHA1MOCX2hheIHo5EUAMXUpcn07C/G9BsnSfNyMJ1qw/alivR7tWiii7E9eKmMPR8WYdrgRJbiibvNQ9vbVzHhb5jzXPB7LSm/MoOnDld3XOjlPrBRtlnLymerqRsLnlYbpRts9ED/4xiyHgeORVycBvfxEKMiVyM2lZTJGrTP1VD/3IUXZZy/NVBg7xPbZ1bKXtFQsLgSW6GE3N1M3eYSLKeArnJKtCsxv2IjRwK5pxnby2XYfSC1t+F5NDDv3yV3Ur/LhT6vHGseyPTiPrCV4qOBaJTxWtRux8X7Ca4NGde7FjrXFGC1KZF7mrG+XIy9h0Bv/YX4viZ0PdtQTkn8SsyvWVkKcP4k9Zs3Yj8bDvEN4G+namMlmuUFWPYpAyNgu4sp2dMDkr5PvDLuDzayVVtE/vY61Hho319K8Z4efP5SSv6hiJzNNnIkGV+Hk8qXKmnxh2O8LVRurKQgv4BqmxLJ76OzoZLSt9oB6dL14fOW0PWATqybKtGuegnLAiV0u6h5uRzn+TCMd5T5u5tvvvm/bnQhBEEQbrSoqKgbXQQB4E4zlb/RUJVVjOP85Re/kaRp+VQWSpRlbcQVbg2LkR5HZQpF27NxF5qpPP69le67kfSsrM5BfslM2efDHfhojBu3kXI0h6Vvj/x//NxwP/T4BhLxhnBt4z1z5sx33kY4EFPFBEEQhPDxZS3W1kSM86/h43mvi2gyfqrHs8sSfkkLjPg4ah/NJLHVSu1oSVoAZCeWXT70poxhHxMr3Z2J4bZDWPaMskbuDz2+gUS8Q/rBxHuNicRFEARBCCM92F6rxvdQ/pD/iTxcaB5ciklppfy9zhtdlBBGcBxjTeQ/5KH6NVtYPXRgJDrfK8WqNLH0wRCPd4hMJPsZPW2vVQb+l80o80OPbyAR7wA/sHivJTFVTBAEATFVTBAEQfjhElPFBEEQBEEQBEEQvicicREEQRAEQRAEIeyJxEUQBEEQBEEQhLAnEhdBEARBEARBEMKeSFwEQRAEQRAEQQh7P7rRBRAEQQgHP5QnrgiCIAjCD5UYcREEQRAEQRAEIeyJxEUQBEEQBEEQhLAnEhdBEARBEARBEMKeSFwEQRAEQRAEQQh7InERBEEQBEEQBCHsicRFEARBEARBEISwJxIXQRAEQRAEQRDCnkhcBEEQbhDpvjXsfs2EetA7KhJ+to7aTxt49XHp0vIZ63A0NlDxi5gBG5pC4fuNNP67mVjF9S71lVBheq2Bip+pbnRBwpL6vlxetTpoaGjAsW8HaxbEIg2xnEpv5tV37Nj32bG/v4M1j19YTiJhwRp27GugoaEB+zubyJrW51hPmM+mdyrImhyiAJOzqHhnE/Nvv+ahEaoOA8Q8XMgOm4OGTx3sfqOQuZfZv2rOOuxHa1l2z4VX1CQ/U8HujxtocNjZ+dJ8Evru4vuI+/a5FFbsxtHQQMPHu6koSCNGAaBiysJN7LQHz0nNJrLuGVz/1b+ooOFoI439fnZgvh1QxDC3oILdjgYaGhzUbsklue9F4kacV3UyuVtqcXzaQINjNzsK5gbjBaRY5q7eiaMhWP4hDVNXwzFeQDXDzKu2BuwvpV36XCpiya3pf94a7OtIG/jBvTuXnQ0Dzm9j8LMgxTK/aAe77Xbsdju1r5iZGXXj4x0tROIiCIJwgyTop+JpPIxnwOtTcrawbs45Wr8aYiWPlwlz5tA3dZGmzmPmTV68l9vh9U5qwippCnM3pbG8yAhvLSb93tk8VdbFjPxVGG8ZsJw0k9zVmbBzIekPp2Ncc4ypy1dhnADcmc2a/ASOFc9j9r3zWOucQN5z2cHkVc3cfDPj9q6n+niIMhyvZv3ecZjz5w+RPH83IevwLSYKn5vJFxuNzEoxsuHLqSx/bpj9q5LJXTKTvpVblbGctQ+fZmv2bGYZlnFwQh6rfhEbfPf7iFvN/IJVJP95KwsfmMXsRdX0Zqwid46ENCOXtb9UsX/FPGbdO4+1jbHkFZoGdSh43lzMrOnTmBb8Sf/1XjqaDrD/K4hZsIZV9wXjeyiPPZKJQvPMYOP5RpxXFWnPrcXot7D44VnM/lU15x5YTu4cCRSxmDZvIpNWOv42zCaGqavhFy9I9xWyY+VddB3v7v+GQoUqooPqRbMunrtZ6avZLw/YwB+28tSsS+d3mnEDB/94mP1OGfVPV7Es8RirjemkP7SQKjJ5PufGxjuaiMRFEARhGDGPrGHH+8HebtsO1jwSbCAFeyDtdjt2Wy2v5sy8+CWimhHoIXd8bGf3v6/DdOcQ/eiKWGZOhWNHuga95T20iUXPVvPFEJmI/NUxvhyXztw7Lrwi8Y8ZM/G2HEP2DxGANJdNH+9gzfIK7PZXMalBNS2LTTUXevArKMyIuVimuUU72G134LDX8uozyYGYLvQQ7rOz+/9n7+6joizzB/6/vwfO3JTimCignJhwZWbEr4P0C7JfgBWSaZpaErubD/stZLdQt3yofEoNwTK1VmR3Rar1oTXSVUzXh8AyoBMPfSPGFYfRdRw8CJq44lgx84Pz/f0xAwzPWqZon9c5nGy4576v676v+7quz31d183Bfc4non7gHFHJI2PRq2zPzSU1VoUqJJ61u53nZPufpqNXmhLiQ+SLGew66HzKmPvhWuJDOhpf+IXwqCL/3eWs22XC1uig6tN8Khr7E9C2J6IMIsCniuJCZzmxHSvG9P0gggJUYDeRvXoVm76oxdFYS8GnJVT5BDDYA9D9mukGI1t2WIDOy7FlxxaMw+L5te76Zq+zMuz9YCShlbvZ+nktNNZS8Lf9nAqLIapvR3tREZGYROhXm8m94PbZqAgu52zhwBkH2Ixs2VVG0EMxzuDgBuX77MF1vJ52AMv34Di5n4JT3gQMGgD/KSErdR1bSp35K/68mG99AlpGJzpyZwQzn9NT8JctWBqh/sx+1qWmc+C0Ay4ZOVBoYcDdg5zb3qTr+u0Xm1j1dhYmGzhO7ubwSW8C7h4AXOb4u7OZ+U4Zl7vaQRdltSfml3P7WT5zIfstbSOSPih32LHb2n7eFW9iXphGn+x1ZJ9TERDYH4epGJMNaKyipKyKAYMGocBNv29vBRK4CCFEZ1QRTHsunFNvTnY+7V6eT58HI9B7uJ5Afr+FGWNGM3p6OrbHXmPWgyrnE/Klk3BsnkH0w+NYVBhE0ivtn7jSN4KIvmUUH2vfAFpKjdR21i42HCf/ax9ixgU1p3HsSBv5hbZORjwc2NETqmQRP3o2WbYIkl6bgfeBWYx7bDSTk01EvDKXsX0h4OmFzAsuZtET0UQ/swnH48uZNUpFwNPOJ4Svx41m/OMz2PT9ZJY/75w+YW9U0OttvD15NIsOejN5dhJBBYsY9/iTzMiEwU0N6z2TSRpvY9Mzoxk9ehyz9tiJjBzR4dSoXwSbiQM7CrA0AiofDE+PQ3epmILTbbb7voyyahL6BgAAIABJREFUfwcQFatHBfiER6JvNFJicsDpArL2GZsHI/ThofQ5WcY3DgiKiWSAMZ98G12UY8CWT75xAJExQVxPnZXhgMAAHGctND/H/o+Fqu8DGNzBtBdVyEySRppI31hGy64GMGiQN1WWU82f2KxVXPB1Bgc3Jt+1FO/LpvgcgIqAkdMZF3iK4pIqHCcPk5VjcqbXW8+4iZFQWkxZF/3cgCcTiKzcxOYS50a1hdlkFzY90Agg8t4ATEbnObg519WGcV8Wh0+7/rdvFBFBVRw/+i001mIsraLbbnwXZbXn5RccJ40YL3WQK09v+tzpTcS87eR+VkTePzuf4tksZDoJw0rY9KEFcGApMVEfGkOUH3BnEI+E+2D6ugzbTczvrUQCFyGE6Ezjt1yw9SE0dhyROm/sJZnMW5iFySOUyLB6cnftp6oRqM0nuxDCI0eg0kUScaeR/Z9UAQ6MGxN5/I9Zzg6qG+8HIhh0ousOTcfslB0swDt6HHoPUIXHEF6Ty+FzXeej7NN8ahuBIZFE9C1j9w5n58r29W4OnwtndHhvwkfq+bZgP8bvgXMHWPjryawqUAgfGUpV3m6KbUBjLYdziiE0HL3KDkBV4WHn71QjCA2+THHeNzgAR/l+8k+70vCDjQseOkZPjEHvB6bti5idUdx9h+c2pxq/lqKiXDY/14dP12yi+Ps2GzRa2PL2bpTfbSf/szz2r4vE8u4mDrcZyQiIXUbqxMtseieLWlTofxVAlcnVge6sHDcCODCZqgj4lf4GBJEq+igq6r93v+oO7A4VKq82R/cIYvr8GKoy1lHgnlcPFYpix2F334Udu9IH5Ubn228aGUVF7PvTZC5/tIot5S35jFy6j9K87cwdUkL6nw90Po1TZWDaU/0p+PBwuymjzlHKNUzrs5u12yzQE66rt4GEVS+hz1tHesmPu3tbl1V3PTC/bTXUcvwLI8X/XMHkMVHMSDtF6IupzOx05MObmN+OhYNbKHDd27ZP00k3hZP6cR55OR8ys8+npO/oofntgSRwEUKIzjRa2LJ4Efs9Y5ib7ppW9ViQ86mbdwCTV+13TnvK3U9qbB+8vL1R9fFGZb/c0lFx2LC1m1agIvQ+HWdLi7tfl9IBx9efUqDEMC7Em4jYcM7mfUr7CWetvoHtsjMNqru86eMdycKPXVO2Dm0i/m5Q9fXB21vBZmuZ8OG4ZMPR2AfvPmD7j9tEENtl6u9Q6NO03WXX83NPb7zvsDUfi8YL2L5zbXQui+ULs7h8bwIbduWTu2XZL3uqmItj3zzuvy+aJ5PLCF2xjoS2HaC+MSxfGcOp1PFEPRzN6P/JwjsxlaTmheoq9HFr2Ti7P1kL5pF1EmAA/e9SuHzJVSo6K8cuVZcuo9zVnwE/f265bHfgdaf7YnUVfVQOHN+1vkeCnl7IuAubWJvT5g5pdGC3K6gU910oKPbL2G90vs9tJfH++4mevpYLY9eRGte08sxBQfJ4wh4cz/ycAOatf5WIToq6KnwykQ0F7P+6TR3hEcDY5Zt4NaSA1+ekOx8m3Ozr6hPJ3PRUYk6/zcw3C35E3dVRWXXpifntiKOYzIWLSN9nwuZwYDm4gd0nBxMR3slqk74xjBtZy/69luaP9ImpzPPJZuboaKIffpIVpkhSl4/FpyfmtweSwEUIIbrgOFNA5pJEnhwdxYyMC0S+Mouxd9i4fMnC7rnjGD16tPPn4WhGLznMlcs2HHcOwMfTtYM7fQjSBdDqvUIeeiKG2SgrbP+M9eoS9Q37CyD80UmMu/csh3O6DlsAmh5QO/5zgcuXDrNi3OjmtEdHRzN7RzU2mx3vu/o0f8f7Hj1BPvXY/kOrz/HuQ58fbO3ntDfYsDm88b7T1Uvz6E9/t6/VFm5lxazfMPrhJ1l+TE/Si/EEtN3HL8WgSOKfdK2LarRh+TSL3Eo9Efe27gCp9JEYKOPw587pOLby/RyuHExEqHO7gImrWPO0nfSk2WSVd/4EvMNyfBNe9lZlqUI1aFBLZ8sviAClilNn3LfyISJaT8DIhez+LI+83A3EBwURn55L6mN1WCptBATpm7f2HhxE//OnaLccgZ8p36ogYn4zCUNfAAe2igNkfXGZ0HADA8MmEf+Iq3P5fRXF2/Zz3CeU8A5n9KgYERkOpQWup+gt+Y98JY2ku7KY/2I6xZc6T8oNu67eESS9/Sr6gkUkvtnR6FD3Oi+rPTC/nfEOImKk3q0+9wJPsHe0vhBQhUcQeqGYkuaXVPgQfp+eU3m7MdoARxX5OWXU6yMY2kFwe9Pz2wNJ4CKEEJ3xGUvqB2uJv0cFOKgynaIWFYqjjILSPkROjMLHA9fi9bUkjVRBRQHFtlDGPR6EChX6qevYvHgs/d3Xn9wdQahnGSWVPzZhDoyfFKCMnYGh8jC5XU0Ta+tkCcW2CMaND0AFqAbFMHf1q8T4OCgpNBHwcLzz1Zx+MSxM38DMUBslhWUERE/G4A14BDDusQguf12MqW1H0WHi+Ik+RDwyAm/A+97JRDYtxXnwVTZvSHDuw1GF5dQFHJ78cnkEMe7F15gV67wO3sPHEhX0LacsNvAIIPLJSUQMAkfVKWq9Q4m819VbuTuKyMGu7e6OZ1lif7IWLuJAq47/t9hsdvr0dYWFnZVj19YBfftgt12gzfuTfha2gsOUBU5m2igf8PAh5neTCfj6sHNOv4+BSb+JIcijlqzno7k/Oproh6OJHj2LLIuFrKTRLDp4heLP8lHFzmDs3SroG8HMp4diOVxA1Y3Kd6M3oU/OZeFzkc773yeScSP7U3XawpXAKJJenkX8EBWgIujxGIY2nuXUWff8Ne1oADrdAM6eON5qyqT3Y/N41VDAooVZmFpNHbxZ11VFxOxXGXvqbeZlGK9+pMU9v52W1Z6Y3y70jSRh9RoWPhaAChUBsQlMvsdE/pe1HVxfGDxMDxYTp5oDGxuWM98yeORoglQA3ugf1NPn3Cksjh6Y3x7ol9xsCCFE12oL+PCT0Sz/ay4zPR1g/5biP69gv82G4+3l6FfMJevQQqCeb0u2ssLoAEcx6akfkvrKJnJnq3CcLSD99S2t1rj4PBCBz7EsvunoAbmHgbkfbmJakMq52N5QROlSBwWpUcxz7zGU7+fwfyah/zSXWrj6ec6OYtJf38zyVzayP9ELuMzxXW+wqRZs/1jFOt1yUnfnoeIypj2rWPipg1rVKtYNWU7qjlygHkfFh7yeVoCj3VGryErbQkTKGv459jIXjh2g4Gs7ekWFoySb3WOXkbp7Ol444D9lfLg6u5spbrexM1ksXzuY5S9uJ3+5Aj9UUbD9ddILHc4n+i/Mgtr9FH/u2m7RbnJV0HS9NnzhwGdqDOGDDIR/WMrcpv02Glk3ZQYlFVUE6PWosODotBwDqNDrA6iqsFy/9UZdlOHZu7J5I3Uwy17eTVEqfHssm1XLs51P8AeNZvqsILbsOYyl7VofN47P1/H6sFRe25LPcg8bpk83sHy7cyqO6Ubku9HIhtfTWf7qcnbneaM02jj1RTqr/mbCZl/HiqBlJG3KZ64K7LVlZCe/wQEbMLxN/lQ+DLjLxoVL7gt2VETGxhCgU7E5b1pLni1bmfnrdTcmf22pIhgbHURA/zXkjW9OEbX75jHu3SA27ZyLwQPwgMjdpSQ1GkmPn0Gmd0t+L4/qrKzO5EJPyy8qIpfvZ+14H1QeAGsoesxB7cFFjFuSxarVASyfvZ38FQr2c2XsT13O1tO0v76oCOjfh/pL7qGFg4I/v8Hu1+ayaf9MaID68/msS8miCgfeN/O+vUX811133fV/NzsRQgghhLiOQpLYvi6AzCcXcbiLIADvGFJ3JFD1x9+QXnHDUvfzud3zfbvnry3Jb8dul/z+CDJVTAghhLjdlH9I1jED8XFdvy416MnpGI5l8eHt0vm53fN9u+evLclvh26b/P4IErgIIYQQt51ast/JxDZ+IdOGdLLJkGksHH+BzHeyf9Ri657pds/37Z6/tiS/7dxW+b12MlVMCCGEEEII0ePJiIsQQgghhBCix5PARQghhBBCCNHjSeAihBBCCCGE6PEkcBFCCCGEEEL0eBK4CCGEEEIIIXo8CVyEEEIIIYQQPZ4ELkIIIYQQQogeTwIXIYQQQgghRI8ngYsQQgghhBCix5PARQghhBBCCNHjSeAihBBCCCGE6PEkcBFCCCGEEEL0eBK4CCGEEEIIIXo8CVyEEEIIIYQQPZ4ELkIIIYQQQogeTwIXIYQQQgghRI8ngYsQQgghhBCix5PARQghhBBCCNHjSeAihBBCCCGE6PE8b3YChPglCwsLu9lJ6HFKS0tvdhKEEEII0QPJiIsQQgghhBCix5PARQghhBBCCNHj3bzARYll/b+qyX5W3fHv70umsPoQ8wbf2GRdLc3sQ1QXJRP+kyfbqZn692pMf5mA0urft4DBU1j/uYnq8yYyxt8SKb4+FAMJ7xdiOV9NYUr4rXGtbnW35Tnv6n5XmLLFgmXTLVIXNFFiWW+qJmu6mq7z9zMc85lO2hJx3V2/9k+0ImVZiG79hMBFYcr7Fi5evNjJj4XNT3XRXPlp0fnUYC6v7/DX6hAtmroKjFU/Nn1qDNPXc+TExWtsOBVi3zG1zsv5akyfZ5H8lLZ5P5dyU5ielImx4cemz8VTi+5XYC03Yqee/PXTSVz3CfafuNufn0J04mLi2EH8f4cy+2DPT/H1ojw2i8Wj69gwRs+o10tugWvVcwROSeX9lXEEelzb93raOde+dIgjKeE/cS+t7/dW+/Q0EPorL6zmip8nr/clU7h/Hprrvd8AAzq1FXN5XZu67afwZerfSzt/ONJYxtYX41l6sO7ad91rAhlfZTG1qZ/Yy8DUNdkUmqq5eL4ay1eHWB3fUu8rwVNI/qgQU/VFLlZbKPz7YmJ9f0yebm3Xrf0Trf2UsizEL8RPeF5iJyd5Ig+tc/6f9oXNZBhymPGHbVgBqKfG3HlzpRhC0TSY2Xq8o20UtCFaOJVH2Y9p8XpFM+/vf2Jmbys1nnasxmtpOP3RatXU7ZnDmNRi50e9/Yl45nWSN2yB86NYmm+n7ngeOT8iae2odWgH1VFxvAawYy3McZ2/HswTaPAn/F5/rEc+Ju/8NV4kT+AWbvAMEQa8jm9lZ2ndTe9A31r6ERYRRu+LB6hpvLZv/qRzfr3Lm6eWuPEGzm02/8Qdud3vbffZS4c2sA7z8Z+jNlCInjKevlWvUXO99xyiQ9tQwabjtKnbfoJBTzDlgfPkL+vkyjecp+Tg+R+1a/XoCURjZVM9gC9TNnxEsjaPlBfHkPdvBUNSGmlrkjF/Fk/md9Ekb0vjiaoNLJiwg4re0Sx+J5mMlApGzNzJL6Kr6bqXrlv7J1r7CWVZiF+KnzRVrO6UEeNRI8ajNfT186euPJ9PjjZ9ZsU/fj2HvrJQff4i1SdKyVoaS9PDKU2wFvXZOvwWZlNqqebiGROHUia4fu9FqNafGvNRZ2PgqSF2wWaO/MtCdXU1lqJskid28axwcCBeB/9I9LR9XPKqoexaGk7FQGgwmL/Ox3zC7PwpzWPb4hT21mqJfUgHygQyTljYHK8AGpL2V3PknXms3nWE0m8sWExHWB/fkj512FRW7yrEcqaaaouJI5uSCHc94VNCDGg9TVSU21GiVlNanU3SIFzHMJHxUhIZh0sxnajG8lUWSWHNz/7QTkwm6wsT1dXVVJsKyVrYcn7bMqwopHp/Mklp2RR+ZcJiKeXQCrftfaJJSjtE6YlqqqstlO5fz9ThrmM1pWXhYrL/VU3pm0vINBWy+D4FbeLHVO9JQqNomZKSRaGp2nmNvspmdfM1UpOwq5rCd+ax+rCJ6kPz0PZy7nPzwsVkfVGKxWKhdEsChsBYkncVYjphwfL5eqYENl8YDNM7L0/aBUeo/iSZhJRsCr8xUX3GxJE3JrTkb1Asi/9eiOnMRS6eMXFkUwKGXleR91Z8SfiomkPPa1FGLKHwxGamqtUYnnWlq4Pr0JSupE2FWCzZJFzD09neEc+y/NVnGPvEHFL//D7vb1zD/MeHoGreQsWQ2GeZv3INGzM/4IP3N7Jm7kRCerfZUdBE5q/4A1G6+3nm1TVsfP99Nq6eQ5S/6/d3DCEmcTlr/ryRjavnM/aRicxf/Cz393YeI2TKIpZPC2s57h1hPPPaIuJCWlKCOoSxictZs/F9Pnh/I6nPx+DfNKpyx/08uyKV1FUreDpEhWrIRJavTCV15RzGBnR3Fjo65+AblUTGJ6VYqqud1/p9t3sqajWlliwWv5RFqcVExuMDnOUvbR6r9xQ676XP1zMlWMuUdw5R+C8L1aZDJI9umZ6hHum87yzVF7lYbaJwSxLRapxTOb4pZF6YQuybJgrfiG41mquMz8ByYjNTmj4Mnseh6osULjU0bUHsO6VYtkzBt+l+D2q/zz5DDWg9rZzzTSb7GwvV56sp3bPYmQaALu83DfM+qabUfUpdYBKHqgtJvk/N1C0mshM1+E7M4PQn89C2e3ylOMu067iWr7JJHt9UcLsu75qhWrxOmTHbW9dt3dZXipYpb2RTesI50mH6ZD1TgnGODP3vaqLV4czPM5Exsf19qV1whOovFmPwvIp6wI1mdjam96fgGziNj01ZJNztD+WbmPO7RDIPGjGfKGHvP/Ko8fTDzw8Y5AvGDSyYmcLer8yYj2SyYY8VrxAdmqt4BOg7ejGbPzc524FqC6V7VjPFNRU6PKWQ6k/mtezH00DyF9UceklDc/15teVXuca61VPDlBTXKNPFi1i+OcTqp7qru13tXy8DU9/JdtWd1VSbjrB5djhNxbSrtq/b8/V8dvuZHGeymNLLma6rqXc7LQdd1fnd5Kkryuj1mE5ksfilDA4VlWKyWCj9aF7Lfdvlue64LLe0HWrCn89w3pfV1VRbSjmUloDhlppLKsRPd33WuCh6DFowu08JCJtPxptR1Px5Ivq7BzJydg6aF1Yz/yEFUNCFaFAGhWOoWsekEXpGvlqEZubrzI9SQAlFOxis5SbsqIlemUXaY+fYMG0E99ytZ+Lf7MS98ycSAjtJz9FtpPwlj7oQA/oGK+aj1/CMdrAWbe8aKo62CXY8vfBS7NRdqYPBBrS9rZjL7aBo0AUq6B7QUfzKGMJG6Hk6C+JWLGaCAgQnkLF9Hpr8l3lIP5B7Ri2gOGQJGUudHR71UC3+58wcrW39bwK1aNVqoqP6smNaGPr/HkNmXTSzEx9FAXyfSiPrzeEYVz2B/u57CJ25l76Jabz1VEfVq4I2yA9leBSaQ39k1H16Rjyfj+/zycy+D1AMzNuewTSvHSSOuoeBQ8aQUhXFW+/Mx+DZlBaF8OGw7pF7CJu3koTJGzDajax9dCADJ+7A8E4WaaPr2BCnZ+Ddep7+AOI2uK6REoo2UMEvXIf1lfsZGLMW8yBn/gzac6Q8GkbQuA3UxS5mc9oEKhaPQj/iaXZ4xTHrGe3VlafBGpTgWAwVrzFqhJ7Q+UX4z5jFtGBACWfx1gymsJXEUXr0k9M4F5XMW4na7vPeynkyp8WTWWknb0koA4NnkD8xg49WGChLHsM9A+8hdFYOfi80XQcFnVYDgRHojkxHHzyJzKt+mKZi2KixRI16mqf/nyvkZ73H/kofYmb9kYlNnX3VMKIjA3GU5/PR39bz153HUEbNYcFvQ1rtyT9iNDEjopj6xzgGflvE/t37Kb0Cqh+AO0J4dvVa5oy4Quk/PyLbouHZBX9grK43NgfgEcjIx6LQqGw4mg4bEsW4BwbCRdcngWNZnraKqYE15Ge9x18/PsHAx+cz//F+ri/UcuLLfPItdnqrKik6eJj8L/PJLyji2LfdnYf253xb4Dy2bpmP72cv89A9znvKOLzlnvIK1uDvqSW8/zYm/beexIP3oA1U0NyroXj+KPQj4tnRayortyUT8Vkio/57BImfaUh4Ic7ZsekVS/Jfl2AoT2GMfiBB0UswGpbw+gsGsOew4NWd1H2XQ6J+ICNfzWs9AlR3iUteXnh5AiiEPxeHb5UVpVdfZxDhE8fUx2HHpr3QdL+fbb/P/wrR4o+GqKhzpMfdT+hTmdRFzCJpvBrwZUKX95sBXRCYy83NaVNCdGgarFScqGPbS0vJ+e482357DwMfXYu5zWiUb3wGHy01UJY8kdChI5mT60/CmpVM6AWa6V2Xd0OIhvpTFVQ0tK7Puq6v1MSmZJH28HnWThtJ0H3xbG2YwFspU/H9aiWzN1uxFy5l5EA9iXva1uWuY5orqGjoph5ow/qXl1nzlR3zX8YwMCiezDNGdr61lr0nnL9XB8cya/YT9C3dy97jwImdvDwzhb21TXtQowvyo95cgbW7ET0lliXvJKDeN40RQQMZ+N9Ps40nWPxCLApqdMEa6iqM1DTtp5cBbaBrtErRXlv5Dby2ulUz80+kPQ07ZoYy8G49M7Jg2huvOwOEjuruwJb2T/PsW7wVWclrY+5h4MB7GLnYiG7OYqYOptu2rzvn/zKJfgMHMnDgQAaOWkperR3je+nkfNd9Oey6Pei6zu8yT91QBwfiq44g3Gsb0x4MQ//gUoxh81n87FWc67ZluW3bETiftEVail+8n3sGDkT/RDo1UfOZN0nWw4hfluuztM5vODqfNlMCSlMYFboBzjundtTlF1PREIefD+CpwaBVc/7gHOak5TlHVXbupWjlo2iDveDfw9H61WA+XgfBCSyOr2frEy+z86hz18YtOyhatJIIg0JmZedBif9wHeqzxZRdwxi+EmJAg5VtbsGO4msgbtE8JngWsXKfFcWgRXPFivEU4OPM+yfLFrDzhPM7xnwjdYk6Av0UYufMJzR/Cfe/7crnd3vZlmtl2gPh+FOENkQPp/ZRZlcIDdG4/u3qaDQa2fBKCjlnASqoqALFSwHPcGbPjcW67iFS9rmmkuRv4uPjs5h2rxb+UdI6U546dL9SY816jaX7rNgBe34eZnscWp2Cr24xs/p9zIwJmZTYAczszcpn5VYDBgUqQnRoGq1krkoh73zTedKiuWLGaAaGz2TepDvYMW1283krydhG3tw0oh5QyMzVog2wU7YshfSv6lzf16GxF7EmORPjd8D5Oi4B5z5aybbjdvCs41wdeHl5XVV50mq9OH8whaVbnMHzebOZS2jw8gTfKfNJCMxjwdPp5NUCp9JJecWO9twlfKekdZn3dnO4fdzKphJN0pxoLr33BC/vcU7xOZ+bxo6jCcyOikDZY0U7WE1d/iaWfmC+tilOHkMIC+nHlfK/suz1HVQ2ApXBjB41Fk2gCqoc4CjlvWXuf/PkBP6PjOXp3goqcAUavQkbPgSVo4jslOUcaFoz9rHzP0Oe+yNxA4pI/f0a8usAlYOw2OXcX1HKSQcwIIyQgCscO1rZfJTA4cPoV1VK6beARyDPLPgDwRXrmZ1ymIsAHKNfZAxThwSjoghH3UnyD54kcNokVFVFZO8+QPm1TBVzP+eomTJnFobjaxj5Vo6zw3hqL5l7rMQ9FoXOs4i+Wi3KuRzWvb4Xqx3wCUUbUMcnLy513qOeNZyrs0N5Jkv3WLGjUHPxB9Ao3AHwXQ4LRoXiVX+eOjtQl0fZWQj3cQYfzlGFHMzftU+qveYcdZ5avHoBno8yc3QNO/8JU/o5u2qa304j2rKNMV+C/qmW+731Pp11gXLuE1JmrSXnO6AyD2NdAoEK3d9vRmfHMqe8peLTDNWhrszD+B0oDzhHQvLKOyiRnuHMnvsol94bw8v/MAKwd/3LLDArVHh0V97PodN6Yc02YkchtKluawxnflf1lTGC+fGw439ms63QDljZ8NoCzgWYsbuNvnc4bu6pQzfYC+tBI/Zu6oF2PHToguqp2FjR6mPfxGzKVkajNFrJ+fMCxqzb2y64axqVmhdRxprJVzFNzFONuhfYa89T3wDUlrB2op61AEo0Bi1YPytrCTSH6tB6Wskz2qH3tZXfa61brZviCf0Iztc6j15UUkHdnED6egF0VHe3tH/qSWporKfO9V3rP+Yw8h/O8xOb1lXbl3d1U6Ltduw+sazOXIK+YAFjkvOoU6JZ3F2922V70HV7Z+zbWZ66oxCq02M/nslrb+VxvgE4m0/xCZg9WIOCuetzbW9Tltu0HUpfNX2xc6nW2Qbaj2YyY0Tm1SRMiNvKdQlcFEMoWkx8bGxpCDWPLWbx8xMI1/nR1wPw9EKtVLDWbAfF+TQpb90nLRW+p/MpZd139SghOvQNZnaW2/F9KhaD2kD45xeZ1+qoVjK7bC0UDCFa+PfWDhqdzukMOtSKltX/qibZtR9Fgbrje1nzPwtIPwGGX+vwqtxBhR0Ugw5NfTFbc90S08sLhR+wN9zPhChffAMzsDyV0eo49iN1XHKtp6kxllGPmuFaf9e/QROixat8L3stTedHh04D1oNm7EMnEBWsxvBGKRffaJ1+Y34HJ6WXAUPgefKXFbV0nr36onjWc/6KQvSkCNSDY8muTmj9vbq91DWALkSLlznH+dSx6TyFuM5BI2geikZX9wkp+R13zZXhWjQUkb6vpanShGjxMu8lx9UfVoK1aCgjPccVGXno0AWCdZvzO92VJ0NgPXnrW8qTMliLX72VikqF6Jcj8CpZSk5tS5qMezIxojDl913nvV1e3MomIbFEB1jJ2VvSfkMPnOkaXEfRn/de+/x3/zCG+V+k6N09zqAFoJcKVeMVrtS5RjrUIYyNn0TMcA0+6t6ogN4D4MTn1ubREVTDGKaD8t3vtQQtzb+7n0mxgVQefIvmYuOhQuXh4Ng3pTgA1fBhBDuOcaC8aY/9GDY8kCsV71HZCKqIp5mkg4s1w3j6+WGoPABUBAaouHi0tiUd9CNseCBXKrZx8hrXt7Q650o00Q94Ydy4r5On3Gq0Q/2xFuyjyFUcleFaNA1lpH/myqSHDl1gPUV/bhot8UIX5E+dtZIaQBk6hSULZxJHrS3fAAAgAElEQVR7rxY/xfl7Lx8oyjZhbx5VMFLR0fEv1nGpoS9qNWgefo7wo9tIscaREKQGz3ASfq0hb30m5gY1sc33e9t9qhke7I/1yE7ymoIjtYZAdQ3mU/Xd328hWjT1FVQ0L8FR0IVoqTdvajcS0s7QR4kKtJJzwNjy2dk8tr0HhCV3U961aAPrXety3Oq2oY92WV/5jo7F8F0+a9zyU/fVTjK/ApRo5+j7QVPHgX/TMY9aQZnQRT3QwXe1TQFe6z3X7XuZMV9rMEyez5Lps5iQvZe1R9028AknYWUa88MrSJs6g/TjdO+7vWxYF0dGSiFlz+TxcfY2Mt/b6wxU1Vq0fjWUHW+pJbxChuN/roKjtaA8cG3l99rqVl+in1/C3ClR6Ae5RgW91KjPbcN8xXXsNnV3c91vB/O7KWx9aD1Z38RSdHAnOzdvYlvheVC6a/uukmIg6b0M4uo28PSsbc57fvhV1LvdtAdd1fnGzvLULWeZtx7Z2/LAy1PBS4EfvrPT3bluV5bbtB32IxtYeXALb31iIi5/LzuyMsn8h/GXsbZKCDfXZaqYZrgWL/eGMGwxm99PQPPVUuLvDyIoOIgRy/Kw17lGKbQ6dF5mKtyncA3VofG0Umm24z9Uh/qsmYo6Bc1gDeS/jL5fP/q1+gnj5U4abgA8dRi0XlQcv5YbW40hWIP9yFLGPDrG+fPISML0Awl6cAZrj5x3bjNUQ53ZjLWB5rQa3Z6+akKc58P8/wXi52dl25MD26S9HwOfzKRO0aIb7JrSoYS2/Bul1TGA5krNWl6BotGg+W4viXe3PSf9eGhVBwuGXee2wu1lCUqIFg1WrFZ/NIFeGN96qN2++gXNYK9dQTtUQ73ZvaPmfg4UNAG+UGnF7N4hHaxD52ml8t92Z0epyoy5uaPUPn9eIa5tmi5WoBat2or5aF335WmwDl1vs2suvZMuRIfXKTPGRg2aQC9qKito9/46T003eW9/KlvKJiiBfvhhpeKE2wZKqLNTYDZjH6xD52XFaOyinHai9/BhDHEco+h/W7r+/oZh+P9wgmMWQB3F/Hec07MO//2vvJWyjJS/H8NBJeVHL7bsaEgYw3pXUvpl+56bSns/YeoaSotPtnwWMoxgVSXHjl4BVAwbEYzq9DGOXWlKWBhhQQ6OfXMMByqGRITR7+IJjtVcweG4wpUfrnDlh4uU53zARwUt++WOYQwbAidcAdG1cD/n9NYQ6FOP1eL+/F1BG+wHVitWj1AMvwKrseXptbOjfrRl5NU11bP5uiha5xPvciP2XtEkb08jzvNjXh6nJyg4iKAxazDaXSM+njrnqEJ5J2/7unKJunovvNQGpsZryNm8l5q6evDqi3r0NMYrH/Nudp2znDTd7233qYQ638bllgfFYECPFfNRur3fnGXfSHOxc9WFVrPbSIjZ2OGLT5TBGjRty3TT77or70ND0Xm67kO3uo0u6ysreo0GqqxYOwpom0bbjJ3U4kNDnW1Jub3reqCjvDaNGp9q/bn9rBnjVzlsW7aAHecNxE1peXuc7+jFZB/eytSGTKbFzGgeheienZK0eEb+P0+wZN85tM9l8PnHiwlX3K9t89V2jr5bjZjs11h+r7Fu1SRmsPllA+b1M7h/aBBBwXrm7DuP/ZTbsVvV3a3bP87u5eWYEYyamc5Rr1iSd+exOV4DXt20fVd1znyZsGYzSzQ5LEhIocTVxl5VvdtNe9Blnd9ZnrqjGAgdDFaz2wieosMQCNZTJvy7OdftynLbtqPBzLaZI9E/Ooetp/yIW3OIQ2tir2rtjRC3k+sQuCgYtJpWDaEmMhrdlRw2rM5xVZZqYh+OQKk0UmEHdYgBjQfOIXMXbWwUmnN55JQ7nz7y7wrMDXaw2+EONXe4jQ35Dg9H090kWUWLdnA9VmNFNxu6fycUgxYqSvMpaXrJwHEzVve3Zinur/h0juoo7l1iTw2xUTrqS/Ip+h5ouAMv98XSvbSED3dVNe6vDm31GlGd61WobmuGtKHOiqzcDg312D29Wk9/GGzA0MnCb3WIFo0Hrd6sZBgdjaaqmPzjduobQd1bcZt3rMZwn+sVoK60tFq/1Ooc2PnBbgfFq9W8Ze34WOf1PNo0ZcSto9SUv+Z9Nk2Ta9lGCdGhqa+gzHwV5clgQFNnxdzcN3cFW6eMHT+VHz6V5AUT0NBN3ttxL5uAvR47zidqzVtExBLlU0FertWVLrNbuq6WirARwagu1lDd1Mv3GMK4UUO48mU+RT9A4BNTieEAKa+/x4EvSymvqME7ZBj9Lh6j1G1kxX/4MPzbfNZsoD/9PGqpbv5db8IeicL/22OU1gAe/oQM6cdF0zGaQqF+kVGE3dEU2MDAfr1xVObz3rvvtfs57Ba3qHRhDLvjZPP3rl6bc15fj70BFPcLpJ7AhAgvinI/oc71mvWjza9Zb+qoV2BuLlvODmvzdekditbPta5taCzRfjXsWJ9JnmsaqmZ0FAbMzntP0WLo8m1f5zlXp+AXlcAUdrKtwFmH2Xv7MW36o5z/IJM8O63v97b79NOi87Fy1K2z7j9Uh7rqKGVXur/ftIP9nIFAU9kPjiVWW4+5vGUkxHqiouPOY7vgQU3sS8kk3Kfuvry7v8LePX/d1Fc/tD1ur2gSViQR7dsy2mbs8O2TrV+bf631gC5Eh5elwhnU+E5h/RfZzBvutoFHXxQF6uudLxcwPLuZQxuiObpkDGNmZ1JyLY+6FQXFE+xnS9j59hwmPbESY8gU4sIU1IMDUddWYm26NRQD4x/SUHPcTN21lt9rqlsVoh66H68vM0n5h9E5wtzrfqIe8KXGXNZybPe6W2n9imullwLUYc7NZOn/jCFxJzz6VBTqBrpu+7o/YRhe2sr68edZkzCbne516FXVu52Ug/ru6/xO89RdkgO1aPu17tcoUbHc37uC/Py6bs51R2W5TdvRy5nmuqN7SX81njFL8vCbGEe0LM4XvzA/PXDx1BGq9cJ6vKUhvHTxEvTWoNUq4OlL9PPJzAzzwu5qTLUhGvhOwxMvxKJRQH1fEqtn6DBu3kZeo8bZsLpGSoz5xdQMj2Pe4xoUT+ebabbuymDewx1XI8ogDdpgLdqHIzB4Wqms06AN1uDrehNJ9EvrWZ/YyR+wU2vRBtRj7irY6R3a8opPTw2GwWrsvrEkPKVF8VRjeHY1s8OsbHv3E+z2fPK+VhP77CzCfUDxDSdhQxYfvTkVrScow3Vo6ysoO976360WZjYlLUTbXJHZS/Ioqo8mYW4svgqoh09l/dY9ZCR1lC+F0BAt2DU8kRSLRlHwjVrMyukaSjZnkme3kp9vxX/iLOKGq0HREL1gMx9tW0zcoI7T0uocAMbP8qjRTmDW4xoUFDSjF5P2rIa8denk2f0x6NStykf7fbqmxrh1pnQh2uYnpVdVnk6VuT1hNhD6K9fLIhqslJTU4D96JhOG+uI7fAqr30kmTguXGrrJe1uercumvSSHvLr7mfpH53VQgieQvDIOstey4bgrXZVlHT7t7ZLHEIbp+sGAIQwLADz6cX/iAiYOKGXb3/NxoEIT6I+qqbPn0Y+w3y5izmP+XKko5VjzkIZzfYuj1WdufrjCFQYSrOsNqAiMncOc2H5caVrf4uGDj1oFvb2d09BC4pj/uyh6Vx1zrm/BgbWqBtWQKMYOcfVQVP0YEjmRsSPavNrM359+HiqU3m1fedaNNuec7/LJKYHo6c57Ch8DU9cs5tHaTNZlnW9+zXpFc0e3qfwZ3cqWW4cV11QyT9dDgYs11NEXbYg/oDinKMbrUWrPce4KMEhDX88fqMe5ZqGdxkvUfXcHUc88inXnNueUkSuX+GHQFKYaiti0xew6ptv93mafzjy4P1F2BW+uzmvX9xvY64EAHToF59v0Umai82gaCfHF3xdoAF91+9rC/nUxZQ0RTEmMRuOrIXp2BqvnRKG213VT3l31zKkK5xo9t/x1XV/ZMX9ZQt3QCSSM1uAbGM7UNatJfkwD3wGD/JydYLWa9sltfcwu64F2OVXQ+PpBQz2KjxrlopGKC6HM/2sGCaMNaIPDmbJiMXF+RvbuM+I7MY3NKzTkvLKArRUKmmAt2mAtmkFX0RH3NDBvv4lDK2LR9AI81YQ/Ho2m3oyx0o693g7qQDQBgKJhwoqVPBFgx1xehv1ay+811q3nautQNAZC1TjvpaVJRKvtnLda3Y7tVne71f3qiRmUfZFBQpjzHCiDHyX2XjU1pyqp76bt647vU2lsnutLzvxENhwFxRX4wVXWu52Wg67r/C7z1E2alRADGns9hvhZRPsqKIGxJC+MQ8nJZOvx7s51B2XZve0ITCDrm895K17rDKDUWmIf0uJlqXBO1564mIyUqzu3Qtzqfnrg0suANrCeivKWOdF1O1NYelDNrP0mTIVbmdq4lSWbjdTHvsXHLz1E6FAN1qwl7PBZzKGT1Zh2JMA/EklMM7qGVuupKHcGD/bcpfwxtQLDm4VUnznNoaXDqUiewYKO/kCTp4H5O0opLCqkcEsCGsVA0q5CCosOsfJh59vKxs+II8LP3uE0D+eQfZspbG23CdGi9TQ5h3AVA9rB59n7ViYkfszpMyb2vNCXj1+czspCOzRYSZ8/mx0eU/noXxc5XbSVqR47SUxIx9zgmlJW6Xx1qPu/FderUCuaa62mv2vjqshqd7Jg9gbOPZZB2ZlqTDtm4XdkDvGpHf1hPjXaYH9qPljJjkHJHDl9mrL3JvDDlkQS/+LsRBnXJbI0358l+01Unz7Cn2LPk/a7OWw765YWt2H3VucAsB9JIXGZEcObhZyuPs2RN8KpWPU0iVusNL3hyL18OPdpatln09SY8qZpbq2flHZdnv5f5xt5/m1uWbzbq/Xfxsl764+sMRt461MTpv0riTCnMG2+c+5wV3lvf/Fbl01q97LkD2s491AGZaerOb13MZovFxD/4l7qmt8UZL72v5XhH8Yw/xpK/9ebqRsPsGfPDpY/UMtHr6eypwrAwbGCImoC4li7Yw97dm3kWf8aqq84OPHNsXbrW1p95sbxv9kcONmbsSs/YMeuHayK7c0VR8v6FhxWjpVfxP+xVHbs2cPG5wZy5aKDixWlzetuTu58jx1nNPxh4w727NrDnj0fsPa5MHr/0HpkxXH0MIct/YhL28Phw4fZOK2zVwJ2c86xkvniHLY1TuWjf1VT/dVHJCg7SfzNUvK+cy5yV1e6Td1UDM4F2M3fd5atugpj83Vpmg5TVgec2kbKumK0Swux/OtzMh6zsiF5B2Z1HGnvJ6CpLCGvvC9TNxWxvqO3+TTUcOmSLxp1Eds+co6g2K/YsQ/SwL53m99I5X6/02afmqFa1KeMLXloGzB3db9h55N315CnTuDQv0yU/i2OS/lF1DU9gbabKT5iRfP8xxxa0cHbnc5m8vL8vdzxTBal/ypk81SFfS/OcK7x6Ka8a91eYd8qf93UV3V7lrDgvUvE/qUQ01cfMU9TzILfOa+nvTSPIns0b32+mantioz7MdXd1ANt2TEW5FETlsznu2Zh8DCTPnMGa8xa5r9/hMK8j1gcXkPm/0xj7VENcUlT0PQykPD+EWf70vTzRmz3b8hqMJK5fAPWyDQKT1ZTbfmGrb+uZ+vzL7PtLNTtSWfD13qSP7dgyssg1pxHWUMNVkv9NZffa6tb7eS8vYRtV54g6xsTpbvm4XcwhQ35dRhe/pjk2Hvb191udX/dP9ewJFdN0kfOV1yf3r8YbclSZiTnYe+m7euSp4Zpv5+CppeGKZtKna/+ra6m2rLZ+fatq6l3uygHXdX5Xeapm2TrDBq8jmeS8mUEfyo6zemiNKKta5jx0jbO0825fsi3fVl2bzsqt5Kyyohu4SFM1dVUf/Mx89U5zE7agLlBwTApgQlhai7dwn8fTYir9V933XXX/93sRNyywhZTuD+arQ+OIf1U95vfFEos6/93C36r9MR/IMv4epqwsLB2n/V+PJUdz10h9ZlUSgcMIVB1hcqTNbSdZKXqF8gQfxUXqyqpqbvWlSMuHr0J1AXS+0olJ/s8y/tvDWP/73/PB81TFFT464bQ+4dKTlZ2Ps2rd8AQAu9SceXcSSq//ZFpcSktLe1+IyGE6DEUpmwxsbIukdDZOfKHiYX4GcnA4k+gDjGgqa3A3NH6gZ7CNV++uFyClluDirDhwXByG8d+gCuVJynvZEvHxUrKL3byy6vVeIXKcucRAn87jH5N61tajkJNRWcpaHGl6iTlPfk+EOLn4KlhwoIkYv28OtngHHnpKezs4GUHv1SGZ5JJ6PSvUNZjPbiGtT3sr8d3m+acXPrqvLBuu8bX3gshrpkELj+aa/rWv/M6fDtPT6EYQtHUV7Cpg5eNiR7II5DgADhWUMpPjUmuTW+Ch/Tj4lHX+hYhRPcarOxd9TJ7b3Y6biHGD5Yy54ObnYpr022a1VPJ6nRaohDiepKpYkLcRB1NFfulk6liQgghhOiIBC5CCCGEEEKIHu+6/AFKIYQQQgghhPg5SeAihBBCCCGE6PEkcBFCCCGEEEL0eBK4CCGEEEIIIXo8CVyEEEIIIYQQPZ4ELkIIIYQQQogeTwIXIYQQQgghRI8ngYsQQgghhBCix5PARQghhBBCCNHjSeAihBBCCCGE6PEkcBFCCCGEEEL0eBK4CCGEEEIIIXo8CVyEEEIIIYQQPZ4ELkIIIYQQQogeTwIXIYQQQgghRI8ngYsQQgghhBCix5PARQghhBBCCNHjSeAihBBCCCGE6PEkcBFCCCGEEEL0eBK4CCGEEEIIIXo8CVyEEEIIIYQQPZ4ELkIIIYQQQogeTwIXIYQQQgghRI8ngYsQQohr4EPk1CQmhXT2exWT/lREaVEak+68ken6pfIhMnEt2/+ZR9FXpZQW5bFvSyrxw71vdsJ+Mv0L2yktLaW0KIN4n6ZPVRjm7XN+/lkqMaqbmcLrSDWWtXmllH6YRJDHzU7M9afSJbC9qJSijGnN+VONfJV9X5WSu3osPrd4/rvL38DbPP83kgQuQgghrt6gcUyfPZ2Y4M56jA5Ktq9iRepWSuw3NGW/SN4TF5H6/CMMqNrPhjffYN32MtCN5dXXZ2K4XTr1HnoiI12BmMdgosIDoPHmJklcG0fFFlZtt0D4DGbF+oCHnumzJxPwfQmb0g5Qe7MT+BN1l7/q2zz/N5LnzU6AEEKIG8Gb+L/k8WrwAdJ3eTPpmQgGXCpjU3ImzHiNmfcO4NuSDcyfuxWTQ0XQxIUsT4xB76dgO3mYTcuWk9U4k+0fJqD3AJYXsW/Y75l74SWyEhWy3zMR/kwEJYsmUfbkQpaNLGZFTjFV3/sQOXs5c5+MIMgbqoz7yUxdRfZJx80+IbeFoCFBeFNL9uZ1bP3CAeymxBRPKBXU3g6d+8YqLGcDCB0ZgWrPYRyDIokIsmE5A0F9b3bixNVzYHx3HbsfSSP+hZmM7R/A9BAwbVpH1hnglg+yu8nfbZ//G0dGXIQQ4hfBjt3hgL6RxPgWkP5BGfZB4cxc9RKDv0hnQ6GNgAdnMn2UCnQzSV00iaCqLOY9v5x8jxjmvjYTfVU2qzJKcADG92azaOtxvmtwgEcAMbH9KXh3E4dPtQ5IfJ5cTuqzEVC4gUXJWZwNmsTC16bLdIjrxGI0UYsP45ZuInXeNCaNGsy3n24l62AxVbdD4IIN0zEL3uGRRKjAJzICfUMZplM3O13imtkKSE87QO3d8aS+GIn3md28/TfTzU7V9dNd/m73/N8gErgIIcQvioXD72Zx4G+7KfkeVBcK2LL9AFl7irHhTcDdAwgaFYleZaNk1yYKSg6QecCEShdJpF8VprM2wMHlymKMZ2zNU3ZMHy3kjfeyKDjjfixvoh6JwLvRxO53tnJgzzpWvLyI5X83IuMt14ctZxVzU7MpswUQM3Uuy97ZTm7uLtKejeDWX+XiVFVYRlXfcCJDfYgaqYdjxZRJAbol2UryKbsEeECtsYTj39/sFF1f3eXvds//jSCBixBC/JI0XuZCLdDgwO4A/nOBbxuB7y9zGYDeDLjLG/DmkRX5FBUVsesFA3gMIEDT2XwGG1Vnbe0/9uhP/7tUYL/ABdevq0oOcOC2GQ3oCWwYd6wgMW40UaN/w+zlmRTYgoh84SWm62522q4Pu6mAkksBRERPJsqgYPqigAs3O1HiR1AR8fskHvGuxXLGgU9sAtNDbqc5Ut3l73bP/40hgYsQQgg3Dr79jw2w8emaGcyYPoMZz/yG3/x6JhtKrvExd+MFbJcdoPSnv2s9QlDsNBKeHYte2uvrwIfIZ5eRunIaBhU4ak0U7Eln3R4TeAQQEHCbnGR7MQUlNoLG/prwO0+R/0XVzU6R+BFUw2fy0pMB2D7fwOxXt2BCT/yLkwm4TaaNdpe/2z3/N4oszhdCCNGKpaAA03MJhMbGEHTWRP/xCUwOKGFd0jqK7WBHRdCDk4k5kUvXM7RtFHxahm1kKPGzp3Hhiz5MnpdA6NlMCjbfoMzc1mzgH87YxycRMWgw+wuruHznYKLG68FWQJnpdplPZaP4ixJsjz2C98ndFFgg4GYn6efSP5T4F5KwNY9IXsa0dyuHz3T1pVuARxDxL01H32BkXVo2VadVvL1nLBvjZjI3Npd5n7q2u1Xz313+cvrc3vm/gSRwEUII0Vr5Jla82Z+FidNJ3aDCdqaE/X/OosAGfL2fw6cjmfTIXJJqLcyt6XpXVbtWsCJgGS9NnEXqI3aqjmWx/PVNmGSq2HXgoOCd2SxqnMvM2HFMC1OBw0ZVxaekb0wl6+zNTt/1Y/syn7LvHyHoq3xONd7GgYtPOPHPhrt9UEt2WRaHz9zaQWjAxLnMDAPL5rVknQZwULwxnU8fSeWRF2YSUVjm3PAWzX93+Xv8roDbOv830n/ddddd/3ezEyGEEEIIIYQQXZE1LkIIIYQQQogeTwIXIYQQQgghRI8ngYsQQgghhBCix5PARQghhBBCCNHjSeAihBBCCCGE6PEkcBFCCCGEEEL0eBK4CCGEEEIIIXo8CVyEEEIIIYQQPZ7nzU6AEELcbJMmTbrZSRBCCCF+VtnZ2Tc7CT/Zf911113/d7MTIYQQQgghhBBdkaliQgghhBBCiB5PAhchhBBCCCFEjyeBixBCCCGEEKLHk8BFCCGEEEII0eNJ4CKEEEIIIYTo8SRwEUIIIYQQQvR4ErgIIYQQQgghejwJXIQQoqdR6ZmWsYu14wNQxaaSV1pExtSANtsYePXjUko/SCDI20DSll0se8Tn5qRXXDuPAMa+ksG+vCKKivLYtSGJyI4unyqISUs3sy83l9zcXHb9KYGIvq7f+cUw9y/7yPuiiKLc7aQ+qUd1I/PQnUGRzH0vl6LdczF4NH2oImLRPkq/Km35KdrFq+FtU97FdiFJbC8qbf270iLSJt6M3KuImLeLotxlRLod3js8gbR/FpG7Mqbza9LZ9fMIIunD1vkryk0l5qZeXBX636SyPddZXvf9xa28ehuYtnYXuV8UUZS7i7UzDHh3tSsPPQlbiij606T252bQJNI+K2LzjICOvnljqYIYu2g7eUWbSbjb7fO7x/Jqxj7yiooo+mwfGa/EEOAq395h01j7YS5FRUUUHdzOsu7uyZ6U31uEBC5CCHE1PLrf5HoJenou8T9sIXVflfODWhuDHnkE96ZNFTqOiDtt2AC+N7Lp7QJCX5zF/8/e/Uc1deUL/3/fla7D6MqxluCdxrRSvKK0WByzFDMtYCvQKrQzxM40dO6A/V7BGQGvaKeitlRaOlqdUehV8D5K51tjbyXt1DhW0GmCvSK2EfqNA4UWxUvEDmU6GMYalpbzlOf5/hGQ3xH8UXBmv9ZyLUnOOdmfvc9J9mfvfZIInz0GYazQLd7AuocvUJAcybzHMyiVTKxNCR/QydE8tY7VodWsN8YQ8/gSzCTyUlo4EjKL1mwg7nIRS2IjiXuxiqAV60ieNirhDKRZxMaCdAJcjd5ztBdZ/h41hYuZPWe299+8xbxWpQw4xJDbfVbAM/Nm9zxufI2KLyopcww8xq0mPZjKqgUT8Hzb67GH17Jnzf00n231saeP9lPJyH4u9qbOuxrjvJj1lH334fV4MJWNy4OoejGOyEeXUORZRM6qaGQkwtNyWOJnJSN2HpG/tCA9k0Pq7KG760HPrCbun/ufFQAaFmUmc39nx62LY7hUQZi2bSWRelzf9n5CQ0LWOiL+WsCSR+cRmbqXjth1pC+QQAon/eVU5KOriXkoksX5LuZmrsb4/aFeZAzFexsRiYsgCMIQpLlrOfTuRta+fojy/zedEJVE2DMb2Vdix15i51DxVpJmy94R4JLuEVeJ6FfLvTMhKgANpp3lbP+xjO6JDew5aMd+xI69ZA8bngga5EXDMT0dQMVbpbi7HlK+rOZ0QAyL7ru6ET+IDcdTV43S2bXNqT1YmiNJfkKM3N0OvvmilG0bCzh8ToGLNRx2uJh07+R+W0nopgSg1FdS7wE6m6mqbmbS5Mn4SbMID72EvbgU12UFt2M3ZmcQkQsGOadGQ6eL4ueXkFPePOApebxEx5UL1zzE8LaTiU5LYsKBbRz46jrLer1UISSvisb1lpU+UX5VSk7qOkpdPjINn+03Ab9xHXR4RjNT6UunD0dXd4DdDjfKZRcH3jzMJUM04eoQIgwSx/dZqL8MylkrlhMSEQuGmGmYnMDqpzqw7v+c/t11eUEGqQFl7Bkkif3uXeLzN1aQml/NpX7PfHlkG69sP4zrMihnS6lolNFNngR3XKJq3ya2vVmDp1Oh+WgZNUoAun8e/BXGVry3D5G4CIIgDOVbYHIYk479gpjkAupnpLJuWQBlq+OIiY9jxR9kUtenEuaqpp4QZk0BVCHMCrqASzWLWTIw/gfMCnJRWX0/SUvn0rjZSMzCGIw5x5nwcDgh/WZypFkLiKCSo9W9Psy+/ZzjTg3RcZ0GdSYAACAASURBVF2dUimcRQYPxx2eXjNBbuzljYRERSAWjI19bscBDji6u7s6IvQ66muq6duFUXBV1fPNrGgivw+MD2LBXA31zuqeWYyr7d+BckVBN1k3NpaLXayn5uxgHTIZeZwfk2O3st9eTvmHh9j1XM9SmxFv90AyKaFV7C523Zo4fAh6ejVxF3aztaJvF1w5W0PNxWF2RgdrvztkJoyXCX9uH/YPT1JesocNi4NGtV2/gb6zzp4OPLKOyd+fSpDGTfP57ngVXOfdBEyZOshRvDMMfu8NkmTKEaQvD6Esz8yXnbcighHqdFNzqpmBreim8tABKr8CkNAZkomb0khlVTNcrqds32Hqu3aSZs0l5Nt6qs8NcvyxFu9tRCQugiAIPijKaexHvB9gOkM4U+vLsJxWAAXX4TLqJ88l/PvVVNZNIiRMhu/PIqSzDKtLx6xZEvzLLEIuVlL1ZSsXPBOYFRtHxAyZjqoinltnob7fh5Y8434mna/n8z6fmB1UH6lAjoojRAXS3Gjm/sVOWb8Pf099IxemhHD/mOi5CsOjISLztyRNsLL1rYGdb8/RAgrq57LxYDnltmJSJxyl4F0XKNVU1nyPmJ/GETReQn7QRIJBRvLzG4UYRubLT8uoclh4zhhD/C/34lmwgQ1PD5wpvPZ2MtE/WwRHzFRc/u7KD3hnDp7uwJx/+OrM6Ij4ar9v3Xx+oobKkpcxPh7Jku2NzMrcSOqMmx3E8LmrKmkMSSDVoEEaryM6KZoQJPy+54efqgNPr/q/pHTgJ/nR/0z0zjCUsm2fq99si0T4snRmOfLY/eltsmzq+0nsOnmSQ68bufTOJsyf9X1ampbApuwI6ncUUDZgVdxtGO8YIhIXQRAEXy5furp+XTNBpsNzqedD9/IlPIofE2QPlTWNBIXNQqP/AQH1VRytu0BI2FR0+hCkmioaFRfmF9ZTekc0qwvs2A/uYu3Cgct6JgXIeC56BiyjUJxHqfCLJu4BmfDYuXxZfpT+i3CUCxfwyAEE3HGT60C4NVQ6FuXsZu0DFbzy7wXUDNL5Dlm2kec0B0iNiSLq0cW8XB/BxpxFaPBweOsmSscns7uklD0rdNRXNXPJM9i9A2OJm7Lt63l5Vxkuj4LntIXdtguEzAnrN6MwjO0mRhNncFP6/nc926Jh0YqumYMvr/cYPtpPqaRo3XoKDtXjURRcR3ZgPTuV8LmjOJf62W5e3ulibo6V0nd/S9yFaqo7PHi+vkRHpx/y+J5NJ4zzo0Pp6PseJoeTvmwqZXnmAYM10gOppM+tpmBX5SAzHGPUV3tZNm8eUclbubBoGxt/2pNQy7NT2PF6Mh27VpBzaOBSydsy3jFEfLwJgiAMk/uSB78ZE5DBO8o6fgKy5OHSRXBXVeNZNIuYziBcNZ/T2lgPv5hLRMdkamx/8n5AfVFB0YsVFCER9EQO27MyWHTiOQ736msOOVmi/InSClj3WAIB+i8p29kMobc4YOEW0hCRtZ30uyz8KtN7f8Bg28ydE0Jj+WpqPADNHLdVsyo7nPulw1R8Vca25WVs69rWtCOOL53/M8Y7QxpCHv4XOk5V4uqKWQIYsFzm2ttJc8OZdaGS3dedPFwnKZxIg44Qwx7KlwIqP2QZtpYGsC15BZbhlmeo9pODCA/143NHfdeSwO/BHdAxqkuKFOr3reeZfd6/pLlrKX6iEZe7Gd1XGnRTJfhCASSCpui44Grscx5KoQuIuDeICf9hxwQgych+4djNOjadjCDkXh0bD8YB4DdeRnp0H/t160ncWDG2zmcpiOinZtF6+AA1FxU8pw9jOZHKrrlhSO82w4wktr4cTeOWVF47Nvhc3NRHbqN4xyAx4yIIgjBMzY5KGkOiMc6QAImgH0cT8kUlFV8Criqqx0eQEObhc6cH5X+qceniSJjqorpK8X7L0n9txXSfBCg01zfiRhqwnML9Nw/yRHnA46BQ80EFfouWEHa+DPsgNyJLAQHIngtc+Hbgc8LYIi98jrVhFaxfNzBpkR5YhGlhCBIeXF+0MtUQQ5AEIBPycAgTvmrEpUhErN/PvqwIZBVoFmRgmlaF9eh1LVz67qgmEb3it2xcEYFG5V1SsyQ2gOoT3tHnoAUmEmZrrrkdwNTQEHDV0/hdd+iVw6x/dB5Rj0Z5//3rbmq+KuW5uGsnLVfjw0f7TYwgZctvWbdQh4SELjYF4331HP94FNv2viR2HdyOaZoE40Mw/VsMHUdL+dOVGuwnFCITTYSMB+kBE8kRl6goq+kTr+J4jScejrpaZzFbKvCc2ERMcgGHC55h3tXnYlhvc1Oz6xkWj8VOfKfMrMWrWbfUe16iiSDOEEDzOReKKoTUl0x0vPGrgUmLSkfE4gTCJ0N94W0U7xgkZlwEQRCG67PdvLwrhw3bSkkAuFhJwSu7vUsfOv9EVYMOU0gpeV8Byp+obp3Kou+VUXkR6Kyg+IMYcv7TTuodCnS0Uln4MqX9Vva0nv6c1qe896lU9v8U+6yUsr8lEHLUjpuBszNyyFQCmsv63R8jjD0SEbHR6GZI7ClPuvqo4tpLauI23HMTWT3fTsWReioKX8P60mp2l6bCt/DNX4+z7dcWmlFofdtM3Gs52MtlOtzVWHLXcXiM5C3Sj7dzPDui63dJYM/JJJQv9pJq2sbuVwrQvZBD6UcyXG6mcv96cv7gPaNn/Xg1ya7POXCqxsd2ABK6gAl8c9HXVw6PBomInFK2PqFBUgH8lpMLFdxH1hP34vE+8VUO1X5uC5u26MhZsY/jL/vR8VU1pRtz2HtuFMM6d4CiI5G89LvjrMZDY/luXi6sQQFqduWwJyeHHbYM5CvNVLyxnh2feuuiJ94xcmIO171J7Pl91+8PqSDCeor0zhoKTEvY8UoBOWtzsJbL+HV6aDxRwKY362FaOtEzdARlH+JUdveBFCpyI1lxOIjotAxwl1L5pXiDvhH/dNddd/3f0S6EIAiC0EWKYIN1NR0vJvLaqZF8wGkw7bAQ7VjCsrcGrqsWBEEQhNudWComCIIwligVmN/xEPHzuBF9rbH04BISphzH/AeRtAiCIAh/n0TiIgiCMMa49m3CIiezfrg/Jjk+jNTnI6jP30HFWP9SKUEQBEG4TmKpmCAIgiAIgiAIY56YcREEQRAEQRAEYcwTiYsgCIIgCIIgCGOeSFwEQRAEQRAEQRjzROIiCIIgCIIgCMKYJxIXQRAEQRAEQRDGvDtGuwCCIAijbeLEiaNdBEEQBEG4pS5evDjaRbhhYsZFEARBEARBEIQxTyQugiAIgiAIgiCMeSJxEQRBEARBEARhzBOJiyAIgiAIgiAIY55IXARBEARBEARBGPNE4iIIgiAIgiAIwpgnEhdBEARBEARBEMY8kbgIgiCMWf4YEmIIVnn/b8y3kZegvjmHHhdK/JN61IA0J5PitzPRSzfn0ANIwZjyzeQ+ph3+LvPWULzViP9IXuduA2k7rNj2phGqGmIblZaYlXkUl9iw2Uowb0nB4A8Emch7M5d43Uhe8AZIgcQ/X0ix1YrVasW8KQn9nYNt6I9hWR7FB23YSqwUvRBP8NV2UqNfshnzQRu2I1aK1sYT2KsN1ZFrMO9MIXTc4EXQPpaLOd/U63g32XDaY8h6kNCvLubY0WM9/2xmMmf3FPZa8fV30+MdLD7JwBqLrW+5jx3D+oKBPi97je3Us5PY/GYJNpuNkjdzMT3Y67of6fU0LpSUnWbWRI7oaupHIvjJNRT+3obNZsPav0wAqmCSdtqwbYpn0CrWxZCZX0yJzYbtYDF5K6PQqoAZKRTZjvWrCxub47qPIqFfXkTR8waG9+6nxvB8EUXL9YOX44bivfZ5eZW/gZQtZkqO2LCVFFO4MsYbL9do31GJ9/YhEhdBEISxatxM4p+Z39UZbaPklWRy/9h+Uw4thcRiig5GApSaItJWFlGr3JRDDxCYkIbxioW8D1qGvU/w3Jm01ThpG+4O/jFk/yYFTdM5fNWQ9sk1rJrXRtHyeGJ/sgabZCQzSY/kspBv15C0PH5kydJ18n8yk7SQWnKTjBh/koaFxaxZOrDjoX4knazorvKaXsShTWHV04Fdz61iTYwb8/J4Yn+2Gec9RuK7O1DjDKQtm46j0EzdlcHL0PJBHpYrRtKeCrwFAQ6vPXzVg1rtR93vkpm/YL73X2wy+ae6TtJhxNffTY13qPgUB1tMsT1lXpjC3s+a+Li8FmW4240zkLY2Ecm+BuNCI2v+qCZxTcrVgYURX09X6jAXOpi5PAXD9Y57TDOR9cvp1P7GRPxCE5s/0ZKyIpHAXglp4FNpxE4aqrX9iV+5CkNrEWk/iiV+pQXlkVWkREpwuoiU2Pk9dZGUj6PZSXmVt8akB5JJizxD0U6Hz3OpRzuOnWbORKaR8sB1duV9xOvzvLxKTVRGFvGdVjJ/Ekt8hgVPZLo33mu076jEexu5Y7QLIAiCMHZJBD+Zyaqf/xCtCjpaP2bvlnxKzmsxbskn/rM1pL3RgDIpntydJlp+nUJhjYaojDWkPXIffp0duOus5L1m8XauJkWR9kIasVNlaG/i2Bu55Jd1YNphQf9HI1nvtwP+3r9t/44zahWGu9XMfGMzmhc2o6w0E/XfRlYdUAh9KotVT+vRAB3ttVjzN2P5tJ3AJUXkBzsoQY9e649WasD8ci7Ws70+WP3jyXohnsA7FQp3yOT9l5pVK2DLs/m4nykiP9iJTTUT/T1a1O79FJZqiP/RTLR3q2l5L5vsfQ0oKu3QcfapQj3GBA2O39hom5FC0Sv+FCVtwaFIRL1gJTewmOTle2nq9Me4dS+GMhNZf9SgD4XawhbviPzKLJLmaYEOlEY7hb8pwtHa73U6m9j/UhoN2kwsYUO3aMef7RRuc2I/rwB12D9pIjnMO3LddKCYujeTWTythKKzN3ru+CKhvUeD0mChoR2gBWddC5lhWm8i2Ws7/cN6PP+9Bnuzt7zFB2sxGqMI3GclOEZPy/tLu55zUJjhuLqnNs7ED1tKWPqpAvhjWJ5NWvR9yCqgrRbzllysp9uwveMg6Xkj+vfycd7MxHVY7eGrHmqRx0l0XHEPumef+KQosi2JdBw6h3b2dLR3Szj3FNE028j8QC1aHOQ9n095202Md5jnmzYuhZiLFlYd990F7bPdDD0zxzkpeq+O9k6oe8/CxwlpRM2QcJ6e2XM9Qdf1Pozr9dNirC1vYHpci+O94Q8gXKU0UPK6E9vJNhTAccxJyyNaAlXQ1AncHU/akwol758hOWTwQ7TYC9lyyk7TFcBlw9GURqxWA/Quj5qopSbk0ixKWrv+NsXDHzNxtIM0O5OilTLlNWr0IYFo1Q0U73QSmBDLdK0Wqb6I7F+X0NRejqUsmXxTFOYN9mEmAMOL19d52ZvbYSav3uo9t9tLKG9MI/4eDbT4aN9PpdGJ9zYiZlwEQRCGMs1EVup0nK8mYfyJiWzHfaSsNKKlCeuOYpTH0ojXqTE8m0TgR4WYTyn4P5lJ1pwW8pcaMf5sFSVSIlnPhgJqYpavwnA+n6QfxZP0+hn0KzOJH2p4//98gWXbfhraHRQszcLi6vXcjGRWLfHn2AsmjCYTWaVqkp9L9i5X6VRQhwXj3pVG2tJkNtfNxGSc2Xckv62Ezb9zopw2k5ZRxKn/3eu5TgV1qJYz29JIWbYZ5z3JrDLUsjkjhZRtTqY/Gc9MCR9x9iWFRmHASXmdAq5azjCdmTpAFczMQDdNqpnMVAPjZjIzsAmnsx3u1KO/sxbnaQVtgndEfsuzRhJNaZivxJO1NGrgkoivG6hzXbsn2vZJCSWfdHeUtBjCtDTUdY2Gtzv4uE6DYf4tmIHoQ6HJ2UBHaBSGScC4QKJm+9NQU9uvw6FBq1XT0tR09ZH2P7fgnqRFK2mZfk8H7ROTyXvTitVaTN7VpSj+GB6azrmTx7wzVlPiSXmsHfMyI0ajiTWlCgaD95xQ6spxYCAq9CaP1A6rPXzVgxr1OAnto7mYrSWUHCwmLyNq8PgAVMFMp4SsjBRWvddObHoikiWLtKWrKFbiMT7qvdBuWrzDiW+cgaSnNdj32vCZKgyxXU8JPbQrWrT39rueYNjXK7Rx7KNzTH/IcH0ziucdWD+ou3p+ButnIjfWds3S+hOz3IT0fmFXsjGYNpwflOBs9UamnZNI7D1NOJ39amZGIskhTszvdZ3z4/TMD3PjKO/6+1uQdKGoT+SStiyFoiY9KcsCsW9II2V5ES1zjMRO8W7adMyBO2w++mEuJRxevL7Oy97aqfvASvn5rj/vNKAPbOFMXU/CM1j7jlq8txGRuAiCIAxBO/eHBDaWsP/TdkCh4X0b54IN3uUWLit5pX6YXswlbbaTojcctCPxw3kzaflvK442QGmhxF6LZvYPCRw3E31YB84PnbQD7ScLSXs2F9uw10L1LpeewIbyrlkUhSZ7OWfu1qPvvj+jwYHtPIBCS4sb+c4RdlXqHZS3esvf0gZnPinHG04LbrUGf19x9vsAVwdPR/PnBs4ogFKLs15D8Ew1TJpJcGc5JU1aQkMlCJpJ8NdOnK2gnqNH2+ikVlGjnzOTlo9KcLYDnW2Uf+iEUP1NuE/BH8PyXExyCQXvdCcGCg0NLWiDgm/5WvH240UUNejJfruEEmsRyXI5RQea+m6kkpAkBaWj12OKgiLJSCoZ9TgNM6e1UJhhxLS8kJY5q8h80h+k6QTf46bpTFe360o7blUw8+OiCJ4EDe/lkrXH6U3WlDM0/FnD9OCbdO/UCPmqh5bPynFWWclOMmJabaE9Mos1CdqB8QF0tuD8uA4FcLe00N5ai/OsArhpaWlHnih7t/sO4/V/3MgPW0rY/5nvBGfAdi4ntVf0xD8VilpSExyzmKi7QZKkvtdTt2ter17tZ5pw3xPM9Bs8ubWPrCE7zoN5p5U2QB2ZQrLGRuF7TVxz6GCSiTybjeJN8XgO5FF8uveTaqJ+EgNlFhzdM7dTphNIE2eae7ZSvq7Dccr7nnzuLx7a653UtgNXWmhpV6PWdAV4/gxNBDJ9ys2Nd8jzcijqUJJeSiP4o0KKTik+23csxDvWicRFEARhCGpZjRSawhtdNw5b30hhOn6o/QEUGkpttATpkU6W4PgaQI1aVhO4eIt3e6sVS4YeJDUaSY08rp12T/dHu0J7W/u1P+gH4S+rUdo9Pfte8dCuSMhdfTHlSq/nOkf+CsrVnrICnQrKt93H6l7G5CPOfomLRqOm/evu8rTjrDtHYOhM/MNmomlwUl7vZvrMQLSzgpHqnDR1SszUB9NS46QdGbUMnouengO2e+gYJyGPOKpeVFpi1uaTOcPBlrVFfZa3tXztQZqoQXMjxx+G4CXZpPuXkGmMJ/5HyWxuMJC9NqbvaHingqJISH69HpMkJMVbn0qnQu0fvUtRlL+UYz3uZnrYTCSVBo26HXdbV9u3Wtn8ihVPWDJb9pZg3bkG44zu3quC5+t21JpbHfHghq6HNsp35bJlTzlN7QrtZ62Y/9vN9NmhA+PrikPp/rMTb4LX55W+63i1xMZM50yZ7Rr3aQ2yneKg8DfFKDGvYrEUsSrsHE6XQrtH6Xc9dW1+zeu169k2N+1qzYBrdPgkghNyyVumwfpSNlYXoNaT8ux9lBdaaOgcxiFaLayKjSV+eQHumFfJ7t3hv3M+sXPasB3pSeAljT9yuxt372N3dvR5f+u42vAd3ra/+pwbd7uM/8TrzdQGidfXeTnYIfwNpP0mm/nnC8l8veueFR/tO7rx3h7EPS6CIAhDcF9sRzllIWlNySBrhtUYkoxoTpbQ9lAKRusqLOfbcV9sp+mdTFL29Bs9lwzEXFGjnth9F4Ma7TQtNLu9ywG6OxMqGekanzttnnakaTJq8HZ2xsmopXY8X99wyMPkI85++ofS5qyjPWYm8zsDaao7g/tcAzyrx6BoqfuwFkUVjD6knTpLG6Cm/SJdo+Vd3Tq1jHzFjYfr5Y9h5WZS7rSSvc5KwzBv7L65/NHPDubcRy9S13Vvh+PDWjqe1zNdsuO42ktx0/TnduIDg4E6ANT3BaJpddLUfg7tXyFw4tWzAFT0dGT6dU7bPrGw5RMLSFoMy3PJXm7EkWnxvYTplvNVD07cs+9DqXF674mg61waIr4xx9+AIegc5VXXuNtgiO3aP9lL1rN7vX+MiyJ7bwtnGhSk6beovMOgjcsmN0Gh6Pls7F0zAlJIFAZdIPJrVowAkhq1pMe6U0tmRlFPMiMFEvXkTNz2Euq+Vmg/a8d6Mpn82aFIB1pQAGm2npltTsx/uckFv85zZbB4wZ/geT7Oy97UelJ+nUmwI5fMPXV9PkOGal/uub6y9jHWr40bJGZcBEEQhtBW9TENwTEYp3m73/5zUshdG0+gCqTZyaTNqaVoWz55H8gkZhjRqhScn9SiiYpHrwZQE/x0NtlPByMptTjr/DA8bsBfBeo5KWzeloJ+XDvurxU09wQiAVJQFD/snupXFFCpkfutWW6pctIUHEX8NAmQCIyLYnqzE8dIPvC/BUWSvTdrj5iPOPtt2XaxHfWdcs/j553UjjMQH9rOmep2FFctTdpY4gObqD2lgE7PTFUtzmaAdpyf1KJ9KJ5QNaDSEhujx1PjpGEEE0nSjBiMXd+gpo5OJzPUQe4rgyct2jtlFI+ba996eyPaaWp2c9+c7m+MUxNsmI7c2kST0ru8Cs7yj5EeSSRGJ8GdepITptNU7qCFNhz/fYb7nkzGMAkkXQyJkRrO1NSidLpxt6uR/b21Ls3LpHBLkrcOlRaamtwoV4ctJeQ71bRfvLUR99YTn4966NQwf1ku2cu814sUFE/iIxpqTzoHxDfCV/9O4pWCg7nv6yaa+g0mBEYaiX/Q3/d2qlBSdpnJjtYioUaflIj+zzbKmwe5nkZSJn8N6v6j+cOlM7JmiQbry7m9OvGgfJJP4sJ44n/k/Wf8DwftJ/MxLvcmLVfj7VQz88k0ViV52xN/A7FzNLSc71leFnh/MDSd8d7s3318dzue650lUmnQqD20u69jXnuIeFH5OC/p3b4S+mWZxDQVkt0vafHVvqMW721EzLgIgiAMxWUh73daVv3awmIVcOUctl37aVKFkrI8iqa30ij/WoG3Czm2K5u0x4+R/X4+BYFrWPOmFT8VdPzlY4o2NaGgYN+Zx/S1aew9mAVXmji2YzMlbQrSgWLin3+VorAW3H/+mNo6xfvbLW1OPj6bTNqbRWhfebFndPy0mc17ssj6tYV4gK+dFG0xezsKwwxNqXNQuyyNwrf92Z4/8g+6tiHj7MvdcAb3k9519c7u+1watRiDbRS2ev+udQcS43cM59fg/6ge/3rr1a9mbnk/n8KpWWS/aQU6UBr2s2WXY8DrSHGbKflV129lqKDQZkJptpC5tJA2/WLSHj6Go6yJ0Eej0E6TKCwx9dTFee92dZ0SwcFaWs4OY63+DVFwvJFPyfNp5FuSodP7jXWFW620ANqr5W2g5aNCttyfzZqdJWSp2mk4XsTmrhuXW97fQkFgNplv2tDgpqEsj9zSNuj03scRNV0Nn7ahnCqhJCaL7L2J+KHA17Xsf73Eez513S9y5p2b+z1Ew2uPhqHroVPBvKUI7XNZWI6o4UoLzkO5bC5tA/rGN7KC3Zx4fcVXpwD/rEHdXtsvSZCYGZeG6fwZSrrLPdh2nXXsf9vJqxlFlDwP7rM2CjZZaOoEqf/1NALq6YFoWsr73h8zTP4PR6G/OxT9G8dI61XOwmfTsDQPtVfveOso2lJEVmYWe0vUSJ3tNJ0sIu/thqvbav1lOr7ul1CeP0OTKpHpOih3DXgB33TTCVQ18fH5a2/an694hz4ve8V7WibmoUC0/rmUPNZ9AIW2D7IxveYYsn1HK97byT/ddddd/3e0CyEIgjCaJk6cONpF+PslGVizNw3l1RTyPx3jI4HqKLLfTKZlbcot/jrkW0/7dB6Fc8pZusbq8x4LaXYmRWsl8pO23NyvQ77Fhhtff7drvFdd9/Xkj3HLG0R9ksaqd0Z3geDIqIl5dS+LGzJJu8ay1P4ClxSRP7WYpNvq64FvbbwXL1688SKOMrFUTBAEQbh1FAeWA+0YTLHfyQ873ojAJxMJrbey/zZPWgBaSi18fE88iT5/kM6f2KcMuA9YbrtO/PDi6+/2jfeq67yepAcSib/nYyylt1PSAtBOucWGFGMa2Y9nqg2YHgebpfw2SlrgHy/ekROJiyAIgnBLNb2Xh1VtYtVjPr4ydLQFmch83M3enSUjGsEfs9odFO08g2FFMqFD/K6D9rFVmNRWCt8b2cjumDCM+Pq7rePtZcTX07hQklcYOLOzCMdt2KtVPi2i8KPppCwzMLy+vBrDshSmHy+k6BpfRT0W/aPFO1JiqZggCP/wxFIxQRAE4e+dWComCIIgCIIgCILwHRCJiyAIgiAIgiAIY55IXARBEARBEARBGPNE4iIIgiAIgiAIwpgnEhdBEARBEARBEMa8O0a7AIIgCKPt7+GbVgRBEATh752YcREEQRAEQRAEYcwTiYsgCIIgCIIgCGOeSFwEQRAEQRAEQRjzROIiCIIgCIIgCMKYJxIXQRAEQRAEQRDGPJG4CIIgCIIgCIIw5onERRAEQRAEQRCEMU8kLoIgCGOWhoifLiJE5f2/addJdv1UvjmHHh9GwuJwZEAyrOXQwbWESzfn0MIwTY5g9e/snLSuJkzV/aBE+PpDnPrkVM+/k/tZO3fwxpHnprC95CT2V6PpvYVsSGH7u3bsR+zYD+5hw4+Dep6XQkjatZ+tT+gGL9f4MNLN+9mwQHP9sUkhJOTswX7iJCdPlLP/9XTCBxxOYtGW8r6xfnKKU931ce8i1u46RPnJk5z88BC7sqLRqXr2lhdsYL85nbDxwyuS7omt7N+VRMjNOM9VOhZl7eJQ+UlOnixn/450Irrj+340q3ceovzESU7a97FxcQg+HEfaigAAIABJREFUX1IVQor5JCdfT7i63Q21X383oz17kRdsxP7JflY/2P1AGElb93vb2r6frUvCGPRdyke9yHNT2P5uOSdPnqT83a0kze59BInwzH3sy44Y/LgDS0hE9j72ZYb7rvdhGhAvQ193fXccul40D6ez3doV75E9bFjcq31HOd6xTiQugiAIY9X4H2B8NoYgPwA31nWLWVfiuSmHlkLjSF44AwlQnAUsSS3gT8pNObQwHJpFbCxIJ8DVSP8WleXvUVO4mNlzZnv/zVvMa1UDG0d6eC171txP89nWfk+Ek74+EfYtIWZhDMYN1cx6bh3Gyd6ng55ejemKmY2Hmgcv2+UadudVMCszg4jrzJODnl3H6pDPyVkcybyFGZTJJl5K6d+xUji8Jqonzjnz+MW7LuqP2anv1JCQtY6Ivxaw5NF5RKbupSN2HekLuo4wPoLVK0KoyNtNzeXhlan50EbMV0ysfibo+oLqRbd4A+sevkBBciTzHs+gVDKxNiUcCZlFazYQd7mIJbGRxL1YRdCKdSRPG/pYQc+sJu6fe50FN9p+/d2E9rxKjiB9eTg9J61EeFoOS/ysZMTOI/KXFqRnckid3b8L7aNexkewOicZv8MZxDwUQ8YhmSUvpV8dSJEeTGXVgnoK8isGXCuD81CRX0T9glVkPHiDXfkB8fq47vrwUS/jo3ku2whvLyPmoUieyW9mbuY6jN/v2nM0470NiMRFEARhSBIhizewp8Q78nnIvIGEaRKogjDttLMvrWvE8PsJbD2yn9VzJVDpiM7axSG7HfuRQ+zbktQzIvz9aFbvOoT9w3LsB/ewdqEO0JD0u5NsX3x1LM77909mkrR1HRGTI3iueDtJ0zQYN+1nU7wMSIQ9s5F9JXbsJXYOFfeMUAYt24d9azrpW/ewp/gQdutWTDP6fZhpEsjJNRI0K5U9v0vn4Xnp7Nmdzg+k7v1Xs/r1Peyz2jm0K4XoJ9ay/Xf72H/kENuXdMXsK07h2jpdFD+/hJzygZ1PebxEx5UL1z7GV6XkpK6j1NUvqfGbjE7TTKXDe2xPXSX1lycTpJNACsf0dAAVb5XiBqQZJjYWH/KO7NsPseu5aDSAcmoPluZIkoc7qt+PUmdl0+YCKr5SwFND6SfNTJo82fdOM5JJf7ieojdrUIAvj2zjle2HcV0G5WwpFY0yusmTAND9OJnI5gPsOaWAFM1G+x42pG1g1+/2cejIfjYsjiZp0y7vNVC8lmgNgJvStyqY/JTphmcXv/milG0bCzh8ToGLNRx2uJh072SQZhEeegl7cSmuywpux27MziAiFwyRLE1OYPVTHVj3f05H92MjaL/hXq832p5eEuHL0pn1yR7s3aenFEKEQeL4Pgv1l0E5a8VyQiJiQb9ZJl/1cl84s8ZXYSmuwdPpoWafmeNSOAtCJUAmOskIh8xUeECau5b9724kff129vzXIewHt5K0wMSGnXvYd9DO/k0JBKkATxnmIxCXFD3MWYthxgtDX3d9dvVRL6pmjr+Rw7b99Xg6FZqPHud0ZwA6DaMc7+1BJC6CIAhDmZHMhhUhVL5oJGZhHL+qmErGGhM6XFi27kGJX43xXpmIZSkElW9jd5WCZvFaNhiaec0UQ8yPfsEBvyXkLAsDZBZlriPi3GsYH43CuPlzwrPWkjDU6o3/08TejcXUeyrYmriCvWd7PfdAKuuWBVC2Oo6Y+DhW/EEmdX2qd3nNtwqyPoQL25ewJHExOdWzSHr6B307Ee4D5OysRKnbzZJ/K6Dqf/d67lsFeZaOzzcu4Zl/zaFqSirrHq4m59+eIXFTFfc/lcAPJHzEKQzLxXpqzg7W8ZGRx/kxOXYr++3llH/oTSZ6L5HqppytoebiIMe4XE31/+iIjPV2HjVzIwjprKGqXkGatYAIKjlarQASkc+mEnTiV8QtjCHGlEf9lAjCJwO4sZc3EhIVwfUsMGo+cYDDp7zjxdJ90ZiiJlHpqGLorp7MoqUJdLy3m7KL3tevPHSAyq8AJHSGZOKmNFJZ1QxoiIgKofGEHXf37qoQQrCS8W/P8It9HuKeS8ZvbwZLEn/BHsWI6TFvFEr1USqIYMGsG8tc3I4DHHB0J506IvQ66muqe+K72l4dKFcUdJN1gyzj0bAoMxm/97Zx4KteDw+7/Rj29Xqj7QkgPZBKuqGegv/VK847phKkcdN8vvsRBdd5NwFTpg5+EB/10lM/l/AoOnRTgPHhxOhbqTjq6ooXpClhyMfWs+Rfn2GHay4ZK4I4vGYJzyTvoNlgIq4rR3SVVdCqjyH8OgdUBo0XH9ddb77qxVPP4XcrcHUCkoawp+OYcbGSinOjG+/tQiQugiAIQ9AZIpnacIDiUx5Aof69UhpDIr3LLc5a2PQHP5J+vZXVc6soKKzAg0RkxCyabRYq3IDSjPVwNQFzIwkaN4vw2d9QaavEA3hObGPJT9ZT6vZdhsHLFc7U+jIspxVAwXW4jPrJcwm/t2uD+gpKzwEoNH/ZyoSJI+yq1B2n7Cugo5lmN3zuKMMbTjOt8iQ0vuIcpIMtjMyXn5ZR5bDwnDGG+F/uxbNgAxueHsFIeacLc54Vv2f3cfzDckq3ReB6YzdlHpBn3M+k8/V83tWf8lz8hklzE4gzBCFfLGPbypc5/GXXc/WNXJgSwv3X28dXhZBefJKT1o1EnN9NwXs+ljZNM5EYWoNlv6vv499PYtfJkxx63cildzZh/gyQ7idkygUa63stpOlspuq4d6am9ctmPH+tpvK0ArTyZbMH+a4J3u2Uz6k/P4n7Z9yscWkNEZm/JWmCla1vuUCpprLme8T8NI6g8RLygyYSDDKSn9+APeUFGaQGlLJtn6tntgVG1H7AMK5XrxtqT1UQyb+KpnnXNip6r19S+eGn6sDTa7neJaUDP8mPPhH7qpezlVRfnosxMQxZkglZlMiCyeAn+cF9IQThov58r0P9rYaKKg/QQeOXl/DUVfEnD3D5S5o9MnJAV4CuelwEEXLfTYx32Ptfu16kJ7Zy8qSdPUsncPS3u6m8zOjFexsRiYsgCMIQ5Aky0qx0LHY7drsduyWdEPyQAwAU6v9Qypf/MhfphJXjFwFkZFlmauIO7/Z2O6W/mguSzCRJZsJ4D55LPSNwHrfHxwj00DQTZDo8l3o6O5cv4VH8mNDVF+u43Ou5b0f+Ch0d3Xsr0NmB0tl9LLrK6yNOkbjcIDdl29fz8q4yXB4Fz2kLu20XCJkTNvwbbydGk/NqNI0bnyDy0Shi/h8L8rKNpD8IkwJkPBc9XeeHQuX2FWytmoRx/R7s9v1sX9EzIq9cuIBHDiDgjusMpbOegsR5zFuYyl5VEr99eehlLCFPxKGpKuV4/07iV3tZNm8eUclbubBoGxt/qoM7AgiQPVy40Pvc7qCj+89OoKOj37Xld3U7z0UPcsCk6wyqF5WORTm7WftABa/8e0HXvTYeDm/dROn4ZHaXlLJnhY76qmYuefoFJoeTvmwqZXlm6jv7HXfY7dcV0TWv165nb6A9g55eR9yF3Wy19Yuj8xIdnX7IvUb5J4zzo0Pp6JuM+aoXpYJtuWY6Fm2jpHQf62Y3UnW2A4+nA2lSABM8F2jtXUedvdr2W4Vvrsb/jbftr27XygXPBALuGnmmNmS8wzWMelEOPce8OVEszq1m1svbSJnBqMV7O7netyNBEIS/e61/86BUmTFmHBjkJkmZiKUmAk4cwB2VgcmyjL3nPFz4m4fGt1J5Zle/kWMpgkWXZeS7JLzdCRndDB180Qrfgl93h181gUEGZ/twX/LgN2MCMniXyoyfgCx5uHTxhkMeJh9xCjdIQ8jD/0LHqUpcXaO1EvTtoFyDFBJBGNW8dqwZBVA+K6XsfAZxszQc77/xZReHtz/H4e0gP2Bi47a1ZDgX8/KJG/mmBpmQhQkEuSwcPq2gfFWDdX8Vqevncr9URmX/Q6uCiJgbwOm9lT0dNCmI6Kdm0Xr4ADUXFTynD2M5kcquuWFIJfRacjRaNERkbSf9Lgu/yvTex3DVV2VsW17Gtq7tTDvi+NL5P32SCCl0ARH3BjHhP+yYACQZ2S8cu1lH+n8GDL/9vhMawqNC0IWuw/rhOgD8ZBkK7AS8loXrKw26qRJ84V1+GDRFxwVX48BBGR/1ojiKWPHTIu9246PZuL+Zz+sVCLwJxR9xT9dHvBvjWH9kGNdGR/PQ9TI5ApNBwb6/EnenB9dRC/afm4jUazB/OdKyDuLvvGcvZlwEQRCG4HYcpz4k7urN7RpDOltzvDdDSnNTWW2opmDjJjaVyCz5lQmdSqHSUc2kBUbCZQCZkJ9vZOPPQ5C6lkpEPBGJRgWyIZ3t/5nO3HEeLlzsIGCK9+swpWnRRN7XVQClA1QyE8b1LVezo5LGkGiMMyRAIujH0YR8UUnFSD70OqHDbwITrqsD6CPO6zmc0EM1iegVv2Xjigg0KpCmJbAkNoDqE95OfdACEwmzfS/9U5obccuziNB3zW/cG0nE1FYaXR7cf/MgT5S98w+qIEyv72HDQu99Bp4vXDR7vnf1OFJAALLnAhe+HWkQHQQYTKx7LpmwiYCkI3rRXKTzLpoVkB5YhGlhr3PFL4RZ93Z1VLt1ysxavJp1S731gCaCOEMAzedcKN9e4IJHZkLA9ZxtfsgTZTx/8/WNUNcmL3yOtWEVrF/XL2lBImL9fvZlRSCrQLMgA9O0KqxHvWtCu9tPcbzGEw9HEfWo91/Mlgo8JzYRk1zAp18Ms/1G6Prb041leRTzorrKG5OBxeXCkh7D+tL/D/sJhchEEyHjQXrARHLEJSrKavrE67NeVGGk/9d+Ni7UISETvjSZ8POllH0BSquHS3LA9c3kqiYRIF/C0zrSJNxHvNdIWq7G21kzdL2ogojLfImMWO91Jz+4iMggb/uOTry3l7/zvEwQBOEGnDWzqVDHum2lJKqAK42Ubi/GpQojPXMBrjeWUHZRgTfzsP/XRlY/Yee5/a+xdeoGXnrXzvfugG++PE7BS40oKBzO38T9OauwfrgBLrso25rDAbeC9K4ZY/Y2ivXNXDh/nOqaDu9vt1yo4vjpVFb/fh+6dau5eofAZ7t5eVcOG7aVkgBwsZKCV3ZT3wnD/aJXpbqC6ozV7DkYwG9f67j2Dv24h4xTGA7px9s5nh3R9Q1tsOdkEsoXe0k1bWP3KwXoXsih9CMZLjdTuX89OX9wAxKzfryaZNfnHDjlISKnlK1PaJBUAL/l5EIF95H1xL1oIWfrVHLWW7FLAJf4fP9r7Dih4On8nNanvPc5VCou7O9UEvGrPdh/BQrf0Hx0K+sdXQsCQ6YS0FzW936KYVGo2P4K5vVr2VaSikwHrafL2PSKlWZANzeR1fPtVByp957TGh0TVB4u9L7fq7OGHa8UkLM2B2u5jF+nh8YTBWx6sx4UDfXnA4gOkeHUCG8Sk+4nZEorn791I18rLhERG41uhsSe8qSeqF17SU3cRuXbZuJey8FeLtPhrsaSu47Dbu9+Pe3no9xfDLf9Rlbq629P32p25bAnJ4cdtgzkK81UvLGeHZ9C33hrfNRLDcVvVrLtuX0cz4bW06Vs3bDXe/P6uc9xqZIJmQJlZ30WY6ApIQSpXBw/dzOjlXxcd8f7tO/Q9dLVvpn7OJ7jB1eaqdj3CgUOBcaPtXjHnn+66667/u9oF0IQBEEQhO+AFMEG62o6XkzktVO+erAaTDssRDuWsOytYf5eyHdI9/Nd7DGUYcqwMJLURZq7luIcP14zvjzijv+YMOz2629st+fQZBZttZJ4OpUlI1yWGrRsH7unmTGuOTzM30MZC/7R4h05sVRMEARBEP5RKBWY3/EQ8fM4n1+LKz24hIQpxzH/YWx2cpv/YOb4lASWjOgH9zTEJUZw4R3z7Zm0wLDbr7+x3p5D81D2VinSouSR/XimHEHyE1C6t+w268T/o8U7ciJxEQRBEIR/IK59m7DIyawf6scIx4eR+nwE9fk7ru+rYL8Lngp25NcT8XzqsH/4VPfEepJlC9v23d5fKHHN9uvvdmhPH5RTO8g7FkL6iohh/riiTMSKdEKO5rHj09svQ/1Hi3ekxFIxQRAEQRAEQRDGPDHjIgiCIAiCIAjCmCcSF0EQBEEQBEEQxjyRuAiCIAiCIAiCMOaJxEUQBEEQBEEQhDFPJC6CIAiCIAiCIIx5d4x2AQRBEEbbxIkTR7sIgiAIgnBLXbx4cbSLcMPEjIsgCIIgCIIgCGOeSFwEQRAEQRAEQRjzROIiCIIgCIIgCMKYJxIXQRAEQRAEQRDGPJG4CIIgCIIgCIIw5onERRAEQRAEQRCEMU8kLoIgCIIgCIIgjHkicREEQRgVWkz5ZjLnSAOfuttA2g4rtr1phKq6H5TQryzm2FEzKdP6bT8liaKjxyheqWeQo40aaXYmxW9noh9RoST0y4soet6Aeri7qOPJtWQTM24kLxNIzOoiSmyFJOmGLkvwk2so/L0Nm82G9c1cTA+qYVwoKTvNrIn0H8EL9qPSErMyj+ISGzZbCeYtKRgGHE4i5uUSjh091vdf93lxdxRpW81YrVasvzeTlxGFVtWztzpyDeadKYQOUS/ax3Ix55sIvuknzTXK3d+g5zugiyEzv5gSmw3bwWLyVo6V+PDRfhL61cV947aZyZztoxCqYJJ22rBtih94/d4dz+aDNgqf0fY8JgVjyjeT+5i2/9ZeN+P8HMyQ14wa/ZLNmA/asB2xUrQ2nsAhwlXPTmKzxYb1haieWGekUGTrd64cs7E5rnuLa70nqDE8X0TR8pv8/jdUvEOdr4MfBH2GGZt1DYbuwo0LxfRyEdYjNmwHzeQ+Hdqr3KMU621EJC6CIAij4U49em0Dzjql7+P+MWT/JgVN0znaB9mt7WuZqNjQPo8Fxs5H0z7Y1v1c80P2BtykY0sPJJMWeYainY5B4x90n9mhBDfV4rwyzB1UgRhfzWUxZ2jq9LHdNBNZv5xO7W9MxC80sfkTLSkrEglU6jAXOpi5PAXDsLOrvrRPrmHVvDaKlscT+5M12CQjmUn9OyMK9g3xzF8wv+tfLKv+0ETDR8do6FQTtWwVUa1FLDUaMS4roiVyFWmPdBVonIG0ZdNxFJqpG6JeWj7Iw3LFSNpTgdcXxJB8lbvfpkOe7/7Er1yFobWItB/FEr/SgvLIKlIipTEQn+/2U6v9qPtdck/8scnkn1KGPFbgU2nEThrsbPcnZrmJ6Z199w1MSMN4xULeBy2DH/DKjZ+fA/i4ZtSPrGJNjBvz8nhif7YZ5z1G4gdJ1KR5mRSunE5Lo7vvE6eLSImd31NfSfk4mp2UV3njvvZ7QjuOnWbORKaR8sBN6s4PFe813p/785Zdpv3qMST0y7IwqkrINMZiXGtD/Xg8Uf69t/+OY73NiMRFEARhKGo9SZvMWH9vxWq1Yt6UhP5OuDoSb7Fi/b2V4p1riA/q+hBRBRLzfCHF1hJKrGY2LzMw2LinNFtPYKNzYGe7s4n9L6Wx+cRgnRIFT10tzJtPaPdnliqY2HkSZ+rcDNY1ClxahPXVTLLftGLO0COptEStzKPYasX6+2KKXjb1jFhPiiItvxjrwRKsbxeSGd01ots9sv/7Yqy/L6ZwZQxaVdeMypvZZG4qpmRHCsEqf6JWFmI9aKX4zUIyH9b0xDvNSPYbxV11WUxeRtQg9aImyhQPf7TgUAyssZhJm9H1zJObsdnyMPr3imutAQmJmfqZtNU4aUMi9KlsiixWrBYrxW90zZAM4OHM3iwyd9bhGeTZnupuoOT1PMwn21A623Acc9LiryVQBcqnxVhbfojp8SFGva+h4892CrcVYT+vwNd12D9pQqO7xrGmmUiZ14D57ToUlYZArZqmGgdtAG0O6hrVaO/x1rk2zsQPW0oo/lQB/DEsz8PcdR5b38jFOEMC2rC940D7pHGEs2Ij1Lvc/Z/zcb632AvZsstO0xVQXDYcTWq02rERn6/2k8dJdFxxX+MIXe6OJ+1JhZL3zwyoG3VkCsmacop7Jz2SHmOCBsc7NtoY+rq60fNzoKGuGTWGGD0t7xdhb1agzUFhRgqFJwd5N/qrjc0rc7GdHzqJAzVRS03IpYWUtHb93f2e0M7Q78nt5VjKINYUNfyZ2uuJ1+f7cz+qYExpUTS9U8LVrSU9MQ8p2N+00nQF2j/by6qlW7C3jWastxeRuAiCIAxBHWMicVwJaSYjRlMa5taZGELV3pH41Ok4X03C+BMT2Y77SFlpRKsCbUIm6VOd5P4snvhlZpTHskh5qH+vSWKmPpi2GufAUbWvG6hz+fhg/4sDR6eB2O7MJWg+BsmJ4y9DbP8tqEMDOfOqieTXnaifzCRrTgv5S40Yf7aKEimRrGdDATUxy1dhOJ9P0o/iSXr9DPqVmcT7q4nJ6BrZ/0kixqX5nJmzisw4f/gWuDsUzUerMC4voiksmbRHPBQtM5K4NBfnpJloVN54DT9LJvBkNqafGDEuLaRBZ0B/d7+yjtMzP8yNo7wJlFqcDTLBM/0BCX2olpZmmeBQCVCjn6GhtqYWRaVFHwq1ziaYkcyqJf4ce8GE0WQiq1RN8nPJA5dzdLZR92nLoIleH+cdWD+ou9pGwfqZyI211CoAbRz76BzTHxo8Mb2Wtk9KKPmkuzujxRCmpaGu1keZ1MQkxdPxvpnyr4HOFurqWgh8KJZACaS7ozAEtuB0tgD+GB6azrmTx7xJzZR4Uh5rx7zMiNFoYk2pgsEwEwlQ6spxYCAq9FZlLv3K3d+Q53sbzg9KcLYCSGjnJBJ7T9OYiW/o9lOjHiehfTQXs7WEkoPFA5bw9fDOqEjvd3fSe1EbSFk6nfLCYlp6jfhLoVEYcFJep+D7urqx83OAoa4ZlZbp93TQPjGZvDe7kqeugY3+FFcddV9f46qbkUhyiBPze03ev3u/J+DjPRloOubAHTYf/UiWjA5lqHiv9f7cS2BCGrFuMwWOjp4H/QO5b5wbaf7mrgGWQtYkBHtnWkcr1tuMSFwEQRCGoFxsR7nHQPwjoWhVLdi3ZVH4UTvauT8ksLGE/Z+2AwoN79s4F2zAoJbQz5mO22HzLl9ptZO7NIn8/qOPqkD0/3979x8VxZkmevy7p3OK6OkyxsabwZ5IcEU7kcGVI8isDdkI7AgkEzEzwdkJOHeD7o7oXdSMgDuMJMxodCOYVchdZPYGyK52sqGdCaC7NElE3AB6YSU6EvGCmCWuo03U6hNDneHs/aMb+dVN1PijNc/nHP6gqC7ep+qt6vd537eqLLqnEXaDBs5Q9+860U+5G2ahCdHQXOd7ytOADj0N1J12N3S+uyCMcx/aaeoD9HPUOI5jmvddgieEERHeT+sH7mTK1VzCqp8UUOeK4Ltz+mn6V0/P/uVWGo5qzJrnaRjqnRx0uL/gg8LDMHU1cfC/gIFzNHzQem2KhOtyP6Z5ySTMD8Z4uYGS3G04Ridb02cRTA+negFctLaf4TFLGIohlLAZ56hzOJkVFgpKBGHBZzh+xAVTopljPE7raQiKjCC4swH7aR3Q6XE0cOpbEUT4vIfl+gX92QbykjQq3rC79wPgOtWD89uhzPpabeIpRP+0gFS1huK3e3yvFpLCUssJ7O8NrqPTWllC07ezKLPXYK/MJritzD0Cocwi9NtOek55Uq6rLpyGUJ5MiiV0KnS+W0B2eau7UaafovM/TcwKvU19t2PKfYOmplJUV8feLclo+4rY+wn+FZ+X43fudw20HrGTl5ZC6jobrphsNiwZO/LhHlGpo+TdnlENZIWIn2QQdrSEit+N/IsxdBam/+zklGfxeOfVramfX8GgYpxgImzmOUpWp5D60xLOzV9L1jM3ky4Zif1BPNTbaBociR5xTfB9TQbg7Cl6CGbW9FsR2Nf0rWRWLdGxveG4dr0AwKiiTAgjzGBjw1+k8OLfHWfWX2aTOpN7N9Y7TBIXIYTwQf+wiJ+X9xCcmkeZ3U7Zy6lEPARG1YgyJ4Nf2wenpmQwiwCMU4wYVQXNNTS5QL/sQh+dVEyNIMJ4itbumytXz/sHcS2IJ8I4h4QF0FTXSf846+tXNc+ogRGjaiR46TZ3ue12bKsjQDFiUoyoE1y4tMGGko6rz4VuUDGOWu50uTBOUN2/XtWuJSfGiQq6SxtqhLk0T7l0WkuzKW4zkbyuBLuPKXSKaQqqy4nTs72+1hM4Z4QR+q0wQgc6aTrSCTPDCJoZRvDlE7T2gTEyjKDOVo7rMEU1jvz/VzVcuoL6tdqsCqFLCihaacL+izzsw46Z3ufEZTR5RpVugiGI+JwdZM1uYltOmc97NQBCFycwpa3OPYUEgCBS/jabsOZsUr+fTPIPsmmYsZa854PBYMJkdOHs8+yJC3a2vmJHC09nW2UN9jc2eKZSAehol10YTSYv//XrG1vuG3TBxtqEBJJ/Wowz/pfkLQnyn/i8Hr8+GkoL2FbeQI9Lx3XaTsWHTmbNmzPy/iVjBBk/eYyGEtuY+36U2elkzDtO2ZutY3r8TSYjrsuDdXz88+pr18/rpA/oHP9XO50u0P+rAfshJ7PCw2785vGHniRhfh91B4aS3NHXBF/XZAAGnDhdKlMm3+17P6YQv9Izkja6c0bvB05R9y+t9A1A39G91J0NJiLMeI/Geuc9cLcLIIQQ/svFifd2kPceMCWCjFcKWJXayoZLLvQ2G2kbakZN9VJI1nTUySp4+tmM00MxuXro6RtqghgjI5jSWeeZcnTj9LMNHOzbSuwzOmF6E3ndjD/X+VrDyIXzkouet7PIKB/VA65EE3/ViHGyAuiAkaCZQXBBwzViuYLJaMTlGnt3iOsLHWVCAINr8pAJFc9c/6s9OErzcJSCcXYKeb/KIuNYOtu8zYUfdLaV40oaYdFBmLpq6OmGU6YEoiOmoHRU0jOgED0vlHPtRbiAPs2FMlPFiGfvT1AxKi40b1OUrlNQUh4FS3TKfpbQebf7AAAb+klEQVSHo/fmtzPWFKL/ZisZD9nJy7XTOd6DBQzBRM8z0Wkb1pCdMIeIOU6aSt0NIC63cvCok5TwUJT3GPOwhL6jNrYdtYESRPRPC8j7aQpNWTZuYszv+nkr9/VSgol9Jgyno4YTl3Vcpx3Ym9PZMW8Oyr/iB/H5On5TCF3wGHp7Kz2eZQoMOwc9yyyxRJuDUV+1kwKgGDEqEdjfCKLo/0YTag4i758T3OtOMKLElFERVEDh6HpyM+fVraSfoef3EDz52lnnPjbjPfTCB2VeBGF9rVT4mvYK+LomZ5R2Dq1ymxO1r6RE8N35QcyaX0LNC4BBwWiEApuJkrV1nLuqYnoIhg/FjOncAu6JWO8CGXERQggf5rxYRNHqCIwGoO8Mp36voRig78hHdIbGkzLT3ds1ZX4GBTnJBBt0Wo+eIigmxd0zNjWWtX+3jfQRDwFTiJgXTE/bTTTmBg304Gjo47vPP4nr8DjTxMbQaT16HFNsMhFGACOhz+eR93woin6c1hMBRH8vmikGMM7PYGthBhGGVj5qDyA63tOT+1AE8QsCOH5kbPnPdZzCaYnlSTOgBJP8VBiKAfcTeraUsCEuCAVw9fZwzhUwtnROF9rwHmL9OMc7g0hICuZcx3F0/Tidvw8l+akgOluPoythRFj6aD3ibgGcO9JKT2gsyTMVQCE4KZZZvePc/+PNlDkkPxdLsAEwp7BhuQn7ywVekxZlignjsB7SG2GMyyRrThMFr4xNWpTZ8aTEhQ71WCuhhJnPcapz2B7Xe+i5EETEwsH58aFEzwvCebYHfcCJ02VEneLegrIgi5JtacwxAvo5enqc6Ne6LRXUh4y4Ll3nzeQ3wlu5vcXnzYCRsGdWsTbNXR+ZEk3CfBPn/CQ+n8fPYOLJlQXkrXSXWwlJZtmfmTje7D5fgmNSSP7OFPSjO1i2OJnk77t/Uv6+CVfzDlJ+WoajLIOEa39LoeDDPk6UZ5Be2MT5Sy6MD6nuffcV59XXqZ/Xr4+mD0/x2DPpRE8FxRzPshgTp9qPj4j3egQ/Hgo9I5/iNfqa4OuaDHhG4jRczjuUtI1yLVbdQcH3E64d2+SVFZy4UEdeajb2M03UHTURnxZPsAJTFqSTML2T48dc91Ssd5OMuAghhA8nDtTQk7uBSnsADIDWVUPJG51woYeifwxi7a9sLDUAV89QV1rl/sJ9bwclodnkVdagoHFqfxEFh4Y/Fcjd2D7+Zp/X/6kkbaXmpWhPwwRK6lLRe21kvVg2Yr1zHxzkzAtP0vpBD9zApIy+93ZQHLyBDW/aCTBA/399RNmWHnR0HG8UMStnFZW/zYarPRzctZWaPhfsKmLW32bw639ZBeicqS9i27+54Dsjt60fraTswwIyS2vIuNzDRx+2ci5UgYEeDu5rJXp1CfbVoNPPuUPFFBwd9aV79hQ9hmXMMkNDN4BO64lzZP+ZysFj7rGt45/oZP3wHPY2HcwRhA0cp2gwMfmkgq3l2WT/ykYywOVWyrZVjH0ErzmVkjc972AwQHTlQTIGTlD24ioqjU+SuiIYahvQFsYS8a05RPz6IKsGPztwgpKfrMLWC8ZZwZjONVy73+D6KUQ/FUvQTIWSmtSh/XfWRtaLJfRFLGXVwoM01Xe6RwymBKEaNPqGV5mBTvZuqyAoqwDbMwFg6MfZXsHWf+4E3Unnf5qInWWEj/vQ22qoic8mr3IZAehw+ThVr3uedOS5X+TU2zc7l2sc3soNmIbF5/RZ30so21ZGdlY2lTVGlAEXPc1lFPlFfOMfv4ptZQStz8Z2wAhXz9FaXcDW2j5AISxpFalnT1Hzsffz/6s4O0/hfMZ930qrPv55dfP104vxzpn3tlEcnEfWm3WYcNJZX0TBmHhdROfYKPjzKZ7GdwF1cTp99QWk/qoBHYWgKSr9l0clmKOuCT6vyQDmWQQbevjo7O2L981Kjb/4iffr82PXdWxdNOzayqycLEp+m41ytYeGf9yK7Sww4S7Feo/5o4cffvi/73YhhBDibpo8efLdLoIAwEj8LytZ2pnFqtFT2fzOFFK2/ZrYo6tY+/ZtnXB1U4KeL6JkfgMvbrAzXjNKmZdFWY7CjrRttN5Dnbf3e3w+KdFsqFyF/ssMdnw8XkD+XT+v3/VfE4KXl7Fjxl7SNjmu+x1Q/uX2x3rp0qWvV0Q/IFPFhBBC+AkXDbY6lPjUW/fivNtEeWIZyd/+CFutfzYKz9Xa+OjbySwb9yV1U0h4LhrnPts916i/3+PzSW/Cts9FdGrCuI859vf6ef2u85pgjCb1e1Bna7hHkxb4ZsV68yRxEUII4Tf0j8so+fdZZKyM9t+Xq02YQ/qaaE69UXbzT8u63VxNlL1xiug16UMvGB0l6M/Xkmq0U/Kuv49ueXG/xzeOnneLsBtTWfvnPl4ueS/Uzxvw1dcEI9ErM5h1qISy393bGeo3KdabJVPFhBDfeDJVTAghxP1OpooJIYQQQgghxB0giYsQQgghhBDC70niIoQQQgghhPB7krgIIYQQQggh/J4kLkIIIYQQQgi/98DdLoAQQtxt98OTVoQQQoj7nYy4CCGEEEIIIfyeJC5CCCGEEEIIvyeJixBCCCGEEMLvSeIihBBCCCGE8HuSuAghhBBCCCH8niQuQgghhBBCCL8niYsQQgghhBDC70niIoQQd4WZtNIqcqKVsX+aZmXdPzpotq8j3DC4UCEqu5q2o1Vkzh61/mMZ7DnaRnV2FF62dtcokTlU/zaHKH8qlJ9QFm+noa2NtqODP82UrwwZu6LBTGJ2KdUNzTQ3N1C1KxOrafQ6FjIqmml+fcmI468u2kRVRSbhE72Xwfz0dqpK07DcruPjtR4P46Pc1zyaSE5pNQ3NzTR/UE1pdhxmA/BEJnuah++7Ntramtn5rGcrioW00iq2P232Xq6J4WRWVLFp0egdeTMUotZX0ezYhHUwCJOVzF1VNBxuprmhmvLsRHe5vVAjM9hZ04zjl3FD+8AQQubekfE1OzYTN7jCHY1vkIJl6SbKDzTT3NyM453tpM1TQbGyqaZ51LFow/FLq9dj6jXeweXvNNDc3EzD4LaH/e+orD3sybOijt6g+9NY8/awJ+sWX/+UEBI37qGhuZyMR4ctnxbHujeqcDgcOA5UUbo+zsvxVYjaWD1yvzRXkROp+G+89whJXIQQ4m6YHEmUuYMj7frI5aZENhdnEtjdheblY85Lk4hLDB+xLCQpjqmat7VH8dF4uiVu57bvQwETFQIOv8yC+fOYN38e8+YvYHlp95j1zEs3kbvwIsXpMSz43mpqlVRyMkY2WEJ+tI6k/zHq+E+0sm6Nhcai3bR/4b0MvdWbqbiayrofeUmYvq6vqMfgo9xDG2BJdi7W3xez/KkFxKyopD8hl8xFCvyumB8tGNxv85iX8iqNn7ZQ3+Q+l0KeX0fq1Qo2V/d63/QX7ewuamRu1mqs3luG1035zgrWLpqE9ofBJSpxL+WTMmBj5eIFxPxlJVeeWu8u9+jPLsyhfMPj9J6+MPIPBhU1oJvKFQuuxbggfiP1nkvFnYzvmtnpbMqycKwgiZg/TSK/aRqrX0onZKCRl5OHyjnvT39E2cfdHHr/GKOubL7jnWhlXX46AftXE/+n8ayuVln+i8xrHR7ufdxB8Y5GH3VJo3FHGR2L1rL6O7eoKW8IIbVwO8vooPsPw/+gErcml0Xni0mNjyf+x8X0LsplXcLYHa2qD9JesnRo3yxYyqtHdP+M9x4iiYsQQviiRpHxehWOAw4cDgdVr2cQNRmu9T7WOHAccFBdsYklMz1fIIYQEvPKqXY00OCoYucaK976PZXIKEJOt9AyulE50M3eny0nv8Fbo0TnyrFjsDCe8MHvK4OFpIUBnGy/OKahABCyag+O7TlsfsdB1UtRKAYzcdmlVDscOA5Us2db2lCP/CNxrCutxvFBA47flpOz2NOjO9jDeKAax4GhHmQlMofqdzaT83o1Df8nE4vBRFx2OY4PHFS/U05u7NSheGensnlvtWdfVlO6Ps7rfvmmmKROov+L/q9c78tPayncXMz+Mzpcamd/UzdTH502tMK0Jax7rh971UmGb838bDoxvfsob9MBE9asUqo89dixdzupTyiAk9q3Gpn2XOqtHxUbtx77Lvdwnx0o5JWd++n+AvTTtTR2qZinTR21lkrcqjQm7Stk33lAiSL1+UAa36rFie96p7eVY+uNId3XqMX1MFhIXxtH91t2hkd54fButhTZ6NBAP22n/rSK+dHR5QbO15K/Ipfa7tFn7iQCJvTTr3k5o+9kfMP1d7Bv2xZ2H3aiDzhpfP8IvSYzM0Z1WJifzSTx8wrK3vfS5PYV72NRzJ14BNvedrQBjfY9FRxSolg0RwFU4tJSoLqCRg3f12StnooDkJQW52OU4kZd4eSv17BixzGuDF9sCCTErNLddggngPMQx06rTJseOGYL6kSF/qsXx27aL+O9d0jiIoQQPqiL00ifYGd5cjzxScvZfX4u1rmqu/dxjYWWn6cQvziJlxpnsHpDKmYDmJ/PZX1oCxu/H0vsj3ejJ+ez+snRrUKFP4m04Gw9MrZH7VIH7ae9pSAenx2iccBK0lzPNmfGYVVaaPzMx/p/AHXuDE7+PImlW1tQl+awKbqXV1Pjif/+X7EvYDn5K8MBlcSsXKxnXiXlqVhStp4kKjuHJSaVxPWeHsbFTxO/7FVORueS86wJ/gBMC2fqwb8iPr2YrogVrE24wq4fx/P0so20PDKXqQZ3vDE/WUHI4ZdIWhxPfGoRHdOtRE3zUeZvAHWSAiHL2P1bBw0NDqpe9zIFDHA27WNf02Cz2Iw1wkxH+2BvtonErHQC3vU02q8xYY210HXY4W5cPZZC5tMau38cT3x8Eqt/04/V+icogH7sfRqxsmjuLc5cxq3Hvso9nJOW6n20nAdQMEenkzS9i5YjoxKhJ9LJmHOE3Xvdo1XK3EVYaeH9Yzrj1zsnjoYuLLHeOxauR8jz60i6uJvtjcNTL432ahv1Zzy/To4hKqSXkx9fGPN5/XQ77Ze87KMHVCZNVIlavwfHB8001JSzaWkIyh2Ob4Qzjdiq269dryyRc5l0+hj/Mbz4E61kpAWyv6wWr90uvuL1GKqBV9B0M+bpwMQo4iMu0Pi++/j6vCYD3fWNXIiIJ8rH1MgbMuCkva13bGfQQC/tx3oJiU0iRAFlWhwxIb0cGV0vUVEnBDAtYTtVjgYaPqgeM6XMr+K9h0jiIoQQPvRf0tCnx7AkIRzzA73s37yGwoMa5ugYZnTuY2+bBuh0vFtLlyUGq6oQGW3hQmOte3rO+f3kLkthS+Oorz/DDCLn9I9thF2PgS5qG/qxJrgbnpZEKxyuHTWdYZg/6NBVT+0nnoaOdS69dTYanYDei33/MQIjYwiZMJeoeV/SUteCBmiHC1n+g43UalHEzP2SxhpPD+OlFt5vusLjkZ6Gr/4JjgPuL3jzvLlM7Wyk/jNgoJf6uha0AXcxtEtfMjVyCUnRIaiX6in8m5fZ7yvZ+gboP3uMxjYHu/86ifiUddROSCX/pcRxek9NWLNeI22Sne1veRo1i1azIrCWwj3dI0ctlMexTL9IV4enmXlV46JhNvHPxmF5BDr2bGRNaYu7UaafpOPsVB6ffef6bX2W25tH0ihtbqb69RSuvL2Fit+N2BJxf5EIBypo9IxcqrMfZ+rZDk56Trnx6p3W0cXF6RYev5mcbdoS1j3fT8WO/e7zwmug4WRsWYuloZDiI+N0Roz2BycnD7fTUvMyKd+LYfnOLuZmbWbF7DsY3zjMCZvY/OwVdu+wjYjdlJxKTO8+9n58A7ECnG7h2BeRpCwLR1VULInLWDQNApQAeMxCCN10nHWv6uuaDEB3B92EYHnsVkTpi07LrwtpnJ7LXkcDDns+IUeKPSObI332cT1HmmysT4kn+a8r0RZtYtPz5nssXv8jiYsQQvig121hXWkXM9I2s6fOwZ5taURNBnWSijI3E5vDM/XGlomFANRAFVUNQNOGJhfolzT0gVEbfiSSKLWDI6dvrlxd/1aPtjCRKDWcpIXQuL+DL8dZv//qFU9PqYqqqsxYtstdboeD2pciQVGZqqhMmqihXRn8AtbRnBr6AyrqhJHLL2ga6kRPQ/eLK9fm96sTA+jXrgw1RrUrnnLptOxcw/YjU0nZWI5jnCl03xTdv3mVjZsrafxMR3e2U1FeD+FReB34MJhJzN9NzhONvPK/it1JsRpF5soZ1BdV0DG6fj0QSKCqcfGi55idt5Gfa+NKRAa7qg7hqNjkmSoG0I92SUMN9DKV6XYYr9zenK9k5YIFxKZv52JiIZt/OGzq0+Q4kqKd1L43dG/Q1EAV7ZLmqYPj1zv94kU0NZDAB240CBOJazwjRr6Sb5OVdcWbiTtTxIqtvu5V8EFvoSx3I8XVHWi6TveBXdhPzyAq0nSH4vNFwfLD7fzDmkBsP1uPbcT1y0xS4uOcPFDrO5HzRW+ksKCC/sRCamr3kDuviyOn+9G0fpSpgUzSLnLBU1d8XZMBGLjARW0SgQ/fzvs+zKT+Mp+5h9eQ9FQssd9bQ31oLlteGH2fmJP6nRt5ubSebk1H+8TG7rqLWOaHo9xT8fqfW1adhRDi/qPRXvUq66sAUxSZf/caa9OOsPpzDf1IBSmr941qkCgs0fpRH54Enq9v9TELgVoX3c6hHjk1OgpTR+3IaRY3QO+up965k7il/czVG1l/mvHnOV8bjdG4+LlG11sr+NHoG8EVK4lfqKgPK4AOqJhnm+G8hnZ1+HKFqaqK5uVhANoX/QRMDCDAsyaTpzIJzxSZL7rZv3M9+3eC+kQqmwtzWN26lJcP3+ROuKcpmJ6Iwqy10P6pJ/4HgIF+L/cpmbBm7yTzYRsvZdno8IwsKHMWYX00hEl/7yAVQFFRA6JwVJhZmdk75mEJzqZKXm6qBMWMde1rbM5KpXFlpdcpPbfTuOX+n8VDyYwSQtxzc7mwfx/tl3S0T/ZjO7yC0shwlHfcI3xKZBRzL7awe1jyMKYJdzvqnRJFTLQZS3Q5DS8ChgBUFbbXBlKYvgabFkVmUQ6Wxo2sLG2/saQFQA0hak4AJ5s6PJ99EB6A/oE7FJ8P5me38Nrz/RRnrmf/p6P+aLISM7OL+qYbjhYAramMNT8sc/8yMY7NVb2c7NAheMyaXq/JP9rZMbTK7WzZTgwnKvwCjTtbcA4Al1qob7pA6jwLylvdw85fE5aFf0x/Wwvdg+cswOAI9L0Srx+SERchhPAhfFUppeujUA2A8//Rcf4KAQZwNh2iw5JE6mx3M8IUncn2/CWEGHSONHVgfirV3Sv2SBy5xbtYMXf4VhWiIkPoPtLi9Wb66zLQzf56JzFp8WgHa+m+np5rAHRamo4xdVEKUSqAiuWFzWx+wYKiH6Ol/UGsT8dgMoAancnO/51JpKGFQ60PYl0c4+7JnRxF4sIHOdY0tvy9Jzq4MCeOuEcBJYSUhLkEGHA/oef1cjYtNqMA2qfd9GoP3mz094U/fi6HXXnphE8G1HBSl8XwZWsj/6GD8kQiqYstKIC6eD054Y1szB1KWgD0pld5emEssU+5f+K3NaId3kJ8ejEd/Re5qKlMCnTXT2VhDuW7MghXAb2X7q6L6NcaOwGok1W0z8feg3E7jFvuAQhZlMqSeSYYUJm7dB25L1oxGQCTlaToQHrPDDUOZ8yxQHcHXcPqv/NzDXWySgB8Zb1TAgNRtYtc9DXN0mcQ+9n41IJrMcT+eDft52tZn7QG22cKUWtySOwqYr2XpOVafOOZbCVj22vkLjajoGBOyCDlsQ4OfeS8M/F582gqm1YGYsvdODZpARSLhRmXuuj+fOTy64rXEE7mP1WxebEZBZWoF9OJOltL/aegX9C4ogZ67pXzfU12b2cqgeoVtAu3sTOkv5uu82ainnSfn0y0YJ1v5qKnXl6L1zCVuDWvsXmNu/4qM5ewPCGQY4db0O+leP3QNyxPE0KI69f+np2ul3+B3fEgDMCVTjuFOzrgfBdbSszkFtayzABc7aJ25153AvHuFgpn57PZ3oDCFTp+s4Xc94d9sSh/QuQcJ8f+wfuECuXZnRzK87wDwQDlzWnon1ayInXXiPV66xx0vRhPy79146Uf1idn1atsn7GJX7zj4MEH4MvPDlH8iy50dPbv2MLj+Wuxf7AJvuimfns++5wabN/C4wWZ2A6sBXS6Dmzh5WoN5o3ctt5URnHda6z/pwZWX+rmUF0LvZYAGOjG8XYL1pfKcbwEOl/S+/52NjZ9s75wh+i07HyFirwcCmtWoKLRdXgvr+xodN8rFLmMdU86aDzQRXhCHObZCuUNaUOf7q5kxbJC2n0lrPpJOs4GEmdRoc2JfmQf9sRNbLan8yA6fH6Mvdv2uUdblMexTL/AybdurqfcF9/1uJDRTwAf9inmPruO9O6T7GtrZ9crxeTn5GNvUAkY0Og6XMyWNzuurWsOnMSXl0YmXBc+OcmF59z3dbTo49c71TKDwN76a/eL3JrAo0iMDcEc+BoNTw8u1HFWrycpv2VYfBrW/Fq2P21CMQC8RvNiHeeBjST93MaWbWby1+zh0MsB9J8/Ru3mfCrPgPKtuxOf6ck4IqeFE7m3jXWDCwfaKfzBcio/BR4JRNWOXZvi5NkZ1xlvPXvfbKFw/R4O5cGFT2rZvqnSfT09c5JuQzqW6VB/epxrMsB0CyGGbg6d+frx8mga5f/ief+QAaz2NjIH2ilOXU7FK7sx57xG7dIH4YEvudC6m/w3Oxhdf3e/Uoz5b/Op/XcVvuilpWoj+b9xAk7/i/ce8kcPP/zwf9/tQgghhBDi1jG/UEp5dD2pq23j3nOgROawNz+AV1NepuV+yCMVK5vs6+j/+TJe9XLD9BATqbtsxDUtZ+Vbd3rC3Ndwv8c3hkridjvLPlnh9T1Hw4Ws3MPumRWkbNh/49Pz/MY3Ld4bJ1PFhBBCiPtM728qODR9CcvHfUGdiaRlVi6+XXF/JC0AeiMVb2tYX0ga9+EPyneWs2T6ISp+c4816u/3+MbQqH+rFiUxffyXaapW0p+G2sr6e7wR/02L98ZJ4iKEEELcb7RGdu3owPqzFUMvGB3F/PRG0lUbhXvG79m913Tv2YJNTWejr5cvTgxnxc+sdOzY5X7J3z3mfo9vNL1tF0UHLWSusfp4CImKdU0mlveL2HWjj2L2Q9+0eG+UTBUTQgghhBBC+D0ZcRFCCCGEEEL4PUlchBBCCCGEEH5PEhchhBBCCCGE35PERQghhBBCCOH3JHERQgghhBBC+D1JXIQQQgghhBB+TxIXIYQQQgghhN+TxEUIIYQQQgjh9yRxEUIIIYQQQvg9SVyEEEIIIYQQfk8SFyGEEEIIIYTfk8RFCCGEEEII4fckcRFCCCGEEEL4PUlchBBCCCGEEH5PEhchhBBCCCGE35PERQghhBBCCOH3JHERQgghhBBC+D1JXIQQQgghhBB+TxIXIYQQQgghhN+TxEUIIYQQQgjh9yRxEUIIIYQQQvg9SVyEEEIIIYQQfk8SFyGEEEIIIYTf+/+Xd1mtV60wJgAAAABJRU5ErkJggg==;" vertex="1" parent="1">
          <mxGeometry x="970" y="450" width="851.86" height="450" as="geometry" />
        </mxCell>
      </root>
    </mxGraphModel>
  </diagram>
</mxfile>
